<?xml version="1.0" encoding="utf-8"?>
<!-- Generator: Adobe Illustrator 28.0.0, SVG Export Plug-In . SVG Version: 6.00 Build 0)  -->
<svg version="1.1" xmlns="http://www.w3.org/2000/svg" xmlns:xlink="http://www.w3.org/1999/xlink" x="0px" y="0px"
	 viewBox="0 0 1002.53 1000" style="enable-background:new 0 0 1002.53 1000;" xml:space="preserve">
<style type="text/css">
	.st0{fill:none;stroke:#5B5D65;stroke-width:1.2645;stroke-linecap:round;stroke-linejoin:round;stroke-miterlimit:10;}
	.st1{fill:#FFFFFF;stroke:#5B5D65;stroke-width:1.2645;stroke-linecap:round;stroke-linejoin:round;stroke-miterlimit:10;}
	.st2{fill:#5B5D65;}
	.st3{opacity:0.8;}
	.st4{opacity:0.8;fill:none;stroke:#5B5D65;stroke-width:0.6322;stroke-linecap:round;stroke-linejoin:round;stroke-miterlimit:10;}
	.st5{fill:#5B5D65;stroke:#5B5D65;stroke-width:2.5289;stroke-linecap:round;stroke-linejoin:round;stroke-miterlimit:10;}
</style>
<g id="Цвет_помещений">
</g>
<g id="Окна_x2C__двери">
	<g>
		
			<rect x="622.29" y="940.26" transform="matrix(-1 -2.728428e-07 2.728428e-07 -1 1476.7892 1936.3879)" class="st0" width="232.2" height="55.86"/>
		<line class="st0" x1="854.5" y1="966.55" x2="622.29" y2="966.55"/>
		<line class="st0" x1="854.5" y1="953.41" x2="622.29" y2="953.41"/>
	</g>
	<g>
		
			<rect x="104.77" y="940.26" transform="matrix(-1 -2.728428e-07 2.728428e-07 -1 441.7394 1936.3878)" class="st0" width="232.2" height="55.86"/>
		<line class="st0" x1="336.97" y1="966.55" x2="104.77" y2="966.55"/>
		<line class="st0" x1="336.97" y1="953.41" x2="104.77" y2="953.41"/>
	</g>
	<path class="st0" d="M260.85,248.04l45.93,79.62c-11.96,7.32-27.78,11.66-41.18,11.47l-3.78,0.01"/>
	<path class="st0" d="M497.43,565.68l59.15,101.16c-15.59,9.54-36.2,15.19-53.67,14.95l-4.93,0.01"/>
	<path class="st0" d="M279.47,131.94c0.18-13.88,2.58-45.19,23.93-74.99c3.65-5.1,12.99-17.3,28.72-28.72
		c29.9-21.7,61.47-25.02,76.59-25.53c0,43.08,0,86.16,0,129.24"/>
</g>
<g id="Пунктиры">
</g>
<g id="Шахты">
	<g>
		<g>
			<rect x="179.27" y="423.34" class="st1" width="77.33" height="51.43"/>
			<path class="st1" d="M250.06,465v-31.9c0-1.76-1.44-3.2-3.2-3.2h-39.34c-1.76,0-3.2,1.44-3.2,3.2V465c0,1.76,1.44,3.2,3.2,3.2
				h39.34C248.62,468.2,250.06,466.76,250.06,465z"/>
			<path class="st1" d="M198.88,465v-31.9c0-1.76-1.44-3.2-3.2-3.2h-6.67c-1.76,0-3.2,1.44-3.2,3.2V465c0,1.76,1.44,3.2,3.2,3.2
				h6.67C197.44,468.2,198.88,466.76,198.88,465z"/>
		</g>
		<g>
			<rect x="75.47" y="423.34" class="st1" width="103.8" height="51.43"/>
			<path class="st1" d="M84.24,433.1l0,31.9c0,1.76,1.44,3.2,3.2,3.2h55c1.76,0,3.2-1.44,3.2-3.2l0-31.9c0-1.76-1.44-3.2-3.2-3.2
				h-55C85.68,429.9,84.24,431.34,84.24,433.1z"/>
			<path class="st1" d="M152.95,433.1l0,31.9c0,1.76,1.44,3.2,3.2,3.2l11.15,0c1.76,0,3.2-1.44,3.2-3.2l0-31.9
				c0-1.76-1.44-3.2-3.2-3.2l-11.15,0C154.39,429.9,152.95,431.34,152.95,433.1z"/>
		</g>
	</g>
</g>
<g id="Перегородки">
	<rect x="408.71" y="118.8" class="st2" width="84.34" height="26.29"/>
	<rect x="518.24" y="447.38" class="st2" width="427.16" height="27.38"/>
	<rect x="415.28" y="464.91" class="st2" width="77.77" height="9.86"/>
	<rect x="493.11" y="475.09" class="st2" width="10.35" height="90.59"/>
	<rect x="493.05" y="681.78" class="st2" width="9.86" height="258.49"/>
	<polygon class="st2" points="26.46,119.34 279.47,119.34 279.47,145.08 266.32,145.08 266.32,248.04 256.47,248.04 256.47,145.08 
		26.46,145.08 	"/>
	<path class="st2" d="M75.74,474.77H26.46v297.92H1.26V313.76h25.19v109.53h49.29v9.86l-49.29,0v31.76h49.29V474.77z M256.47,474.77
		V338.95h9.86v135.82H256.47z"/>
	<rect x="493.05" y="118.8" class="st2" width="25.19" height="162.73"/>
</g>
<g id="Сантехника">
	<g class="st3">
		
			<rect x="26.46" y="723.88" transform="matrix(6.123234e-17 -1 1 6.123234e-17 -697.421 827.1384)" class="st4" width="76.81" height="76.81"/>
		<g>
			<circle class="st4" cx="47" cy="741.99" r="13.44"/>
		</g>
		<g>
			<circle class="st4" cx="79.76" cy="784.49" r="11.52"/>
		</g>
		<g>
			<circle class="st4" cx="47" cy="784.49" r="8.96"/>
		</g>
		<g>
			<circle class="st4" cx="79.76" cy="741.99" r="8.96"/>
		</g>
		<circle class="st4" cx="97.32" cy="764.59" r="0.86"/>
		<circle class="st4" cx="97.32" cy="759.79" r="0.86"/>
		<circle class="st4" cx="92.53" cy="759.79" r="0.86"/>
		<circle class="st4" cx="92.53" cy="764.59" r="0.86"/>
	</g>
	<g class="st3">
		
			<rect x="26.46" y="550.82" transform="matrix(9.215389e-07 -1 1 9.215389e-07 -524.3651 654.082)" class="st4" width="76.81" height="76.81"/>
		<ellipse class="st4" cx="57.8" cy="589.18" rx="5.76" ry="5.76"/>
		<circle class="st4" cx="37.98" cy="589.18" r="2.24"/>
		<circle class="st4" cx="37.98" cy="566.9" r="2.24"/>
		<path class="st4" d="M96.86,557.86l0,62.73c0,0.35-0.29,0.64-0.64,0.64l-62.73,0c-0.35,0-0.64-0.29-0.64-0.64l0-62.73
			c0-0.35,0.29-0.64,0.64-0.64h62.72C96.57,557.22,96.86,557.51,96.86,557.86z"/>
		<path class="st4" d="M93.65,561.03l0,56.32c0,0.35-0.29,0.64-0.64,0.64l-49.92,0c-0.35,0-0.64-0.29-0.64-0.64l0-56.32
			c0-0.35,0.29-0.64,0.64-0.64l49.92,0C93.37,560.39,93.65,560.68,93.65,561.03z"/>
	</g>
	<g class="st3">
		<line class="st4" x1="37.45" y1="189.85" x2="37.45" y2="199.2"/>
		<path class="st4" d="M37.45,203.34v19.31c0,2.64,2.31,4.77,5.15,4.77h149.45c10.2,0,20.04-3.52,27.59-9.86
			c17.92-15.07,17.92-41.15,0-56.22c-7.55-6.35-17.39-9.87-27.59-9.87H42.6c-2.84,0-5.15,2.14-5.15,4.78v22.62"/>
		<rect x="26.46" y="144.64" class="st4" width="217.62" height="89.61"/>
		<path class="st4" d="M70.81,189.45c0,2.53-2.05,4.58-4.58,4.58c-2.53,0-4.58-2.05-4.58-4.58c0-2.53,2.05-4.59,4.58-4.59
			C68.76,184.86,70.81,186.91,70.81,189.45z"/>
		<path class="st4" d="M26.46,199.2v4.14h6.75h0.46h10.66c0,0,2.19-0.08,2.19-2.07s-2.19-2.07-2.19-2.07H33.66H33.2h-2.49"/>
		<path class="st4" d="M32.26,181.99l-1.34-0.11c-2.13-0.17-4.15,1.43-4.43,3.78c-0.02,0.16-0.03,0.31-0.03,0.47
			c0,0.16,0.01,0.32,0.03,0.47c0.28,2.35,2.29,3.95,4.43,3.78l23.14-1.91c0.74,0,1.33-0.66,1.33-1.48v-1.74
			c0-0.82-0.6-1.47-1.33-1.47l-11.72-0.97"/>
		<path class="st4" d="M43.09,178.46l0.41,0.68c0.72,1.21,0.33,2.79-0.88,3.51l-9.28,5.6c-1.21,0.73-2.79,0.33-3.52-0.87l-0.41-0.69
			c-0.73-1.2-0.33-2.78,0.87-3.51l9.29-5.59C40.78,176.86,42.36,177.25,43.09,178.46z"/>
		<path class="st4" d="M32.07,182.11c-0.18-3.27-0.51-7.51-1.09-8.64c-0.81-1.58-3.06-0.88-3.06-0.88h-1.44v27.1h1.44
			c0,0,2.25,0.7,3.06-0.89c0.57-1.12,0.9-5.26,1.08-8.51"/>
		<path class="st4" d="M37.45,205.13c1.35,2.42,3.94,4.05,6.91,4.05c4.37,0,7.92-3.54,7.92-7.91c0-4.37-3.54-7.91-7.92-7.91
			c-2.97,0-5.56,1.63-6.91,4.05"/>
	</g>
	<g class="st3">
		<ellipse class="st4" cx="39.22" cy="382.21" rx="2.1" ry="2.11"/>
		<line class="st4" x1="39.22" y1="385.9" x2="39.22" y2="384.32"/>
		<line class="st4" x1="39.22" y1="380.11" x2="39.22" y2="378.53"/>
		<line class="st4" x1="42.89" y1="382.21" x2="41.32" y2="382.21"/>
		<line class="st4" x1="37.12" y1="382.21" x2="35.54" y2="382.21"/>
		<line class="st4" x1="56.27" y1="393.94" x2="56.27" y2="393.1"/>
		<line class="st4" x1="56.27" y1="390.82" x2="56.27" y2="389.97"/>
		<line class="st4" x1="58.26" y1="391.96" x2="57.41" y2="391.96"/>
		<line class="st4" x1="55.14" y1="391.96" x2="54.29" y2="391.96"/>
		<ellipse class="st4" cx="56.27" cy="391.96" rx="1.13" ry="1.14"/>
		<ellipse class="st4" cx="56.27" cy="372.47" rx="1.13" ry="1.14"/>
		<line class="st4" x1="56.27" y1="374.46" x2="56.27" y2="373.61"/>
		<line class="st4" x1="56.27" y1="371.33" x2="56.27" y2="370.48"/>
		<line class="st4" x1="58.26" y1="372.47" x2="57.41" y2="372.47"/>
		<line class="st4" x1="55.14" y1="372.47" x2="54.29" y2="372.47"/>
		<path class="st4" d="M74.44,361.63c-0.88,0.06-1.6,0.13-2.07,0.17c-8.65,1.54-14.43,3.4-23.07,4.93c0.54,4.65,0.89,9.84,0.9,15.48
			c0,5.66-0.36,10.87-0.9,15.54c8.65,1.54,14.43,3.34,23.07,4.88c0.47,0.05,1.2,0.12,2.07,0.17c5.18,0.34,13.91,0.91,21.79-3.35
			c1.27-0.69,3.83-2.1,6.28-4.8c1.46-1.62,5.24-5.92,5.24-12.28c0-0.05,0-0.1-0.01-0.15c0-0.05,0.01-0.1,0.01-0.15
			c0-6.36-3.78-10.66-5.24-12.28c-2.45-2.7-5.01-4.11-6.28-4.8C88.35,360.71,79.62,361.29,74.44,361.63z"/>
		<path class="st4" d="M75.88,364.99c-2.6,0.36-5.51,0.8-8.49,2.85c-3.68,2.52-5.18,5.91-5.65,7.01c-1.28,3.01-1.28,5.57-1.28,7.36
			c0,1.79,0,4.35,1.28,7.36c0.47,1.1,1.97,4.49,5.65,7.01c2.99,2.04,5.89,2.48,8.49,2.85c3.31,0.46,11.98,1.67,19.77-3.42
			c1.94-1.27,6.04-3.98,7.73-9.2c0.35-1.08,1.43-4.82,0-9.21c-1.69-5.21-5.79-7.93-7.73-9.19
			C87.86,363.32,79.19,364.53,75.88,364.99z"/>
		<path class="st4" d="M67.74,371.53c-3.97,4.04-3.96,9.3-3.95,10.68c-0.01,1.38-0.02,6.64,3.95,10.68
			c3.51,3.57,8.34,4.35,12.16,4.32c2.37-0.02,4.18-0.21,5.65-0.47c3.64-0.64,7.29-1.29,10.43-3.95c2.48-2.11,5.09-5.85,5.04-10.62
			c-0.06-5.64-3.79-9.27-5.09-10.4c-3.26-2.81-7.06-3.5-10.38-4.11c-1.34-0.24-3.21-0.45-5.65-0.47
			C76.07,367.19,71.25,367.96,67.74,371.53z"/>
		<path class="st4" d="M69.82,376.89c-0.62,0.22-1.64,0.66-2.57,1.57c-0.52,0.51-0.87,1.02-1.11,1.43c0,0.01,0,0.02,0,0.02
			c0,2.15,0,2.48,0,4.61c0,0.01,0,0.02,0,0.02c0.23,0.41,0.59,0.92,1.11,1.43c0.93,0.91,1.95,1.35,2.57,1.57
			c2.86,0.08,5.72,0.15,8.59,0.23c0.39-0.02,1.83-0.15,3.02-1.26c0.93-0.86,1.2-1.85,1.29-2.25c0-1.36,0-2.72,0-4.09
			c-0.09-0.4-0.36-1.39-1.29-2.25c-1.19-1.11-2.64-1.23-3.02-1.26C75.54,376.74,72.68,376.81,69.82,376.89z"/>
		<path class="st4" d="M73.2,376.79c0.51,0.65,1.88,2.58,1.9,5.36c0.02,2.86-1.4,4.85-1.9,5.49"/>
		<path class="st4" d="M26.46,360.24v43.94c0,0.59,0.51,1.07,1.15,1.07c0,0,10.64,0,11.78,0c0.62-0.13,1.43-0.35,2.34-0.71
			c0.91-0.36,1.92-0.85,2.95-1.55c1.35-0.92,2.36-1.94,3.1-2.88c0.74-0.94,1.22-1.79,1.52-2.37c0.27-2.33,0.49-4.8,0.65-7.39
			c0.16-2.59,0.25-5.31,0.24-8.14c0-2.82-0.09-5.53-0.25-8.11s-0.38-5.04-0.65-7.37c-0.22-0.51-0.58-1.28-1.18-2.15
			c-0.6-0.87-1.42-1.83-2.56-2.72c-1.22-0.97-2.48-1.59-3.57-2c-1.09-0.41-2.02-0.6-2.61-0.69c-1.3,0-11.78,0-11.78,0
			C26.97,359.17,26.46,359.65,26.46,360.24z"/>
	</g>
	<g class="st3">
		<path class="st4" d="M49.39,299.11c1.62,0,2.92,1.32,2.92,2.94c0,1.62-1.31,2.93-2.92,2.93c-1.62,0-2.93-1.31-2.93-2.93
			C46.47,300.42,47.78,299.11,49.39,299.11z"/>
		<line class="st4" x1="49.39" y1="306.31" x2="49.39" y2="297.77"/>
		<line class="st4" x1="53.66" y1="302.04" x2="45.12" y2="302.04"/>
		<path class="st4" d="M35.36,299.94c1.16,0,2.1,0.94,2.1,2.1c0,1.16-0.94,2.1-2.1,2.1c-1.16,0-2.1-0.94-2.1-2.1
			C33.26,300.88,34.2,299.94,35.36,299.94z"/>
		<line class="st4" x1="35.36" y1="305.39" x2="35.36" y2="298.68"/>
		<line class="st4" x1="38.71" y1="302.04" x2="32" y2="302.04"/>
		<path class="st4" d="M48.16,270.39c-1.51-0.11-3.37-0.18-5.51-0.1c-0.84,0.03-2.43,0.11-4.44,0.36c-1.65,0.21-3.71,0.55-6.04,1.13
			c-1.89,0.63-3.78,1.26-5.67,1.89c0,0,0,0.01,0,0.02c0,0.8,0,56.91,0,57.14c0,0,0,0.02,0,0.02c1.89,0.63,3.78,1.26,5.67,1.89
			c2.34,0.58,4.39,0.92,6.04,1.13c2,0.25,3.6,0.33,4.44,0.36c2.14,0.08,4.01,0.01,5.51-0.1c2.09-0.04,15.48-0.54,24.22-11.38
			c6.47-8.03,6.61-17.02,6.61-20.48c0-3.46-0.13-12.45-6.61-20.48C63.63,270.93,50.25,270.44,48.16,270.39z"/>
		<path class="st4" d="M51.43,279.15c-0.73-0.06-1.72-0.13-2.91,0.22c-0.06,0.02-0.11,0.04-0.16,0.05c0,0-1.03,0.35-1.97,1.14
			c-4.87,4.12-4.87,21.49-4.87,21.49v0c0,9.54,0.52,17.57,4.87,21.17c0,0,0,0,0,0c0,0,0,0,0,0c0.96,0.84,1.82,1.1,1.96,1.14
			c0,0,0,0,0,0c1.29,0.44,2.87,0.29,3.07,0.27c1.49-0.1,2.24-0.15,3.31-0.37c6.14-1.24,9.96-3.81,9.96-3.81
			c2.85-1.92,4.57-4,5.45-5.09c0.71-0.87,1.78-2.21,2.77-4.15c2.16-4.24,2.26-8.13,2.27-9.17c0.03-4.59-1.54-7.96-2.27-9.48
			c0,0,0,0,0,0c-0.61-1.12-1.5-2.58-2.77-4.15c-0.87-1.07-2.6-3.17-5.45-5.09c0,0-3.86-2.59-9.96-3.81
			C54.07,279.38,53.19,279.3,51.43,279.15z"/>
	</g>
</g>
<g id="Несущие">
	<rect x="1.26" y="171.37" class="st5" width="9.86" height="141.84"/>
	<polygon class="st5" points="847.92,996.12 1001.26,996.12 1001.26,446.29 945.4,446.29 945.4,940.26 854.5,940.26 854.5,966.55 
		847.92,966.55 	"/>
	<polygon class="st5" points="628.32,996.67 330.4,996.67 330.4,967.1 336.83,967.1 336.83,940.81 621.75,940.81 621.75,967.1 
		628.32,967.1 	"/>
	<polygon class="st5" points="110.58,996.29 1.6,996.12 1.6,772.85 26.66,772.85 26.66,940.43 104.01,940.43 104.01,966.71 
		110.58,966.71 	"/>
	<rect x="1.26" y="119.34" class="st5" width="25.19" height="193.87"/>
	<rect x="493.05" y="281.53" class="st5" width="25.19" height="193.87"/>
	<rect x="16.6" y="119.34" class="st5" width="9.86" height="193.87"/>
</g>
<g id="Лестницы_x2C__лифты">
</g>
<g id="Площади">
	<g>
		<path class="st2" d="M273.01,879.53l-3.51,3.51c-0.29,0.29-0.65,0.43-1.07,0.43c-1.02,0-1.53-0.51-1.53-1.53
			c0-0.42,0.15-0.77,0.44-1.07l5.97-5.97c0.4-0.4,0.81-0.6,1.23-0.6c1.02,0,1.53,0.51,1.53,1.53v27.51c0,1.02-0.51,1.53-1.53,1.53
			c-1.02,0-1.53-0.51-1.53-1.53V879.53z"/>
		<path class="st2" d="M289.17,889.59h-3.06c-1.02,0-1.53-0.51-1.53-1.53c0-1.02,0.51-1.53,1.53-1.53h3.06
			c1.28,0,2.37-0.44,3.25-1.33s1.33-1.97,1.33-3.25c0-1.27-0.45-2.35-1.34-3.24c-0.9-0.89-1.98-1.34-3.24-1.34h-6.11
			c-1.02,0-1.53-0.51-1.53-1.53c0-1.02,0.51-1.53,1.53-1.53h6.11c2.12,0,3.92,0.75,5.41,2.25c1.49,1.5,2.23,3.3,2.23,5.4
			c0,2.53-1.02,4.57-3.06,6.11c2.04,1.54,3.06,3.58,3.06,6.11v3.06c0,2.12-0.75,3.92-2.25,5.41c-1.5,1.49-3.29,2.23-5.39,2.23h-6.11
			c-1.02,0-1.53-0.51-1.53-1.53s0.51-1.53,1.53-1.53h6.11c1.28,0,2.37-0.44,3.25-1.33c0.89-0.89,1.33-1.97,1.33-3.25v-3.06
			c0-1.27-0.45-2.35-1.34-3.24C291.52,890.04,290.44,889.59,289.17,889.59z"/>
		<path class="st2" d="M303.93,901.81c1.02,0,1.53,0.5,1.53,1.51c0,0.14-0.53,2.31-1.57,6.51c-0.19,0.77-0.68,1.16-1.48,1.16
			c-1.02,0-1.53-0.51-1.53-1.53c0-0.69,0.52-2.86,1.57-6.48C302.67,902.2,303.16,901.81,303.93,901.81z"/>
		<path class="st2" d="M325.08,889.59c0,3.64-0.45,6.79-1.34,9.45c-1.31,3.89-3.41,5.83-6.3,5.83c-2.89,0-4.99-1.94-6.3-5.81
			c-0.9-2.65-1.34-5.81-1.34-9.47s0.45-6.81,1.34-9.47c1.31-3.88,3.41-5.81,6.3-5.81c2.89,0,4.99,1.94,6.3,5.83
			C324.63,882.8,325.08,885.95,325.08,889.59z M322.03,889.59c0-2.53-0.27-4.92-0.81-7.15c-0.82-3.38-2.08-5.07-3.77-5.07
			c-1.68,0-2.93,1.7-3.75,5.09c-0.56,2.28-0.83,4.66-0.83,7.13c0,2.52,0.27,4.9,0.81,7.15c0.82,3.38,2.08,5.07,3.77,5.07
			s2.96-1.69,3.77-5.07C321.76,894.49,322.03,892.11,322.03,889.59z"/>
	</g>
	<g>
		<path class="st2" d="M363.07,317.6c0-0.17,0.01-0.31,0.05-0.42l6.11-21.39c0.22-0.74,0.71-1.11,1.48-1.11
			c1.02,0,1.53,0.51,1.53,1.53c0,0.14-0.02,0.29-0.05,0.44l-5.57,19.42h7.15v-4.58c0-1.02,0.51-1.53,1.53-1.53
			c1.02,0,1.53,0.51,1.53,1.53v4.58h3.06c1.02,0,1.53,0.51,1.53,1.53c0,1.02-0.51,1.53-1.53,1.53h-3.06v4.58
			c0,1.02-0.51,1.53-1.53,1.53c-1.02,0-1.53-0.51-1.53-1.53v-4.58h-9.17C363.58,319.13,363.07,318.62,363.07,317.6z"/>
		<path class="st2" d="M388.37,322.18c1.02,0,1.53,0.5,1.53,1.5c0,0.14-0.53,2.31-1.57,6.51c-0.19,0.77-0.68,1.16-1.48,1.16
			c-1.02,0-1.53-0.51-1.53-1.53c0-0.69,0.52-2.86,1.57-6.48C387.1,322.57,387.6,322.18,388.37,322.18z"/>
		<path class="st2" d="M394.68,317.6c0-0.17,0.01-0.31,0.05-0.42l6.11-21.39c0.22-0.74,0.71-1.11,1.48-1.11
			c1.02,0,1.53,0.51,1.53,1.53c0,0.14-0.02,0.29-0.05,0.44l-5.57,19.42h7.15v-4.58c0-1.02,0.51-1.53,1.53-1.53
			c1.02,0,1.53,0.51,1.53,1.53v4.58h3.06c1.02,0,1.53,0.51,1.53,1.53c0,1.02-0.51,1.53-1.53,1.53h-3.06v4.58
			c0,1.02-0.51,1.53-1.53,1.53c-1.02,0-1.53-0.51-1.53-1.53v-4.58h-9.17C395.19,319.13,394.68,318.62,394.68,317.6z"/>
	</g>
	<g>
		<path class="st2" d="M143.3,315.63h-3.06c-1.02,0-1.53-0.51-1.53-1.53c0-1.02,0.51-1.53,1.53-1.53h3.06
			c1.28,0,2.37-0.44,3.25-1.33c0.89-0.89,1.33-1.97,1.33-3.25c0-1.27-0.45-2.35-1.34-3.24c-0.9-0.9-1.98-1.34-3.24-1.34h-6.11
			c-1.02,0-1.53-0.51-1.53-1.53s0.51-1.53,1.53-1.53h6.11c2.12,0,3.92,0.75,5.41,2.25s2.23,3.3,2.23,5.39
			c0,2.53-1.02,4.57-3.06,6.11c2.04,1.54,3.06,3.58,3.06,6.11v3.06c0,2.12-0.75,3.92-2.25,5.41c-1.5,1.49-3.29,2.23-5.39,2.23h-6.11
			c-1.02,0-1.53-0.51-1.53-1.53c0-1.02,0.51-1.53,1.53-1.53h6.11c1.28,0,2.37-0.44,3.25-1.33c0.89-0.89,1.33-1.97,1.33-3.25v-3.06
			c0-1.27-0.45-2.35-1.34-3.24C145.64,316.08,144.56,315.63,143.3,315.63z"/>
		<path class="st2" d="M158.06,327.86c1.02,0,1.53,0.5,1.53,1.5c0,0.14-0.53,2.31-1.57,6.51c-0.19,0.77-0.68,1.16-1.48,1.16
			c-1.02,0-1.53-0.51-1.53-1.53c0-0.69,0.52-2.86,1.57-6.48C156.79,328.24,157.29,327.86,158.06,327.86z"/>
		<path class="st2" d="M172.13,330.91c-2.11,0-3.92-0.74-5.41-2.23c-1.49-1.49-2.23-3.29-2.23-5.41v-3.06
			c0-2.53,1.02-4.57,3.06-6.11c-2.04-1.54-3.06-3.58-3.06-6.11c0-2.11,0.74-3.92,2.23-5.41c1.49-1.49,3.29-2.23,5.41-2.23
			c2.12,0,3.92,0.75,5.41,2.23c1.49,1.49,2.23,3.29,2.23,5.41c0,2.53-1.02,4.57-3.06,6.11c1.47,1.11,2.39,2.48,2.78,4.1
			c0.18,0.82,0.28,2.51,0.28,5.07c0,2.12-0.75,3.92-2.23,5.41C176.05,330.17,174.25,330.91,172.13,330.91z M172.13,312.58
			c1.28,0,2.37-0.44,3.25-1.33c0.89-0.89,1.33-1.97,1.33-3.25c0-1.27-0.45-2.35-1.34-3.24c-0.9-0.9-1.98-1.34-3.24-1.34
			c-1.28,0-2.37,0.44-3.25,1.33c-0.89,0.89-1.33,1.97-1.33,3.25c0,1.28,0.44,2.37,1.33,3.25
			C169.77,312.13,170.85,312.58,172.13,312.58z M172.13,327.86c1.28,0,2.37-0.44,3.25-1.33c0.89-0.89,1.33-1.97,1.33-3.25v-3.06
			c0-1.27-0.45-2.35-1.34-3.24c-0.9-0.9-1.98-1.34-3.24-1.34c-1.28,0-2.37,0.44-3.25,1.33c-0.89,0.89-1.33,1.97-1.33,3.25v3.06
			c0,1.28,0.44,2.37,1.33,3.25C169.77,327.41,170.85,327.86,172.13,327.86z"/>
	</g>
	<g>
		<path class="st2" d="M719.51,879.53l-3.51,3.51c-0.29,0.29-0.65,0.43-1.07,0.43c-1.02,0-1.53-0.51-1.53-1.53
			c0-0.42,0.15-0.77,0.44-1.07l5.97-5.97c0.4-0.4,0.81-0.6,1.23-0.6c1.02,0,1.53,0.51,1.53,1.53v27.51c0,1.02-0.51,1.53-1.53,1.53
			c-1.02,0-1.53-0.51-1.53-1.53V879.53z"/>
		<path class="st2" d="M735.67,874.31c2.12,0,3.92,0.74,5.41,2.23c1.49,1.49,2.23,3.29,2.23,5.41c0,1.45-0.46,2.92-1.39,4.4
			l-9.63,15.47h9.49c1.02,0,1.53,0.51,1.53,1.53s-0.51,1.53-1.53,1.53h-12.22c-1.02,0-1.53-0.51-1.53-1.53
			c0-0.31,0.08-0.6,0.25-0.88l11.2-17.99c0.51-0.82,0.77-1.66,0.77-2.52c0-1.27-0.45-2.35-1.34-3.24c-0.9-0.89-1.98-1.34-3.24-1.34
			c-1.73,0-3.33,1.28-4.79,3.84c-0.28,0.49-0.72,0.74-1.32,0.74c-1.02,0-1.53-0.51-1.53-1.53c0-0.23,0.05-0.44,0.14-0.62
			C730.07,876.14,732.57,874.31,735.67,874.31z"/>
		<path class="st2" d="M751.26,901.81c1.02,0,1.53,0.5,1.53,1.51c0,0.14-0.53,2.31-1.57,6.51c-0.19,0.77-0.68,1.16-1.48,1.16
			c-1.02,0-1.53-0.51-1.53-1.53c0-0.69,0.52-2.86,1.57-6.48C750,902.2,750.49,901.81,751.26,901.81z"/>
		<path class="st2" d="M765.92,889.59h-3.06c-1.02,0-1.53-0.51-1.53-1.53c0-1.02,0.51-1.53,1.53-1.53h3.06
			c1.28,0,2.37-0.44,3.25-1.33s1.33-1.97,1.33-3.25c0-1.27-0.45-2.35-1.34-3.24c-0.9-0.89-1.98-1.34-3.24-1.34h-6.11
			c-1.02,0-1.53-0.51-1.53-1.53c0-1.02,0.51-1.53,1.53-1.53h6.11c2.12,0,3.92,0.75,5.41,2.25c1.49,1.5,2.23,3.3,2.23,5.4
			c0,2.53-1.02,4.57-3.06,6.11c2.04,1.54,3.06,3.58,3.06,6.11v3.06c0,2.12-0.75,3.92-2.25,5.41c-1.5,1.49-3.29,2.23-5.39,2.23h-6.11
			c-1.02,0-1.53-0.51-1.53-1.53s0.51-1.53,1.53-1.53h6.11c1.28,0,2.37-0.44,3.25-1.33c0.89-0.89,1.33-1.97,1.33-3.25v-3.06
			c0-1.27-0.45-2.35-1.34-3.24C768.27,890.04,767.18,889.59,765.92,889.59z"/>
	</g>
</g>
<g id="Таблички">
</g>
<g id="Этажи_x2C__секции">
</g>
</svg>
