<?xml version="1.0" encoding="iso-8859-1"?>
<!-- Generator: Adobe Illustrator 27.0.0, SVG Export Plug-In . SVG Version: 6.00 Build 0)  -->
<svg version="1.1" xmlns="http://www.w3.org/2000/svg" xmlns:xlink="http://www.w3.org/1999/xlink" x="0px" y="0px"
	 viewBox="0 0 1000 1001.865" style="enable-background:new 0 0 1000 1001.865;" xml:space="preserve">
<g id="&#x446;&#x432;&#x435;&#x442;_&#x43F;&#x43E;&#x43C;&#x435;&#x449;&#x435;&#x43D;&#x438;&#x439;">
</g>
<g id="&#x43E;&#x43A;&#x43D;&#x430;_x2C__&#x434;&#x432;&#x435;&#x440;&#x438;">
	<g>
		
			<rect x="202.692" y="947.742" transform="matrix(-1 7.125801e-07 -7.125801e-07 -1 628.2494 1925.0803)" style="fill:none;stroke:#5B5D65;stroke-width:1.2434;stroke-linecap:round;stroke-linejoin:round;stroke-miterlimit:10;" width="222.865" height="29.597"/>
		
			<rect x="202.691" y="988.869" transform="matrix(-1 8.549394e-07 -8.549394e-07 -1 628.2479 1989.4785)" style="fill:none;stroke:#5B5D65;stroke-width:1.2434;stroke-linecap:round;stroke-linejoin:round;stroke-miterlimit:10;" width="222.865" height="11.741"/>
	</g>
	<g>
		
			<rect x="538.478" y="947.742" transform="matrix(-1 7.125801e-07 -7.125801e-07 -1 1299.8224 1925.0801)" style="fill:none;stroke:#5B5D65;stroke-width:1.2434;stroke-linecap:round;stroke-linejoin:round;stroke-miterlimit:10;" width="222.865" height="29.597"/>
		
			<rect x="538.477" y="988.869" transform="matrix(-1 8.549394e-07 -8.549394e-07 -1 1299.8209 1989.4781)" style="fill:none;stroke:#5B5D65;stroke-width:1.2434;stroke-linecap:round;stroke-linejoin:round;stroke-miterlimit:10;" width="222.865" height="11.741"/>
	</g>
	<path style="fill:none;stroke:#5B5D65;stroke-width:1.2434;stroke-linecap:round;stroke-linejoin:round;stroke-miterlimit:10;" d="
		M380.813,374.836c49.841,0,90.237-40.596,90.237-90.639l-90.237,0"/>
	<path style="fill:none;stroke:#5B5D65;stroke-width:1.2434;stroke-linecap:round;stroke-linejoin:round;stroke-miterlimit:10;" d="
		M675.909,376.453c0,50.274-40.949,91.021-91.426,91.021l0-91.02"/>
	<path style="fill:none;stroke:#5B5D65;stroke-width:1.2434;stroke-linecap:round;stroke-linejoin:round;stroke-miterlimit:10;" d="
		M410.62,516.373c0,50.274,40.949,91.021,91.426,91.021l0-91.02"/>
	<path style="fill:none;stroke:#5B5D65;stroke-width:1.2434;stroke-linecap:round;stroke-linejoin:round;stroke-miterlimit:10;" d="
		M417.778,113.511c0-62.353,52.106-112.89,116.336-112.89l0.001,112.889"/>
</g>
<g id="&#x43F;&#x435;&#x440;&#x435;&#x433;&#x43E;&#x440;&#x43E;&#x434;&#x43A;&#x438;">
	<rect x="889.516" y="370.021" style="fill:#5B5D65;" width="26.434" height="469.851"/>
	<rect x="110.128" y="510.721" style="fill:#5B5D65;" width="274.576" height="10.232"/>
	<rect x="522.846" y="370.875" style="fill:#5B5D65;" width="10.232" height="576.439"/>
	<g>
		<defs>
			<path id="SVGID_1_" d="M681.451,370.875v10.232h207.212v-10.232H681.451z M533.078,370.875v10.232h40.931v-10.232H533.078z"/>
		</defs>
		<use xlink:href="#SVGID_1_"  style="overflow:visible;fill-rule:evenodd;clip-rule:evenodd;fill:#5B5D65;"/>
		<clipPath id="SVGID_00000164482915670919015490000015354085298533252270_">
			<use xlink:href="#SVGID_1_"  style="overflow:visible;"/>
		</clipPath>
		
			<rect x="533.079" y="370.873" style="clip-path:url(#SVGID_00000164482915670919015490000015354085298533252270_);fill:#5B5D65;" width="355.585" height="10.232"/>
	</g>
	<g>
		<defs>
			<path id="SVGID_00000173877682429142170450000010013622382233721479_" d="M374.472,383.664v127.057h10.232V383.664H374.472z
				 M374.472,196.918v79.304h10.232v-79.304H374.472z"/>
		</defs>
		
			<use xlink:href="#SVGID_00000173877682429142170450000010013622382233721479_"  style="overflow:visible;fill-rule:evenodd;clip-rule:evenodd;fill:#5B5D65;"/>
		<clipPath id="SVGID_00000017485050837019162150000004640269425337731766_">
			<use xlink:href="#SVGID_00000173877682429142170450000010013622382233721479_"  style="overflow:visible;"/>
		</clipPath>
		
			<rect x="374.472" y="196.918" style="clip-path:url(#SVGID_00000017485050837019162150000004640269425337731766_);fill:#5B5D65;" width="10.233" height="313.801"/>
	</g>
	<rect x="889.516" y="101.414" style="fill:#5B5D65;" width="26.434" height="134.73"/>
	<g>
		<defs>
			<path id="SVGID_00000173841350528265921840000003789354766853180809_" d="M510.054,510.721v10.232h12.791v-10.232H510.054z
				 M384.704,510.721v10.232h17.907v-10.232H384.704z"/>
		</defs>
		
			<use xlink:href="#SVGID_00000173841350528265921840000003789354766853180809_"  style="overflow:visible;fill-rule:evenodd;clip-rule:evenodd;fill:#5B5D65;"/>
		<clipPath id="SVGID_00000171677704319938080010000005290353174767949735_">
			<use xlink:href="#SVGID_00000173841350528265921840000003789354766853180809_"  style="overflow:visible;"/>
		</clipPath>
		
			<rect x="384.705" y="510.719" style="clip-path:url(#SVGID_00000171677704319938080010000005290353174767949735_);fill:#5B5D65;" width="138.141" height="10.234"/>
	</g>
	<rect x="83.693" y="370.021" style="fill:#5B5D65;" width="26.435" height="469.851"/>
	<rect x="647.343" y="101.414" style="fill:#5B5D65;" width="242.173" height="27.288"/>
	<rect x="131.446" y="218.236" style="fill:#5B5D65;" width="9.38" height="274.578"/>
	<rect x="140.826" y="218.236" style="fill:#5B5D65;" width="131.319" height="9.38"/>
	<rect x="272.145" y="196.918" style="fill:#5B5D65;" width="9.38" height="30.698"/>
	<rect x="140.826" y="483.433" style="fill:#5B5D65;" width="233.646" height="9.38"/>
	<g>
		<rect x="110.128" y="169.631" style="fill:#5B5D65;" width="274.576" height="27.286"/>
		<rect x="358.27" y="101.414" style="fill:#5B5D65;" width="26.434" height="68.218"/>
		<rect x="384.704" y="101.414" style="fill:#5B5D65;" width="25.582" height="27.288"/>
		<rect x="83.693" y="169.631" style="fill:#5B5D65;" width="26.435" height="66.513"/>
	</g>
	<rect x="109.56" y="573.872" style="fill:#5B5D65;" width="149.884" height="14.029"/>
	<rect x="248.001" y="519.234" style="fill:#5B5D65;" width="11.443" height="61.652"/>
	<rect x="109.56" y="519.234" style="fill:#5B5D65;" width="11.741" height="56.483"/>
</g>
<g id="&#x448;&#x430;&#x445;&#x442;&#x44B;">
	<g>
		
			<polyline style="fill:#FFFFFF;stroke:#5B5D65;stroke-width:1.2434;stroke-linecap:round;stroke-linejoin:round;stroke-miterlimit:10;" points="
			119.876,573.872 248,573.872 247.999,521.614 119.876,521.614 119.876,573.872 		"/>
		<polygon style="fill:#5B5D65;" points="119.877,521.614 119.878,573.872 150.451,535.278 248.001,521.614 		"/>
	</g>
</g>
<g id="&#x43F;&#x443;&#x43D;&#x43A;&#x442;&#x438;&#x440;">
	
		<line style="fill:none;stroke:#5B5D65;stroke-width:1.2434;stroke-linecap:round;stroke-linejoin:round;stroke-miterlimit:10;stroke-dasharray:22.2031,22.2031,0,0,0,0;" x1="703.622" y1="126.568" x2="703.622" y2="371.727"/>
</g>
<g id="&#x43C;&#x435;&#x431;&#x435;&#x43B;&#x44C;_x2C__&#x441;&#x430;&#x43D;&#x442;&#x435;&#x445;&#x43D;&#x438;&#x43A;&#x430;">
	<g>
		
			<rect x="109.778" y="691.482" transform="matrix(6.123234e-17 -1 1 6.123234e-17 -581.7039 876.7862)" style="opacity:0.8;fill:none;stroke:#5B5D65;stroke-width:0.6217;stroke-linecap:round;stroke-linejoin:round;stroke-miterlimit:10;" width="75.526" height="75.526"/>
		<g>
			
				<circle style="opacity:0.8;fill:none;stroke:#5B5D65;stroke-width:0.6217;stroke-linecap:round;stroke-linejoin:round;stroke-miterlimit:10;" cx="129.981" cy="709.292" r="13.217"/>
		</g>
		<g>
			
				<circle style="opacity:0.8;fill:none;stroke:#5B5D65;stroke-width:0.6217;stroke-linecap:round;stroke-linejoin:round;stroke-miterlimit:10;" cx="162.193" cy="751.086" r="11.329"/>
		</g>
		<g>
			
				<circle style="opacity:0.8;fill:none;stroke:#5B5D65;stroke-width:0.6217;stroke-linecap:round;stroke-linejoin:round;stroke-miterlimit:10;" cx="129.981" cy="751.086" r="8.811"/>
		</g>
		<g>
			
				<circle style="opacity:0.8;fill:none;stroke:#5B5D65;stroke-width:0.6217;stroke-linecap:round;stroke-linejoin:round;stroke-miterlimit:10;" cx="162.193" cy="709.292" r="8.811"/>
		</g>
		
			<circle style="opacity:0.8;fill:none;stroke:#5B5D65;stroke-width:0.6217;stroke-linecap:round;stroke-linejoin:round;stroke-miterlimit:10;" cx="179.464" cy="731.514" r="0.851"/>
		
			<circle style="opacity:0.8;fill:none;stroke:#5B5D65;stroke-width:0.6217;stroke-linecap:round;stroke-linejoin:round;stroke-miterlimit:10;" cx="179.464" cy="726.797" r="0.851"/>
		
			<circle style="opacity:0.8;fill:none;stroke:#5B5D65;stroke-width:0.6217;stroke-linecap:round;stroke-linejoin:round;stroke-miterlimit:10;" cx="174.748" cy="726.797" r="0.851"/>
		
			<circle style="opacity:0.8;fill:none;stroke:#5B5D65;stroke-width:0.6217;stroke-linecap:round;stroke-linejoin:round;stroke-miterlimit:10;" cx="174.748" cy="731.514" r="0.851"/>
	</g>
	<g>
		
			<rect x="289.31" y="520.672" style="opacity:0.8;fill:none;stroke:#5B5D65;stroke-width:0.6217;stroke-linecap:round;stroke-linejoin:round;stroke-miterlimit:10;" width="75.526" height="75.526"/>
		
			<circle style="opacity:0.8;fill:none;stroke:#5B5D65;stroke-width:0.6217;stroke-linecap:round;stroke-linejoin:round;stroke-miterlimit:10;" cx="327.121" cy="551.498" r="5.665"/>
		
			<circle style="opacity:0.8;fill:none;stroke:#5B5D65;stroke-width:0.6217;stroke-linecap:round;stroke-linejoin:round;stroke-miterlimit:10;" cx="327.121" cy="532.001" r="2.203"/>
		
			<circle style="opacity:0.8;fill:none;stroke:#5B5D65;stroke-width:0.6217;stroke-linecap:round;stroke-linejoin:round;stroke-miterlimit:10;" cx="349.028" cy="532.001" r="2.203"/>
		
			<path style="opacity:0.8;fill:none;stroke:#5B5D65;stroke-width:0.6217;stroke-linecap:round;stroke-linejoin:round;stroke-miterlimit:10;" d="
			M357.913,589.904h-61.679c-0.346,0-0.629-0.283-0.629-0.629v-61.679c0-0.346,0.283-0.629,0.629-0.629h61.679
			c0.346,0,0.629,0.283,0.629,0.629l0,61.679C358.542,589.621,358.259,589.904,357.913,589.904z"/>
		
			<path style="opacity:0.8;fill:none;stroke:#5B5D65;stroke-width:0.6217;stroke-linecap:round;stroke-linejoin:round;stroke-miterlimit:10;" d="
			M354.795,586.75l-55.385,0c-0.346,0-0.629-0.283-0.629-0.629l0-49.092c0-0.346,0.283-0.629,0.629-0.629h55.385
			c0.346,0,0.629,0.283,0.629,0.629l0,49.092C355.424,586.467,355.141,586.75,354.795,586.75z"/>
	</g>
	<g>
		
			<line style="opacity:0.8;fill:none;stroke:#5B5D65;stroke-width:0.6217;stroke-linecap:round;stroke-linejoin:round;stroke-miterlimit:10;" x1="151.704" y1="439.372" x2="151.704" y2="448.561"/>
		
			<path style="opacity:0.8;fill:none;stroke:#5B5D65;stroke-width:0.6217;stroke-linecap:round;stroke-linejoin:round;stroke-miterlimit:10;" d="
			M151.704,452.634l0,18.992c0,2.593,2.269,4.689,5.062,4.689l146.959,0c10.027,0,19.707-3.459,27.132-9.698
			c17.62-14.818,17.62-40.467,0-55.28c-7.425-6.248-17.105-9.707-27.132-9.707l-146.959,0c-2.793,0-5.062,2.105-5.062,4.698
			l0,22.239"/>
		
			<rect x="140.889" y="394.915" style="opacity:0.8;fill:none;stroke:#5B5D65;stroke-width:0.6217;stroke-linecap:round;stroke-linejoin:round;stroke-miterlimit:10;" width="213.989" height="88.113"/>
		
			<path style="opacity:0.8;fill:none;stroke:#5B5D65;stroke-width:0.6217;stroke-linecap:round;stroke-linejoin:round;stroke-miterlimit:10;" d="
			M184.502,438.974c0,2.491-2.016,4.507-4.507,4.507c-2.487,0-4.507-2.016-4.507-4.507c0-2.491,2.021-4.512,4.507-4.512
			C182.486,434.463,184.502,436.483,184.502,438.974z"/>
		
			<path style="opacity:0.8;fill:none;stroke:#5B5D65;stroke-width:0.6217;stroke-linecap:round;stroke-linejoin:round;stroke-miterlimit:10;" d="
			M140.891,448.561v4.072h6.634h0.453h10.484c0,0,2.158-0.076,2.158-2.034s-2.158-2.038-2.158-2.038l-10.484,0h-0.453h-2.448"/>
		
			<path style="opacity:0.8;fill:none;stroke:#5B5D65;stroke-width:0.6217;stroke-linecap:round;stroke-linejoin:round;stroke-miterlimit:10;" d="
			M146.596,431.641l-1.321-0.109c-2.096-0.169-4.081,1.408-4.352,3.717c-0.018,0.155-0.027,0.306-0.027,0.466
			c0,0.155,0.009,0.311,0.027,0.466c0.271,2.309,2.256,3.885,4.352,3.721l22.753-1.878c0.724,0,1.31-0.648,1.31-1.452v-1.71
			c0-0.808-0.586-1.448-1.31-1.448l-11.525-0.954"/>
		
			<path style="opacity:0.8;fill:none;stroke:#5B5D65;stroke-width:0.6217;stroke-linecap:round;stroke-linejoin:round;stroke-miterlimit:10;" d="
			M157.241,428.171l0.404,0.666c0.71,1.19,0.329,2.744-0.861,3.455l-9.13,5.502c-1.186,0.715-2.74,0.329-3.459-0.853l-0.4-0.679
			c-0.715-1.177-0.324-2.735,0.857-3.45l9.134-5.497C154.972,426.599,156.526,426.981,157.241,428.171z"/>
		
			<path style="opacity:0.8;fill:none;stroke:#5B5D65;stroke-width:0.6217;stroke-linecap:round;stroke-linejoin:round;stroke-miterlimit:10;" d="
			M146.409,431.758c-0.174-3.211-0.503-7.382-1.069-8.499c-0.795-1.554-3.006-0.866-3.006-0.866h-1.412l0,26.652h1.412
			c0,0,2.211,0.684,3.006-0.87c0.558-1.098,0.886-5.171,1.061-8.366"/>
		
			<path style="opacity:0.8;fill:none;stroke:#5B5D65;stroke-width:0.6217;stroke-linecap:round;stroke-linejoin:round;stroke-miterlimit:10;" d="
			M151.703,454.392c1.331,2.379,3.876,3.987,6.794,3.987c4.298,0,7.784-3.481,7.784-7.78c0-4.298-3.486-7.78-7.784-7.78
			c-2.918,0-5.463,1.608-6.794,3.987"/>
	</g>
	<g>
		
			<ellipse style="opacity:0.8;fill:none;stroke:#5B5D65;stroke-width:0.6217;stroke-linecap:round;stroke-linejoin:round;stroke-miterlimit:10;" cx="152.578" cy="268.316" rx="2.068" ry="2.073"/>
		
			<line style="opacity:0.8;fill:none;stroke:#5B5D65;stroke-width:0.6217;stroke-linecap:round;stroke-linejoin:round;stroke-miterlimit:10;" x1="152.578" y1="271.938" x2="152.578" y2="270.39"/>
		
			<line style="opacity:0.8;fill:none;stroke:#5B5D65;stroke-width:0.6217;stroke-linecap:round;stroke-linejoin:round;stroke-miterlimit:10;" x1="152.578" y1="266.243" x2="152.578" y2="264.695"/>
		
			<line style="opacity:0.8;fill:none;stroke:#5B5D65;stroke-width:0.6217;stroke-linecap:round;stroke-linejoin:round;stroke-miterlimit:10;" x1="156.19" y1="268.316" x2="154.646" y2="268.316"/>
		
			<line style="opacity:0.8;fill:none;stroke:#5B5D65;stroke-width:0.6217;stroke-linecap:round;stroke-linejoin:round;stroke-miterlimit:10;" x1="150.511" y1="268.316" x2="148.966" y2="268.316"/>
		
			<line style="opacity:0.8;fill:none;stroke:#5B5D65;stroke-width:0.6217;stroke-linecap:round;stroke-linejoin:round;stroke-miterlimit:10;" x1="169.35" y1="279.852" x2="169.35" y2="279.016"/>
		
			<line style="opacity:0.8;fill:none;stroke:#5B5D65;stroke-width:0.6217;stroke-linecap:round;stroke-linejoin:round;stroke-miterlimit:10;" x1="169.35" y1="276.779" x2="169.35" y2="275.944"/>
		
			<line style="opacity:0.8;fill:none;stroke:#5B5D65;stroke-width:0.6217;stroke-linecap:round;stroke-linejoin:round;stroke-miterlimit:10;" x1="171.299" y1="277.898" x2="170.465" y2="277.898"/>
		
			<line style="opacity:0.8;fill:none;stroke:#5B5D65;stroke-width:0.6217;stroke-linecap:round;stroke-linejoin:round;stroke-miterlimit:10;" x1="168.235" y1="277.898" x2="167.401" y2="277.898"/>
		
			<ellipse style="opacity:0.8;fill:none;stroke:#5B5D65;stroke-width:0.6217;stroke-linecap:round;stroke-linejoin:round;stroke-miterlimit:10;" cx="169.35" cy="277.898" rx="1.115" ry="1.118"/>
		
			<ellipse style="opacity:0.8;fill:none;stroke:#5B5D65;stroke-width:0.6217;stroke-linecap:round;stroke-linejoin:round;stroke-miterlimit:10;" cx="169.35" cy="258.735" rx="1.115" ry="1.118"/>
		
			<line style="opacity:0.8;fill:none;stroke:#5B5D65;stroke-width:0.6217;stroke-linecap:round;stroke-linejoin:round;stroke-miterlimit:10;" x1="169.35" y1="260.689" x2="169.35" y2="259.853"/>
		
			<line style="opacity:0.8;fill:none;stroke:#5B5D65;stroke-width:0.6217;stroke-linecap:round;stroke-linejoin:round;stroke-miterlimit:10;" x1="169.35" y1="257.616" x2="169.35" y2="256.781"/>
		
			<line style="opacity:0.8;fill:none;stroke:#5B5D65;stroke-width:0.6217;stroke-linecap:round;stroke-linejoin:round;stroke-miterlimit:10;" x1="171.299" y1="258.735" x2="170.465" y2="258.735"/>
		
			<line style="opacity:0.8;fill:none;stroke:#5B5D65;stroke-width:0.6217;stroke-linecap:round;stroke-linejoin:round;stroke-miterlimit:10;" x1="168.235" y1="258.735" x2="167.401" y2="258.735"/>
		
			<path style="opacity:0.8;fill:none;stroke:#5B5D65;stroke-width:0.6217;stroke-linecap:round;stroke-linejoin:round;stroke-miterlimit:10;" d="
			M187.209,248.074c-0.864,0.057-1.572,0.124-2.039,0.171c-8.502,1.512-14.186,3.34-22.688,4.852
			c0.53,4.573,0.88,9.672,0.881,15.219c0.001,5.569-0.349,10.688-0.881,15.276c8.502,1.512,14.186,3.282,22.688,4.795
			c0.467,0.048,1.175,0.115,2.039,0.171c5.096,0.335,13.681,0.899,21.425-3.294c1.249-0.676,3.766-2.067,6.171-4.723
			c1.441-1.591,5.152-5.817,5.155-12.073c0-0.052-0.005-0.101-0.005-0.152c0-0.051,0.005-0.1,0.005-0.152
			c-0.003-6.256-3.715-10.482-5.155-12.073c-2.405-2.656-4.922-4.046-6.171-4.723C200.891,247.175,192.306,247.739,187.209,248.074z
			"/>
		
			<path style="opacity:0.8;fill:none;stroke:#5B5D65;stroke-width:0.6217;stroke-linecap:round;stroke-linejoin:round;stroke-miterlimit:10;" d="
			M188.631,251.384c-2.556,0.357-5.416,0.788-8.352,2.799c-3.621,2.48-5.093,5.81-5.556,6.896c-1.261,2.959-1.261,5.48-1.261,7.239
			c0,1.759,0,4.279,1.261,7.239c0.463,1.085,1.934,4.416,5.556,6.896c2.936,2.011,5.796,2.442,8.353,2.799
			c3.258,0.454,11.776,1.642,19.441-3.363c1.909-1.246,5.938-3.915,7.602-9.042c0.345-1.063,1.402-4.739,0-9.057
			c-1.664-5.126-5.693-7.794-7.602-9.041C200.406,249.741,191.888,250.929,188.631,251.384z"/>
		
			<path style="opacity:0.8;fill:none;stroke:#5B5D65;stroke-width:0.6217;stroke-linecap:round;stroke-linejoin:round;stroke-miterlimit:10;" d="
			M180.623,257.812c-3.905,3.971-3.891,9.147-3.88,10.504c-0.011,1.358-0.024,6.534,3.88,10.504
			c3.454,3.513,8.197,4.273,11.962,4.249c2.33-0.015,4.108-0.206,5.555-0.462c3.579-0.631,7.172-1.265,10.259-3.884
			c2.441-2.071,5.003-5.753,4.955-10.441c-0.057-5.545-3.731-9.119-5.01-10.222c-3.206-2.765-6.939-3.443-10.204-4.037
			c-1.322-0.24-3.155-0.446-5.555-0.462C188.82,253.539,184.077,254.3,180.623,257.812z"/>
		
			<path style="opacity:0.8;fill:none;stroke:#5B5D65;stroke-width:0.6217;stroke-linecap:round;stroke-linejoin:round;stroke-miterlimit:10;" d="
			M182.667,263.079c-0.611,0.213-1.609,0.652-2.525,1.542c-0.513,0.499-0.859,1.001-1.088,1.405c0,0.009,0,0.015,0,0.024
			c0,2.114,0,2.434,0,4.533c0,0.009,0,0.015,0,0.024c0.23,0.404,0.575,0.907,1.088,1.405c0.916,0.89,1.914,1.328,2.525,1.542
			c2.815,0.074,5.629,0.149,8.444,0.223c0.379-0.022,1.801-0.149,2.973-1.236c0.914-0.848,1.182-1.822,1.266-2.215
			c0-1.339,0-2.679,0-4.018c-0.084-0.393-0.352-1.367-1.266-2.215c-1.172-1.088-2.594-1.214-2.973-1.236
			C188.296,262.93,185.482,263.005,182.667,263.079z"/>
		
			<path style="opacity:0.8;fill:none;stroke:#5B5D65;stroke-width:0.6217;stroke-linecap:round;stroke-linejoin:round;stroke-miterlimit:10;" d="
			M185.992,262.981c0.501,0.639,1.849,2.536,1.871,5.268c0.022,2.814-1.376,4.77-1.871,5.402"/>
		
			<path style="opacity:0.8;fill:none;stroke:#5B5D65;stroke-width:0.6217;stroke-linecap:round;stroke-linejoin:round;stroke-miterlimit:10;" d="
			M140.029,246.712v43.208c0,0.582,0.504,1.054,1.126,1.054c0,0,10.465,0,11.583,0c0.612-0.132,1.41-0.344,2.306-0.694
			c0.896-0.35,1.891-0.838,2.897-1.523c1.327-0.904,2.319-1.91,3.051-2.832c0.732-0.922,1.204-1.762,1.491-2.332
			c0.266-2.294,0.486-4.721,0.64-7.27c0.154-2.549,0.241-5.221,0.241-8.006c0-2.773-0.088-5.435-0.242-7.975
			c-0.154-2.54-0.374-4.958-0.639-7.244c-0.212-0.505-0.574-1.263-1.161-2.115c-0.587-0.852-1.399-1.797-2.514-2.676
			c-1.204-0.949-2.434-1.564-3.507-1.965c-1.073-0.401-1.989-0.589-2.562-0.683c-1.277,0-11.583,0-11.583,0
			C140.533,245.659,140.029,246.13,140.029,246.712z"/>
	</g>
	<g>
		
			<path style="opacity:0.8;fill:none;stroke:#5B5D65;stroke-width:0.6217;stroke-linecap:round;stroke-linejoin:round;stroke-miterlimit:10;" d="
			M161.872,342.657c1.588,0,2.875,1.294,2.875,2.886c0,1.589-1.287,2.879-2.875,2.879c-1.591,0-2.878-1.29-2.878-2.879
			C158.994,343.951,160.281,342.657,161.872,342.657z"/>
		
			<line style="opacity:0.8;fill:none;stroke:#5B5D65;stroke-width:0.6217;stroke-linecap:round;stroke-linejoin:round;stroke-miterlimit:10;" x1="161.871" y1="349.74" x2="161.871" y2="341.34"/>
		
			<line style="opacity:0.8;fill:none;stroke:#5B5D65;stroke-width:0.6217;stroke-linecap:round;stroke-linejoin:round;stroke-miterlimit:10;" x1="166.071" y1="345.54" x2="157.67" y2="345.54"/>
		
			<path style="opacity:0.8;fill:none;stroke:#5B5D65;stroke-width:0.6217;stroke-linecap:round;stroke-linejoin:round;stroke-miterlimit:10;" d="
			M148.07,343.475c1.14,0,2.064,0.927,2.064,2.067c0,1.138-0.924,2.062-2.064,2.062c-1.142,0-2.066-0.924-2.066-2.062
			C146.004,344.402,146.928,343.475,148.07,343.475z"/>
		
			<line style="opacity:0.8;fill:none;stroke:#5B5D65;stroke-width:0.6217;stroke-linecap:round;stroke-linejoin:round;stroke-miterlimit:10;" x1="148.069" y1="348.84" x2="148.069" y2="342.24"/>
		
			<line style="opacity:0.8;fill:none;stroke:#5B5D65;stroke-width:0.6217;stroke-linecap:round;stroke-linejoin:round;stroke-miterlimit:10;" x1="151.369" y1="345.54" x2="144.769" y2="345.54"/>
		
			<path style="opacity:0.8;fill:none;stroke:#5B5D65;stroke-width:0.6217;stroke-linecap:round;stroke-linejoin:round;stroke-miterlimit:10;" d="
			M160.655,314.423c-1.481-0.111-3.316-0.18-5.421-0.103c-0.823,0.03-2.391,0.108-4.361,0.355c-1.623,0.203-3.644,0.537-5.942,1.109
			c-1.857,0.62-3.714,1.24-5.571,1.86c0,0.001,0,0.013,0,0.017c0,0.789,0,55.962,0,56.191c0,0.004,0,0.016,0,0.017
			c1.857,0.62,3.714,1.24,5.571,1.86c2.298,0.572,4.319,0.906,5.942,1.109c1.971,0.247,3.539,0.325,4.361,0.355
			c2.105,0.077,3.939,0.008,5.42-0.103c2.054-0.042,15.218-0.529,23.819-11.195c6.367-7.896,6.497-16.736,6.497-20.138
			c0-3.402-0.13-12.242-6.497-20.138C175.872,314.953,162.709,314.466,160.655,314.423z"/>
		
			<path style="opacity:0.8;fill:none;stroke:#5B5D65;stroke-width:0.6217;stroke-linecap:round;stroke-linejoin:round;stroke-miterlimit:10;" d="
			M163.877,323.03c-0.718-0.064-1.694-0.129-2.859,0.218c-0.06,0.018-0.111,0.035-0.155,0.05c0,0-1.015,0.349-1.932,1.124
			c-4.793,4.052-4.793,21.133-4.793,21.133v0c0,9.38,0.509,17.276,4.786,20.816c0.001,0.001,0.004,0.003,0.005,0.004
			c0.001,0,0.002,0.002,0.003,0.002c0.947,0.827,1.792,1.084,1.93,1.124c0,0,0.002,0,0.002,0.001
			c1.272,0.436,2.821,0.281,3.015,0.268c1.468-0.099,2.202-0.148,3.255-0.362c6.041-1.223,9.799-3.75,9.799-3.75
			c2.8-1.883,4.494-3.938,5.363-5.009c0.697-0.859,1.751-2.172,2.72-4.077c2.119-4.166,2.222-7.995,2.228-9.017
			c0.027-4.513-1.51-7.825-2.227-9.326c0,0,0-0.001,0-0.001c-0.597-1.103-1.474-2.539-2.721-4.078
			c-0.856-1.056-2.554-3.12-5.363-5.009c0,0-3.792-2.55-9.799-3.75C166.474,323.26,165.608,323.183,163.877,323.03z"/>
	</g>
</g>
<g id="&#x43D;&#x435;&#x441;&#x443;&#x449;&#x438;&#x435;">
	
		<rect x="889.516" y="236.143" style="fill:#5B5D65;stroke:#5B5D65;stroke-width:2.4868;stroke-linecap:round;stroke-linejoin:round;stroke-miterlimit:10;" width="26.434" height="133.878"/>
	
		<rect x="83.693" y="236.143" style="fill:#5B5D65;stroke:#5B5D65;stroke-width:2.4868;stroke-linecap:round;stroke-linejoin:round;stroke-miterlimit:10;" width="26.435" height="133.878"/>
	
		<rect x="545.016" y="101.414" style="fill:#5B5D65;stroke:#5B5D65;stroke-width:2.4868;stroke-linecap:round;stroke-linejoin:round;stroke-miterlimit:10;" width="133.877" height="27.288"/>
	
		<rect x="425.564" y="947.748" style="fill:#5B5D65;stroke:#5B5D65;stroke-width:2.4868;stroke-linecap:round;stroke-linejoin:round;stroke-miterlimit:10;" width="116.042" height="52.868"/>
	<g>
		
			<rect x="83.65" y="947.753" style="fill:#5B5D65;stroke:#5B5D65;stroke-width:2.4868;stroke-linecap:round;stroke-linejoin:round;stroke-miterlimit:10;" width="125.391" height="52.868"/>
		
			<rect x="83.667" y="839.447" style="fill:#5B5D65;stroke:#5B5D65;stroke-width:2.4868;stroke-linecap:round;stroke-linejoin:round;stroke-miterlimit:10;" width="26.434" height="133.878"/>
	</g>
	<g>
		
			<rect x="889.916" y="839.453" style="fill:#5B5D65;stroke:#5B5D65;stroke-width:2.4868;stroke-linecap:round;stroke-linejoin:round;stroke-miterlimit:10;" width="26.434" height="133.878"/>
		
			<rect x="755.637" y="947.748" style="fill:#5B5D65;stroke:#5B5D65;stroke-width:2.4868;stroke-linecap:round;stroke-linejoin:round;stroke-miterlimit:10;" width="160.712" height="52.868"/>
	</g>
</g>
<g id="&#x43B;&#x435;&#x441;&#x442;&#x43D;&#x438;&#x446;&#x44B;_x2C__&#x43B;&#x438;&#x444;&#x442;&#x44B;">
</g>
<g id="&#x43F;&#x43B;&#x43E;&#x449;&#x430;&#x434;&#x438;">
	<g>
		<path style="fill:#5B5D65;" d="M548.87,321.081V309.06c0-1.001,0.5-1.502,1.502-1.502h10.519c1.001,0,1.502,0.501,1.502,1.502
			c0,1.002-0.501,1.503-1.502,1.503h-9.016v9.016h4.508c2.08,0,3.852,0.736,5.316,2.208c1.464,1.472,2.197,3.241,2.197,5.305v3.005
			c0,2.08-0.736,3.852-2.208,5.316s-3.241,2.197-5.305,2.197h-6.01c-1.002,0-1.502-0.501-1.502-1.502c0-1.002,0.5-1.503,1.502-1.503
			h6.01c1.26,0,2.326-0.436,3.199-1.309c0.873-0.873,1.309-1.938,1.309-3.199v-3.005c0-1.245-0.44-2.307-1.321-3.188
			s-1.943-1.321-3.188-1.321h-6.01C549.37,322.584,548.87,322.083,548.87,321.081z"/>
		<path style="fill:#5B5D65;" d="M572.911,334.605c1.002,0,1.503,0.494,1.503,1.48c0,0.137-0.516,2.269-1.548,6.397
			c-0.182,0.759-0.668,1.138-1.457,1.138c-1.002,0-1.502-0.5-1.502-1.502c0-0.683,0.516-2.808,1.548-6.375
			C571.666,334.985,572.152,334.605,572.911,334.605z"/>
		<path style="fill:#5B5D65;" d="M587.937,322.584h-3.005c-1.002,0-1.503-0.5-1.503-1.502c0-1.001,0.501-1.502,1.503-1.502h3.005
			c1.26,0,2.326-0.436,3.199-1.309c0.873-0.873,1.309-1.939,1.309-3.199c0-1.245-0.44-2.307-1.321-3.188
			c-0.88-0.88-1.943-1.32-3.188-1.32h-6.01c-1.002,0-1.502-0.501-1.502-1.503c0-1.001,0.5-1.502,1.502-1.502h6.01
			c2.08,0,3.852,0.736,5.316,2.208c1.464,1.472,2.197,3.241,2.197,5.305c0,2.489-1.001,4.493-3.005,6.01
			c2.003,1.518,3.005,3.521,3.005,6.011v3.005c0,2.08-0.736,3.852-2.208,5.316s-3.241,2.197-5.305,2.197h-6.01
			c-1.002,0-1.502-0.501-1.502-1.502c0-1.002,0.5-1.503,1.502-1.503h6.01c1.26,0,2.326-0.436,3.199-1.309
			c0.873-0.873,1.309-1.938,1.309-3.199v-3.005c0-1.245-0.44-2.307-1.321-3.188S589.182,322.584,587.937,322.584z"/>
		<path style="fill:#5B5D65;" d="M601.461,330.097c0-0.167,0.015-0.303,0.045-0.41l6.01-21.037c0.212-0.729,0.698-1.093,1.457-1.093
			c1.002,0,1.503,0.502,1.503,1.506c0,0.137-0.018,0.281-0.053,0.434l-5.479,19.097h7.035v-4.508c0-1.002,0.501-1.503,1.503-1.503
			c1.001,0,1.502,0.501,1.502,1.503v4.508h3.005c1.001,0,1.502,0.501,1.502,1.502c0,1.002-0.501,1.503-1.502,1.503h-3.005v4.508
			c0,1.001-0.501,1.502-1.502,1.502c-1.002,0-1.503-0.501-1.503-1.502V331.6h-9.016C601.961,331.6,601.461,331.099,601.461,330.097z
			"/>
	</g>
	<g>
		<path style="fill:#5B5D65;" d="M277.004,322.584h-3.005c-1.002,0-1.503-0.5-1.503-1.502c0-1.001,0.501-1.502,1.503-1.502h3.005
			c1.26,0,2.326-0.436,3.199-1.309c0.873-0.873,1.309-1.939,1.309-3.199c0-1.245-0.44-2.307-1.321-3.188
			c-0.88-0.88-1.943-1.32-3.188-1.32h-6.01c-1.002,0-1.502-0.501-1.502-1.503c0-1.001,0.5-1.502,1.502-1.502h6.01
			c2.08,0,3.852,0.736,5.316,2.208c1.464,1.472,2.197,3.241,2.197,5.305c0,2.489-1.001,4.493-3.005,6.01
			c2.003,1.518,3.005,3.521,3.005,6.011v3.005c0,2.08-0.736,3.852-2.208,5.316s-3.241,2.197-5.305,2.197h-6.01
			c-1.002,0-1.502-0.501-1.502-1.502c0-1.002,0.5-1.503,1.502-1.503h6.01c1.26,0,2.326-0.436,3.199-1.309
			c0.873-0.873,1.309-1.938,1.309-3.199v-3.005c0-1.245-0.44-2.307-1.321-3.188S278.249,322.584,277.004,322.584z"/>
		<path style="fill:#5B5D65;" d="M293.533,334.605c1.002,0,1.503,0.494,1.503,1.48c0,0.137-0.516,2.269-1.548,6.397
			c-0.182,0.759-0.668,1.138-1.457,1.138c-1.002,0-1.502-0.5-1.502-1.502c0-0.683,0.516-2.808,1.548-6.375
			C292.288,334.985,292.774,334.605,293.533,334.605z"/>
		<path style="fill:#5B5D65;" d="M301.046,330.097c0-0.167,0.015-0.303,0.045-0.41l6.01-21.037c0.212-0.729,0.698-1.093,1.457-1.093
			c1.002,0,1.503,0.502,1.503,1.506c0,0.137-0.018,0.281-0.053,0.434l-5.479,19.097h7.035v-4.508c0-1.002,0.501-1.503,1.503-1.503
			c1.001,0,1.502,0.501,1.502,1.503v4.508h3.005c1.001,0,1.502,0.501,1.502,1.502c0,1.002-0.501,1.503-1.502,1.503h-3.005v4.508
			c0,1.001-0.501,1.502-1.502,1.502c-1.002,0-1.503-0.501-1.503-1.502V331.6h-9.016C301.547,331.6,301.046,331.099,301.046,330.097z
			"/>
		<path style="fill:#5B5D65;" d="M333.722,324.088l-1.118-0.001c-1.004,0-1.506-0.501-1.506-1.503c0-1.001,0.499-1.502,1.498-1.502
			l1.771-0.002l2.36-10.516h-10.135c-1.003,0-1.503-0.501-1.503-1.503c0-1.001,0.5-1.502,1.502-1.502h12.021
			c0.986,0,1.487,0.486,1.502,1.457c0,0.091-0.015,0.213-0.045,0.364l-2.601,11.701l1.141,0.001c1.003,0,1.505,0.501,1.505,1.502
			c0,1.002-0.502,1.503-1.508,1.503l-1.828-0.003l-2.72,12.342c-0.182,0.79-0.66,1.184-1.434,1.184c-1.018,0-1.526-0.5-1.526-1.502
			c0-0.151,0.009-0.265,0.028-0.341L333.722,324.088z"/>
	</g>
	<g>
		<path style="fill:#5B5D65;" d="M394.77,890.177c-0.395,0-0.744-0.151-1.047-0.456c-0.304-0.303-0.456-0.652-0.456-1.047
			c0-0.698,0.25-1.131,0.751-1.298c1.093-0.364,2.003-0.782,2.732-1.252c3.233-2.094,5.039-4.75,5.418-7.968h-4.394
			c-2.08,0-3.851-0.732-5.316-2.197s-2.197-3.237-2.197-5.316v-3.005c0-2.08,0.732-3.852,2.197-5.316
			c1.465-1.464,3.236-2.197,5.316-2.197c2.095,0,3.871,0.725,5.328,2.174c1.457,1.45,2.186,3.214,2.186,5.293v9.062
			c0,5.1-2.375,9.129-7.126,12.089C396.629,889.699,395.498,890.177,394.77,890.177z M402.283,875.151v-7.513
			c0-1.245-0.44-2.307-1.321-3.188c-0.88-0.88-1.943-1.32-3.188-1.32s-2.307,0.44-3.187,1.32c-0.88,0.88-1.321,1.943-1.321,3.188
			v3.005c0,1.26,0.437,2.326,1.309,3.199c0.873,0.873,1.939,1.309,3.199,1.309H402.283z"/>
		<path style="fill:#5B5D65;" d="M414.304,887.172c1.002,0,1.503,0.494,1.503,1.48c0,0.137-0.516,2.269-1.548,6.397
			c-0.182,0.759-0.668,1.138-1.457,1.138c-1.002,0-1.502-0.5-1.502-1.502c0-0.683,0.516-2.808,1.548-6.375
			C413.059,887.552,413.545,887.172,414.304,887.172z"/>
		<path style="fill:#5B5D65;" d="M427.827,865.262l-3.453,3.453c-0.29,0.284-0.64,0.425-1.05,0.425
			c-1.005,0-1.507-0.501-1.507-1.502c0-0.41,0.144-0.759,0.433-1.047l5.874-5.874c0.395-0.395,0.797-0.592,1.207-0.592
			c1.002,0,1.503,0.501,1.503,1.502v27.047c0,1.001-0.501,1.502-1.503,1.502c-1.001,0-1.502-0.5-1.502-1.502V865.262z"/>
		<path style="fill:#5B5D65;" d="M445.477,876.655l-1.118-0.001c-1.004,0-1.506-0.501-1.506-1.503c0-1.001,0.499-1.502,1.498-1.502
			l1.771-0.002l2.36-10.516h-10.135c-1.003,0-1.503-0.501-1.503-1.503c0-1.001,0.5-1.502,1.502-1.502h12.021
			c0.986,0,1.487,0.486,1.502,1.457c0,0.091-0.015,0.213-0.045,0.364l-2.601,11.701l1.141,0.001c1.003,0,1.505,0.501,1.505,1.502
			c0,1.002-0.502,1.503-1.508,1.503l-1.828-0.003l-2.72,12.342c-0.182,0.79-0.66,1.184-1.434,1.184c-1.018,0-1.526-0.5-1.526-1.502
			c0-0.151,0.009-0.265,0.028-0.341L445.477,876.655z"/>
	</g>
	<g>
		<path style="fill:#5B5D65;" d="M767.21,865.261l-3.453,3.453c-0.29,0.284-0.64,0.425-1.05,0.425c-1.005,0-1.507-0.501-1.507-1.502
			c0-0.41,0.144-0.759,0.433-1.047l5.874-5.874c0.395-0.395,0.797-0.592,1.207-0.592c1.002,0,1.503,0.501,1.503,1.502v27.047
			c0,1.001-0.501,1.502-1.503,1.502c-1.001,0-1.502-0.5-1.502-1.502V865.261z"/>
		<path style="fill:#5B5D65;" d="M782.236,865.261l-3.453,3.453c-0.29,0.284-0.64,0.425-1.05,0.425
			c-1.005,0-1.507-0.501-1.507-1.502c0-0.41,0.144-0.759,0.433-1.047l5.874-5.874c0.395-0.395,0.797-0.592,1.207-0.592
			c1.002,0,1.503,0.501,1.503,1.502v27.047c0,1.001-0.501,1.502-1.503,1.502c-1.001,0-1.502-0.5-1.502-1.502V865.261z"/>
		<path style="fill:#5B5D65;" d="M794.257,887.171c1.002,0,1.503,0.494,1.503,1.48c0,0.137-0.516,2.269-1.548,6.397
			c-0.182,0.759-0.668,1.138-1.457,1.138c-1.002,0-1.502-0.5-1.502-1.502c0-0.683,0.516-2.808,1.548-6.375
			C793.013,887.551,793.498,887.171,794.257,887.171z"/>
		<path style="fill:#5B5D65;" d="M807.781,865.261l-3.453,3.453c-0.29,0.284-0.64,0.425-1.05,0.425
			c-1.005,0-1.507-0.501-1.507-1.502c0-0.41,0.144-0.759,0.433-1.047l5.874-5.874c0.395-0.395,0.797-0.592,1.207-0.592
			c1.002,0,1.503,0.501,1.503,1.502v27.047c0,1.001-0.501,1.502-1.503,1.502c-1.001,0-1.502-0.5-1.502-1.502V865.261z"/>
		<path style="fill:#5B5D65;" d="M824.309,890.176c-2.08,0-3.851-0.732-5.316-2.197s-2.197-3.237-2.197-5.316v-3.005
			c0-2.489,1.001-4.493,3.005-6.011c-2.003-1.518-3.005-3.521-3.005-6.01c0-2.08,0.732-3.852,2.197-5.316
			c1.465-1.464,3.236-2.197,5.316-2.197s3.852,0.732,5.316,2.197c1.464,1.465,2.197,3.237,2.197,5.316
			c0,2.489-1.001,4.493-3.005,6.01c1.441,1.093,2.352,2.436,2.732,4.03c0.182,0.805,0.273,2.467,0.273,4.986
			c0,2.08-0.732,3.852-2.197,5.316C828.161,889.445,826.389,890.176,824.309,890.176z M824.309,872.145
			c1.26,0,2.326-0.436,3.199-1.309c0.873-0.873,1.309-1.939,1.309-3.199c0-1.245-0.44-2.307-1.321-3.188
			c-0.88-0.88-1.943-1.32-3.188-1.32c-1.26,0-2.326,0.437-3.199,1.309c-0.873,0.873-1.309,1.939-1.309,3.199
			s0.437,2.326,1.309,3.199C821.984,871.709,823.05,872.145,824.309,872.145z M824.309,887.171c1.26,0,2.326-0.436,3.199-1.309
			c0.873-0.873,1.309-1.938,1.309-3.199v-3.005c0-1.245-0.44-2.307-1.321-3.188s-1.943-1.321-3.188-1.321
			c-1.26,0-2.326,0.437-3.199,1.309c-0.873,0.873-1.309,1.939-1.309,3.199v3.005c0,1.26,0.437,2.326,1.309,3.199
			C821.984,886.735,823.05,887.171,824.309,887.171z"/>
	</g>
	<g>
		<path style="fill:#5B5D65;" d="M762.739,168.57c2.08,0,3.852,0.732,5.316,2.197c1.464,1.465,2.197,3.237,2.197,5.316
			c0,1.427-0.455,2.869-1.366,4.326l-9.471,15.208h9.334c1.001,0,1.502,0.501,1.502,1.503c0,1.001-0.501,1.502-1.502,1.502h-12.021
			c-1.002,0-1.502-0.5-1.502-1.502c0-0.303,0.083-0.591,0.251-0.865l11.017-17.691c0.501-0.805,0.752-1.632,0.752-2.481
			c0-1.244-0.44-2.307-1.321-3.187s-1.943-1.32-3.188-1.32c-1.7,0-3.271,1.26-4.712,3.779c-0.273,0.486-0.706,0.729-1.298,0.729
			c-1.002,0-1.502-0.501-1.502-1.503c0-0.228,0.045-0.433,0.136-0.615C757.229,170.368,759.688,168.57,762.739,168.57z"/>
		<path style="fill:#5B5D65;" d="M779.267,195.616c1.002,0,1.503,0.494,1.503,1.48c0,0.137-0.516,2.269-1.548,6.397
			c-0.182,0.759-0.668,1.138-1.457,1.138c-1.002,0-1.502-0.5-1.502-1.502c0-0.683,0.516-2.808,1.548-6.375
			C778.023,195.996,778.509,195.616,779.267,195.616z"/>
		<path style="fill:#5B5D65;" d="M786.781,191.109c0-0.167,0.015-0.303,0.045-0.41l6.01-21.037c0.212-0.729,0.698-1.093,1.457-1.093
			c1.002,0,1.503,0.502,1.503,1.506c0,0.137-0.018,0.281-0.053,0.434l-5.479,19.097h7.035v-4.508c0-1.002,0.501-1.503,1.503-1.503
			c1.001,0,1.502,0.501,1.502,1.503v4.508h3.005c1.001,0,1.502,0.501,1.502,1.502c0,1.002-0.501,1.503-1.502,1.503h-3.005v4.508
			c0,1.001-0.501,1.502-1.502,1.502c-1.002,0-1.503-0.501-1.503-1.502v-4.508h-9.016
			C787.281,192.612,786.781,192.111,786.781,191.109z"/>
		<path style="fill:#5B5D65;" d="M815.33,198.622c-0.395,0-0.744-0.151-1.047-0.456c-0.304-0.303-0.456-0.652-0.456-1.047
			c0-0.698,0.25-1.131,0.751-1.298c1.093-0.364,2.003-0.782,2.732-1.252c3.233-2.094,5.039-4.75,5.418-7.968h-4.394
			c-2.08,0-3.851-0.732-5.316-2.197s-2.197-3.237-2.197-5.316v-3.005c0-2.08,0.732-3.852,2.197-5.316
			c1.465-1.464,3.236-2.197,5.316-2.197c2.095,0,3.871,0.725,5.328,2.174c1.457,1.45,2.186,3.214,2.186,5.293v9.062
			c0,5.1-2.375,9.129-7.126,12.089C817.189,198.144,816.059,198.622,815.33,198.622z M822.844,183.595v-7.513
			c0-1.245-0.44-2.307-1.321-3.188c-0.88-0.88-1.943-1.32-3.188-1.32s-2.307,0.44-3.187,1.32c-0.88,0.88-1.321,1.943-1.321,3.188
			v3.005c0,1.26,0.437,2.326,1.309,3.199c0.873,0.873,1.939,1.309,3.199,1.309H822.844z"/>
	</g>
</g>
<g id="&#x442;&#x430;&#x431;&#x43B;&#x438;&#x447;&#x43A;&#x438;">
</g>
<g id="&#x44D;&#x442;&#x430;&#x436;_x2C__&#x441;&#x435;&#x43A;&#x446;&#x438;&#x438;">
</g>
<g id="&#x421;&#x43B;&#x43E;&#x439;_12">
</g>
</svg>
