<?xml version="1.0" encoding="iso-8859-1"?>
<!-- Generator: Adobe Illustrator 27.0.0, SVG Export Plug-In . SVG Version: 6.00 Build 0)  -->
<svg version="1.1" xmlns="http://www.w3.org/2000/svg" xmlns:xlink="http://www.w3.org/1999/xlink" x="0px" y="0px"
	 viewBox="0 0 1001.194 1000" style="enable-background:new 0 0 1001.194 1000;" xml:space="preserve">
<g id="&#x446;&#x432;&#x435;&#x442;_&#x43F;&#x43E;&#x43C;&#x435;&#x449;&#x435;&#x43D;&#x438;&#x439;">
</g>
<g id="&#x43E;&#x43A;&#x43D;&#x430;_x2C__&#x434;&#x432;&#x435;&#x440;&#x438;">
	<g>
		
			<rect x="-72.16" y="682.916" transform="matrix(-1.072271e-06 -1 1 -1.072271e-06 -657.8009 737.4108)" style="fill:none;stroke:#5B5D65;stroke-width:0.7959;stroke-linecap:round;stroke-linejoin:round;stroke-miterlimit:10;" width="223.929" height="29.379"/>
		
			<rect x="-104.122" y="691.777" transform="matrix(-1.212910e-06 -1 1 -1.212910e-06 -689.7618 705.4483)" style="fill:none;stroke:#5B5D65;stroke-width:0.7959;stroke-linecap:round;stroke-linejoin:round;stroke-miterlimit:10;" width="223.929" height="11.655"/>
	</g>
	<g>
		
			<rect x="-72.16" y="289.577" transform="matrix(-1.072271e-06 -1 1 -1.072271e-06 -264.4615 344.071)" style="fill:none;stroke:#5B5D65;stroke-width:0.7959;stroke-linecap:round;stroke-linejoin:round;stroke-miterlimit:10;" width="223.929" height="29.379"/>
		
			<rect x="-104.122" y="298.438" transform="matrix(-1.212910e-06 -1 1 -1.212910e-06 -296.4225 312.1084)" style="fill:none;stroke:#5B5D65;stroke-width:0.7959;stroke-linecap:round;stroke-linejoin:round;stroke-miterlimit:10;" width="223.929" height="11.655"/>
	</g>
	<path style="fill:none;stroke:#5B5D65;stroke-width:0.7959;stroke-linecap:round;stroke-linejoin:round;stroke-miterlimit:10;" d="
		M626.91,673.017c-49.831,0-90.219-40.588-90.219-90.621l90.219,0"/>
	<path style="fill:none;stroke:#5B5D65;stroke-width:0.7959;stroke-linecap:round;stroke-linejoin:round;stroke-miterlimit:10;" d="
		M486.302,387.089c-49.831,0-90.219,40.588-90.219,90.621l90.219,0"/>
	<path style="fill:none;stroke:#5B5D65;stroke-width:0.7959;stroke-linecap:round;stroke-linejoin:round;stroke-miterlimit:10;" d="
		M726.733,359.2c0,49.831-40.588,90.219-90.621,90.219l0-90.219"/>
	<path style="fill:none;stroke:#5B5D65;stroke-width:0.7959;stroke-linecap:round;stroke-linejoin:round;stroke-miterlimit:10;" d="
		M887.929,419.281c62.34,0,112.867,52.095,112.867,116.313l-112.866,0.001"/>
</g>
<g id="&#x43F;&#x435;&#x440;&#x435;&#x433;&#x43E;&#x440;&#x43E;&#x434;&#x43A;&#x438;">
	<rect x="162.789" y="889.083" style="fill:#5B5D65;" width="469.114" height="26.389"/>
	<rect x="481.208" y="111.767" style="fill:#5B5D65;" width="10.217" height="252.096"/>
	<rect x="55.514" y="496.68" style="fill:#5B5D65;" width="575.537" height="10.214"/>
	<rect x="620.835" y="685.26" style="fill-rule:evenodd;clip-rule:evenodd;fill:#5B5D65;" width="10.217" height="206.886"/>
	<rect x="620.835" y="506.898" style="fill-rule:evenodd;clip-rule:evenodd;fill:#5B5D65;" width="10.217" height="59.595"/>
	<rect x="735.912" y="353.227" style="fill-rule:evenodd;clip-rule:evenodd;fill:#5B5D65;" width="80.031" height="10.216"/>
	<rect x="486.316" y="353.227" style="fill-rule:evenodd;clip-rule:evenodd;fill:#5B5D65;" width="142.321" height="10.216"/>
	<rect x="765.571" y="889.083" style="fill:#5B5D65;" width="133.667" height="26.389"/>
	<g>
		<defs>
			<path id="SVGID_1_" d="M481.208,483.911v12.769h10.217v-12.769H481.208z M481.208,358.756v17.879h10.217v-17.879H481.208z"/>
		</defs>
		<use xlink:href="#SVGID_1_"  style="overflow:visible;fill-rule:evenodd;clip-rule:evenodd;fill:#5B5D65;"/>
		<clipPath id="SVGID_00000179638092249231196650000000778775416215872693_">
			<use xlink:href="#SVGID_1_"  style="overflow:visible;"/>
		</clipPath>
		
			<rect x="481.208" y="358.756" style="clip-path:url(#SVGID_00000179638092249231196650000000778775416215872693_);fill:#5B5D65;" width="10.217" height="137.921"/>
	</g>
	<rect x="162.789" y="84.523" style="fill:#5B5D65;" width="469.114" height="27.24"/>
	<rect x="872.846" y="678.791" style="fill:#5B5D65;" width="26.393" height="210.288"/>
	<rect x="597.988" y="129.305" style="fill:#5B5D65;" width="185.463" height="9.362"/>
	<rect x="774.085" y="132.712" style="fill:#5B5D65;" width="9.365" height="130.259"/>
	<rect x="774.085" y="262.975" style="fill:#5B5D65;" width="30.65" height="9.361"/>
	<g>
		<rect x="804.735" y="111.767" style="fill:#5B5D65;" width="27.244" height="251.677"/>
		<rect x="831.979" y="337.473" style="fill:#5B5D65;" width="67.259" height="25.971"/>
		<rect x="872.846" y="356.199" style="fill:#5B5D65;" width="26.393" height="57.895"/>
		<rect x="765.571" y="84.523" style="fill:#5B5D65;" width="66.408" height="27.24"/>
	</g>
	<rect x="597.751" y="109.298" style="fill:#5B5D65;" width="8.751" height="26.195"/>
</g>
<g id="&#x448;&#x430;&#x445;&#x442;&#x44B;">
</g>
<g id="&#x43F;&#x443;&#x43D;&#x43A;&#x442;&#x438;&#x440;">
	<g>
		<g>
			
				<line style="fill:none;stroke:#5B5D65;stroke-width:0.7959;stroke-linecap:round;stroke-linejoin:round;" x1="626.804" y1="703.476" x2="633.91" y2="703.476"/>
			
				<line style="fill:none;stroke:#5B5D65;stroke-width:0.7959;stroke-linecap:round;stroke-linejoin:round;stroke-dasharray:13.8374,13.8374,0,0,0,0;" x1="647.747" y1="703.476" x2="869.145" y2="703.476"/>
			
				<line style="fill:none;stroke:#5B5D65;stroke-width:0.7959;stroke-linecap:round;stroke-linejoin:round;" x1="869.145" y1="703.476" x2="876.251" y2="703.476"/>
		</g>
	</g>
</g>
<g id="&#x43C;&#x435;&#x431;&#x435;&#x43B;&#x44C;_x2C__&#x441;&#x430;&#x43D;&#x442;&#x435;&#x445;&#x43D;&#x438;&#x43A;&#x430;">
	<g>
		
			<rect x="199.661" y="111.035" style="opacity:0.8;fill:none;stroke:#5B5D65;stroke-width:0.3979;stroke-linecap:round;stroke-linejoin:round;stroke-miterlimit:10;" width="75.51" height="75.51"/>
		<g>
			
				<circle style="opacity:0.8;fill:none;stroke:#5B5D65;stroke-width:0.3979;stroke-linecap:round;stroke-linejoin:round;stroke-miterlimit:10;" cx="257.365" cy="131.234" r="13.214"/>
		</g>
		<g>
			
				<circle style="opacity:0.8;fill:none;stroke:#5B5D65;stroke-width:0.3979;stroke-linecap:round;stroke-linejoin:round;stroke-miterlimit:10;" cx="215.58" cy="163.439" r="11.327"/>
		</g>
		<g>
			
				<circle style="opacity:0.8;fill:none;stroke:#5B5D65;stroke-width:0.3979;stroke-linecap:round;stroke-linejoin:round;stroke-miterlimit:10;" cx="215.58" cy="131.234" r="8.81"/>
		</g>
		<g>
			
				<circle style="opacity:0.8;fill:none;stroke:#5B5D65;stroke-width:0.3979;stroke-linecap:round;stroke-linejoin:round;stroke-miterlimit:10;" cx="257.365" cy="163.439" r="8.81"/>
		</g>
		
			<circle style="opacity:0.8;fill:none;stroke:#5B5D65;stroke-width:0.3979;stroke-linecap:round;stroke-linejoin:round;stroke-miterlimit:10;" cx="235.149" cy="180.707" r="0.85"/>
		
			<circle style="opacity:0.8;fill:none;stroke:#5B5D65;stroke-width:0.3979;stroke-linecap:round;stroke-linejoin:round;stroke-miterlimit:10;" cx="239.864" cy="180.707" r="0.85"/>
		
			<circle style="opacity:0.8;fill:none;stroke:#5B5D65;stroke-width:0.3979;stroke-linecap:round;stroke-linejoin:round;stroke-miterlimit:10;" cx="239.864" cy="175.992" r="0.85"/>
		
			<circle style="opacity:0.8;fill:none;stroke:#5B5D65;stroke-width:0.3979;stroke-linecap:round;stroke-linejoin:round;stroke-miterlimit:10;" cx="235.149" cy="175.992" r="0.85"/>
	</g>
	<g>
		
			<rect x="363.565" y="111.036" style="opacity:0.8;fill:none;stroke:#5B5D65;stroke-width:0.3979;stroke-linecap:round;stroke-linejoin:round;stroke-miterlimit:10;" width="75.51" height="75.51"/>
		
			<circle style="opacity:0.8;fill:none;stroke:#5B5D65;stroke-width:0.3979;stroke-linecap:round;stroke-linejoin:round;stroke-miterlimit:10;" cx="401.368" cy="141.856" r="5.664"/>
		
			<circle style="opacity:0.8;fill:none;stroke:#5B5D65;stroke-width:0.3979;stroke-linecap:round;stroke-linejoin:round;stroke-miterlimit:10;" cx="401.367" cy="122.362" r="2.203"/>
		
			<circle style="opacity:0.8;fill:none;stroke:#5B5D65;stroke-width:0.3979;stroke-linecap:round;stroke-linejoin:round;stroke-miterlimit:10;" cx="423.271" cy="122.362" r="2.203"/>
		
			<path style="opacity:0.8;fill:none;stroke:#5B5D65;stroke-width:0.3979;stroke-linecap:round;stroke-linejoin:round;stroke-miterlimit:10;" d="
			M432.38,180.253l-62.12,0.001c-0.222,0-0.403-0.181-0.403-0.403l-0.001-62.12c0-0.222,0.181-0.403,0.403-0.403l62.12-0.001
			c0.222,0,0.403,0.181,0.403,0.403l0.001,62.12C432.783,180.072,432.602,180.253,432.38,180.253z"/>
		
			<path style="opacity:0.8;fill:none;stroke:#5B5D65;stroke-width:0.3979;stroke-linecap:round;stroke-linejoin:round;stroke-miterlimit:10;" d="
			M429.263,177.1l-55.827,0.001c-0.222,0-0.403-0.181-0.403-0.403l-0.001-49.534c0-0.222,0.181-0.403,0.403-0.403l55.827-0.001
			c0.222,0,0.403,0.181,0.403,0.403l0.001,49.534C429.666,176.919,429.485,177.1,429.263,177.1z"/>
	</g>
	<g>
		
			<line style="opacity:0.8;fill:none;stroke:#5B5D65;stroke-width:0.3979;stroke-linecap:round;stroke-linejoin:round;stroke-miterlimit:10;" x1="535.072" y1="122.579" x2="525.884" y2="122.579"/>
		
			<path style="opacity:0.8;fill:none;stroke:#5B5D65;stroke-width:0.3979;stroke-linecap:round;stroke-linejoin:round;stroke-miterlimit:10;" d="
			M521.813,122.579l-18.988,0c-2.593,0-4.688,2.269-4.688,5.061l0.001,146.929c0,10.025,3.458,19.703,9.696,27.126
			c14.815,17.616,40.458,17.616,55.269,0c6.246-7.423,9.705-17.101,9.705-27.126l-0.001-146.929c0-2.793-2.104-5.061-4.697-5.061
			l-22.235,0"/>
		
			<rect x="491.425" y="111.767" style="opacity:0.8;fill:none;stroke:#5B5D65;stroke-width:0.3979;stroke-linecap:round;stroke-linejoin:round;stroke-miterlimit:10;" width="88.095" height="213.945"/>
		
			<path style="opacity:0.8;fill:none;stroke:#5B5D65;stroke-width:0.3979;stroke-linecap:round;stroke-linejoin:round;stroke-miterlimit:10;" d="
			M535.469,155.37c-2.491,0-4.506-2.016-4.506-4.506c0-2.486,2.016-4.506,4.506-4.506c2.491,0,4.511,2.02,4.511,4.506
			C539.98,153.355,537.96,155.37,535.469,155.37z"/>
		
			<path style="opacity:0.8;fill:none;stroke:#5B5D65;stroke-width:0.3979;stroke-linecap:round;stroke-linejoin:round;stroke-miterlimit:10;" d="
			M525.884,111.768l-4.071,0l0,6.633v0.453v10.482c0,0,0.076,2.158,2.033,2.158c1.958,0,2.038-2.158,2.038-2.158v-10.482v-0.453
			l0-2.447"/>
		
			<path style="opacity:0.8;fill:none;stroke:#5B5D65;stroke-width:0.3979;stroke-linecap:round;stroke-linejoin:round;stroke-miterlimit:10;" d="
			M542.801,117.472l0.109-1.321c0.169-2.095-1.407-4.08-3.716-4.351c-0.155-0.018-0.306-0.027-0.466-0.027
			c-0.155,0-0.311,0.009-0.466,0.027c-2.309,0.271-3.885,2.255-3.72,4.351l1.878,22.749c0,0.724,0.648,1.31,1.452,1.31l1.709,0
			c0.808,0,1.447-0.586,1.447-1.31l0.953-11.523"/>
		
			<path style="opacity:0.8;fill:none;stroke:#5B5D65;stroke-width:0.3979;stroke-linecap:round;stroke-linejoin:round;stroke-miterlimit:10;" d="
			M546.271,128.116l-0.666,0.404c-1.19,0.71-2.744,0.329-3.454-0.861l-5.501-9.128c-0.715-1.185-0.329-2.739,0.852-3.458l0.679-0.4
			c1.177-0.715,2.735-0.324,3.45,0.857l5.496,9.132C547.842,125.847,547.461,127.401,546.271,128.116z"/>
		
			<path style="opacity:0.8;fill:none;stroke:#5B5D65;stroke-width:0.3979;stroke-linecap:round;stroke-linejoin:round;stroke-miterlimit:10;" d="
			M542.684,117.286c3.21-0.174,7.381-0.503,8.497-1.068c1.554-0.795,0.866-3.006,0.866-3.006V111.8l-26.647,0v1.412
			c0,0-0.684,2.211,0.87,3.006c1.098,0.558,5.17,0.885,8.364,1.061"/>
		
			<path style="opacity:0.8;fill:none;stroke:#5B5D65;stroke-width:0.3979;stroke-linecap:round;stroke-linejoin:round;stroke-miterlimit:10;" d="
			M520.054,122.579c-2.379,1.331-3.986,3.875-3.986,6.793c0,4.298,3.481,7.783,7.778,7.783c4.297,0,7.778-3.485,7.778-7.783
			c0-2.917-1.607-5.462-3.986-6.793"/>
	</g>
	<g>
		
			<path style="opacity:0.8;fill:none;stroke:#5B5D65;stroke-width:0.3979;stroke-linecap:round;stroke-linejoin:round;stroke-miterlimit:10;" d="
			M663.771,161.422c0,1.588-1.293,2.875-2.885,2.875c-1.589,0-2.879-1.287-2.879-2.875c0-1.591,1.29-2.878,2.879-2.878
			C662.477,158.544,663.771,159.831,663.771,161.422z"/>
		
			<line style="opacity:0.8;fill:none;stroke:#5B5D65;stroke-width:0.3979;stroke-linecap:round;stroke-linejoin:round;stroke-miterlimit:10;" x1="656.689" y1="161.42" x2="665.088" y2="161.42"/>
		
			<line style="opacity:0.8;fill:none;stroke:#5B5D65;stroke-width:0.3979;stroke-linecap:round;stroke-linejoin:round;stroke-miterlimit:10;" x1="660.889" y1="165.62" x2="660.889" y2="157.221"/>
		
			<path style="opacity:0.8;fill:none;stroke:#5B5D65;stroke-width:0.3979;stroke-linecap:round;stroke-linejoin:round;stroke-miterlimit:10;" d="
			M662.953,147.622c0,1.14-0.926,2.063-2.067,2.063c-1.138,0-2.062-0.923-2.062-2.063c0-1.142,0.924-2.065,2.062-2.065
			C662.027,145.556,662.953,146.48,662.953,147.622z"/>
		
			<line style="opacity:0.8;fill:none;stroke:#5B5D65;stroke-width:0.3979;stroke-linecap:round;stroke-linejoin:round;stroke-miterlimit:10;" x1="657.59" y1="147.621" x2="664.188" y2="147.621"/>
		
			<line style="opacity:0.8;fill:none;stroke:#5B5D65;stroke-width:0.3979;stroke-linecap:round;stroke-linejoin:round;stroke-miterlimit:10;" x1="660.889" y1="150.92" x2="660.889" y2="144.321"/>
		
			<path style="opacity:0.8;fill:none;stroke:#5B5D65;stroke-width:0.3979;stroke-linecap:round;stroke-linejoin:round;stroke-miterlimit:10;" d="
			M691.999,160.205c0.111-1.48,0.18-3.315,0.103-5.42c-0.03-0.822-0.108-2.39-0.355-4.36c-0.203-1.623-0.537-3.643-1.109-5.941
			c-0.62-1.857-1.24-3.713-1.86-5.57c-0.001,0-0.013,0-0.017,0c-0.789,0-55.951,0-56.179,0c-0.004,0-0.016,0-0.017,0
			c-0.62,1.857-1.24,3.713-1.86,5.57c-0.572,2.298-0.906,4.318-1.109,5.941c-0.247,1.97-0.325,3.539-0.355,4.36
			c-0.077,2.104-0.008,3.939,0.103,5.418c0.042,2.054,0.529,15.215,11.193,23.814c7.894,6.365,16.733,6.495,20.134,6.495
			c3.401,0,12.24-0.13,20.134-6.496C691.47,175.419,691.957,162.258,691.999,160.205z"/>
		
			<path style="opacity:0.8;fill:none;stroke:#5B5D65;stroke-width:0.3979;stroke-linecap:round;stroke-linejoin:round;stroke-miterlimit:10;" d="
			M683.394,163.426c0.064-0.717,0.129-1.694-0.218-2.858c-0.018-0.06-0.035-0.111-0.05-0.155c0,0-0.349-1.015-1.124-1.932
			c-4.051-4.792-21.128-4.792-21.128-4.792l0,0c-9.378,0-17.273,0.509-20.812,4.785c-0.001,0.001-0.003,0.004-0.004,0.005
			c0,0.001-0.002,0.002-0.002,0.003c-0.827,0.947-1.084,1.792-1.124,1.93c0,0,0,0.002-0.001,0.002
			c-0.435,1.272-0.281,2.82-0.268,3.014c0.099,1.467,0.148,2.201,0.362,3.254c1.223,6.04,3.749,9.797,3.75,9.797
			c1.883,2.8,3.937,4.493,5.008,5.362c0.859,0.697,2.172,1.751,4.076,2.719c4.165,2.119,7.994,2.222,9.016,2.228
			c4.512,0.027,7.823-1.51,9.324-2.227l0.001,0c1.102-0.597,2.538-1.474,4.077-2.72c1.056-0.856,3.119-2.553,5.008-5.362
			c0,0,2.549-3.791,3.749-9.797C683.164,166.022,683.241,165.157,683.394,163.426z"/>
	</g>
	<g>
		
			<ellipse style="opacity:0.8;fill:none;stroke:#5B5D65;stroke-width:0.3979;stroke-linecap:round;stroke-linejoin:round;stroke-miterlimit:10;" cx="761.484" cy="231.906" rx="2.067" ry="2.073"/>
		
			<line style="opacity:0.8;fill:none;stroke:#5B5D65;stroke-width:0.3979;stroke-linecap:round;stroke-linejoin:round;stroke-miterlimit:10;" x1="761.484" y1="228.286" x2="761.484" y2="229.834"/>
		
			<line style="opacity:0.8;fill:none;stroke:#5B5D65;stroke-width:0.3979;stroke-linecap:round;stroke-linejoin:round;stroke-miterlimit:10;" x1="761.484" y1="233.979" x2="761.484" y2="235.527"/>
		
			<line style="opacity:0.8;fill:none;stroke:#5B5D65;stroke-width:0.3979;stroke-linecap:round;stroke-linejoin:round;stroke-miterlimit:10;" x1="757.873" y1="231.906" x2="759.417" y2="231.906"/>
		
			<line style="opacity:0.8;fill:none;stroke:#5B5D65;stroke-width:0.3979;stroke-linecap:round;stroke-linejoin:round;stroke-miterlimit:10;" x1="763.552" y1="231.906" x2="765.096" y2="231.906"/>
		
			<line style="opacity:0.8;fill:none;stroke:#5B5D65;stroke-width:0.3979;stroke-linecap:round;stroke-linejoin:round;stroke-miterlimit:10;" x1="744.716" y1="220.373" x2="744.716" y2="221.209"/>
		
			<line style="opacity:0.8;fill:none;stroke:#5B5D65;stroke-width:0.3979;stroke-linecap:round;stroke-linejoin:round;stroke-miterlimit:10;" x1="744.716" y1="223.445" x2="744.716" y2="224.28"/>
		
			<line style="opacity:0.8;fill:none;stroke:#5B5D65;stroke-width:0.3979;stroke-linecap:round;stroke-linejoin:round;stroke-miterlimit:10;" x1="742.768" y1="222.327" x2="743.601" y2="222.327"/>
		
			<line style="opacity:0.8;fill:none;stroke:#5B5D65;stroke-width:0.3979;stroke-linecap:round;stroke-linejoin:round;stroke-miterlimit:10;" x1="745.831" y1="222.327" x2="746.664" y2="222.327"/>
		
			<ellipse style="opacity:0.8;fill:none;stroke:#5B5D65;stroke-width:0.3979;stroke-linecap:round;stroke-linejoin:round;stroke-miterlimit:10;" cx="744.716" cy="222.327" rx="1.115" ry="1.118"/>
		
			<ellipse style="opacity:0.8;fill:none;stroke:#5B5D65;stroke-width:0.3979;stroke-linecap:round;stroke-linejoin:round;stroke-miterlimit:10;" cx="744.716" cy="241.486" rx="1.115" ry="1.118"/>
		
			<line style="opacity:0.8;fill:none;stroke:#5B5D65;stroke-width:0.3979;stroke-linecap:round;stroke-linejoin:round;stroke-miterlimit:10;" x1="744.716" y1="239.533" x2="744.716" y2="240.368"/>
		
			<line style="opacity:0.8;fill:none;stroke:#5B5D65;stroke-width:0.3979;stroke-linecap:round;stroke-linejoin:round;stroke-miterlimit:10;" x1="744.716" y1="242.604" x2="744.716" y2="243.44"/>
		
			<line style="opacity:0.8;fill:none;stroke:#5B5D65;stroke-width:0.3979;stroke-linecap:round;stroke-linejoin:round;stroke-miterlimit:10;" x1="742.768" y1="241.486" x2="743.601" y2="241.486"/>
		
			<line style="opacity:0.8;fill:none;stroke:#5B5D65;stroke-width:0.3979;stroke-linecap:round;stroke-linejoin:round;stroke-miterlimit:10;" x1="745.831" y1="241.486" x2="746.664" y2="241.486"/>
		
			<path style="opacity:0.8;fill:none;stroke:#5B5D65;stroke-width:0.3979;stroke-linecap:round;stroke-linejoin:round;stroke-miterlimit:10;" d="
			M726.86,252.145c0.864-0.057,1.572-0.124,2.039-0.171c8.5-1.512,14.183-3.339,22.684-4.851c-0.53-4.572-0.88-9.67-0.881-15.216
			c-0.001-5.568,0.349-10.686,0.881-15.273c-8.5-1.512-14.184-3.282-22.684-4.794c-0.466-0.048-1.175-0.115-2.039-0.171
			c-5.095-0.335-13.679-0.899-21.42,3.294c-1.249,0.676-3.765,2.067-6.169,4.722c-1.44,1.591-5.151,5.816-5.154,12.071
			c0,0.052,0.005,0.101,0.005,0.152c0,0.051-0.005,0.1-0.005,0.152c0.003,6.255,3.714,10.48,5.154,12.071
			c2.404,2.655,4.921,4.045,6.169,4.722C713.182,253.044,721.765,252.48,726.86,252.145z"/>
		
			<path style="opacity:0.8;fill:none;stroke:#5B5D65;stroke-width:0.3979;stroke-linecap:round;stroke-linejoin:round;stroke-miterlimit:10;" d="
			M725.439,248.836c2.556-0.356,5.415-0.788,8.351-2.798c3.621-2.479,5.092-5.809,5.555-6.894c1.261-2.959,1.261-5.478,1.261-7.237
			c0-1.759,0-4.278-1.261-7.237c-0.463-1.085-1.934-4.415-5.555-6.894c-2.936-2.01-5.795-2.442-8.351-2.798
			c-3.257-0.454-11.773-1.642-19.437,3.362c-1.908,1.246-5.937,3.914-7.601,9.04c-0.345,1.062-1.402,4.738,0,9.056
			c1.664,5.125,5.692,7.792,7.601,9.039C713.666,250.478,722.183,249.29,725.439,248.836z"/>
		
			<path style="opacity:0.8;fill:none;stroke:#5B5D65;stroke-width:0.3979;stroke-linecap:round;stroke-linejoin:round;stroke-miterlimit:10;" d="
			M733.445,242.409c3.904-3.97,3.89-9.145,3.88-10.502c0.011-1.357,0.024-6.532-3.88-10.502c-3.453-3.512-8.195-4.272-11.96-4.248
			c-2.329,0.015-4.107,0.206-5.554,0.462c-3.578,0.631-7.17,1.265-10.256,3.883c-2.441,2.07-5.002,5.752-4.954,10.439
			c0.057,5.544,3.73,9.117,5.009,10.22c3.205,2.764,6.938,3.443,10.202,4.036c1.321,0.24,3.155,0.446,5.554,0.462
			C725.25,246.681,729.992,245.921,733.445,242.409z"/>
		
			<path style="opacity:0.8;fill:none;stroke:#5B5D65;stroke-width:0.3979;stroke-linecap:round;stroke-linejoin:round;stroke-miterlimit:10;" d="
			M731.402,237.143c0.611-0.213,1.609-0.652,2.524-1.541c0.513-0.498,0.858-1,1.088-1.405c0-0.009,0-0.015,0-0.024
			c0-2.113,0-2.434,0-4.532c0-0.009,0-0.015,0-0.024c-0.23-0.404-0.575-0.906-1.088-1.405c-0.916-0.89-1.914-1.328-2.524-1.541
			c-2.814-0.074-5.628-0.149-8.442-0.223c-0.379,0.022-1.801,0.149-2.973,1.236c-0.914,0.848-1.182,1.822-1.266,2.215
			c0,1.339,0,2.678,0,4.017c0.084,0.393,0.352,1.367,1.266,2.215c1.172,1.087,2.594,1.214,2.973,1.236
			C725.773,237.291,728.588,237.217,731.402,237.143z"/>
		
			<path style="opacity:0.8;fill:none;stroke:#5B5D65;stroke-width:0.3979;stroke-linecap:round;stroke-linejoin:round;stroke-miterlimit:10;" d="
			M728.077,237.241c-0.5-0.639-1.849-2.536-1.87-5.267c-0.022-2.813,1.376-4.769,1.87-5.401"/>
		
			<path style="opacity:0.8;fill:none;stroke:#5B5D65;stroke-width:0.3979;stroke-linecap:round;stroke-linejoin:round;stroke-miterlimit:10;" d="
			M774.031,253.506l0-43.199c0-0.582-0.504-1.054-1.126-1.054c0,0-10.463,0-11.58,0c-0.612,0.132-1.41,0.344-2.305,0.694
			c-0.896,0.35-1.89,0.838-2.896,1.523c-1.326,0.904-2.318,1.909-3.051,2.832c-0.732,0.922-1.204,1.761-1.49,2.332
			c-0.266,2.294-0.486,4.72-0.64,7.269c-0.154,2.549-0.241,5.22-0.241,8.004c0,2.773,0.088,5.434,0.242,7.973
			c0.154,2.539,0.374,4.957,0.639,7.243c0.212,0.505,0.574,1.263,1.16,2.114c0.587,0.851,1.399,1.796,2.513,2.675
			c1.204,0.949,2.434,1.564,3.507,1.965c1.073,0.401,1.988,0.588,2.562,0.683c1.276,0,11.58,0,11.58,0
			C773.527,254.56,774.031,254.088,774.031,253.506z"/>
	</g>
</g>
<g id="&#x43D;&#x435;&#x441;&#x443;&#x449;&#x438;&#x435;">
	
		<rect x="28.27" y="889.083" style="fill:#5B5D65;stroke:#5B5D65;stroke-width:1.5918;stroke-linecap:round;stroke-linejoin:round;stroke-miterlimit:10;" width="134.519" height="26.389"/>
	
		<rect x="631.903" y="889.083" style="fill:#5B5D65;stroke:#5B5D65;stroke-width:1.5918;stroke-linecap:round;stroke-linejoin:round;stroke-miterlimit:10;" width="133.668" height="26.389"/>
	
		<rect x="28.27" y="84.523" style="fill:#5B5D65;stroke:#5B5D65;stroke-width:1.5918;stroke-linecap:round;stroke-linejoin:round;stroke-miterlimit:10;" width="134.519" height="27.24"/>
	
		<rect x="631.903" y="84.523" style="fill:#5B5D65;stroke:#5B5D65;stroke-width:1.5918;stroke-linecap:round;stroke-linejoin:round;stroke-miterlimit:10;" width="133.668" height="27.24"/>
	
		<rect x="872.846" y="545.123" style="fill:#5B5D65;stroke:#5B5D65;stroke-width:1.5918;stroke-linecap:round;stroke-linejoin:round;stroke-miterlimit:10;" width="26.393" height="133.665"/>
	
		<rect x="0.796" y="804.88" style="fill:#5B5D65;stroke:#5B5D65;stroke-width:1.5918;stroke-linecap:round;stroke-linejoin:round;stroke-miterlimit:10;" width="53.867" height="110.597"/>
	
		<rect x="0.796" y="411.51" style="fill:#5B5D65;stroke:#5B5D65;stroke-width:1.5918;stroke-linecap:round;stroke-linejoin:round;stroke-miterlimit:10;" width="53.867" height="178.821"/>
	
		<rect x="0.796" y="84.523" style="fill:#5B5D65;stroke:#5B5D65;stroke-width:1.5918;stroke-linecap:round;stroke-linejoin:round;stroke-miterlimit:10;" width="53.867" height="110.763"/>
</g>
<g id="&#x43B;&#x435;&#x441;&#x442;&#x43D;&#x438;&#x446;&#x44B;_x2C__&#x43B;&#x438;&#x444;&#x442;&#x44B;">
</g>
<g id="&#x43F;&#x43B;&#x43E;&#x449;&#x430;&#x434;&#x438;">
	<g>
		<path style="fill:#5B5D65;" d="M116.377,449.42c-0.395,0-0.744-0.151-1.047-0.455s-0.455-0.652-0.455-1.047
			c0-0.698,0.25-1.131,0.751-1.298c1.093-0.364,2.003-0.781,2.731-1.252c3.232-2.094,5.038-4.749,5.417-7.967h-4.393
			c-2.079,0-3.851-0.731-5.315-2.196c-1.465-1.465-2.197-3.236-2.197-5.315v-3.004c0-2.079,0.732-3.851,2.197-5.315
			c1.464-1.464,3.236-2.197,5.315-2.197c2.094,0,3.87,0.725,5.327,2.174c1.457,1.45,2.185,3.213,2.185,5.292v9.06
			c0,5.099-2.375,9.127-7.125,12.087C118.236,448.943,117.105,449.42,116.377,449.42z M123.888,434.397v-7.511
			c0-1.244-0.44-2.307-1.32-3.187c-0.88-0.88-1.943-1.32-3.187-1.32c-1.245,0-2.307,0.44-3.187,1.32
			c-0.88,0.88-1.32,1.942-1.32,3.187v3.004c0,1.26,0.436,2.326,1.309,3.198c0.873,0.873,1.938,1.309,3.198,1.309H123.888z"/>
		<path style="fill:#5B5D65;" d="M135.907,446.415c1.001,0,1.502,0.493,1.502,1.479c0,0.137-0.516,2.269-1.548,6.396
			c-0.182,0.759-0.668,1.138-1.457,1.138c-1.001,0-1.502-0.5-1.502-1.502c0-0.683,0.516-2.808,1.548-6.373
			C134.662,446.795,135.148,446.415,135.907,446.415z"/>
		<path style="fill:#5B5D65;" d="M149.427,424.51l-3.452,3.453c-0.29,0.284-0.64,0.425-1.05,0.425c-1.004,0-1.507-0.501-1.507-1.502
			c0-0.41,0.144-0.759,0.433-1.047l5.873-5.873c0.395-0.394,0.797-0.592,1.207-0.592c1.001,0,1.502,0.501,1.502,1.502v27.042
			c0,1.001-0.501,1.502-1.502,1.502s-1.502-0.5-1.502-1.502V424.51z"/>
		<path style="fill:#5B5D65;" d="M173.465,434.397c0,3.582-0.44,6.678-1.32,9.287c-1.29,3.824-3.354,5.736-6.191,5.736
			c-2.838,0-4.902-1.904-6.191-5.713c-0.88-2.61-1.32-5.714-1.32-9.311c0-3.596,0.44-6.699,1.32-9.31
			c1.29-3.809,3.354-5.713,6.191-5.713c2.837,0,4.901,1.912,6.191,5.736C173.024,427.721,173.465,430.816,173.465,434.397z
			 M170.46,434.397c0-2.488-0.266-4.833-0.796-7.033c-0.805-3.323-2.042-4.985-3.71-4.985c-1.654,0-2.883,1.669-3.688,5.008
			c-0.546,2.246-0.819,4.583-0.819,7.01c0,2.474,0.265,4.818,0.797,7.034c0.804,3.323,2.041,4.984,3.71,4.984
			c1.669,0,2.906-1.661,3.71-4.984C170.194,439.215,170.46,436.87,170.46,434.397z"/>
	</g>
	<g>
		<path style="fill:#5B5D65;" d="M117.879,802.109l-3.452,3.453c-0.29,0.283-0.64,0.425-1.05,0.425
			c-1.004,0-1.507-0.501-1.507-1.502c0-0.41,0.144-0.759,0.433-1.048l5.873-5.872c0.395-0.395,0.797-0.592,1.207-0.592
			c1.001,0,1.502,0.5,1.502,1.502v27.042c0,1.001-0.501,1.502-1.502,1.502s-1.502-0.5-1.502-1.502V802.109z"/>
		<path style="fill:#5B5D65;" d="M134.405,796.973c2.079,0,3.851,0.732,5.315,2.196c1.464,1.465,2.197,3.236,2.197,5.315
			c0,1.426-0.456,2.867-1.366,4.324l-9.469,15.205h9.332c1.001,0,1.502,0.501,1.502,1.503c0,1.001-0.501,1.502-1.502,1.502h-12.019
			c-1.001,0-1.502-0.5-1.502-1.502c0-0.303,0.084-0.592,0.251-0.864l11.015-17.688c0.501-0.804,0.752-1.631,0.752-2.48
			c0-1.244-0.44-2.307-1.32-3.187c-0.88-0.88-1.943-1.32-3.187-1.32c-1.7,0-3.27,1.26-4.712,3.779
			c-0.273,0.485-0.706,0.729-1.297,0.729c-1.001,0-1.502-0.501-1.502-1.503c0-0.228,0.046-0.433,0.137-0.614
			C128.896,798.771,131.354,796.973,134.405,796.973z"/>
		<path style="fill:#5B5D65;" d="M150.93,824.014c1.001,0,1.502,0.493,1.502,1.479c0,0.137-0.516,2.269-1.548,6.396
			c-0.182,0.759-0.668,1.138-1.457,1.138c-1.001,0-1.502-0.5-1.502-1.502c0-0.683,0.516-2.808,1.548-6.373
			C149.685,824.394,150.171,824.014,150.93,824.014z"/>
		<path style="fill:#5B5D65;" d="M173.465,811.995c0,3.582-0.44,6.678-1.32,9.287c-1.29,3.824-3.354,5.736-6.191,5.736
			c-2.838,0-4.902-1.904-6.191-5.713c-0.88-2.61-1.32-5.714-1.32-9.311c0-3.596,0.44-6.699,1.32-9.31
			c1.29-3.809,3.354-5.713,6.191-5.713c2.837,0,4.901,1.912,6.191,5.735C173.024,805.319,173.465,808.414,173.465,811.995z
			 M170.46,811.995c0-2.488-0.266-4.833-0.796-7.033c-0.805-3.323-2.042-4.985-3.71-4.985c-1.654,0-2.883,1.67-3.688,5.008
			c-0.546,2.246-0.819,4.583-0.819,7.011c0,2.474,0.265,4.818,0.797,7.034c0.804,3.323,2.041,4.984,3.71,4.984
			c1.669,0,2.906-1.661,3.71-4.984C170.194,816.814,170.46,814.469,170.46,811.995z"/>
		<path style="fill:#5B5D65;" d="M188.106,813.499l-1.117-0.001c-1.004,0-1.506-0.501-1.506-1.503c0-1.001,0.499-1.502,1.498-1.502
			l1.77-0.002l2.359-10.515h-10.133c-1.002,0-1.503-0.5-1.503-1.502s0.501-1.502,1.502-1.502h12.019
			c0.986,0,1.487,0.485,1.502,1.456c0,0.092-0.016,0.213-0.045,0.364l-2.6,11.699l1.14,0.001c1.003,0,1.505,0.501,1.505,1.502
			c0,1.002-0.502,1.503-1.508,1.503l-1.828-0.003l-2.719,12.34c-0.182,0.789-0.66,1.184-1.434,1.184c-1.017,0-1.525-0.5-1.525-1.502
			c0-0.151,0.009-0.265,0.028-0.341L188.106,813.499z"/>
	</g>
	<g>
		<path style="fill:#5B5D65;" d="M661.443,629.153v-12.019c0-1.002,0.501-1.502,1.502-1.502h10.516c1.001,0,1.502,0.5,1.502,1.502
			s-0.501,1.502-1.502,1.502h-9.014v9.015h4.507c2.079,0,3.851,0.736,5.315,2.208s2.197,3.239,2.197,5.303v3.005
			c0,2.079-0.736,3.851-2.208,5.315c-1.472,1.464-3.24,2.196-5.304,2.196h-6.009c-1.001,0-1.502-0.501-1.502-1.502
			c0-1.002,0.501-1.503,1.502-1.503h6.009c1.259,0,2.325-0.436,3.198-1.309c0.873-0.872,1.309-1.938,1.309-3.198v-3.005
			c0-1.244-0.44-2.306-1.32-3.187c-0.88-0.88-1.943-1.32-3.187-1.32h-6.009C661.944,630.655,661.443,630.155,661.443,629.153z"/>
		<path style="fill:#5B5D65;" d="M685.48,642.673c1.001,0,1.502,0.493,1.502,1.479c0,0.137-0.516,2.269-1.548,6.396
			c-0.182,0.759-0.668,1.138-1.457,1.138c-1.001,0-1.502-0.5-1.502-1.502c0-0.683,0.516-2.808,1.548-6.373
			C684.236,643.053,684.721,642.673,685.48,642.673z"/>
		<path style="fill:#5B5D65;" d="M692.991,629.153v-12.019c0-1.002,0.501-1.502,1.502-1.502h10.516c1.001,0,1.502,0.5,1.502,1.502
			s-0.501,1.502-1.502,1.502h-9.014v9.015h4.507c2.079,0,3.851,0.736,5.315,2.208s2.197,3.239,2.197,5.303v3.005
			c0,2.079-0.736,3.851-2.208,5.315c-1.472,1.464-3.24,2.196-5.304,2.196h-6.009c-1.001,0-1.502-0.501-1.502-1.502
			c0-1.002,0.501-1.503,1.502-1.503h6.009c1.259,0,2.325-0.436,3.198-1.309c0.873-0.872,1.309-1.938,1.309-3.198v-3.005
			c0-1.244-0.44-2.306-1.32-3.187c-0.88-0.88-1.943-1.32-3.187-1.32h-6.009C693.492,630.655,692.991,630.155,692.991,629.153z"/>
		<path style="fill:#5B5D65;" d="M714.024,638.166c0-0.167,0.015-0.303,0.046-0.409l6.009-21.032
			c0.212-0.729,0.698-1.093,1.457-1.093c1.001,0,1.502,0.502,1.502,1.506c0,0.137-0.018,0.281-0.053,0.434l-5.479,19.093h7.034
			v-4.507c0-1.002,0.5-1.503,1.502-1.503s1.502,0.501,1.502,1.503v4.507h3.004c1.002,0,1.502,0.501,1.502,1.502
			c0,1.002-0.5,1.503-1.502,1.503h-3.004v4.507c0,1.001-0.501,1.502-1.502,1.502s-1.502-0.501-1.502-1.502v-4.507h-9.014
			C714.525,639.669,714.024,639.168,714.024,638.166z"/>
	</g>
	<g>
		<path style="fill:#5B5D65;" d="M668.955,796.973c2.079,0,3.851,0.732,5.315,2.196c1.464,1.465,2.197,3.236,2.197,5.315
			c0,1.426-0.456,2.867-1.366,4.324l-9.469,15.205h9.332c1.001,0,1.502,0.501,1.502,1.503c0,1.001-0.501,1.502-1.502,1.502h-12.019
			c-1.001,0-1.502-0.5-1.502-1.502c0-0.303,0.084-0.592,0.251-0.864l11.015-17.688c0.501-0.804,0.752-1.631,0.752-2.48
			c0-1.244-0.44-2.307-1.32-3.187c-0.88-0.88-1.943-1.32-3.187-1.32c-1.7,0-3.27,1.26-4.712,3.779
			c-0.273,0.485-0.706,0.729-1.297,0.729c-1.001,0-1.502-0.501-1.502-1.503c0-0.228,0.046-0.433,0.137-0.614
			C663.447,798.771,665.905,796.973,668.955,796.973z"/>
		<path style="fill:#5B5D65;" d="M685.48,824.014c1.001,0,1.502,0.493,1.502,1.479c0,0.137-0.516,2.269-1.548,6.396
			c-0.182,0.759-0.668,1.138-1.457,1.138c-1.001,0-1.502-0.5-1.502-1.502c0-0.683,0.516-2.808,1.548-6.373
			C684.236,824.394,684.721,824.014,685.48,824.014z"/>
		<path style="fill:#5B5D65;" d="M692.991,810.494v-12.019c0-1.002,0.501-1.502,1.502-1.502h10.516c1.001,0,1.502,0.5,1.502,1.502
			s-0.501,1.502-1.502,1.502h-9.014v9.015h4.507c2.079,0,3.851,0.736,5.315,2.208s2.197,3.239,2.197,5.303v3.005
			c0,2.079-0.736,3.851-2.208,5.315c-1.472,1.464-3.24,2.196-5.304,2.196h-6.009c-1.001,0-1.502-0.501-1.502-1.502
			c0-1.002,0.501-1.503,1.502-1.503h6.009c1.259,0,2.325-0.436,3.198-1.309c0.873-0.872,1.309-1.938,1.309-3.198v-3.005
			c0-1.244-0.44-2.306-1.32-3.187c-0.88-0.88-1.943-1.32-3.187-1.32h-6.009C693.492,811.995,692.991,811.495,692.991,810.494z"/>
		<path style="fill:#5B5D65;" d="M720.033,802.109l-3.452,3.453c-0.29,0.283-0.64,0.425-1.05,0.425
			c-1.004,0-1.507-0.501-1.507-1.502c0-0.41,0.144-0.759,0.433-1.048l5.873-5.872c0.395-0.395,0.797-0.592,1.207-0.592
			c1.001,0,1.502,0.5,1.502,1.502v27.042c0,1.001-0.501,1.502-1.502,1.502s-1.502-0.5-1.502-1.502V802.109z"/>
	</g>
	<g>
		<path style="fill:#5B5D65;" d="M668.955,302.511h-3.004c-1.002,0-1.502-0.501-1.502-1.502s0.5-1.502,1.502-1.502h3.004
			c1.259,0,2.325-0.436,3.198-1.309c0.873-0.873,1.309-1.938,1.309-3.198c0-1.244-0.44-2.307-1.32-3.187
			c-0.88-0.88-1.943-1.32-3.187-1.32h-6.009c-1.001,0-1.502-0.501-1.502-1.502s0.501-1.502,1.502-1.502h6.009
			c2.079,0,3.851,0.736,5.315,2.208c1.464,1.472,2.197,3.24,2.197,5.304c0,2.489-1.001,4.492-3.005,6.009
			c2.003,1.518,3.005,3.521,3.005,6.009v3.004c0,2.08-0.736,3.851-2.208,5.315c-1.472,1.465-3.24,2.197-5.304,2.197h-6.009
			c-1.001,0-1.502-0.501-1.502-1.502s0.501-1.502,1.502-1.502h6.009c1.259,0,2.325-0.436,3.198-1.309
			c0.873-0.873,1.309-1.938,1.309-3.198v-3.004c0-1.244-0.44-2.307-1.32-3.187C671.261,302.951,670.199,302.511,668.955,302.511z"/>
		<path style="fill:#5B5D65;" d="M685.48,314.529c1.001,0,1.502,0.493,1.502,1.479c0,0.136-0.516,2.268-1.548,6.396
			c-0.182,0.759-0.668,1.138-1.457,1.138c-1.001,0-1.502-0.501-1.502-1.502c0-0.683,0.516-2.808,1.548-6.374
			C684.236,314.909,684.721,314.529,685.48,314.529z"/>
		<path style="fill:#5B5D65;" d="M701.624,304.014l-1.117-0.001c-1.004,0-1.506-0.5-1.506-1.502s0.499-1.502,1.498-1.502l1.77-0.002
			l2.359-10.514h-10.133c-1.002,0-1.503-0.501-1.503-1.502s0.501-1.502,1.502-1.502h12.019c0.986,0,1.487,0.486,1.502,1.457
			c0,0.091-0.016,0.212-0.045,0.364l-2.6,11.699l1.14,0.001c1.003,0,1.505,0.501,1.505,1.502s-0.502,1.502-1.508,1.502l-1.828-0.002
			l-2.719,12.34c-0.182,0.789-0.66,1.184-1.434,1.184c-1.017,0-1.525-0.5-1.525-1.501c0-0.152,0.009-0.265,0.028-0.341
			L701.624,304.014z"/>
		<path style="fill:#5B5D65;" d="M721.535,287.487c2.079,0,3.851,0.732,5.315,2.197s2.197,3.236,2.197,5.315
			c0,1.427-0.456,2.868-1.366,4.325l-9.469,15.206h9.332c1.001,0,1.502,0.5,1.502,1.502s-0.501,1.502-1.502,1.502h-12.019
			c-1.001,0-1.502-0.5-1.502-1.502c0-0.303,0.084-0.591,0.251-0.865l11.015-17.688c0.501-0.804,0.752-1.631,0.752-2.481
			c0-1.244-0.44-2.306-1.32-3.186c-0.88-0.88-1.943-1.32-3.187-1.32c-1.7,0-3.27,1.26-4.712,3.778
			c-0.273,0.486-0.706,0.729-1.297,0.729c-1.001,0-1.502-0.501-1.502-1.502c0-0.228,0.046-0.432,0.137-0.614
			C716.027,289.286,718.485,287.487,721.535,287.487z"/>
	</g>
</g>
<g id="&#x442;&#x430;&#x431;&#x43B;&#x438;&#x447;&#x43A;&#x438;">
</g>
<g id="&#x44D;&#x442;&#x430;&#x436;_x2C__&#x441;&#x435;&#x43A;&#x446;&#x438;&#x438;">
</g>
<g id="&#x421;&#x43B;&#x43E;&#x439;_12">
</g>
</svg>
