<?xml version="1.0" encoding="iso-8859-1"?>
<!-- Generator: Adobe Illustrator 27.0.0, SVG Export Plug-In . SVG Version: 6.00 Build 0)  -->
<svg version="1.1" xmlns="http://www.w3.org/2000/svg" xmlns:xlink="http://www.w3.org/1999/xlink" x="0px" y="0px"
	 viewBox="0 0 1000 1001.095" style="enable-background:new 0 0 1000 1001.095;" xml:space="preserve">
<g id="&#x446;&#x432;&#x435;&#x442;_&#x43F;&#x43E;&#x43C;&#x435;&#x449;&#x435;&#x43D;&#x438;&#x439;">
</g>
<g id="&#x43E;&#x43A;&#x43D;&#x430;_x2C__&#x434;&#x432;&#x435;&#x440;&#x438;">
	<g>
		
			<rect x="703.971" y="66.952" transform="matrix(1.873143e-06 -1 1 1.873143e-06 662.9238 812.2342)" style="fill:none;stroke:#5B5D65;stroke-width:0.5476;stroke-linecap:round;stroke-linejoin:round;stroke-miterlimit:10;" width="67.218" height="15.405"/>
		
			<rect x="720.73" y="71.599" transform="matrix(2.118814e-06 -1 1 2.118814e-06 679.683 828.9932)" style="fill:none;stroke:#5B5D65;stroke-width:0.5476;stroke-linecap:round;stroke-linejoin:round;stroke-miterlimit:10;" width="67.218" height="6.111"/>
	</g>
	<g>
		
			<rect x="680.151" y="197.92" transform="matrix(1.096217e-06 -1 1 1.096217e-06 531.9565 943.2019)" style="fill:none;stroke:#5B5D65;stroke-width:0.5476;stroke-linecap:round;stroke-linejoin:round;stroke-miterlimit:10;" width="114.858" height="15.405"/>
		
			<rect x="696.91" y="202.566" transform="matrix(1.239991e-06 -1 1 1.239991e-06 548.7161 959.9607)" style="fill:none;stroke:#5B5D65;stroke-width:0.5476;stroke-linecap:round;stroke-linejoin:round;stroke-miterlimit:10;" width="114.858" height="6.111"/>
	</g>
	<g>
		
			<rect x="680.151" y="398" transform="matrix(1.096217e-06 -1 1 1.096217e-06 331.8769 1143.2814)" style="fill:none;stroke:#5B5D65;stroke-width:0.5476;stroke-linecap:round;stroke-linejoin:round;stroke-miterlimit:10;" width="114.858" height="15.405"/>
		
			<rect x="696.91" y="402.646" transform="matrix(1.239991e-06 -1 1 1.239991e-06 348.6364 1160.0402)" style="fill:none;stroke:#5B5D65;stroke-width:0.5476;stroke-linecap:round;stroke-linejoin:round;stroke-miterlimit:10;" width="114.858" height="6.111"/>
	</g>
	<g>
		
			<rect x="680.151" y="616.952" transform="matrix(1.096217e-06 -1 1 1.096217e-06 112.924 1362.2339)" style="fill:none;stroke:#5B5D65;stroke-width:0.5476;stroke-linecap:round;stroke-linejoin:round;stroke-miterlimit:10;" width="114.858" height="15.405"/>
		
			<rect x="696.91" y="621.599" transform="matrix(1.239991e-06 -1 1 1.239991e-06 129.6836 1378.9927)" style="fill:none;stroke:#5B5D65;stroke-width:0.5476;stroke-linecap:round;stroke-linejoin:round;stroke-miterlimit:10;" width="114.858" height="6.111"/>
	</g>
	<g>
		
			<rect x="680.151" y="858.917" transform="matrix(1.096217e-06 -1 1 1.096217e-06 -129.0404 1604.198)" style="fill:none;stroke:#5B5D65;stroke-width:0.5476;stroke-linecap:round;stroke-linejoin:round;stroke-miterlimit:10;" width="114.858" height="15.405"/>
		
			<rect x="696.91" y="863.563" transform="matrix(1.239991e-06 -1 1 1.239991e-06 -112.2808 1620.9568)" style="fill:none;stroke:#5B5D65;stroke-width:0.5476;stroke-linecap:round;stroke-linejoin:round;stroke-miterlimit:10;" width="114.858" height="6.111"/>
	</g>
	<path style="fill:none;stroke:#5B5D65;stroke-width:0.5476;stroke-linecap:round;stroke-linejoin:round;stroke-miterlimit:10;" d="
		M424.07,862.571c0.053-25.557-20.72-46.314-46.381-46.368l-0.097,46.271"/>
	<path style="fill:none;stroke:#5B5D65;stroke-width:0.5476;stroke-linecap:round;stroke-linejoin:round;stroke-miterlimit:10;" d="
		M466.852,386.4c27.426,0,49.655-22.919,49.655-51.171l-49.655,0"/>
	<path style="fill:none;stroke:#5B5D65;stroke-width:0.5476;stroke-linecap:round;stroke-linejoin:round;stroke-miterlimit:10;" d="
		M391.679,409.63c25.198,0,45.622,21.057,45.622,47.014l-45.621,0"/>
	<path style="fill:none;stroke:#5B5D65;stroke-width:0.5476;stroke-linecap:round;stroke-linejoin:round;stroke-miterlimit:10;" d="
		M466.852,665.279c27.674,0,50.103,23.126,50.103,51.632l-50.103,0"/>
	<path style="fill:none;stroke:#5B5D65;stroke-width:0.5476;stroke-linecap:round;stroke-linejoin:round;stroke-miterlimit:10;" d="
		M466.852,830.381c27.674,0,50.103-23.126,50.103-51.632l-50.103,0"/>
	<path style="fill:none;stroke:#5B5D65;stroke-width:0.5476;stroke-linecap:round;stroke-linejoin:round;stroke-miterlimit:10;" d="
		M299.253,536.068c-31.792,0-57.559,26.567-57.56,59.317l57.559,0"/>
</g>
<g id="&#x43F;&#x435;&#x440;&#x435;&#x433;&#x43E;&#x440;&#x43E;&#x434;&#x43A;&#x438;">
	<polygon style="fill-rule:evenodd;clip-rule:evenodd;fill:#5B5D65;" points="293.464,600.548 293.018,737.155 292.571,873.762 
		306.858,874.208 306.858,873.762 307.303,600.548 	"/>
	<g>
		<g>
			<defs>
				<polygon id="SVGID_1_" points="334.982,15.28 334.536,174.654 334.089,334.029 347.929,334.476 347.929,334.029 348.822,15.28 
									"/>
			</defs>
			<use xlink:href="#SVGID_1_"  style="overflow:visible;fill-rule:evenodd;clip-rule:evenodd;fill:#5B5D65;"/>
			<clipPath id="SVGID_00000138542028342506204890000005842499233999639435_">
				<use xlink:href="#SVGID_1_"  style="overflow:visible;"/>
			</clipPath>
			
				<rect x="334.09" y="15.28" style="clip-path:url(#SVGID_00000138542028342506204890000005842499233999639435_);fill:#5B5D65;" width="14.73" height="319.196"/>
		</g>
		<polygon style="fill-rule:evenodd;clip-rule:evenodd;fill:#5B5D65;" points="295.25,333.359 294.804,398.797 294.357,464.404 
			293.911,529.841 307.75,530.012 307.75,529.841 309.089,382.608 309.536,333.359 		"/>
		<rect x="294.404" y="333.324" style="fill-rule:evenodd;clip-rule:evenodd;fill:#5B5D65;" width="53.531" height="14.098"/>
	</g>
	<rect x="320.473" y="871.753" style="fill-rule:evenodd;clip-rule:evenodd;fill:#5B5D65;" width="13.168" height="128.794"/>
	<rect x="330.518" y="986.039" style="fill-rule:evenodd;clip-rule:evenodd;fill:#5B5D65;" width="336.563" height="14.509"/>
	<rect x="331.411" y="971.084" style="fill-rule:evenodd;clip-rule:evenodd;fill:#5B5D65;" width="106.696" height="5.133"/>
	<rect x="433.197" y="974.654" style="fill-rule:evenodd;clip-rule:evenodd;fill:#5B5D65;" width="4.909" height="12.946"/>
	<rect x="292.572" y="860.368" style="fill-rule:evenodd;clip-rule:evenodd;fill:#5B5D65;" width="41.069" height="13.84"/>
	<rect x="330.072" y="860.368" style="fill-rule:evenodd;clip-rule:evenodd;fill:#5B5D65;" width="43.303" height="5.804"/>
	<path style="fill-rule:evenodd;clip-rule:evenodd;fill:#5B5D65;" d="M305.072,831.574v29.241h58.035v-29.241H305.072z
		 M357.973,852.78H313.1v-12.054h44.873V852.78z"/>
	<rect x="429.624" y="860.815" style="fill-rule:evenodd;clip-rule:evenodd;fill:#5B5D65;" width="70.536" height="5.358"/>
	<rect x="492.795" y="864.387" style="fill-rule:evenodd;clip-rule:evenodd;fill:#5B5D65;" width="7.364" height="121.875"/>
	<rect x="464" y="836.261" style="fill-rule:evenodd;clip-rule:evenodd;fill:#5B5D65;" width="5.335" height="26.786"/>
	<rect x="464.446" y="721.976" style="fill-rule:evenodd;clip-rule:evenodd;fill:#5B5D65;" width="5.358" height="50.894"/>
	<rect x="469.027" y="736.708" style="fill-rule:evenodd;clip-rule:evenodd;fill:#5B5D65;" width="143.188" height="6.25"/>
	<rect x="464.446" y="391.619" style="fill-rule:evenodd;clip-rule:evenodd;fill:#5B5D65;" width="6.697" height="266.963"/>
	<rect x="470.697" y="512.964" style="fill-rule:evenodd;clip-rule:evenodd;fill:#5B5D65;" width="262.573" height="6.774"/>
	<rect x="389" y="461.708" style="fill-rule:evenodd;clip-rule:evenodd;fill:#5B5D65;" width="5.358" height="24.107"/>
	<rect x="305.965" y="480.235" style="fill-rule:evenodd;clip-rule:evenodd;fill:#5B5D65;" width="86.384" height="5.58"/>
	<rect x="389" y="284.03" style="fill-rule:evenodd;clip-rule:evenodd;fill:#5B5D65;" width="6.251" height="120.982"/>
	<rect x="465.339" y="289.849" style="fill-rule:evenodd;clip-rule:evenodd;fill:#5B5D65;" width="5.358" height="38.823"/>
	<rect x="468.241" y="289.849" style="fill-rule:evenodd;clip-rule:evenodd;fill:#5B5D65;" width="139.81" height="6.011"/>
	<rect x="346.813" y="207.788" style="fill-rule:evenodd;clip-rule:evenodd;fill:#5B5D65;" width="15.625" height="4.813"/>
	<rect x="345.697" y="295.86" style="fill-rule:evenodd;clip-rule:evenodd;fill:#5B5D65;" width="46.652" height="5.134"/>
	<path style="fill-rule:evenodd;clip-rule:evenodd;fill:#5B5D65;" d="M343.911,207.788v78.921h51.337v-78.921H343.911z
		 M387.214,279.982h-26.118v-65.774h26.118V279.982z"/>
	<rect x="306.634" y="431.797" style="fill-rule:evenodd;clip-rule:evenodd;fill:#5B5D65;" width="15.4" height="5.358"/>
	<rect x="317.572" y="345.637" style="fill-rule:evenodd;clip-rule:evenodd;fill:#5B5D65;" width="4.686" height="89.063"/>
	<rect x="304.625" y="657.244" style="fill-rule:evenodd;clip-rule:evenodd;fill:#5B5D65;" width="89.283" height="5.804"/>
</g>
<g id="&#x448;&#x430;&#x445;&#x442;&#x44B;">
</g>
<g id="&#x43F;&#x443;&#x43D;&#x43A;&#x442;&#x438;&#x440;">
	<g>
		<g>
			
				<line style="fill:none;stroke:#5B5D65;stroke-width:0.5476;stroke-linecap:round;stroke-linejoin:round;" x1="395.25" y1="290.726" x2="400.14" y2="290.726"/>
			
				<line style="fill:none;stroke:#5B5D65;stroke-width:0.5476;stroke-linecap:round;stroke-linejoin:round;stroke-dasharray:8.6157,8.6157,0,0,0,0;" x1="408.755" y1="290.726" x2="460.45" y2="290.726"/>
			<polyline style="fill:none;stroke:#5B5D65;stroke-width:0.5476;stroke-linecap:round;stroke-linejoin:round;" points="
				460.45,290.726 465.339,290.726 465.339,285.837 			"/>
			
				<line style="fill:none;stroke:#5B5D65;stroke-width:0.5476;stroke-linecap:round;stroke-linejoin:round;stroke-dasharray:9.825,9.825,0,0,0,0;" x1="465.339" y1="276.012" x2="465.339" y2="20.561"/>
			
				<line style="fill:none;stroke:#5B5D65;stroke-width:0.5476;stroke-linecap:round;stroke-linejoin:round;" x1="465.339" y1="20.561" x2="465.339" y2="15.671"/>
		</g>
	</g>
	<g>
		<g>
			
				<line style="fill:none;stroke:#5B5D65;stroke-width:0.5476;stroke-linecap:round;stroke-linejoin:round;" x1="393.688" y1="485.592" x2="393.688" y2="490.481"/>
			
				<line style="fill:none;stroke:#5B5D65;stroke-width:0.5476;stroke-linecap:round;stroke-linejoin:round;stroke-dasharray:9.9493,9.9493,0,0,0,0;" x1="393.688" y1="500.431" x2="393.688" y2="858.604"/>
			
				<line style="fill:none;stroke:#5B5D65;stroke-width:0.5476;stroke-linecap:round;stroke-linejoin:round;" x1="393.688" y1="858.604" x2="393.688" y2="863.494"/>
		</g>
	</g>
</g>
<g id="&#x43C;&#x435;&#x431;&#x435;&#x43B;&#x44C;_x2C__&#x441;&#x430;&#x43D;&#x442;&#x435;&#x445;&#x43D;&#x438;&#x43A;&#x430;">
	<g>
		
			<rect x="348.225" y="168.997" transform="matrix(6.123234e-17 -1 1 6.123234e-17 179.2275 556.816)" style="opacity:0.8;fill:none;stroke:#5B5D65;stroke-width:0.2738;stroke-linecap:round;stroke-linejoin:round;stroke-miterlimit:10;" width="39.594" height="39.594"/>
		<g>
			
				<circle style="opacity:0.8;fill:none;stroke:#5B5D65;stroke-width:0.2738;stroke-linecap:round;stroke-linejoin:round;stroke-miterlimit:10;" cx="358.816" cy="178.334" r="6.929"/>
		</g>
		<g>
			
				<circle style="opacity:0.8;fill:none;stroke:#5B5D65;stroke-width:0.2738;stroke-linecap:round;stroke-linejoin:round;stroke-miterlimit:10;" cx="375.703" cy="200.244" r="5.939"/>
		</g>
		<g>
			
				<circle style="opacity:0.8;fill:none;stroke:#5B5D65;stroke-width:0.2738;stroke-linecap:round;stroke-linejoin:round;stroke-miterlimit:10;" cx="358.816" cy="200.244" r="4.619"/>
		</g>
		<g>
			
				<circle style="opacity:0.8;fill:none;stroke:#5B5D65;stroke-width:0.2738;stroke-linecap:round;stroke-linejoin:round;stroke-miterlimit:10;" cx="375.703" cy="178.334" r="4.619"/>
		</g>
		
			<circle style="opacity:0.8;fill:none;stroke:#5B5D65;stroke-width:0.2738;stroke-linecap:round;stroke-linejoin:round;stroke-miterlimit:10;" cx="384.758" cy="189.984" r="0.446"/>
		
			<circle style="opacity:0.8;fill:none;stroke:#5B5D65;stroke-width:0.2738;stroke-linecap:round;stroke-linejoin:round;stroke-miterlimit:10;" cx="384.758" cy="187.511" r="0.446"/>
		
			<circle style="opacity:0.8;fill:none;stroke:#5B5D65;stroke-width:0.2738;stroke-linecap:round;stroke-linejoin:round;stroke-miterlimit:10;" cx="382.285" cy="187.511" r="0.446"/>
		
			<circle style="opacity:0.8;fill:none;stroke:#5B5D65;stroke-width:0.2738;stroke-linecap:round;stroke-linejoin:round;stroke-miterlimit:10;" cx="382.285" cy="189.984" r="0.446"/>
	</g>
	<g>
		
			<rect x="348.225" y="99.528" transform="matrix(6.123234e-17 -1 1 6.123234e-17 248.6963 487.3473)" style="opacity:0.8;fill:none;stroke:#5B5D65;stroke-width:0.2738;stroke-linecap:round;stroke-linejoin:round;stroke-miterlimit:10;" width="39.594" height="39.594"/>
		
			<circle style="opacity:0.8;fill:none;stroke:#5B5D65;stroke-width:0.2738;stroke-linecap:round;stroke-linejoin:round;stroke-miterlimit:10;" cx="364.385" cy="119.3" r="2.97"/>
		
			<circle style="opacity:0.8;fill:none;stroke:#5B5D65;stroke-width:0.2738;stroke-linecap:round;stroke-linejoin:round;stroke-miterlimit:10;" cx="354.164" cy="119.3" r="1.155"/>
		
			<circle style="opacity:0.8;fill:none;stroke:#5B5D65;stroke-width:0.2738;stroke-linecap:round;stroke-linejoin:round;stroke-miterlimit:10;" cx="354.164" cy="107.815" r="1.155"/>
		
			<path style="opacity:0.8;fill:none;stroke:#5B5D65;stroke-width:0.2738;stroke-linecap:round;stroke-linejoin:round;stroke-miterlimit:10;" d="
			M384.519,103.158v32.335c0,0.181-0.148,0.33-0.33,0.33h-32.335c-0.181,0-0.33-0.148-0.33-0.33v-32.335
			c0-0.181,0.148-0.33,0.33-0.33h32.335C384.371,102.828,384.519,102.976,384.519,103.158z"/>
		
			<path style="opacity:0.8;fill:none;stroke:#5B5D65;stroke-width:0.2738;stroke-linecap:round;stroke-linejoin:round;stroke-miterlimit:10;" d="
			M382.866,104.792v29.036c0,0.181-0.148,0.33-0.33,0.33H356.8c-0.181,0-0.33-0.148-0.33-0.33v-29.036c0-0.181,0.148-0.33,0.33-0.33
			h25.736C382.718,104.462,382.866,104.611,382.866,104.792z"/>
	</g>
	<g>
		
			<path style="opacity:0.8;fill:none;stroke:#5B5D65;stroke-width:0.2738;stroke-linecap:round;stroke-linejoin:round;stroke-miterlimit:10;" d="
			M333.257,387.441c0.833,0,1.507-0.678,1.507-1.513c0-0.833-0.675-1.509-1.507-1.509c-0.834,0-1.509,0.676-1.509,1.509
			C331.748,386.762,332.422,387.441,333.257,387.441z"/>
		
			<line style="opacity:0.8;fill:none;stroke:#5B5D65;stroke-width:0.2738;stroke-linecap:round;stroke-linejoin:round;stroke-miterlimit:10;" x1="333.256" y1="383.727" x2="333.256" y2="388.131"/>
		
			<line style="opacity:0.8;fill:none;stroke:#5B5D65;stroke-width:0.2738;stroke-linecap:round;stroke-linejoin:round;stroke-miterlimit:10;" x1="335.458" y1="385.929" x2="331.054" y2="385.929"/>
		
			<path style="opacity:0.8;fill:none;stroke:#5B5D65;stroke-width:0.2738;stroke-linecap:round;stroke-linejoin:round;stroke-miterlimit:10;" d="
			M326.021,387.012c0.598,0,1.082-0.486,1.082-1.084c0-0.597-0.484-1.081-1.082-1.081c-0.599,0-1.083,0.484-1.083,1.081
			C324.938,386.526,325.422,387.012,326.021,387.012z"/>
		
			<line style="opacity:0.8;fill:none;stroke:#5B5D65;stroke-width:0.2738;stroke-linecap:round;stroke-linejoin:round;stroke-miterlimit:10;" x1="326.02" y1="384.199" x2="326.02" y2="387.659"/>
		
			<line style="opacity:0.8;fill:none;stroke:#5B5D65;stroke-width:0.2738;stroke-linecap:round;stroke-linejoin:round;stroke-miterlimit:10;" x1="327.75" y1="385.929" x2="324.29" y2="385.929"/>
		
			<path style="opacity:0.8;fill:none;stroke:#5B5D65;stroke-width:0.2738;stroke-linecap:round;stroke-linejoin:round;stroke-miterlimit:10;" d="
			M332.618,402.242c-0.776,0.058-1.738,0.094-2.842,0.054c-0.431-0.016-1.253-0.057-2.286-0.186
			c-0.851-0.107-1.91-0.282-3.115-0.582c-0.973-0.325-1.947-0.65-2.92-0.975c0-0.001,0-0.007,0-0.009c0-0.414,0-29.338,0-29.458
			c0-0.002,0-0.008,0-0.009c0.973-0.325,1.947-0.65,2.92-0.975c1.205-0.3,2.264-0.475,3.115-0.582
			c1.033-0.129,1.855-0.17,2.286-0.186c1.103-0.04,2.065-0.004,2.841,0.054c1.077,0.022,7.978,0.277,12.487,5.869
			c3.338,4.139,3.406,8.774,3.406,10.558s-0.068,6.418-3.406,10.557C340.596,401.965,333.695,402.22,332.618,402.242z"/>
		
			<path style="opacity:0.8;fill:none;stroke:#5B5D65;stroke-width:0.2738;stroke-linecap:round;stroke-linejoin:round;stroke-miterlimit:10;" d="
			M334.308,397.73c-0.376,0.033-0.888,0.067-1.499-0.114c-0.031-0.009-0.058-0.018-0.081-0.026c0,0-0.532-0.183-1.013-0.59
			c-2.513-2.124-2.513-11.079-2.513-11.079v0c0-4.918,0.267-9.057,2.509-10.913c0.001-0.001,0.002-0.002,0.002-0.002
			c0,0,0.001-0.001,0.001-0.001c0.496-0.433,0.94-0.568,1.012-0.589c0,0,0.001,0,0.001,0c0.667-0.228,1.479-0.147,1.581-0.141
			c0.769,0.052,1.154,0.078,1.706,0.19c3.167,0.641,5.137,1.966,5.137,1.966c1.468,0.987,2.356,2.064,2.811,2.626
			c0.366,0.451,0.918,1.139,1.426,2.137c1.111,2.184,1.165,4.191,1.168,4.727c0.014,2.366-0.792,4.102-1.168,4.889l0,0
			c-0.313,0.578-0.773,1.331-1.426,2.138c-0.449,0.554-1.339,1.636-2.811,2.626c0,0-1.988,1.337-5.137,1.966
			C335.669,397.61,335.215,397.65,334.308,397.73z"/>
	</g>
	<g>
		
			<ellipse style="opacity:0.8;fill:none;stroke:#5B5D65;stroke-width:0.2738;stroke-linecap:round;stroke-linejoin:round;stroke-miterlimit:10;" cx="368.537" cy="307.041" rx="1.087" ry="1.084"/>
		
			<line style="opacity:0.8;fill:none;stroke:#5B5D65;stroke-width:0.2738;stroke-linecap:round;stroke-linejoin:round;stroke-miterlimit:10;" x1="370.435" y1="307.041" x2="369.624" y2="307.041"/>
		
			<line style="opacity:0.8;fill:none;stroke:#5B5D65;stroke-width:0.2738;stroke-linecap:round;stroke-linejoin:round;stroke-miterlimit:10;" x1="367.45" y1="307.041" x2="366.638" y2="307.041"/>
		
			<line style="opacity:0.8;fill:none;stroke:#5B5D65;stroke-width:0.2738;stroke-linecap:round;stroke-linejoin:round;stroke-miterlimit:10;" x1="368.537" y1="308.935" x2="368.537" y2="308.125"/>
		
			<line style="opacity:0.8;fill:none;stroke:#5B5D65;stroke-width:0.2738;stroke-linecap:round;stroke-linejoin:round;stroke-miterlimit:10;" x1="368.537" y1="305.957" x2="368.537" y2="305.148"/>
		
			<line style="opacity:0.8;fill:none;stroke:#5B5D65;stroke-width:0.2738;stroke-linecap:round;stroke-linejoin:round;stroke-miterlimit:10;" x1="374.584" y1="315.834" x2="374.146" y2="315.834"/>
		
			<line style="opacity:0.8;fill:none;stroke:#5B5D65;stroke-width:0.2738;stroke-linecap:round;stroke-linejoin:round;stroke-miterlimit:10;" x1="372.973" y1="315.834" x2="372.535" y2="315.834"/>
		
			<line style="opacity:0.8;fill:none;stroke:#5B5D65;stroke-width:0.2738;stroke-linecap:round;stroke-linejoin:round;stroke-miterlimit:10;" x1="373.56" y1="316.856" x2="373.56" y2="316.419"/>
		
			<line style="opacity:0.8;fill:none;stroke:#5B5D65;stroke-width:0.2738;stroke-linecap:round;stroke-linejoin:round;stroke-miterlimit:10;" x1="373.56" y1="315.249" x2="373.56" y2="314.812"/>
		
			<circle style="opacity:0.8;fill:none;stroke:#5B5D65;stroke-width:0.2738;stroke-linecap:round;stroke-linejoin:round;stroke-miterlimit:10;" cx="373.56" cy="315.834" r="0.586"/>
		
			<circle style="opacity:0.8;fill:none;stroke:#5B5D65;stroke-width:0.2738;stroke-linecap:round;stroke-linejoin:round;stroke-miterlimit:10;" cx="363.513" cy="315.834" r="0.586"/>
		
			<line style="opacity:0.8;fill:none;stroke:#5B5D65;stroke-width:0.2738;stroke-linecap:round;stroke-linejoin:round;stroke-miterlimit:10;" x1="364.538" y1="315.834" x2="364.1" y2="315.834"/>
		
			<line style="opacity:0.8;fill:none;stroke:#5B5D65;stroke-width:0.2738;stroke-linecap:round;stroke-linejoin:round;stroke-miterlimit:10;" x1="362.927" y1="315.834" x2="362.489" y2="315.834"/>
		
			<line style="opacity:0.8;fill:none;stroke:#5B5D65;stroke-width:0.2738;stroke-linecap:round;stroke-linejoin:round;stroke-miterlimit:10;" x1="363.513" y1="316.855" x2="363.513" y2="316.419"/>
		
			<line style="opacity:0.8;fill:none;stroke:#5B5D65;stroke-width:0.2738;stroke-linecap:round;stroke-linejoin:round;stroke-miterlimit:10;" x1="363.513" y1="315.249" x2="363.513" y2="314.812"/>
		
			<path style="opacity:0.8;fill:none;stroke:#5B5D65;stroke-width:0.2738;stroke-linecap:round;stroke-linejoin:round;stroke-miterlimit:10;" d="
			M357.924,325.197c0.03-0.453,0.065-0.824,0.09-1.069c0.793-4.457,1.751-7.437,2.544-11.894c2.397,0.278,5.071,0.461,7.979,0.462
			c2.92,0.001,5.603-0.183,8.009-0.462c0.793,4.457,1.721,7.437,2.513,11.894c0.025,0.245,0.06,0.616,0.09,1.069
			c0.176,2.672,0.471,7.172-1.727,11.232c-0.355,0.655-1.084,1.974-2.476,3.235c-0.834,0.755-3.05,2.701-6.329,2.703
			c-0.027,0-0.053-0.003-0.08-0.003c-0.027,0-0.053,0.003-0.08,0.003c-3.28-0.002-5.495-1.948-6.329-2.703
			c-1.392-1.261-2.121-2.58-2.476-3.235C357.453,332.369,357.749,327.868,357.924,325.197z"/>
		
			<path style="opacity:0.8;fill:none;stroke:#5B5D65;stroke-width:0.2738;stroke-linecap:round;stroke-linejoin:round;stroke-miterlimit:10;" d="
			M359.659,325.942c0.187-1.34,0.413-2.839,1.467-4.379c1.3-1.898,3.046-2.67,3.615-2.912c1.551-0.661,2.873-0.661,3.795-0.661
			s2.243,0,3.795,0.661c0.569,0.243,2.315,1.014,3.615,2.913c1.054,1.539,1.28,3.039,1.467,4.379
			c0.238,1.708,0.861,6.173-1.763,10.192c-0.653,1.001-2.052,3.113-4.74,3.985c-0.557,0.181-2.484,0.735-4.748,0
			c-2.687-0.872-4.086-2.984-4.74-3.986C358.798,332.115,359.421,327.649,359.659,325.942z"/>
		
			<path style="opacity:0.8;fill:none;stroke:#5B5D65;stroke-width:0.2738;stroke-linecap:round;stroke-linejoin:round;stroke-miterlimit:10;" d="
			M363.03,321.744c2.082-2.047,4.795-2.04,5.507-2.034c0.712-0.006,3.425-0.013,5.507,2.034c1.841,1.811,2.24,4.297,2.227,6.271
			c-0.008,1.221-0.108,2.154-0.242,2.912c-0.331,1.876-0.663,3.76-2.036,5.378c-1.086,1.28-3.016,2.623-5.474,2.598
			c-2.907-0.03-4.781-1.956-5.359-2.627c-1.449-1.681-1.805-3.638-2.116-5.349c-0.126-0.693-0.234-1.654-0.242-2.912
			C360.789,326.041,361.188,323.555,363.03,321.744z"/>
		
			<path style="opacity:0.8;fill:none;stroke:#5B5D65;stroke-width:0.2738;stroke-linecap:round;stroke-linejoin:round;stroke-miterlimit:10;" d="
			M365.791,322.815c0.112-0.32,0.342-0.843,0.808-1.324c0.261-0.269,0.525-0.45,0.737-0.571c0.005,0,0.008,0,0.013,0
			c1.108,0,1.276,0,2.376,0c0.005,0,0.008,0,0.013,0c0.212,0.121,0.475,0.302,0.737,0.571c0.467,0.48,0.696,1.003,0.808,1.324
			c0.039,1.476,0.078,2.951,0.117,4.427c-0.012,0.199-0.078,0.944-0.648,1.559c-0.445,0.479-0.955,0.62-1.161,0.664
			c-0.702,0-1.404,0-2.106,0c-0.206-0.044-0.717-0.184-1.161-0.664c-0.57-0.615-0.636-1.36-0.648-1.559
			C365.713,325.767,365.752,324.291,365.791,322.815z"/>
		
			<path style="opacity:0.8;fill:none;stroke:#5B5D65;stroke-width:0.2738;stroke-linecap:round;stroke-linejoin:round;stroke-miterlimit:10;" d="
			M365.739,324.558c0.335,0.262,1.33,0.969,2.762,0.981c1.475,0.012,2.501-0.721,2.832-0.981"/>
		
			<path style="opacity:0.8;fill:none;stroke:#5B5D65;stroke-width:0.2738;stroke-linecap:round;stroke-linejoin:round;stroke-miterlimit:10;" d="
			M357.211,300.462l22.652,0c0.305,0,0.552,0.264,0.552,0.59c0,0,0,5.486,0,6.072c-0.069,0.321-0.18,0.739-0.364,1.209
			c-0.183,0.47-0.439,0.991-0.799,1.519c-0.474,0.695-1.001,1.216-1.485,1.6c-0.484,0.384-0.924,0.631-1.223,0.781
			c-1.203,0.139-2.475,0.255-3.811,0.336c-1.336,0.081-2.737,0.126-4.197,0.126c-1.454,0-2.849-0.046-4.181-0.127
			c-1.331-0.081-2.599-0.196-3.798-0.335c-0.265-0.111-0.662-0.301-1.109-0.609c-0.446-0.308-0.942-0.734-1.403-1.318
			c-0.498-0.631-0.82-1.276-1.03-1.839c-0.21-0.563-0.309-1.043-0.358-1.343c0-0.669,0-6.072,0-6.072
			C356.658,300.727,356.906,300.462,357.211,300.462z"/>
	</g>
	<g>
		
			<line style="opacity:0.8;fill:none;stroke:#5B5D65;stroke-width:0.2738;stroke-linecap:round;stroke-linejoin:round;stroke-miterlimit:10;" x1="470.888" y1="980.818" x2="475.705" y2="980.838"/>
		
			<path style="opacity:0.8;fill:none;stroke:#5B5D65;stroke-width:0.2738;stroke-linecap:round;stroke-linejoin:round;stroke-miterlimit:10;" d="
			M477.84,980.847l9.956,0.041c1.36,0.006,2.463-1.179,2.469-2.644l0.32-77.042c0.022-5.256-1.77-10.339-5.025-14.245
			c-7.73-9.269-21.176-9.325-28.98-0.121c-3.292,3.879-5.126,8.946-5.148,14.202l-0.32,77.042c-0.006,1.464,1.092,2.658,2.452,2.664
			l11.659,0.048"/>
		
			<rect x="414.796" y="907.299" transform="matrix(0.0042 -1 1 0.0042 -461.4583 1397.41)" style="opacity:0.8;fill:none;stroke:#5B5D65;stroke-width:0.2738;stroke-linecap:round;stroke-linejoin:round;stroke-miterlimit:10;" width="112.183" height="46.193"/>
		
			<path style="opacity:0.8;fill:none;stroke:#5B5D65;stroke-width:0.2738;stroke-linecap:round;stroke-linejoin:round;stroke-miterlimit:10;" d="
			M470.751,963.623c1.306,0.005,2.358,1.067,2.353,2.373c-0.005,1.304-1.067,2.358-2.373,2.353
			c-1.306-0.005-2.361-1.069-2.355-2.373C468.381,964.67,469.445,963.618,470.751,963.623z"/>
		
			<path style="opacity:0.8;fill:none;stroke:#5B5D65;stroke-width:0.2738;stroke-linecap:round;stroke-linejoin:round;stroke-miterlimit:10;" d="
			M475.682,986.507l2.135,0.009l0.014-3.478l0.001-0.237l0.023-5.496c0,0-0.035-1.132-1.062-1.136
			c-1.027-0.004-1.073,1.127-1.073,1.127l-0.023,5.496l-0.001,0.237l-0.005,1.283"/>
		
			<path style="opacity:0.8;fill:none;stroke:#5B5D65;stroke-width:0.2738;stroke-linecap:round;stroke-linejoin:round;stroke-miterlimit:10;" d="
			M466.824,983.479l-0.06,0.693c-0.093,1.098,0.729,2.142,1.939,2.289c0.081,0.01,0.161,0.015,0.244,0.015
			c0.081,0,0.163-0.004,0.244-0.013c1.211-0.137,2.042-1.174,1.96-2.273l-0.935-11.932c0.002-0.38-0.337-0.688-0.758-0.69
			l-0.896-0.004c-0.424-0.002-0.76,0.304-0.762,0.684l-0.525,6.04"/>
		
			<path style="opacity:0.8;fill:none;stroke:#5B5D65;stroke-width:0.2738;stroke-linecap:round;stroke-linejoin:round;stroke-miterlimit:10;" d="
			M465.028,977.891l0.35-0.21c0.625-0.37,1.439-0.166,1.809,0.459l2.864,4.798c0.372,0.623,0.166,1.437-0.455,1.812l-0.357,0.208
			c-0.618,0.372-1.435,0.164-1.807-0.457l-2.862-4.801C464.199,979.077,464.402,978.263,465.028,977.891z"/>
		
			<path style="opacity:0.8;fill:none;stroke:#5B5D65;stroke-width:0.2738;stroke-linecap:round;stroke-linejoin:round;stroke-miterlimit:10;" d="
			M466.885,983.577c-1.684,0.084-3.871,0.247-4.458,0.542c-0.817,0.413-0.461,1.574-0.461,1.574l-0.003,0.74l13.972,0.058
			l0.003-0.74c0,0,0.363-1.158-0.45-1.578c-0.574-0.295-2.709-0.476-4.383-0.575"/>
		
			<path style="opacity:0.8;fill:none;stroke:#5B5D65;stroke-width:0.2738;stroke-linecap:round;stroke-linejoin:round;stroke-miterlimit:10;" d="
			M478.762,980.851c1.25-0.693,2.099-2.023,2.105-3.553c0.009-2.253-1.808-4.088-4.062-4.098c-2.253-0.009-4.086,1.81-4.095,4.064
			c-0.006,1.53,0.831,2.867,2.075,3.57"/>
	</g>
	<g>
		
			<path style="opacity:0.8;fill:none;stroke:#5B5D65;stroke-width:0.2738;stroke-linecap:round;stroke-linejoin:round;stroke-miterlimit:10;" d="
			M405.426,959.908c0.003-0.833-0.672-1.51-1.507-1.514c-0.833-0.003-1.512,0.668-1.516,1.501c-0.003,0.834,0.67,1.512,1.503,1.515
			C404.741,961.414,405.422,960.743,405.426,959.908z"/>
		
			<line style="opacity:0.8;fill:none;stroke:#5B5D65;stroke-width:0.2738;stroke-linecap:round;stroke-linejoin:round;stroke-miterlimit:10;" x1="401.713" y1="959.894" x2="406.117" y2="959.912"/>
		
			<line style="opacity:0.8;fill:none;stroke:#5B5D65;stroke-width:0.2738;stroke-linecap:round;stroke-linejoin:round;stroke-miterlimit:10;" x1="403.924" y1="957.701" x2="403.905" y2="962.105"/>
		
			<path style="opacity:0.8;fill:none;stroke:#5B5D65;stroke-width:0.2738;stroke-linecap:round;stroke-linejoin:round;stroke-miterlimit:10;" d="
			M404.967,967.142c0.002-0.598-0.481-1.084-1.079-1.086c-0.597-0.003-1.083,0.48-1.086,1.077c-0.002,0.599,0.48,1.085,1.077,1.088
			C404.477,968.223,404.964,967.741,404.967,967.142z"/>
		
			<line style="opacity:0.8;fill:none;stroke:#5B5D65;stroke-width:0.2738;stroke-linecap:round;stroke-linejoin:round;stroke-miterlimit:10;" x1="402.154" y1="967.131" x2="405.614" y2="967.146"/>
		
			<line style="opacity:0.8;fill:none;stroke:#5B5D65;stroke-width:0.2738;stroke-linecap:round;stroke-linejoin:round;stroke-miterlimit:10;" x1="403.892" y1="965.409" x2="403.877" y2="968.869"/>
		
			<path style="opacity:0.8;fill:none;stroke:#5B5D65;stroke-width:0.2738;stroke-linecap:round;stroke-linejoin:round;stroke-miterlimit:10;" d="
			M420.225,960.608c0.055,0.777,0.087,1.739,0.042,2.842c-0.018,0.431-0.062,1.253-0.196,2.286c-0.11,0.85-0.29,1.909-0.595,3.112
			c-0.329,0.972-0.658,1.944-0.987,2.916c-0.001,0-0.007,0-0.009,0c-0.414-0.002-29.338-0.122-29.458-0.123
			c-0.002,0-0.008,0-0.009,0c-0.321-0.975-0.642-1.95-0.963-2.925c-0.295-1.206-0.466-2.266-0.569-3.117
			c-0.125-1.034-0.163-1.856-0.177-2.287c-0.036-1.104,0.005-2.065,0.066-2.841c0.027-1.077,0.31-7.977,5.921-12.463
			c4.153-3.32,8.788-3.369,10.572-3.362c1.784,0.007,6.418,0.095,10.543,3.45C419.98,952.629,420.207,959.531,420.225,960.608z"/>
		
			<path style="opacity:0.8;fill:none;stroke:#5B5D65;stroke-width:0.2738;stroke-linecap:round;stroke-linejoin:round;stroke-miterlimit:10;" d="
			M415.72,958.9c0.032,0.376,0.064,0.888-0.121,1.498c-0.009,0.031-0.018,0.058-0.027,0.081c0,0-0.185,0.531-0.594,1.011
			c-2.135,2.504-11.089,2.467-11.089,2.467h0c-4.918-0.021-9.056-0.305-10.902-2.554c-0.001-0.001-0.002-0.002-0.002-0.002
			c0,0-0.001-0.001-0.001-0.001c-0.431-0.498-0.564-0.942-0.585-1.014c0,0,0-0.001,0-0.001c-0.226-0.668-0.141-1.479-0.134-1.581
			c0.055-0.769,0.083-1.154,0.197-1.706c0.654-3.164,1.987-5.129,1.987-5.129c0.993-1.464,2.074-2.347,2.638-2.8
			c0.452-0.364,1.143-0.913,2.143-1.417c2.188-1.102,4.196-1.147,4.732-1.148c2.366-0.004,4.099,0.809,4.884,1.188l0,0
			c0.577,0.315,1.328,0.778,2.132,1.435c0.552,0.451,1.63,1.346,2.614,2.822c0,0,1.329,1.993,1.945,5.145
			C415.605,957.538,415.643,957.992,415.72,958.9z"/>
	</g>
	<g>
		
			<ellipse transform="matrix(0.0042 -1 1 0.0042 -604.8886 1322.4473)" style="opacity:0.8;fill:none;stroke:#5B5D65;stroke-width:0.2738;stroke-linecap:round;stroke-linejoin:round;stroke-miterlimit:10;" cx="361.539" cy="964.93" rx="1.084" ry="1.087"/>
		
			<line style="opacity:0.8;fill:none;stroke:#5B5D65;stroke-width:0.2738;stroke-linecap:round;stroke-linejoin:round;stroke-miterlimit:10;" x1="359.641" y1="964.922" x2="360.452" y2="964.926"/>
		
			<line style="opacity:0.8;fill:none;stroke:#5B5D65;stroke-width:0.2738;stroke-linecap:round;stroke-linejoin:round;stroke-miterlimit:10;" x1="362.626" y1="964.935" x2="363.438" y2="964.938"/>
		
			<line style="opacity:0.8;fill:none;stroke:#5B5D65;stroke-width:0.2738;stroke-linecap:round;stroke-linejoin:round;stroke-miterlimit:10;" x1="361.547" y1="963.037" x2="361.544" y2="963.846"/>
		
			<line style="opacity:0.8;fill:none;stroke:#5B5D65;stroke-width:0.2738;stroke-linecap:round;stroke-linejoin:round;stroke-miterlimit:10;" x1="361.535" y1="966.014" x2="361.531" y2="966.824"/>
		
			<line style="opacity:0.8;fill:none;stroke:#5B5D65;stroke-width:0.2738;stroke-linecap:round;stroke-linejoin:round;stroke-miterlimit:10;" x1="355.528" y1="956.113" x2="355.966" y2="956.114"/>
		
			<line style="opacity:0.8;fill:none;stroke:#5B5D65;stroke-width:0.2738;stroke-linecap:round;stroke-linejoin:round;stroke-miterlimit:10;" x1="357.139" y1="956.119" x2="357.577" y2="956.121"/>
		
			<line style="opacity:0.8;fill:none;stroke:#5B5D65;stroke-width:0.2738;stroke-linecap:round;stroke-linejoin:round;stroke-miterlimit:10;" x1="356.557" y1="955.095" x2="356.555" y2="955.532"/>
		
			<line style="opacity:0.8;fill:none;stroke:#5B5D65;stroke-width:0.2738;stroke-linecap:round;stroke-linejoin:round;stroke-miterlimit:10;" x1="356.55" y1="956.702" x2="356.548" y2="957.138"/>
		
			<ellipse transform="matrix(0.0042 -1 1 0.0042 -601.0409 1308.6842)" style="opacity:0.8;fill:none;stroke:#5B5D65;stroke-width:0.2738;stroke-linecap:round;stroke-linejoin:round;stroke-miterlimit:10;" cx="356.553" cy="956.117" rx="0.585" ry="0.586"/>
		
			<ellipse transform="matrix(0.0042 -1 1 0.0042 -591.0784 1318.7719)" style="opacity:0.8;fill:none;stroke:#5B5D65;stroke-width:0.2738;stroke-linecap:round;stroke-linejoin:round;stroke-miterlimit:10;" cx="366.599" cy="956.159" rx="0.585" ry="0.586"/>
		
			<line style="opacity:0.8;fill:none;stroke:#5B5D65;stroke-width:0.2738;stroke-linecap:round;stroke-linejoin:round;stroke-miterlimit:10;" x1="365.575" y1="956.154" x2="366.013" y2="956.156"/>
		
			<line style="opacity:0.8;fill:none;stroke:#5B5D65;stroke-width:0.2738;stroke-linecap:round;stroke-linejoin:round;stroke-miterlimit:10;" x1="367.185" y1="956.161" x2="367.623" y2="956.163"/>
		
			<line style="opacity:0.8;fill:none;stroke:#5B5D65;stroke-width:0.2738;stroke-linecap:round;stroke-linejoin:round;stroke-miterlimit:10;" x1="366.603" y1="955.137" x2="366.601" y2="955.574"/>
		
			<line style="opacity:0.8;fill:none;stroke:#5B5D65;stroke-width:0.2738;stroke-linecap:round;stroke-linejoin:round;stroke-miterlimit:10;" x1="366.596" y1="956.743" x2="366.595" y2="957.18"/>
		
			<path style="opacity:0.8;fill:none;stroke:#5B5D65;stroke-width:0.2738;stroke-linecap:round;stroke-linejoin:round;stroke-miterlimit:10;" d="
			M372.227,946.819c-0.032,0.453-0.068,0.824-0.094,1.069c-0.811,4.454-1.782,7.43-2.593,11.883
			c-2.396-0.288-5.069-0.482-7.977-0.495c-2.92-0.013-5.604,0.16-8.01,0.428c-0.774-4.46-1.69-7.444-2.464-11.905
			c-0.024-0.245-0.057-0.616-0.085-1.069c-0.165-2.672-0.442-7.174,1.774-11.224c0.357-0.653,1.092-1.97,2.489-3.225
			c0.837-0.752,3.061-2.688,6.341-2.676c0.027,0,0.053,0.003,0.08,0.003c0.027,0,0.053-0.003,0.08-0.003
			c3.28,0.015,5.487,1.97,6.318,2.729c1.387,1.266,2.11,2.589,2.462,3.245C372.728,939.649,372.414,944.148,372.227,946.819z"/>
		
			<path style="opacity:0.8;fill:none;stroke:#5B5D65;stroke-width:0.2738;stroke-linecap:round;stroke-linejoin:round;stroke-miterlimit:10;" d="
			M370.495,946.067c-0.192,1.339-0.425,2.838-1.485,4.372c-1.308,1.893-3.057,2.657-3.627,2.897
			c-1.554,0.655-2.875,0.649-3.798,0.645c-0.922-0.004-2.243-0.009-3.792-0.677c-0.568-0.245-2.311-1.024-3.603-2.928
			c-1.048-1.544-1.268-3.044-1.449-4.385c-0.231-1.709-0.835-6.177,1.805-10.184c0.658-0.998,2.065-3.104,4.757-3.966
			c0.558-0.178,2.487-0.725,4.748,0.02c2.684,0.884,4.074,3.001,4.723,4.005C371.381,939.897,370.74,944.36,370.495,946.067z"/>
		
			<path style="opacity:0.8;fill:none;stroke:#5B5D65;stroke-width:0.2738;stroke-linecap:round;stroke-linejoin:round;stroke-miterlimit:10;" d="
			M367.107,950.251c-2.09,2.038-4.804,2.02-5.515,2.011c-0.712,0.003-3.425-0.002-5.498-2.057c-1.834-1.818-2.222-4.306-2.201-6.28
			c0.013-1.221,0.117-2.153,0.254-2.911c0.339-1.875,0.679-3.757,2.058-5.369c1.091-1.275,3.027-2.61,5.484-2.575
			c2.907,0.042,4.772,1.976,5.348,2.649c1.442,1.687,1.79,3.645,2.094,5.358c0.123,0.693,0.227,1.655,0.23,2.913
			C369.365,945.963,368.956,948.448,367.107,950.251z"/>
		
			<path style="opacity:0.8;fill:none;stroke:#5B5D65;stroke-width:0.2738;stroke-linecap:round;stroke-linejoin:round;stroke-miterlimit:10;" d="
			M364.351,949.168c-0.113,0.32-0.345,0.842-0.814,1.32c-0.262,0.268-0.526,0.448-0.739,0.568c-0.005,0-0.008,0-0.013,0
			c-1.108-0.005-1.276-0.005-2.376-0.01c-0.005,0-0.008,0-0.013,0c-0.212-0.121-0.474-0.304-0.734-0.574
			c-0.465-0.482-0.692-1.006-0.803-1.327c-0.033-1.476-0.066-2.951-0.098-4.427c0.013-0.199,0.082-0.944,0.655-1.556
			c0.447-0.477,0.958-0.616,1.164-0.659c0.702,0.003,1.404,0.006,2.106,0.009c0.206,0.045,0.716,0.187,1.158,0.669
			c0.568,0.617,0.631,1.363,0.642,1.561C364.441,946.217,364.396,947.692,364.351,949.168z"/>
		
			<path style="opacity:0.8;fill:none;stroke:#5B5D65;stroke-width:0.2738;stroke-linecap:round;stroke-linejoin:round;stroke-miterlimit:10;" d="
			M364.409,947.425c-0.334-0.264-1.326-0.975-2.758-0.992c-1.475-0.018-2.504,0.711-2.836,0.969"/>
		
			<path style="opacity:0.8;fill:none;stroke:#5B5D65;stroke-width:0.2738;stroke-linecap:round;stroke-linejoin:round;stroke-miterlimit:10;" d="
			M372.837,971.556l-22.651-0.094c-0.305-0.001-0.551-0.267-0.55-0.593c0,0,0.023-5.486,0.025-6.072
			c0.071-0.321,0.184-0.738,0.369-1.207c0.185-0.469,0.443-0.989,0.805-1.515c0.477-0.693,1.006-1.212,1.491-1.594
			c0.485-0.382,0.926-0.628,1.226-0.776c1.203-0.134,2.476-0.244,3.813-0.32c1.337-0.075,2.738-0.115,4.198-0.109
			c1.454,0.006,2.849,0.058,4.18,0.144c1.331,0.086,2.598,0.207,3.796,0.351c0.264,0.112,0.661,0.304,1.106,0.613
			c0.445,0.31,0.939,0.738,1.397,1.324c0.495,0.633,0.815,1.28,1.023,1.843c0.208,0.564,0.304,1.044,0.352,1.345
			c-0.003,0.669-0.025,6.072-0.025,6.072C373.391,971.294,373.143,971.558,372.837,971.556z"/>
	</g>
</g>
<g id="&#x43D;&#x435;&#x441;&#x443;&#x449;&#x438;&#x435;">
	
		<rect x="729.788" y="105.677" transform="matrix(-1 -3.445389e-11 3.445389e-11 -1 1487.8206 254.8865)" style="fill:#5B5D65;stroke:#5B5D65;stroke-width:1.0952;stroke-linecap:round;stroke-linejoin:round;stroke-miterlimit:10;" width="28.245" height="43.532"/>
	
		<rect x="729.788" y="0.548" transform="matrix(-1 -3.277968e-11 3.277968e-11 -1 1487.8206 42.6128)" style="fill:#5B5D65;stroke:#5B5D65;stroke-width:1.0952;stroke-linecap:round;stroke-linejoin:round;stroke-miterlimit:10;" width="28.245" height="41.518"/>
	
		<polygon style="fill-rule:evenodd;clip-rule:evenodd;fill:#5B5D65;stroke:#5B5D65;stroke-width:1.0952;stroke-linecap:round;stroke-linejoin:round;stroke-miterlimit:10;" points="
		334.982,2.333 334.982,14.834 438.456,14.834 748.879,16.172 752.393,16.619 752.393,3.226 474.379,2.333 	"/>
	
		<rect x="729.788" y="924.048" transform="matrix(-1 -3.226409e-11 3.226409e-11 -1 1487.8206 1924.5956)" style="fill:#5B5D65;stroke:#5B5D65;stroke-width:1.0952;stroke-linecap:round;stroke-linejoin:round;stroke-miterlimit:10;" width="28.245" height="76.5"/>
	
		<rect x="666.232" y="986.039" style="fill:#5B5D65;stroke:#5B5D65;stroke-width:1.0952;stroke-linecap:round;stroke-linejoin:round;stroke-miterlimit:10;" width="91.742" height="14.509"/>
	
		<rect x="358.644" y="986.263" style="fill:#5B5D65;stroke:#5B5D65;stroke-width:1.0952;stroke-linecap:round;stroke-linejoin:round;stroke-miterlimit:10;" width="84.375" height="14.284"/>
	
		<rect x="729.788" y="682.084" transform="matrix(-1 -5.499746e-11 5.499746e-11 -1 1487.8206 1494.7654)" style="fill:#5B5D65;stroke:#5B5D65;stroke-width:1.0952;stroke-linecap:round;stroke-linejoin:round;stroke-miterlimit:10;" width="28.245" height="130.597"/>
	
		<rect x="729.788" y="462.481" transform="matrix(-1 -4.556279e-11 4.556279e-11 -1 1487.8206 1033.1177)" style="fill:#5B5D65;stroke:#5B5D65;stroke-width:1.0952;stroke-linecap:round;stroke-linejoin:round;stroke-miterlimit:10;" width="28.245" height="108.156"/>
	
		<rect x="605.071" y="733.583" style="fill:#5B5D65;stroke:#5B5D65;stroke-width:1.0952;stroke-linecap:round;stroke-linejoin:round;stroke-miterlimit:10;" width="131.25" height="13.393"/>
	
		<rect x="606.411" y="290.503" style="fill:#5B5D65;stroke:#5B5D65;stroke-width:1.0952;stroke-linecap:round;stroke-linejoin:round;stroke-miterlimit:10;" width="138.169" height="14.062"/>
	
		<rect x="729.788" y="260.979" transform="matrix(-1 -3.777035e-11 3.777035e-11 -1 1487.8206 611.574)" style="fill:#5B5D65;stroke:#5B5D65;stroke-width:1.0952;stroke-linecap:round;stroke-linejoin:round;stroke-miterlimit:10;" width="28.245" height="89.617"/>
</g>
<g id="&#x43B;&#x435;&#x441;&#x442;&#x43D;&#x438;&#x446;&#x44B;_x2C__&#x43B;&#x438;&#x444;&#x442;&#x44B;">
</g>
<g id="&#x43F;&#x43B;&#x43E;&#x449;&#x430;&#x434;&#x438;">
	<g>
		<path style="fill:#5B5D65;" d="M394.953,886.868h-1.576c-0.525,0-0.787-0.263-0.787-0.788s0.262-0.788,0.787-0.788h1.576
			c0.66,0,1.219-0.229,1.677-0.687c0.457-0.457,0.686-1.016,0.686-1.677c0-0.652-0.23-1.209-0.691-1.671
			c-0.462-0.461-1.019-0.692-1.671-0.692h-3.151c-0.525,0-0.788-0.263-0.788-0.787c0-0.525,0.263-0.788,0.788-0.788h3.151
			c1.09,0,2.019,0.386,2.786,1.158c0.769,0.771,1.152,1.698,1.152,2.78c0,1.306-0.525,2.355-1.576,3.151
			c1.051,0.796,1.576,1.846,1.576,3.15v1.576c0,1.09-0.387,2.019-1.158,2.787c-0.771,0.768-1.698,1.151-2.78,1.151h-3.151
			c-0.525,0-0.788-0.263-0.788-0.788c0-0.524,0.263-0.787,0.788-0.787h3.151c0.66,0,1.219-0.229,1.677-0.687
			c0.457-0.458,0.686-1.017,0.686-1.677v-1.576c0-0.652-0.23-1.209-0.691-1.671C396.162,887.099,395.605,886.868,394.953,886.868z"
			/>
		<path style="fill:#5B5D65;" d="M403.618,893.17c0.524,0,0.787,0.259,0.787,0.775c0,0.071-0.271,1.189-0.812,3.354
			c-0.096,0.398-0.35,0.598-0.764,0.598c-0.525,0-0.788-0.263-0.788-0.788c0-0.358,0.271-1.473,0.812-3.342
			C402.964,893.368,403.219,893.17,403.618,893.17z"/>
		<path style="fill:#5B5D65;" d="M407.556,886.08v-6.302c0-0.525,0.263-0.788,0.788-0.788h5.514c0.525,0,0.788,0.263,0.788,0.788
			c0,0.524-0.263,0.787-0.788,0.787h-4.726v4.727h2.363c1.09,0,2.019,0.387,2.786,1.158c0.769,0.771,1.152,1.698,1.152,2.78v1.576
			c0,1.09-0.387,2.019-1.158,2.787c-0.771,0.768-1.698,1.151-2.78,1.151h-3.151c-0.525,0-0.788-0.263-0.788-0.788
			c0-0.524,0.263-0.787,0.788-0.787h3.151c0.66,0,1.219-0.229,1.677-0.687c0.457-0.458,0.686-1.017,0.686-1.677v-1.576
			c0-0.652-0.23-1.209-0.691-1.671c-0.462-0.461-1.019-0.691-1.671-0.691h-3.151C407.819,886.868,407.556,886.606,407.556,886.08z"
			/>
		<path style="fill:#5B5D65;" d="M422.524,886.868h-1.576c-0.525,0-0.787-0.263-0.787-0.788s0.262-0.788,0.787-0.788h1.576
			c0.66,0,1.219-0.229,1.677-0.687c0.457-0.457,0.686-1.016,0.686-1.677c0-0.652-0.23-1.209-0.691-1.671
			c-0.462-0.461-1.019-0.692-1.671-0.692h-3.151c-0.525,0-0.788-0.263-0.788-0.787c0-0.525,0.263-0.788,0.788-0.788h3.151
			c1.09,0,2.019,0.386,2.786,1.158c0.769,0.771,1.152,1.698,1.152,2.78c0,1.306-0.525,2.355-1.576,3.151
			c1.051,0.796,1.576,1.846,1.576,3.15v1.576c0,1.09-0.387,2.019-1.158,2.787c-0.771,0.768-1.698,1.151-2.78,1.151h-3.151
			c-0.525,0-0.788-0.263-0.788-0.788c0-0.524,0.263-0.787,0.788-0.787h3.151c0.66,0,1.219-0.229,1.677-0.687
			c0.457-0.458,0.686-1.017,0.686-1.677v-1.576c0-0.652-0.23-1.209-0.691-1.671C423.733,887.099,423.176,886.868,422.524,886.868z"
			/>
	</g>
	<g>
		<path style="fill:#5B5D65;" d="M665.825,937.934l-1.811,1.811c-0.151,0.148-0.335,0.223-0.551,0.223
			c-0.526,0-0.79-0.263-0.79-0.788c0-0.215,0.076-0.397,0.228-0.549l3.079-3.079c0.207-0.207,0.418-0.311,0.633-0.311
			c0.524,0,0.787,0.263,0.787,0.788v14.179c0,0.525-0.263,0.788-0.787,0.788c-0.525,0-0.788-0.263-0.788-0.787V937.934z"/>
		<path style="fill:#5B5D65;" d="M674.49,935.24c1.09,0,2.019,0.384,2.786,1.151c0.769,0.769,1.152,1.697,1.152,2.787
			c0,0.748-0.239,1.504-0.717,2.268l-4.965,7.974h4.894c0.525,0,0.788,0.263,0.788,0.787c0,0.525-0.263,0.788-0.788,0.788h-6.302
			c-0.525,0-0.788-0.263-0.788-0.787c0-0.159,0.044-0.311,0.132-0.454l5.776-9.274c0.263-0.422,0.394-0.855,0.394-1.301
			c0-0.652-0.23-1.209-0.691-1.671c-0.462-0.461-1.019-0.692-1.671-0.692c-0.892,0-1.715,0.661-2.471,1.981
			c-0.144,0.255-0.37,0.382-0.681,0.382c-0.525,0-0.788-0.263-0.788-0.787c0-0.12,0.024-0.228,0.072-0.322
			C671.601,936.184,672.89,935.24,674.49,935.24z"/>
		<path style="fill:#5B5D65;" d="M683.155,949.42c0.524,0,0.787,0.259,0.787,0.775c0,0.071-0.271,1.189-0.812,3.354
			c-0.096,0.398-0.35,0.598-0.764,0.598c-0.525,0-0.788-0.263-0.788-0.788c0-0.358,0.271-1.473,0.812-3.342
			C682.502,949.618,682.756,949.42,683.155,949.42z"/>
		<path style="fill:#5B5D65;" d="M691.033,935.24c1.09,0,2.019,0.384,2.786,1.151c0.769,0.769,1.152,1.697,1.152,2.787
			c0,0.748-0.239,1.504-0.717,2.268l-4.965,7.974h4.894c0.525,0,0.788,0.263,0.788,0.787c0,0.525-0.263,0.788-0.788,0.788h-6.302
			c-0.525,0-0.788-0.263-0.788-0.787c0-0.159,0.044-0.311,0.132-0.454l5.776-9.274c0.263-0.422,0.394-0.855,0.394-1.301
			c0-0.652-0.23-1.209-0.691-1.671c-0.462-0.461-1.019-0.692-1.671-0.692c-0.892,0-1.715,0.661-2.471,1.981
			c-0.144,0.255-0.37,0.382-0.681,0.382c-0.525,0-0.788-0.263-0.788-0.787c0-0.12,0.024-0.228,0.072-0.322
			C688.144,936.184,689.433,935.24,691.033,935.24z"/>
		<path style="fill:#5B5D65;" d="M701.273,937.934l-1.811,1.811c-0.151,0.148-0.335,0.223-0.551,0.223
			c-0.526,0-0.79-0.263-0.79-0.788c0-0.215,0.076-0.397,0.228-0.549l3.079-3.079c0.207-0.207,0.418-0.311,0.633-0.311
			c0.524,0,0.787,0.263,0.787,0.788v14.179c0,0.525-0.263,0.788-0.787,0.788c-0.525,0-0.788-0.263-0.788-0.787V937.934z"/>
	</g>
	<g>
		<path style="fill:#5B5D65;" d="M412.373,799.208c-1.091,0-2.02-0.384-2.787-1.151c-0.769-0.769-1.152-1.697-1.152-2.787v-1.576
			c0-1.305,0.525-2.354,1.576-3.15c-1.051-0.796-1.576-1.846-1.576-3.151c0-1.09,0.384-2.019,1.152-2.787
			c0.768-0.768,1.696-1.151,2.787-1.151c1.09,0,2.019,0.384,2.786,1.151c0.769,0.769,1.152,1.697,1.152,2.787
			c0,1.306-0.525,2.355-1.576,3.151c0.756,0.573,1.233,1.277,1.433,2.112c0.096,0.422,0.144,1.293,0.144,2.614
			c0,1.09-0.384,2.019-1.152,2.787C414.391,798.824,413.463,799.208,412.373,799.208z M412.373,789.755
			c0.66,0,1.219-0.229,1.677-0.687c0.457-0.457,0.686-1.016,0.686-1.677c0-0.652-0.23-1.209-0.691-1.671
			c-0.462-0.461-1.019-0.692-1.671-0.692c-0.661,0-1.22,0.229-1.678,0.687c-0.457,0.458-0.686,1.017-0.686,1.677
			c0,0.661,0.229,1.22,0.686,1.677C411.153,789.526,411.712,789.755,412.373,789.755z M412.373,797.633
			c0.66,0,1.219-0.229,1.677-0.687c0.457-0.458,0.686-1.017,0.686-1.677v-1.576c0-0.652-0.23-1.209-0.691-1.671
			c-0.462-0.461-1.019-0.691-1.671-0.691c-0.661,0-1.22,0.229-1.678,0.686c-0.457,0.458-0.686,1.017-0.686,1.677v1.576
			c0,0.66,0.229,1.219,0.686,1.677C411.153,797.404,411.712,797.633,412.373,797.633z"/>
		<path style="fill:#5B5D65;" d="M421.038,797.633c0.524,0,0.787,0.259,0.787,0.775c0,0.071-0.271,1.189-0.812,3.354
			c-0.096,0.398-0.35,0.598-0.764,0.598c-0.525,0-0.788-0.263-0.788-0.788c0-0.358,0.271-1.473,0.812-3.342
			C420.384,797.831,420.639,797.633,421.038,797.633z"/>
		<path style="fill:#5B5D65;" d="M428.128,786.147l-1.811,1.811c-0.151,0.148-0.335,0.223-0.551,0.223
			c-0.526,0-0.79-0.263-0.79-0.788c0-0.215,0.076-0.397,0.228-0.549l3.079-3.079c0.207-0.207,0.418-0.311,0.633-0.311
			c0.524,0,0.787,0.263,0.787,0.788v14.179c0,0.525-0.263,0.788-0.787,0.788c-0.525,0-0.788-0.263-0.788-0.787V786.147z"/>
		<path style="fill:#5B5D65;" d="M435.216,799.208c-0.207,0-0.39-0.079-0.549-0.238s-0.238-0.343-0.238-0.55
			c0-0.365,0.131-0.593,0.394-0.68c0.573-0.191,1.05-0.41,1.433-0.657c1.694-1.098,2.642-2.49,2.84-4.177h-2.303
			c-1.091,0-2.02-0.384-2.787-1.152c-0.769-0.768-1.152-1.696-1.152-2.786v-1.576c0-1.09,0.384-2.019,1.152-2.787
			c0.768-0.768,1.696-1.151,2.787-1.151c1.098,0,2.028,0.38,2.792,1.14c0.765,0.76,1.146,1.686,1.146,2.775v4.75
			c0,2.674-1.246,4.786-3.736,6.338C436.191,798.957,435.598,799.208,435.216,799.208z M439.155,791.331v-3.939
			c0-0.652-0.23-1.209-0.691-1.671c-0.462-0.461-1.019-0.692-1.671-0.692c-0.653,0-1.21,0.231-1.672,0.692
			c-0.461,0.462-0.691,1.019-0.691,1.671v1.576c0,0.66,0.229,1.219,0.686,1.677c0.458,0.457,1.017,0.687,1.678,0.687H439.155z"/>
	</g>
	<g>
		<path style="fill:#5B5D65;" d="M345.4,625.259h-1.576c-0.525,0-0.787-0.263-0.787-0.788c0-0.525,0.262-0.788,0.787-0.788h1.576
			c0.66,0,1.219-0.229,1.677-0.686c0.457-0.458,0.686-1.017,0.686-1.677c0-0.652-0.23-1.209-0.691-1.671
			c-0.462-0.461-1.019-0.692-1.671-0.692h-3.151c-0.525,0-0.788-0.263-0.788-0.788c0-0.525,0.263-0.788,0.788-0.788h3.151
			c1.09,0,2.019,0.386,2.786,1.158c0.769,0.772,1.152,1.699,1.152,2.781c0,1.305-0.525,2.355-1.576,3.151
			c1.051,0.795,1.576,1.846,1.576,3.151v1.576c0,1.09-0.387,2.019-1.158,2.787c-0.771,0.768-1.698,1.152-2.78,1.152h-3.151
			c-0.525,0-0.788-0.263-0.788-0.788c0-0.525,0.263-0.788,0.788-0.788h3.151c0.66,0,1.219-0.229,1.677-0.686
			c0.457-0.458,0.686-1.017,0.686-1.677v-1.576c0-0.652-0.23-1.209-0.691-1.671C346.609,625.49,346.052,625.259,345.4,625.259z"/>
		<path style="fill:#5B5D65;" d="M354.065,631.561c0.524,0,0.787,0.259,0.787,0.776c0,0.072-0.271,1.189-0.812,3.354
			c-0.096,0.398-0.35,0.597-0.764,0.597c-0.525,0-0.788-0.263-0.788-0.788c0-0.358,0.271-1.472,0.812-3.342
			C353.412,631.76,353.667,631.561,354.065,631.561z"/>
		<path style="fill:#5B5D65;" d="M365.881,625.259c0,1.878-0.231,3.501-0.692,4.87c-0.677,2.005-1.759,3.008-3.246,3.008
			c-1.488,0-2.57-0.999-3.247-2.996c-0.461-1.369-0.692-2.996-0.692-4.882s0.231-3.513,0.692-4.882
			c0.677-1.997,1.759-2.996,3.247-2.996c1.487,0,2.569,1.002,3.246,3.008C365.65,621.758,365.881,623.381,365.881,625.259z
			 M364.305,625.259c0-1.305-0.139-2.534-0.417-3.688c-0.422-1.743-1.07-2.614-1.945-2.614c-0.868,0-1.513,0.875-1.934,2.625
			c-0.287,1.178-0.43,2.403-0.43,3.676c0,1.297,0.139,2.526,0.417,3.688c0.422,1.743,1.07,2.614,1.946,2.614
			c0.875,0,1.523-0.871,1.945-2.614C364.167,627.785,364.305,626.556,364.305,625.259z"/>
		<path style="fill:#5B5D65;" d="M372.183,620.075l-1.811,1.81c-0.151,0.149-0.335,0.223-0.551,0.223
			c-0.526,0-0.79-0.263-0.79-0.788c0-0.215,0.076-0.398,0.228-0.549l3.079-3.079c0.207-0.207,0.418-0.311,0.633-0.311
			c0.524,0,0.787,0.263,0.787,0.788v14.18c0,0.525-0.263,0.788-0.787,0.788c-0.525,0-0.788-0.262-0.788-0.788V620.075z"/>
	</g>
	<g>
		<path style="fill:#5B5D65;" d="M664.249,686.593l-1.811,1.81c-0.151,0.149-0.335,0.223-0.551,0.223
			c-0.526,0-0.79-0.263-0.79-0.788c0-0.215,0.076-0.398,0.228-0.549l3.079-3.079c0.207-0.207,0.418-0.311,0.633-0.311
			c0.524,0,0.787,0.263,0.787,0.788v14.18c0,0.525-0.263,0.788-0.787,0.788c-0.525,0-0.788-0.262-0.788-0.788V686.593z"/>
		<path style="fill:#5B5D65;" d="M672.126,686.593l-1.811,1.81c-0.151,0.149-0.335,0.223-0.551,0.223
			c-0.526,0-0.79-0.263-0.79-0.788c0-0.215,0.076-0.398,0.228-0.549l3.079-3.079c0.207-0.207,0.418-0.311,0.633-0.311
			c0.524,0,0.787,0.263,0.787,0.788v14.18c0,0.525-0.263,0.788-0.787,0.788c-0.525,0-0.788-0.262-0.788-0.788V686.593z"/>
		<path style="fill:#5B5D65;" d="M678.427,698.079c0.524,0,0.787,0.259,0.787,0.776c0,0.072-0.271,1.189-0.812,3.353
			c-0.096,0.398-0.35,0.598-0.764,0.598c-0.525,0-0.788-0.262-0.788-0.787c0-0.359,0.271-1.473,0.812-3.342
			C677.774,698.278,678.029,698.079,678.427,698.079z"/>
		<path style="fill:#5B5D65;" d="M687.88,683.9c0.525,0,0.787,0.263,0.787,0.788c0,0.39-0.131,0.617-0.394,0.681
			c-1.17,0.294-2.192,0.995-3.067,2.101c-0.692,0.875-1.094,1.786-1.205,2.733h2.304c1.113,0,2.049,0.382,2.805,1.146
			s1.134,1.695,1.134,2.793v1.576c0,1.098-0.384,2.029-1.152,2.792c-0.768,0.764-1.696,1.146-2.786,1.146
			c-1.099,0-2.029-0.38-2.793-1.14c-0.765-0.76-1.146-1.685-1.146-2.775v-4.75c0-1.782,0.593-3.346,1.778-4.691
			c0.923-1.042,1.93-1.782,3.021-2.22C687.474,683.96,687.714,683.9,687.88,683.9z M683.942,691.777v3.939
			c0,0.66,0.229,1.219,0.686,1.677c0.458,0.458,1.017,0.686,1.678,0.686c0.66,0,1.219-0.23,1.677-0.692
			c0.457-0.461,0.686-1.019,0.686-1.671v-1.576c0-0.661-0.23-1.219-0.691-1.677c-0.462-0.458-1.019-0.687-1.671-0.687H683.942z"/>
		<path style="fill:#5B5D65;" d="M693.394,695.716c0-0.088,0.008-0.159,0.024-0.215l3.15-11.029
			c0.111-0.382,0.366-0.573,0.765-0.573c0.524,0,0.787,0.263,0.787,0.79c0,0.072-0.009,0.147-0.027,0.228l-2.873,10.011h3.688
			v-2.363c0-0.525,0.263-0.788,0.787-0.788c0.525,0,0.788,0.263,0.788,0.788v2.363h1.575c0.525,0,0.788,0.263,0.788,0.788
			c0,0.525-0.263,0.788-0.788,0.788h-1.575v2.363c0,0.525-0.263,0.788-0.788,0.788c-0.524,0-0.787-0.263-0.787-0.788v-2.363h-4.727
			C693.657,696.504,693.394,696.241,693.394,695.716z"/>
	</g>
	<g>
		<path style="fill:#5B5D65;" d="M665.825,462.043l-1.811,1.81c-0.151,0.149-0.335,0.223-0.551,0.223
			c-0.526,0-0.79-0.263-0.79-0.788c0-0.215,0.076-0.398,0.228-0.549l3.079-3.079c0.207-0.207,0.418-0.311,0.633-0.311
			c0.524,0,0.787,0.263,0.787,0.788v14.18c0,0.525-0.263,0.788-0.787,0.788c-0.525,0-0.788-0.262-0.788-0.788V462.043z"/>
		<path style="fill:#5B5D65;" d="M673.702,462.043l-1.811,1.81c-0.151,0.149-0.335,0.223-0.551,0.223
			c-0.526,0-0.79-0.263-0.79-0.788c0-0.215,0.076-0.398,0.228-0.549l3.079-3.079c0.207-0.207,0.418-0.311,0.633-0.311
			c0.524,0,0.787,0.263,0.787,0.788v14.18c0,0.525-0.263,0.788-0.787,0.788c-0.525,0-0.788-0.262-0.788-0.788V462.043z"/>
		<path style="fill:#5B5D65;" d="M680.004,473.529c0.524,0,0.787,0.259,0.787,0.776c0,0.072-0.271,1.189-0.812,3.354
			c-0.096,0.398-0.35,0.597-0.764,0.597c-0.525,0-0.788-0.263-0.788-0.788c0-0.358,0.271-1.472,0.812-3.342
			C679.35,473.729,679.605,473.529,680.004,473.529z"/>
		<path style="fill:#5B5D65;" d="M683.942,466.44v-6.302c0-0.525,0.263-0.788,0.788-0.788h5.514c0.525,0,0.788,0.263,0.788,0.788
			c0,0.525-0.263,0.788-0.788,0.788h-4.726v4.726h2.363c1.09,0,2.019,0.386,2.786,1.158c0.769,0.772,1.152,1.699,1.152,2.781v1.576
			c0,1.09-0.387,2.019-1.158,2.787c-0.771,0.768-1.698,1.152-2.78,1.152h-3.151c-0.525,0-0.788-0.263-0.788-0.788
			c0-0.525,0.263-0.788,0.788-0.788h3.151c0.66,0,1.219-0.229,1.677-0.686c0.457-0.458,0.686-1.017,0.686-1.677v-1.576
			c0-0.652-0.23-1.209-0.691-1.671c-0.462-0.461-1.019-0.692-1.671-0.692h-3.151C684.205,467.228,683.942,466.965,683.942,466.44z"
			/>
		<path style="fill:#5B5D65;" d="M702.848,467.228c0,1.878-0.231,3.501-0.692,4.87c-0.677,2.005-1.759,3.008-3.246,3.008
			c-1.488,0-2.57-0.999-3.247-2.996c-0.461-1.369-0.692-2.996-0.692-4.882s0.231-3.513,0.692-4.882
			c0.677-1.997,1.759-2.996,3.247-2.996c1.487,0,2.569,1.002,3.246,3.008C702.617,463.727,702.848,465.35,702.848,467.228z
			 M701.272,467.228c0-1.305-0.139-2.534-0.417-3.688c-0.422-1.743-1.07-2.614-1.945-2.614c-0.868,0-1.513,0.875-1.934,2.625
			c-0.287,1.178-0.43,2.403-0.43,3.676c0,1.297,0.139,2.526,0.417,3.688c0.422,1.743,1.07,2.614,1.946,2.614
			c0.875,0,1.523-0.871,1.945-2.614C701.133,469.754,701.272,468.524,701.272,467.228z"/>
	</g>
	<g>
		<path style="fill:#5B5D65;" d="M345.4,432.564c1.09,0,2.019,0.384,2.786,1.152c0.769,0.768,1.152,1.697,1.152,2.787
			c0,0.748-0.239,1.503-0.717,2.268l-4.965,7.973h4.894c0.525,0,0.788,0.263,0.788,0.788c0,0.525-0.263,0.788-0.788,0.788h-6.302
			c-0.525,0-0.788-0.262-0.788-0.788c0-0.159,0.044-0.31,0.132-0.453l5.776-9.275c0.263-0.421,0.394-0.855,0.394-1.301
			c0-0.652-0.23-1.209-0.691-1.671c-0.462-0.461-1.019-0.692-1.671-0.692c-0.892,0-1.715,0.66-2.471,1.981
			c-0.144,0.255-0.37,0.382-0.681,0.382c-0.525,0-0.788-0.263-0.788-0.788c0-0.119,0.024-0.227,0.072-0.322
			C342.511,433.507,343.8,432.564,345.4,432.564z"/>
		<path style="fill:#5B5D65;" d="M354.065,446.743c0.524,0,0.787,0.259,0.787,0.776c0,0.072-0.271,1.189-0.812,3.354
			c-0.096,0.398-0.35,0.597-0.764,0.597c-0.525,0-0.788-0.263-0.788-0.788c0-0.358,0.271-1.472,0.812-3.342
			C353.412,446.942,353.667,446.743,354.065,446.743z"/>
		<path style="fill:#5B5D65;" d="M361.943,440.441h-1.576c-0.525,0-0.787-0.263-0.787-0.788c0-0.525,0.262-0.788,0.787-0.788h1.576
			c0.66,0,1.219-0.229,1.677-0.686c0.457-0.458,0.686-1.017,0.686-1.677c0-0.652-0.23-1.209-0.691-1.671
			c-0.462-0.461-1.019-0.692-1.671-0.692h-3.151c-0.525,0-0.788-0.263-0.788-0.788c0-0.525,0.263-0.788,0.788-0.788h3.151
			c1.09,0,2.019,0.386,2.786,1.158c0.769,0.772,1.152,1.699,1.152,2.781c0,1.305-0.525,2.355-1.576,3.151
			c1.051,0.795,1.576,1.846,1.576,3.151v1.576c0,1.09-0.387,2.019-1.158,2.787c-0.771,0.768-1.698,1.152-2.78,1.152h-3.151
			c-0.525,0-0.788-0.263-0.788-0.788c0-0.525,0.263-0.788,0.788-0.788h3.151c0.66,0,1.219-0.229,1.677-0.686
			c0.457-0.458,0.686-1.017,0.686-1.677v-1.576c0-0.652-0.23-1.209-0.691-1.671C363.152,440.672,362.595,440.441,361.943,440.441z"
			/>
		<path style="fill:#5B5D65;" d="M372.183,435.257l-1.811,1.81c-0.151,0.149-0.335,0.223-0.551,0.223
			c-0.526,0-0.79-0.263-0.79-0.788c0-0.215,0.076-0.398,0.228-0.549l3.079-3.079c0.207-0.207,0.418-0.311,0.633-0.311
			c0.524,0,0.787,0.263,0.787,0.788v14.18c0,0.525-0.263,0.788-0.787,0.788c-0.525,0-0.788-0.262-0.788-0.788V435.257z"/>
	</g>
	<g>
		<path style="fill:#5B5D65;" d="M401.74,43.227v-6.302c0-0.525,0.263-0.788,0.788-0.788h5.514c0.525,0,0.788,0.263,0.788,0.788
			c0,0.525-0.263,0.788-0.788,0.788h-4.726v4.726h2.363c1.09,0,2.019,0.386,2.786,1.158c0.769,0.772,1.152,1.699,1.152,2.781v1.576
			c0,1.09-0.387,2.019-1.158,2.787c-0.771,0.768-1.698,1.152-2.78,1.152h-3.151c-0.525,0-0.788-0.263-0.788-0.788
			c0-0.525,0.263-0.788,0.788-0.788h3.151c0.66,0,1.219-0.229,1.677-0.686c0.457-0.458,0.686-1.017,0.686-1.677v-1.576
			c0-0.652-0.23-1.209-0.691-1.671c-0.462-0.461-1.019-0.692-1.671-0.692h-3.151C402.003,44.015,401.74,43.752,401.74,43.227z"/>
		<path style="fill:#5B5D65;" d="M414.344,50.316c0.524,0,0.787,0.259,0.787,0.776c0,0.072-0.271,1.189-0.812,3.354
			c-0.096,0.398-0.35,0.597-0.764,0.597c-0.525,0-0.788-0.263-0.788-0.788c0-0.358,0.271-1.472,0.812-3.342
			C413.691,50.516,413.946,50.316,414.344,50.316z"/>
		<path style="fill:#5B5D65;" d="M422.222,51.892c-1.091,0-2.02-0.384-2.787-1.152c-0.769-0.768-1.152-1.697-1.152-2.787v-1.576
			c0-1.305,0.525-2.355,1.576-3.151c-1.051-0.796-1.576-1.846-1.576-3.151c0-1.09,0.384-2.019,1.152-2.787
			c0.768-0.768,1.696-1.152,2.787-1.152c1.09,0,2.019,0.384,2.786,1.152c0.769,0.768,1.152,1.697,1.152,2.787
			c0,1.305-0.525,2.355-1.576,3.151c0.756,0.573,1.233,1.277,1.433,2.112c0.096,0.422,0.144,1.293,0.144,2.614
			c0,1.09-0.384,2.019-1.152,2.787C424.241,51.508,423.312,51.892,422.222,51.892z M422.222,42.439c0.66,0,1.219-0.229,1.677-0.686
			c0.457-0.458,0.686-1.017,0.686-1.677c0-0.652-0.23-1.209-0.691-1.671c-0.462-0.461-1.019-0.692-1.671-0.692
			c-0.661,0-1.22,0.229-1.678,0.686c-0.457,0.458-0.686,1.017-0.686,1.677c0,0.66,0.229,1.219,0.686,1.677
			C421.003,42.21,421.561,42.439,422.222,42.439z M422.222,50.316c0.66,0,1.219-0.229,1.677-0.686
			c0.457-0.458,0.686-1.017,0.686-1.677v-1.576c0-0.652-0.23-1.209-0.691-1.671c-0.462-0.461-1.019-0.692-1.671-0.692
			c-0.661,0-1.22,0.229-1.678,0.687c-0.457,0.458-0.686,1.016-0.686,1.677v1.576c0,0.66,0.229,1.219,0.686,1.677
			C421.003,50.088,421.561,50.316,422.222,50.316z"/>
		<path style="fill:#5B5D65;" d="M434.826,36.137c0.525,0,0.787,0.263,0.787,0.788c0,0.39-0.131,0.617-0.394,0.681
			c-1.17,0.294-2.192,0.995-3.067,2.101c-0.692,0.875-1.094,1.786-1.205,2.733h2.304c1.113,0,2.049,0.382,2.805,1.146
			s1.134,1.695,1.134,2.793v1.576c0,1.098-0.384,2.029-1.152,2.792c-0.768,0.764-1.696,1.146-2.786,1.146
			c-1.099,0-2.029-0.38-2.793-1.14c-0.765-0.76-1.146-1.685-1.146-2.775v-4.75c0-1.782,0.593-3.346,1.778-4.691
			c0.923-1.042,1.93-1.782,3.021-2.22C434.42,36.197,434.659,36.137,434.826,36.137z M430.887,44.015v3.939
			c0,0.66,0.229,1.219,0.686,1.677c0.458,0.458,1.017,0.686,1.678,0.686c0.66,0,1.219-0.23,1.677-0.692
			c0.457-0.461,0.686-1.019,0.686-1.671v-1.576c0-0.661-0.23-1.219-0.691-1.677c-0.462-0.458-1.019-0.687-1.671-0.687H430.887z"/>
	</g>
	<g>
		<path style="fill:#5B5D65;" d="M661.098,38.831l-1.811,1.81c-0.151,0.149-0.335,0.223-0.551,0.223c-0.526,0-0.79-0.263-0.79-0.788
			c0-0.215,0.076-0.398,0.228-0.549l3.079-3.079c0.207-0.207,0.418-0.311,0.633-0.311c0.524,0,0.787,0.263,0.787,0.788v14.18
			c0,0.525-0.263,0.788-0.787,0.788c-0.525,0-0.788-0.262-0.788-0.788V38.831z"/>
		<path style="fill:#5B5D65;" d="M665.824,47.954c0-0.088,0.008-0.159,0.024-0.215l3.15-11.029c0.111-0.382,0.366-0.573,0.765-0.573
			c0.524,0,0.787,0.263,0.787,0.79c0,0.072-0.009,0.147-0.027,0.228l-2.873,10.011h3.688v-2.363c0-0.525,0.263-0.788,0.787-0.788
			c0.525,0,0.788,0.263,0.788,0.788v2.363h1.575c0.525,0,0.788,0.263,0.788,0.788c0,0.525-0.263,0.788-0.788,0.788h-1.575v2.363
			c0,0.525-0.263,0.788-0.788,0.788c-0.524,0-0.787-0.263-0.787-0.788v-2.363h-4.727C666.087,48.741,665.824,48.479,665.824,47.954z
			"/>
		<path style="fill:#5B5D65;" d="M680.004,50.316c0.524,0,0.787,0.259,0.787,0.776c0,0.072-0.271,1.189-0.812,3.354
			c-0.096,0.398-0.35,0.597-0.764,0.597c-0.525,0-0.788-0.263-0.788-0.788c0-0.358,0.271-1.472,0.812-3.342
			C679.35,50.516,679.605,50.316,680.004,50.316z"/>
		<path style="fill:#5B5D65;" d="M686.305,51.892c-0.207,0-0.39-0.08-0.549-0.239s-0.238-0.342-0.238-0.549
			c0-0.366,0.131-0.593,0.394-0.681c0.573-0.191,1.05-0.41,1.433-0.656c1.694-1.098,2.642-2.49,2.84-4.177h-2.303
			c-1.091,0-2.02-0.384-2.787-1.152c-0.769-0.768-1.152-1.697-1.152-2.787v-1.575c0-1.09,0.384-2.019,1.152-2.787
			c0.768-0.768,1.696-1.152,2.787-1.152c1.098,0,2.028,0.38,2.792,1.14c0.765,0.76,1.146,1.685,1.146,2.775v4.75
			c0,2.674-1.246,4.786-3.736,6.338C687.28,51.642,686.687,51.892,686.305,51.892z M690.244,44.015v-3.938
			c0-0.652-0.23-1.209-0.691-1.671c-0.462-0.461-1.019-0.692-1.671-0.692c-0.653,0-1.21,0.23-1.672,0.692
			c-0.461,0.462-0.691,1.019-0.691,1.671v1.575c0,0.661,0.229,1.22,0.686,1.677c0.458,0.458,1.017,0.686,1.678,0.686H690.244z"/>
		<path style="fill:#5B5D65;" d="M698.91,44.015h-1.576c-0.525,0-0.787-0.263-0.787-0.788c0-0.525,0.262-0.788,0.787-0.788h1.576
			c0.66,0,1.219-0.229,1.677-0.686c0.457-0.458,0.686-1.017,0.686-1.677c0-0.652-0.23-1.209-0.691-1.671
			c-0.462-0.461-1.019-0.692-1.671-0.692h-3.151c-0.525,0-0.788-0.263-0.788-0.788c0-0.525,0.263-0.788,0.788-0.788h3.151
			c1.09,0,2.019,0.386,2.786,1.158c0.769,0.772,1.152,1.699,1.152,2.781c0,1.305-0.525,2.355-1.576,3.151
			c1.051,0.795,1.576,1.846,1.576,3.151v1.576c0,1.09-0.387,2.019-1.158,2.787c-0.771,0.768-1.698,1.152-2.78,1.152h-3.151
			c-0.525,0-0.788-0.263-0.788-0.788c0-0.525,0.263-0.788,0.788-0.788h3.151c0.66,0,1.219-0.229,1.677-0.686
			c0.457-0.458,0.686-1.017,0.686-1.677v-1.576c0-0.652-0.23-1.209-0.691-1.671C700.119,44.246,699.562,44.015,698.91,44.015z"/>
	</g>
	<g>
		<path style="fill:#5B5D65;" d="M343.826,792.222h-1.576c-0.525,0-0.787-0.263-0.787-0.788s0.262-0.788,0.787-0.788h1.576
			c0.66,0,1.219-0.229,1.677-0.687c0.457-0.457,0.686-1.016,0.686-1.677c0-0.652-0.23-1.209-0.691-1.671
			c-0.462-0.461-1.019-0.692-1.671-0.692h-3.151c-0.525,0-0.788-0.263-0.788-0.787c0-0.525,0.263-0.788,0.788-0.788h3.151
			c1.09,0,2.019,0.386,2.786,1.158c0.769,0.771,1.152,1.698,1.152,2.78c0,1.306-0.525,2.355-1.576,3.151
			c1.051,0.796,1.576,1.846,1.576,3.15v1.576c0,1.09-0.387,2.019-1.158,2.787c-0.771,0.768-1.698,1.151-2.78,1.151h-3.151
			c-0.525,0-0.788-0.263-0.788-0.788c0-0.524,0.263-0.787,0.788-0.787h3.151c0.66,0,1.219-0.229,1.677-0.687
			c0.457-0.458,0.686-1.017,0.686-1.677v-1.576c0-0.652-0.23-1.209-0.691-1.671C345.035,792.452,344.478,792.222,343.826,792.222z"
			/>
		<path style="fill:#5B5D65;" d="M352.491,798.523c0.524,0,0.787,0.259,0.787,0.775c0,0.071-0.271,1.189-0.812,3.354
			c-0.096,0.398-0.35,0.598-0.764,0.598c-0.525,0-0.788-0.263-0.788-0.788c0-0.358,0.271-1.473,0.812-3.342
			C351.838,798.722,352.092,798.523,352.491,798.523z"/>
		<path style="fill:#5B5D65;" d="M359.581,787.037l-1.811,1.811c-0.151,0.148-0.335,0.223-0.551,0.223
			c-0.526,0-0.79-0.263-0.79-0.788c0-0.215,0.076-0.397,0.228-0.549l3.079-3.079c0.207-0.207,0.418-0.311,0.633-0.311
			c0.524,0,0.787,0.263,0.787,0.788v14.179c0,0.525-0.263,0.788-0.787,0.788c-0.525,0-0.788-0.263-0.788-0.787V787.037z"/>
		<path style="fill:#5B5D65;" d="M364.306,796.16c0-0.088,0.008-0.159,0.024-0.215l3.15-11.028c0.111-0.382,0.366-0.573,0.765-0.573
			c0.524,0,0.787,0.264,0.787,0.79c0,0.071-0.009,0.147-0.027,0.227l-2.873,10.012h3.688v-2.363c0-0.525,0.263-0.787,0.787-0.787
			c0.525,0,0.788,0.262,0.788,0.787v2.363h1.575c0.525,0,0.788,0.263,0.788,0.788s-0.263,0.787-0.788,0.787h-1.575v2.363
			c0,0.525-0.263,0.788-0.788,0.788c-0.524,0-0.787-0.263-0.787-0.788v-2.363h-4.727
			C364.569,796.947,364.306,796.686,364.306,796.16z"/>
	</g>
</g>
<g id="&#x442;&#x430;&#x431;&#x43B;&#x438;&#x447;&#x43A;&#x438;">
</g>
<g id="&#x44D;&#x442;&#x430;&#x436;_x2C__&#x441;&#x435;&#x43A;&#x446;&#x438;&#x438;">
</g>
<g id="&#x421;&#x43B;&#x43E;&#x439;_12">
</g>
</svg>
