<?xml version="1.0" encoding="iso-8859-1"?>
<!-- Generator: Adobe Illustrator 27.0.0, SVG Export Plug-In . SVG Version: 6.00 Build 0)  -->
<svg version="1.1" xmlns="http://www.w3.org/2000/svg" xmlns:xlink="http://www.w3.org/1999/xlink" x="0px" y="0px"
	 viewBox="0 0 1000.858 1000" style="enable-background:new 0 0 1000.858 1000;" xml:space="preserve">
<g id="&#x446;&#x432;&#x435;&#x442;_&#x43F;&#x43E;&#x43C;&#x435;&#x449;&#x435;&#x43D;&#x438;&#x439;">
</g>
<g id="&#x43E;&#x43A;&#x43D;&#x430;_x2C__&#x434;&#x432;&#x435;&#x440;&#x438;">
	<g>
		
			<rect x="857.426" y="680.405" transform="matrix(-3.311965e-07 1 -1 -3.311965e-07 1596.4332 -222.1)" style="fill:none;stroke:#5B5D65;stroke-width:0.5722;stroke-linecap:round;stroke-linejoin:round;stroke-miterlimit:10;" width="103.681" height="13.523"/>
		
			<rect x="872.138" y="684.484" transform="matrix(-1.913797e-07 1 -1 -1.913797e-07 1611.1456 -236.8118)" style="fill:none;stroke:#5B5D65;stroke-width:0.5722;stroke-linecap:round;stroke-linejoin:round;stroke-miterlimit:10;" width="103.681" height="5.365"/>
	</g>
	<g>
		
			<rect x="857.426" y="300.375" transform="matrix(-3.311965e-07 1 -1 -3.311965e-07 1216.4033 -602.1301)" style="fill:none;stroke:#5B5D65;stroke-width:0.5722;stroke-linecap:round;stroke-linejoin:round;stroke-miterlimit:10;" width="103.681" height="13.523"/>
		
			<rect x="872.138" y="304.454" transform="matrix(-1.913797e-07 1 -1 -1.913797e-07 1231.1157 -616.8418)" style="fill:none;stroke:#5B5D65;stroke-width:0.5722;stroke-linecap:round;stroke-linejoin:round;stroke-miterlimit:10;" width="103.681" height="5.365"/>
	</g>
	<g>
		
			<rect x="-31.492" y="299.396" transform="matrix(-1.104801e-06 -1 1 -1.104801e-06 -287.6294 324.6859)" style="fill:none;stroke:#5B5D65;stroke-width:0.5722;stroke-linecap:round;stroke-linejoin:round;stroke-miterlimit:10;" width="100.041" height="13.523"/>
		
			<rect x="-46.204" y="303.475" transform="matrix(-1.249707e-06 -1 1 -1.249707e-06 -302.3412 309.9734)" style="fill:none;stroke:#5B5D65;stroke-width:0.5722;stroke-linecap:round;stroke-linejoin:round;stroke-miterlimit:10;" width="100.041" height="5.365"/>
	</g>
	<g>
		<g>
			<g>
				
					<rect x="884.567" y="507.371" transform="matrix(9.560013e-06 -1 1 9.560013e-06 395.1497 1423.516)" style="fill:none;stroke:#5B5D65;stroke-width:0.5722;stroke-linecap:round;stroke-linejoin:round;stroke-miterlimit:10;" width="49.545" height="13.621"/>
				
					<rect x="899.385" y="511.48" transform="matrix(9.854714e-06 -1 1 9.854714e-06 409.9678 1438.3342)" style="fill:none;stroke:#5B5D65;stroke-width:0.5722;stroke-linecap:round;stroke-linejoin:round;stroke-miterlimit:10;" width="49.545" height="5.403"/>
				
					<rect x="896.731" y="508.828" transform="matrix(9.536214e-06 -1 1 9.536214e-06 407.3126 1435.6818)" style="fill:none;stroke:#5B5D65;stroke-width:0.5722;stroke-linecap:round;stroke-linejoin:round;stroke-miterlimit:10;" width="49.545" height="10.71"/>
			</g>
			
				<path style="fill:none;stroke:#5B5D65;stroke-width:0.5722;stroke-linecap:round;stroke-linejoin:round;stroke-miterlimit:10;" d="
				M915.597,483.182c-22.889,0-41.44-18.644-41.44-41.625l41.44,0"/>
		</g>
		
			<polygon style="fill:none;stroke:#5B5D65;stroke-width:0.5722;stroke-linecap:round;stroke-linejoin:round;stroke-miterlimit:10;" points="
			925.131,547.077 925.131,541.191 994.685,541.192 994.686,426.965 925.133,426.965 925.133,421.078 1000.572,421.079 
			1000.572,423.239 1000.572,426.965 1000.571,541.192 1000.571,545.554 1000.571,547.078 		"/>
	</g>
	<path style="fill:none;stroke:#5B5D65;stroke-width:0.5722;stroke-linecap:round;stroke-linejoin:round;stroke-miterlimit:10;" d="
		M339.41,335.225c-26.122,0-47.293,21.277-47.293,47.504l47.293,0"/>
	<path style="fill:none;stroke:#5B5D65;stroke-width:0.5722;stroke-linecap:round;stroke-linejoin:round;stroke-miterlimit:10;" d="
		M627.193,465.31c26.122-0.001,47.293-21.278,47.292-47.505l-47.293,0.001"/>
	<path style="fill:none;stroke:#5B5D65;stroke-width:0.5722;stroke-linecap:round;stroke-linejoin:round;stroke-miterlimit:10;" d="
		M627.193,335.506c26.122,0.001,47.293,21.278,47.292,47.505l-47.293-0.001"/>
	<path style="fill:none;stroke:#5B5D65;stroke-width:0.5722;stroke-linecap:round;stroke-linejoin:round;stroke-miterlimit:10;" d="
		M540.626,326.346c0,22.938,18.683,41.528,41.713,41.528l0-41.528"/>
	<path style="fill:none;stroke:#5B5D65;stroke-width:0.5722;stroke-linecap:round;stroke-linejoin:round;stroke-miterlimit:10;" d="
		M419.114,326.346c0,22.938-18.683,41.528-41.713,41.528l0-41.528"/>
	<path style="fill:none;stroke:#5B5D65;stroke-width:0.5722;stroke-linecap:round;stroke-linejoin:round;stroke-miterlimit:10;" d="
		M443.009,534.521c0,28.696,23.98,51.953,53.539,51.953l0-51.953"/>
</g>
<g id="&#x43F;&#x435;&#x440;&#x435;&#x433;&#x43E;&#x440;&#x43E;&#x434;&#x43A;&#x438;">
	<rect x="75.138" y="207.203" style="fill:#5B5D65;" width="215.935" height="12.149"/>
	<rect x="352.601" y="207.203" style="fill:#5B5D65;" width="222.205" height="12.149"/>
	<rect x="636.335" y="207.203" style="fill:#5B5D65;" width="216.327" height="12.149"/>
	<rect x="75.138" y="392.179" style="fill:#5B5D65;" width="215.935" height="12.539"/>
	<rect x="352.601" y="392.179" style="fill:#5B5D65;" width="61.528" height="12.539"/>
	<rect x="401.98" y="404.719" style="fill:#5B5D65;" width="12.149" height="114.825"/>
	<rect x="512.887" y="645.344" style="fill:#5B5D65;" width="12.541" height="136.379"/>
	<rect x="338.885" y="219.352" style="fill:#5B5D65;" width="6.27" height="105.42"/>
	<g>
		<defs>
			<path id="SVGID_1_" d="M586.172,324.772v4.703h37.622v-4.703H586.172z M424.319,324.772v4.703h112.474v-4.703H424.319z
				 M343.98,324.772v4.703h28.608v-4.703H343.98z"/>
		</defs>
		<use xlink:href="#SVGID_1_"  style="overflow:visible;fill-rule:evenodd;clip-rule:evenodd;fill:#5B5D65;"/>
		<clipPath id="SVGID_00000025416283635875671530000002612797846678641547_">
			<use xlink:href="#SVGID_1_"  style="overflow:visible;"/>
		</clipPath>
		
			<rect x="343.98" y="324.772" style="clip-path:url(#SVGID_00000025416283635875671530000002612797846678641547_);fill:#5B5D65;" width="279.814" height="4.701"/>
	</g>
	<rect x="476.833" y="239.339" style="fill:#5B5D65;" width="5.095" height="85.432"/>
	<rect x="414.129" y="392.179" style="fill:#5B5D65;" width="147.745" height="5.093"/>
	<g>
		<defs>
			<path id="SVGID_00000034799279407027597470000016575532733333746863_" d="M623.794,469.382v116.785h5.095V469.382H623.794z
				 M623.794,404.719v9.014h5.095v-9.014H623.794z M623.794,387.084v5.095h5.095v-5.095H623.794z M623.794,219.352v112.083h5.095
				V219.352H623.794z"/>
		</defs>
		
			<use xlink:href="#SVGID_00000034799279407027597470000016575532733333746863_"  style="overflow:visible;fill-rule:evenodd;clip-rule:evenodd;fill:#5B5D65;"/>
		<clipPath id="SVGID_00000077299831865250378290000017007460891496133789_">
			<use xlink:href="#SVGID_00000034799279407027597470000016575532733333746863_"  style="overflow:visible;"/>
		</clipPath>
		
			<rect x="623.794" y="219.352" style="clip-path:url(#SVGID_00000077299831865250378290000017007460891496133789_);fill:#5B5D65;" width="5.095" height="366.816"/>
	</g>
	<rect x="628.889" y="581.073" style="fill:#5B5D65;" width="272.76" height="5.093"/>
	<rect x="685.714" y="392.179" style="fill:#5B5D65;" width="166.948" height="12.539"/>
	<g>
		<defs>
			<path id="SVGID_00000052785221477440649700000003198943128303099012_" d="M338.885,387.084v5.095h5.095v-5.095H338.885z
				 M338.885,324.772v6.662h5.095v-6.662H338.885z"/>
		</defs>
		
			<use xlink:href="#SVGID_00000052785221477440649700000003198943128303099012_"  style="overflow:visible;fill-rule:evenodd;clip-rule:evenodd;fill:#5B5D65;"/>
		<clipPath id="SVGID_00000071544389819871449040000002100828734968986549_">
			<use xlink:href="#SVGID_00000052785221477440649700000003198943128303099012_"  style="overflow:visible;"/>
		</clipPath>
		
			<rect x="338.885" y="324.772" style="clip-path:url(#SVGID_00000071544389819871449040000002100828734968986549_);fill:#5B5D65;" width="5.095" height="67.405"/>
	</g>
	<rect x="542.671" y="528.167" style="fill:#5B5D65;" width="12.149" height="105.027"/>
	<rect x="512.887" y="633.195" style="fill:#5B5D65;" width="41.933" height="12.148"/>
	<rect x="611.645" y="227.582" style="fill:#5B5D65;" width="4.311" height="97.19"/>
	<rect x="423.926" y="219.352" style="fill:#5B5D65;" width="3.919" height="19.987"/>
	<rect x="504.657" y="227.582" style="fill:#5B5D65;" width="106.988" height="4.311"/>
	<rect x="500.346" y="227.582" style="fill:#5B5D65;" width="4.311" height="11.757"/>
	<rect x="400.805" y="235.028" style="fill:#5B5D65;" width="23.122" height="4.309"/>
	<rect x="481.927" y="235.028" style="fill:#5B5D65;" width="18.419" height="4.309"/>
	<rect x="367.885" y="227.582" style="fill:#5B5D65;" width="32.919" height="4.311"/>
	<rect x="400.805" y="227.582" style="fill:#5B5D65;" width="4.311" height="7.446"/>
	<rect x="476.833" y="219.352" style="fill:#5B5D65;" width="5.095" height="19.987"/>
	<rect x="363.574" y="219.352" style="fill:#5B5D65;" width="4.311" height="12.541"/>
	<line style="fill:#5B5D65;" x1="500.347" y1="236.203" x2="504.657" y2="231.892"/>
	<g>
		<g>
			<defs>
				<path id="SVGID_00000028287563818066491750000011577454678442789531_" d="M500.738,528.167v12.149h41.933v-12.149H500.738z
					 M414.129,528.167v12.149h24.689v-12.149H414.129z"/>
			</defs>
			
				<use xlink:href="#SVGID_00000028287563818066491750000011577454678442789531_"  style="overflow:visible;fill-rule:evenodd;clip-rule:evenodd;fill:#5B5D65;"/>
			<clipPath id="SVGID_00000171706815471497941710000010482450500582548356_">
				<use xlink:href="#SVGID_00000028287563818066491750000011577454678442789531_"  style="overflow:visible;"/>
			</clipPath>
			
				<rect x="414.129" y="528.167" style="clip-path:url(#SVGID_00000171706815471497941710000010482450500582548356_);fill:#5B5D65;" width="128.542" height="12.147"/>
		</g>
		<rect x="401.98" y="404.719" style="fill:#5B5D65;" width="12.149" height="135.595"/>
	</g>
</g>
<g id="&#x448;&#x430;&#x445;&#x442;&#x44B;">
</g>
<g id="&#x43F;&#x443;&#x43D;&#x43A;&#x442;&#x438;&#x440;">
	<g>
		<g>
			<polyline style="fill:none;stroke:#5B5D65;stroke-width:0.5722;stroke-linecap:round;stroke-linejoin:round;" points="
				554.82,528.167 561.874,528.167 561.874,523.058 			"/>
			
				<line style="fill:none;stroke:#5B5D65;stroke-width:0.5722;stroke-linecap:round;stroke-linejoin:round;stroke-dasharray:10.9706,10.9706,0,0,0,0;" x1="561.874" y1="512.087" x2="561.874" y2="402.381"/>
			
				<line style="fill:none;stroke:#5B5D65;stroke-width:0.5722;stroke-linecap:round;stroke-linejoin:round;" x1="561.874" y1="402.381" x2="561.874" y2="397.272"/>
		</g>
	</g>
	<g>
		<g>
			
				<line style="fill:none;stroke:#5B5D65;stroke-width:0.5722;stroke-linecap:round;stroke-linejoin:round;" x1="554.232" y1="586.168" x2="559.341" y2="586.168"/>
			
				<line style="fill:none;stroke:#5B5D65;stroke-width:0.5722;stroke-linecap:round;stroke-linejoin:round;stroke-dasharray:11.8687,11.8687,0,0,0,0;" x1="571.21" y1="586.168" x2="618.685" y2="586.168"/>
			
				<line style="fill:none;stroke:#5B5D65;stroke-width:0.5722;stroke-linecap:round;stroke-linejoin:round;" x1="618.685" y1="586.168" x2="623.794" y2="586.168"/>
		</g>
	</g>
	<g>
		<g>
			
				<line style="fill:none;stroke:#5B5D65;stroke-width:0.5722;stroke-linecap:round;stroke-linejoin:round;" x1="691.592" y1="586.166" x2="691.592" y2="591.275"/>
			
				<line style="fill:none;stroke:#5B5D65;stroke-width:0.5722;stroke-linecap:round;stroke-linejoin:round;stroke-dasharray:9.7601,9.7601,0,0,0,0;" x1="691.592" y1="601.035" x2="691.592" y2="776.717"/>
			
				<line style="fill:none;stroke:#5B5D65;stroke-width:0.5722;stroke-linecap:round;stroke-linejoin:round;" x1="691.592" y1="776.717" x2="691.592" y2="781.826"/>
		</g>
	</g>
</g>
<g id="&#x43C;&#x435;&#x431;&#x435;&#x43B;&#x44C;_x2C__&#x441;&#x430;&#x43D;&#x442;&#x435;&#x445;&#x43D;&#x438;&#x43A;&#x430;">
	<g>
		
			<rect x="584.998" y="747.387" transform="matrix(-1 5.886010e-05 -5.886010e-05 -1 1204.7997 1529.4968)" style="opacity:0.8;fill:none;stroke:#5B5D65;stroke-width:0.2861;stroke-linecap:round;stroke-linejoin:round;stroke-miterlimit:10;" width="34.758" height="34.758"/>
		<g>
			
				<circle style="opacity:0.8;fill:none;stroke:#5B5D65;stroke-width:0.2861;stroke-linecap:round;stroke-linejoin:round;stroke-miterlimit:10;" cx="593.195" cy="772.848" r="6.083"/>
		</g>
		<g>
			
				<circle style="opacity:0.8;fill:none;stroke:#5B5D65;stroke-width:0.2861;stroke-linecap:round;stroke-linejoin:round;stroke-miterlimit:10;" cx="612.428" cy="758.023" r="5.214"/>
		</g>
		<g>
			
				<circle style="opacity:0.8;fill:none;stroke:#5B5D65;stroke-width:0.2861;stroke-linecap:round;stroke-linejoin:round;stroke-miterlimit:10;" cx="612.429" cy="772.847" r="4.055"/>
		</g>
		<g>
			
				<circle style="opacity:0.8;fill:none;stroke:#5B5D65;stroke-width:0.2861;stroke-linecap:round;stroke-linejoin:round;stroke-miterlimit:10;" cx="593.195" cy="758.024" r="4.055"/>
		</g>
		
			<circle style="opacity:0.8;fill:none;stroke:#5B5D65;stroke-width:0.2861;stroke-linecap:round;stroke-linejoin:round;stroke-miterlimit:10;" cx="603.42" cy="750.075" r="0.391"/>
		
			<circle style="opacity:0.8;fill:none;stroke:#5B5D65;stroke-width:0.2861;stroke-linecap:round;stroke-linejoin:round;stroke-miterlimit:10;" cx="601.25" cy="750.075" r="0.391"/>
		
			<circle style="opacity:0.8;fill:none;stroke:#5B5D65;stroke-width:0.2861;stroke-linecap:round;stroke-linejoin:round;stroke-miterlimit:10;" cx="601.25" cy="752.245" r="0.391"/>
		
			<circle style="opacity:0.8;fill:none;stroke:#5B5D65;stroke-width:0.2861;stroke-linecap:round;stroke-linejoin:round;stroke-miterlimit:10;" cx="603.421" cy="752.245" r="0.391"/>
	</g>
	<g>
		
			<rect x="525.293" y="645.344" transform="matrix(-1.397543e-05 -1 1 -1.397543e-05 -120.0438 1205.4033)" style="opacity:0.8;fill:none;stroke:#5B5D65;stroke-width:0.2861;stroke-linecap:round;stroke-linejoin:round;stroke-miterlimit:10;" width="34.758" height="34.758"/>
		
			<circle style="opacity:0.8;fill:none;stroke:#5B5D65;stroke-width:0.2861;stroke-linecap:round;stroke-linejoin:round;stroke-miterlimit:10;" cx="539.479" cy="662.701" r="2.607"/>
		
			<circle style="opacity:0.8;fill:none;stroke:#5B5D65;stroke-width:0.2861;stroke-linecap:round;stroke-linejoin:round;stroke-miterlimit:10;" cx="530.506" cy="662.701" r="1.014"/>
		
			<circle style="opacity:0.8;fill:none;stroke:#5B5D65;stroke-width:0.2861;stroke-linecap:round;stroke-linejoin:round;stroke-miterlimit:10;" cx="530.506" cy="652.619" r="1.014"/>
		
			<path style="opacity:0.8;fill:none;stroke:#5B5D65;stroke-width:0.2861;stroke-linecap:round;stroke-linejoin:round;stroke-miterlimit:10;" d="
			M557.154,648.53l0,28.385c0,0.159-0.13,0.29-0.29,0.29l-28.385,0c-0.159,0-0.29-0.13-0.29-0.29l0-28.385
			c0-0.159,0.13-0.29,0.29-0.29l28.385,0C557.023,648.24,557.154,648.37,557.154,648.53z"/>
		
			<path style="opacity:0.8;fill:none;stroke:#5B5D65;stroke-width:0.2861;stroke-linecap:round;stroke-linejoin:round;stroke-miterlimit:10;" d="
			M555.702,649.964l0,25.489c0,0.159-0.13,0.29-0.29,0.29l-22.592,0c-0.159,0-0.29-0.13-0.29-0.29l0-25.489
			c0-0.159,0.13-0.29,0.29-0.29l22.592,0C555.572,649.675,555.702,649.805,555.702,649.964z"/>
	</g>
	<g>
		
			<line style="opacity:0.8;fill:none;stroke:#5B5D65;stroke-width:0.2861;stroke-linecap:round;stroke-linejoin:round;stroke-miterlimit:10;" x1="456.373" y1="224.329" x2="452.144" y2="224.329"/>
		
			<path style="opacity:0.8;fill:none;stroke:#5B5D65;stroke-width:0.2861;stroke-linecap:round;stroke-linejoin:round;stroke-miterlimit:10;" d="
			M450.27,224.329l-8.74,0c-1.193,0-2.158,1.044-2.158,2.33l0,67.632c0,4.614,1.592,9.069,4.463,12.486
			c6.819,8.109,18.623,8.109,25.44,0c2.875-3.417,4.467-7.872,4.467-12.486l0-67.632c0-1.285-0.969-2.33-2.162-2.33l-10.235,0"/>
		
			<rect x="436.282" y="219.352" style="opacity:0.8;fill:none;stroke:#5B5D65;stroke-width:0.2861;stroke-linecap:round;stroke-linejoin:round;stroke-miterlimit:10;" width="40.551" height="98.48"/>
		
			<path style="opacity:0.8;fill:none;stroke:#5B5D65;stroke-width:0.2861;stroke-linecap:round;stroke-linejoin:round;stroke-miterlimit:10;" d="
			M456.556,239.423c-1.146,0-2.074-0.928-2.074-2.074c0-1.144,0.928-2.074,2.074-2.074c1.146,0,2.076,0.93,2.076,2.074
			C458.632,238.495,457.702,239.423,456.556,239.423z"/>
		
			<path style="opacity:0.8;fill:none;stroke:#5B5D65;stroke-width:0.2861;stroke-linecap:round;stroke-linejoin:round;stroke-miterlimit:10;" d="
			M452.144,219.353l-1.874,0v3.053v0.208l0,4.825c0,0,0.035,0.993,0.936,0.993c0.901,0,0.938-0.993,0.938-0.993l0-4.825v-0.208
			v-1.127"/>
		
			<path style="opacity:0.8;fill:none;stroke:#5B5D65;stroke-width:0.2861;stroke-linecap:round;stroke-linejoin:round;stroke-miterlimit:10;" d="
			M459.93,221.978l0.05-0.608c0.078-0.965-0.648-1.878-1.71-2.003c-0.072-0.008-0.141-0.012-0.215-0.012
			c-0.072,0-0.143,0.004-0.215,0.012c-1.063,0.125-1.788,1.038-1.713,2.003l0.864,10.471c0,0.333,0.298,0.603,0.668,0.603h0.787
			c0.372,0,0.666-0.27,0.666-0.603l0.439-5.304"/>
		
			<path style="opacity:0.8;fill:none;stroke:#5B5D65;stroke-width:0.2861;stroke-linecap:round;stroke-linejoin:round;stroke-miterlimit:10;" d="
			M461.528,226.877l-0.307,0.186c-0.548,0.327-1.263,0.151-1.59-0.396l-2.532-4.202c-0.329-0.546-0.151-1.261,0.392-1.592
			l0.313-0.184c0.542-0.329,1.259-0.149,1.588,0.394l2.53,4.204C462.251,225.833,462.075,226.548,461.528,226.877z"/>
		
			<path style="opacity:0.8;fill:none;stroke:#5B5D65;stroke-width:0.2861;stroke-linecap:round;stroke-linejoin:round;stroke-miterlimit:10;" d="
			M459.877,221.892c1.478-0.08,3.397-0.231,3.911-0.492c0.715-0.366,0.398-1.383,0.398-1.383v-0.65l-12.266,0v0.65
			c0,0-0.315,1.018,0.401,1.383c0.505,0.257,2.38,0.408,3.85,0.488"/>
		
			<path style="opacity:0.8;fill:none;stroke:#5B5D65;stroke-width:0.2861;stroke-linecap:round;stroke-linejoin:round;stroke-miterlimit:10;" d="
			M449.46,224.329c-1.095,0.613-1.835,1.784-1.835,3.127c0,1.978,1.602,3.582,3.58,3.582c1.978,0,3.58-1.604,3.58-3.582
			c0-1.343-0.74-2.514-1.835-3.127"/>
	</g>
	<g>
		
			<path style="opacity:0.8;fill:none;stroke:#5B5D65;stroke-width:0.2861;stroke-linecap:round;stroke-linejoin:round;stroke-miterlimit:10;" d="
			M415.558,249.783c0,0.731-0.595,1.323-1.328,1.323c-0.731,0-1.325-0.592-1.325-1.323c0-0.732,0.594-1.325,1.325-1.325
			C414.963,248.459,415.558,249.051,415.558,249.783z"/>
		
			<line style="opacity:0.8;fill:none;stroke:#5B5D65;stroke-width:0.2861;stroke-linecap:round;stroke-linejoin:round;stroke-miterlimit:10;" x1="412.299" y1="249.782" x2="416.165" y2="249.782"/>
		
			<line style="opacity:0.8;fill:none;stroke:#5B5D65;stroke-width:0.2861;stroke-linecap:round;stroke-linejoin:round;stroke-miterlimit:10;" x1="414.232" y1="251.716" x2="414.232" y2="247.849"/>
		
			<path style="opacity:0.8;fill:none;stroke:#5B5D65;stroke-width:0.2861;stroke-linecap:round;stroke-linejoin:round;stroke-miterlimit:10;" d="
			M415.182,243.431c0,0.525-0.426,0.95-0.951,0.95c-0.524,0-0.949-0.425-0.949-0.95c0-0.526,0.425-0.951,0.949-0.951
			C414.755,242.48,415.182,242.905,415.182,243.431z"/>
		
			<line style="opacity:0.8;fill:none;stroke:#5B5D65;stroke-width:0.2861;stroke-linecap:round;stroke-linejoin:round;stroke-miterlimit:10;" x1="412.713" y1="243.431" x2="415.75" y2="243.431"/>
		
			<line style="opacity:0.8;fill:none;stroke:#5B5D65;stroke-width:0.2861;stroke-linecap:round;stroke-linejoin:round;stroke-miterlimit:10;" x1="414.232" y1="244.949" x2="414.232" y2="241.912"/>
		
			<path style="opacity:0.8;fill:none;stroke:#5B5D65;stroke-width:0.2861;stroke-linecap:round;stroke-linejoin:round;stroke-miterlimit:10;" d="
			M428.552,249.223c0.051-0.681,0.083-1.526,0.047-2.495c-0.014-0.379-0.05-1.1-0.163-2.007c-0.094-0.747-0.247-1.677-0.511-2.734
			c-0.285-0.855-0.571-1.709-0.856-2.564c-0.001,0-0.006,0-0.008,0c-0.363,0-25.754,0-25.859,0c-0.002,0-0.007,0-0.008,0
			c-0.285,0.855-0.571,1.709-0.856,2.564c-0.263,1.058-0.417,1.988-0.511,2.734c-0.114,0.907-0.15,1.629-0.163,2.007
			c-0.035,0.969-0.004,1.813,0.047,2.494c0.02,0.945,0.243,7.004,5.152,10.962c3.634,2.93,7.702,2.99,9.268,2.99
			c1.566,0,5.634-0.06,9.268-2.99C428.308,256.226,428.532,250.168,428.552,249.223z"/>
		
			<path style="opacity:0.8;fill:none;stroke:#5B5D65;stroke-width:0.2861;stroke-linecap:round;stroke-linejoin:round;stroke-miterlimit:10;" d="
			M424.591,250.706c0.029-0.33,0.059-0.78-0.1-1.316c-0.008-0.028-0.016-0.051-0.023-0.071c0,0-0.161-0.467-0.518-0.889
			c-1.865-2.206-9.725-2.206-9.725-2.206l0,0c-4.317,0-7.951,0.234-9.58,2.203c-0.001,0.001-0.001,0.002-0.002,0.002
			c0,0-0.001,0.001-0.001,0.001c-0.38,0.436-0.499,0.825-0.517,0.888c0,0,0,0.001,0,0.001c-0.2,0.585-0.129,1.298-0.123,1.388
			c0.046,0.675,0.068,1.013,0.166,1.498c0.563,2.78,1.726,4.509,1.726,4.509c0.867,1.289,1.812,2.068,2.305,2.468
			c0.396,0.321,1,0.806,1.876,1.252c1.917,0.975,3.679,1.023,4.15,1.025c2.077,0.012,3.601-0.695,4.292-1.025l0,0
			c0.507-0.275,1.168-0.678,1.877-1.252c0.486-0.394,1.436-1.175,2.305-2.468c0,0,1.174-1.745,1.726-4.509
			C424.485,251.901,424.52,251.503,424.591,250.706z"/>
	</g>
	<g>
		
			<ellipse style="opacity:0.8;fill:none;stroke:#5B5D65;stroke-width:0.2861;stroke-linecap:round;stroke-linejoin:round;stroke-miterlimit:10;" cx="382.147" cy="237.668" rx="0.954" ry="0.952"/>
		
			<line style="opacity:0.8;fill:none;stroke:#5B5D65;stroke-width:0.2861;stroke-linecap:round;stroke-linejoin:round;stroke-miterlimit:10;" x1="380.48" y1="237.668" x2="381.193" y2="237.668"/>
		
			<line style="opacity:0.8;fill:none;stroke:#5B5D65;stroke-width:0.2861;stroke-linecap:round;stroke-linejoin:round;stroke-miterlimit:10;" x1="383.101" y1="237.668" x2="383.814" y2="237.668"/>
		
			<line style="opacity:0.8;fill:none;stroke:#5B5D65;stroke-width:0.2861;stroke-linecap:round;stroke-linejoin:round;stroke-miterlimit:10;" x1="382.147" y1="239.33" x2="382.147" y2="238.619"/>
		
			<line style="opacity:0.8;fill:none;stroke:#5B5D65;stroke-width:0.2861;stroke-linecap:round;stroke-linejoin:round;stroke-miterlimit:10;" x1="382.147" y1="236.716" x2="382.147" y2="236.006"/>
		
			<line style="opacity:0.8;fill:none;stroke:#5B5D65;stroke-width:0.2861;stroke-linecap:round;stroke-linejoin:round;stroke-miterlimit:10;" x1="376.839" y1="245.386" x2="377.223" y2="245.386"/>
		
			<line style="opacity:0.8;fill:none;stroke:#5B5D65;stroke-width:0.2861;stroke-linecap:round;stroke-linejoin:round;stroke-miterlimit:10;" x1="378.252" y1="245.386" x2="378.637" y2="245.386"/>
		
			<line style="opacity:0.8;fill:none;stroke:#5B5D65;stroke-width:0.2861;stroke-linecap:round;stroke-linejoin:round;stroke-miterlimit:10;" x1="377.738" y1="246.283" x2="377.738" y2="245.9"/>
		
			<line style="opacity:0.8;fill:none;stroke:#5B5D65;stroke-width:0.2861;stroke-linecap:round;stroke-linejoin:round;stroke-miterlimit:10;" x1="377.738" y1="244.873" x2="377.738" y2="244.49"/>
		
			<circle style="opacity:0.8;fill:none;stroke:#5B5D65;stroke-width:0.2861;stroke-linecap:round;stroke-linejoin:round;stroke-miterlimit:10;" cx="377.738" cy="245.386" r="0.514"/>
		
			<circle style="opacity:0.8;fill:none;stroke:#5B5D65;stroke-width:0.2861;stroke-linecap:round;stroke-linejoin:round;stroke-miterlimit:10;" cx="386.557" cy="245.386" r="0.514"/>
		
			<line style="opacity:0.8;fill:none;stroke:#5B5D65;stroke-width:0.2861;stroke-linecap:round;stroke-linejoin:round;stroke-miterlimit:10;" x1="385.658" y1="245.386" x2="386.042" y2="245.386"/>
		
			<line style="opacity:0.8;fill:none;stroke:#5B5D65;stroke-width:0.2861;stroke-linecap:round;stroke-linejoin:round;stroke-miterlimit:10;" x1="387.072" y1="245.386" x2="387.456" y2="245.386"/>
		
			<line style="opacity:0.8;fill:none;stroke:#5B5D65;stroke-width:0.2861;stroke-linecap:round;stroke-linejoin:round;stroke-miterlimit:10;" x1="386.557" y1="246.283" x2="386.557" y2="245.9"/>
		
			<line style="opacity:0.8;fill:none;stroke:#5B5D65;stroke-width:0.2861;stroke-linecap:round;stroke-linejoin:round;stroke-miterlimit:10;" x1="386.557" y1="244.873" x2="386.557" y2="244.49"/>
		
			<path style="opacity:0.8;fill:none;stroke:#5B5D65;stroke-width:0.2861;stroke-linecap:round;stroke-linejoin:round;stroke-miterlimit:10;" d="
			M391.463,253.605c-0.026-0.398-0.057-0.724-0.079-0.938c-0.696-3.913-1.537-6.529-2.233-10.441
			c-2.104,0.244-4.451,0.405-7.004,0.405c-2.563,0-4.919-0.161-7.03-0.405c-0.696,3.913-1.511,6.529-2.207,10.441
			c-0.022,0.215-0.053,0.541-0.079,0.938c-0.154,2.345-0.414,6.296,1.516,9.86c0.311,0.575,0.951,1.733,2.173,2.84
			c0.732,0.663,2.677,2.371,5.556,2.373c0.024,0,0.046-0.002,0.07-0.002c0.024,0,0.046,0.002,0.07,0.002
			c2.879-0.002,4.824-1.71,5.556-2.373c1.222-1.107,1.862-2.265,2.173-2.84C391.877,259.902,391.617,255.951,391.463,253.605z"/>
		
			<path style="opacity:0.8;fill:none;stroke:#5B5D65;stroke-width:0.2861;stroke-linecap:round;stroke-linejoin:round;stroke-miterlimit:10;" d="
			M389.94,254.26c-0.164-1.177-0.363-2.493-1.288-3.844c-1.141-1.667-2.674-2.344-3.173-2.557c-1.362-0.58-2.522-0.58-3.331-0.58
			c-0.81,0-1.969,0-3.331,0.58c-0.5,0.213-2.032,0.89-3.173,2.557c-0.925,1.351-1.124,2.667-1.288,3.844
			c-0.209,1.499-0.756,5.419,1.548,8.947c0.574,0.878,1.802,2.733,4.161,3.499c0.489,0.159,2.181,0.645,4.168,0
			c2.359-0.766,3.587-2.62,4.161-3.499C390.696,259.679,390.149,255.759,389.94,254.26z"/>
		
			<path style="opacity:0.8;fill:none;stroke:#5B5D65;stroke-width:0.2861;stroke-linecap:round;stroke-linejoin:round;stroke-miterlimit:10;" d="
			M386.981,250.574c-1.827-1.797-4.209-1.791-4.834-1.786c-0.625-0.005-3.007-0.011-4.834,1.786
			c-1.617,1.59-1.967,3.772-1.955,5.505c0.007,1.072,0.095,1.89,0.213,2.556c0.291,1.647,0.582,3.301,1.787,4.721
			c0.953,1.123,2.648,2.303,4.805,2.28c2.552-0.026,4.197-1.717,4.704-2.306c1.272-1.475,1.585-3.194,1.858-4.696
			c0.111-0.608,0.205-1.452,0.212-2.556C388.948,254.347,388.598,252.164,386.981,250.574z"/>
		
			<path style="opacity:0.8;fill:none;stroke:#5B5D65;stroke-width:0.2861;stroke-linecap:round;stroke-linejoin:round;stroke-miterlimit:10;" d="
			M384.558,251.515c-0.098-0.281-0.3-0.74-0.709-1.162c-0.229-0.236-0.461-0.395-0.647-0.501c-0.004,0-0.007,0-0.011,0
			c-0.973,0-1.12,0-2.086,0c-0.004,0-0.007,0-0.011,0c-0.186,0.106-0.417,0.265-0.647,0.501c-0.41,0.421-0.611,0.881-0.709,1.162
			c-0.034,1.295-0.068,2.591-0.103,3.886c0.01,0.175,0.068,0.829,0.569,1.368c0.39,0.421,0.839,0.544,1.019,0.583
			c0.616,0,1.233,0,1.849,0c0.181-0.039,0.629-0.162,1.019-0.583c0.501-0.54,0.559-1.194,0.569-1.368
			C384.626,254.106,384.592,252.81,384.558,251.515z"/>
		
			<path style="opacity:0.8;fill:none;stroke:#5B5D65;stroke-width:0.2861;stroke-linecap:round;stroke-linejoin:round;stroke-miterlimit:10;" d="
			M384.603,253.045c-0.294,0.23-1.167,0.851-2.425,0.861c-1.295,0.01-2.195-0.633-2.486-0.861"/>
		
			<path style="opacity:0.8;fill:none;stroke:#5B5D65;stroke-width:0.2861;stroke-linecap:round;stroke-linejoin:round;stroke-miterlimit:10;" d="
			M392.09,231.892l-19.885,0c-0.268,0-0.485,0.232-0.485,0.518c0,0,0,4.816,0,5.33c0.061,0.282,0.158,0.649,0.319,1.061
			c0.161,0.413,0.386,0.87,0.701,1.333c0.416,0.611,0.879,1.067,1.303,1.404c0.425,0.337,0.811,0.554,1.073,0.686
			c1.056,0.122,2.173,0.224,3.346,0.295c1.173,0.071,2.403,0.111,3.684,0.111c1.276,0,2.501-0.041,3.67-0.111
			c1.169-0.071,2.282-0.172,3.334-0.294c0.232-0.098,0.581-0.264,0.973-0.534c0.392-0.27,0.827-0.644,1.231-1.157
			c0.437-0.554,0.72-1.12,0.905-1.614c0.185-0.494,0.271-0.915,0.314-1.179c0-0.588,0-5.33,0-5.33
			C392.574,232.125,392.357,231.892,392.09,231.892z"/>
	</g>
	<g>
		
			<ellipse style="opacity:0.8;fill:none;stroke:#5B5D65;stroke-width:0.2861;stroke-linecap:round;stroke-linejoin:round;stroke-miterlimit:10;" cx="533.989" cy="237.668" rx="0.954" ry="0.952"/>
		
			<line style="opacity:0.8;fill:none;stroke:#5B5D65;stroke-width:0.2861;stroke-linecap:round;stroke-linejoin:round;stroke-miterlimit:10;" x1="532.322" y1="237.668" x2="533.035" y2="237.668"/>
		
			<line style="opacity:0.8;fill:none;stroke:#5B5D65;stroke-width:0.2861;stroke-linecap:round;stroke-linejoin:round;stroke-miterlimit:10;" x1="534.943" y1="237.668" x2="535.656" y2="237.668"/>
		
			<line style="opacity:0.8;fill:none;stroke:#5B5D65;stroke-width:0.2861;stroke-linecap:round;stroke-linejoin:round;stroke-miterlimit:10;" x1="533.989" y1="239.33" x2="533.989" y2="238.619"/>
		
			<line style="opacity:0.8;fill:none;stroke:#5B5D65;stroke-width:0.2861;stroke-linecap:round;stroke-linejoin:round;stroke-miterlimit:10;" x1="533.989" y1="236.716" x2="533.989" y2="236.006"/>
		
			<line style="opacity:0.8;fill:none;stroke:#5B5D65;stroke-width:0.2861;stroke-linecap:round;stroke-linejoin:round;stroke-miterlimit:10;" x1="528.68" y1="245.386" x2="529.065" y2="245.386"/>
		
			<line style="opacity:0.8;fill:none;stroke:#5B5D65;stroke-width:0.2861;stroke-linecap:round;stroke-linejoin:round;stroke-miterlimit:10;" x1="530.094" y1="245.386" x2="530.479" y2="245.386"/>
		
			<line style="opacity:0.8;fill:none;stroke:#5B5D65;stroke-width:0.2861;stroke-linecap:round;stroke-linejoin:round;stroke-miterlimit:10;" x1="529.58" y1="246.283" x2="529.58" y2="245.9"/>
		
			<line style="opacity:0.8;fill:none;stroke:#5B5D65;stroke-width:0.2861;stroke-linecap:round;stroke-linejoin:round;stroke-miterlimit:10;" x1="529.58" y1="244.873" x2="529.58" y2="244.49"/>
		
			<circle style="opacity:0.8;fill:none;stroke:#5B5D65;stroke-width:0.2861;stroke-linecap:round;stroke-linejoin:round;stroke-miterlimit:10;" cx="529.58" cy="245.386" r="0.514"/>
		
			<circle style="opacity:0.8;fill:none;stroke:#5B5D65;stroke-width:0.2861;stroke-linecap:round;stroke-linejoin:round;stroke-miterlimit:10;" cx="538.399" cy="245.386" r="0.514"/>
		
			<line style="opacity:0.8;fill:none;stroke:#5B5D65;stroke-width:0.2861;stroke-linecap:round;stroke-linejoin:round;stroke-miterlimit:10;" x1="537.5" y1="245.386" x2="537.884" y2="245.386"/>
		
			<line style="opacity:0.8;fill:none;stroke:#5B5D65;stroke-width:0.2861;stroke-linecap:round;stroke-linejoin:round;stroke-miterlimit:10;" x1="538.913" y1="245.386" x2="539.298" y2="245.386"/>
		
			<line style="opacity:0.8;fill:none;stroke:#5B5D65;stroke-width:0.2861;stroke-linecap:round;stroke-linejoin:round;stroke-miterlimit:10;" x1="538.399" y1="246.283" x2="538.399" y2="245.9"/>
		
			<line style="opacity:0.8;fill:none;stroke:#5B5D65;stroke-width:0.2861;stroke-linecap:round;stroke-linejoin:round;stroke-miterlimit:10;" x1="538.399" y1="244.873" x2="538.399" y2="244.49"/>
		
			<path style="opacity:0.8;fill:none;stroke:#5B5D65;stroke-width:0.2861;stroke-linecap:round;stroke-linejoin:round;stroke-miterlimit:10;" d="
			M543.305,253.605c-0.026-0.398-0.057-0.724-0.079-0.938c-0.696-3.913-1.537-6.529-2.233-10.441
			c-2.104,0.244-4.451,0.405-7.004,0.405c-2.563,0-4.919-0.161-7.03-0.405c-0.696,3.913-1.511,6.529-2.207,10.441
			c-0.022,0.215-0.053,0.541-0.079,0.938c-0.154,2.345-0.414,6.296,1.516,9.86c0.311,0.575,0.951,1.733,2.173,2.84
			c0.732,0.663,2.677,2.371,5.556,2.373c0.024,0,0.046-0.002,0.07-0.002c0.024,0,0.046,0.002,0.07,0.002
			c2.879-0.002,4.824-1.71,5.556-2.373c1.222-1.107,1.862-2.265,2.173-2.84C543.719,259.902,543.459,255.951,543.305,253.605z"/>
		
			<path style="opacity:0.8;fill:none;stroke:#5B5D65;stroke-width:0.2861;stroke-linecap:round;stroke-linejoin:round;stroke-miterlimit:10;" d="
			M541.782,254.26c-0.164-1.177-0.363-2.493-1.288-3.844c-1.141-1.667-2.674-2.344-3.173-2.557c-1.362-0.58-2.522-0.58-3.331-0.58
			s-1.969,0-3.331,0.58c-0.5,0.213-2.032,0.89-3.173,2.557c-0.925,1.351-1.124,2.667-1.288,3.844
			c-0.209,1.499-0.756,5.419,1.548,8.947c0.574,0.878,1.802,2.733,4.161,3.499c0.489,0.159,2.181,0.645,4.168,0
			c2.359-0.766,3.587-2.62,4.161-3.499C542.538,259.679,541.991,255.759,541.782,254.26z"/>
		
			<path style="opacity:0.8;fill:none;stroke:#5B5D65;stroke-width:0.2861;stroke-linecap:round;stroke-linejoin:round;stroke-miterlimit:10;" d="
			M538.823,250.574c-1.827-1.797-4.209-1.791-4.834-1.786c-0.625-0.005-3.007-0.011-4.834,1.786
			c-1.617,1.59-1.967,3.772-1.955,5.505c0.007,1.072,0.095,1.89,0.213,2.556c0.291,1.647,0.582,3.301,1.787,4.721
			c0.953,1.123,2.648,2.303,4.805,2.28c2.552-0.026,4.197-1.717,4.704-2.306c1.272-1.475,1.585-3.194,1.858-4.696
			c0.111-0.608,0.205-1.452,0.212-2.556C540.79,254.347,540.44,252.164,538.823,250.574z"/>
		
			<path style="opacity:0.8;fill:none;stroke:#5B5D65;stroke-width:0.2861;stroke-linecap:round;stroke-linejoin:round;stroke-miterlimit:10;" d="
			M536.399,251.515c-0.098-0.281-0.3-0.74-0.71-1.162c-0.229-0.236-0.461-0.395-0.647-0.501c-0.004,0-0.007,0-0.011,0
			c-0.973,0-1.12,0-2.086,0c-0.004,0-0.007,0-0.011,0c-0.186,0.106-0.417,0.265-0.647,0.501c-0.41,0.421-0.611,0.881-0.709,1.162
			c-0.034,1.295-0.068,2.591-0.103,3.886c0.01,0.175,0.068,0.829,0.569,1.368c0.39,0.421,0.839,0.544,1.019,0.583
			c0.616,0,1.233,0,1.849,0c0.181-0.039,0.629-0.162,1.019-0.583c0.5-0.54,0.559-1.194,0.569-1.368
			C536.468,254.106,536.434,252.81,536.399,251.515z"/>
		
			<path style="opacity:0.8;fill:none;stroke:#5B5D65;stroke-width:0.2861;stroke-linecap:round;stroke-linejoin:round;stroke-miterlimit:10;" d="
			M536.445,253.045c-0.294,0.23-1.167,0.851-2.425,0.861c-1.295,0.01-2.195-0.633-2.486-0.861"/>
		
			<path style="opacity:0.8;fill:none;stroke:#5B5D65;stroke-width:0.2861;stroke-linecap:round;stroke-linejoin:round;stroke-miterlimit:10;" d="
			M543.931,231.892l-19.885,0c-0.268,0-0.485,0.232-0.485,0.518c0,0,0,4.816,0,5.33c0.061,0.282,0.158,0.649,0.319,1.061
			c0.161,0.413,0.386,0.87,0.701,1.333c0.416,0.611,0.879,1.067,1.303,1.404c0.424,0.337,0.811,0.554,1.073,0.686
			c1.056,0.122,2.173,0.224,3.346,0.295c1.173,0.071,2.403,0.111,3.684,0.111c1.276,0,2.501-0.041,3.67-0.111
			c1.169-0.071,2.282-0.172,3.334-0.294c0.232-0.098,0.581-0.264,0.973-0.534c0.392-0.27,0.827-0.644,1.231-1.157
			c0.437-0.554,0.72-1.12,0.905-1.614c0.185-0.494,0.271-0.915,0.314-1.179c0-0.588,0-5.33,0-5.33
			C544.416,232.125,544.199,231.892,543.931,231.892z"/>
	</g>
	<g>
		
			<path style="opacity:0.8;fill:none;stroke:#5B5D65;stroke-width:0.2861;stroke-linecap:round;stroke-linejoin:round;stroke-miterlimit:10;" d="
			M601.285,304.644c-0.731,0-1.323-0.595-1.323-1.328c0-0.731,0.592-1.325,1.323-1.325c0.732,0,1.325,0.594,1.325,1.325
			C602.61,304.049,602.017,304.644,601.285,304.644z"/>
		
			<line style="opacity:0.8;fill:none;stroke:#5B5D65;stroke-width:0.2861;stroke-linecap:round;stroke-linejoin:round;stroke-miterlimit:10;" x1="601.286" y1="301.385" x2="601.286" y2="305.251"/>
		
			<line style="opacity:0.8;fill:none;stroke:#5B5D65;stroke-width:0.2861;stroke-linecap:round;stroke-linejoin:round;stroke-miterlimit:10;" x1="599.353" y1="303.318" x2="603.219" y2="303.318"/>
		
			<path style="opacity:0.8;fill:none;stroke:#5B5D65;stroke-width:0.2861;stroke-linecap:round;stroke-linejoin:round;stroke-miterlimit:10;" d="
			M607.637,304.268c-0.525,0-0.95-0.426-0.95-0.951c0-0.524,0.425-0.949,0.95-0.949c0.526,0,0.951,0.425,0.951,0.949
			C608.588,303.842,608.163,304.268,607.637,304.268z"/>
		
			<line style="opacity:0.8;fill:none;stroke:#5B5D65;stroke-width:0.2861;stroke-linecap:round;stroke-linejoin:round;stroke-miterlimit:10;" x1="607.638" y1="301.799" x2="607.638" y2="304.836"/>
		
			<line style="opacity:0.8;fill:none;stroke:#5B5D65;stroke-width:0.2861;stroke-linecap:round;stroke-linejoin:round;stroke-miterlimit:10;" x1="606.119" y1="303.318" x2="609.156" y2="303.318"/>
		
			<path style="opacity:0.8;fill:none;stroke:#5B5D65;stroke-width:0.2861;stroke-linecap:round;stroke-linejoin:round;stroke-miterlimit:10;" d="
			M601.845,317.638c0.681,0.051,1.526,0.083,2.495,0.047c0.379-0.014,1.1-0.05,2.007-0.163c0.747-0.094,1.677-0.247,2.734-0.511
			c0.855-0.285,1.709-0.571,2.564-0.856c0-0.001,0-0.006,0-0.008c0-0.363,0-25.754,0-25.859c0-0.002,0-0.007,0-0.008
			c-0.855-0.285-1.709-0.571-2.564-0.856c-1.058-0.263-1.988-0.417-2.734-0.511c-0.907-0.114-1.629-0.15-2.007-0.163
			c-0.969-0.035-1.813-0.004-2.494,0.047c-0.945,0.02-7.004,0.243-10.962,5.152c-2.93,3.634-2.99,7.702-2.99,9.268
			c0,1.566,0.06,5.634,2.99,9.268C594.842,317.394,600.9,317.618,601.845,317.638z"/>
		
			<path style="opacity:0.8;fill:none;stroke:#5B5D65;stroke-width:0.2861;stroke-linecap:round;stroke-linejoin:round;stroke-miterlimit:10;" d="
			M600.362,313.677c0.33,0.029,0.78,0.059,1.316-0.1c0.028-0.008,0.051-0.016,0.071-0.023c0,0,0.467-0.161,0.889-0.518
			c2.206-1.865,2.206-9.725,2.206-9.725l0,0c0-4.317-0.234-7.951-2.203-9.58c-0.001-0.001-0.002-0.001-0.002-0.002
			c0,0-0.001-0.001-0.001-0.001c-0.436-0.38-0.825-0.499-0.888-0.517c0,0-0.001,0-0.001,0c-0.585-0.2-1.298-0.129-1.388-0.123
			c-0.675,0.046-1.013,0.068-1.498,0.166c-2.78,0.563-4.509,1.726-4.509,1.726c-1.289,0.867-2.068,1.812-2.468,2.305
			c-0.321,0.396-0.806,1-1.252,1.876c-0.975,1.917-1.023,3.679-1.025,4.15c-0.012,2.077,0.695,3.601,1.025,4.292l0,0
			c0.275,0.507,0.678,1.168,1.252,1.877c0.394,0.486,1.175,1.436,2.468,2.305c0,0,1.745,1.174,4.509,1.726
			C599.167,313.571,599.566,313.607,600.362,313.677z"/>
	</g>
	<g>
		
			<polygon style="opacity:0.8;fill:none;stroke:#5B5D65;stroke-width:0.2861;stroke-linecap:round;stroke-linejoin:round;stroke-miterlimit:10;" points="
			594.671,278.085 611.645,278.085 611.645,231.741 565.301,231.741 565.301,248.716 567.478,248.716 567.478,234.133 
			600.659,234.133 609.469,242.663 609.469,275.629 594.671,275.629 		"/>
		
			<path style="opacity:0.8;fill:none;stroke:#5B5D65;stroke-width:0.2861;stroke-linecap:round;stroke-linejoin:round;stroke-miterlimit:10;" d="
			M565.302,248.716c0,16.219,13.15,29.369,29.37,29.369"/>
		
			<path style="opacity:0.8;fill:none;stroke:#5B5D65;stroke-width:0.2861;stroke-linecap:round;stroke-linejoin:round;stroke-miterlimit:10;" d="
			M599.742,245.027l3.272-3.271l0.142-0.14l1.451-1.453c0,0,0.648-0.696,0.036-1.308c-0.612-0.61-1.306,0.04-1.306,0.04l-1.451,1.45
			l-0.142,0.142l-3.27,3.271c0,0-0.652,0.696-0.04,1.308C599.046,245.675,599.742,245.027,599.742,245.027z"/>
		
			<path style="opacity:0.8;fill:none;stroke:#5B5D65;stroke-width:0.2861;stroke-linecap:round;stroke-linejoin:round;stroke-miterlimit:10;" d="
			M594.017,252.847c-1.092,1.09-2.91,1.09-4.002,0c-1.094-1.094-1.094-2.912,0.002-3.998c1.09-1.092,2.908-1.092,4,0
			C595.113,249.935,595.113,251.753,594.017,252.847z"/>
		
			<path style="opacity:0.8;fill:none;stroke:#5B5D65;stroke-width:0.2861;stroke-linecap:round;stroke-linejoin:round;stroke-miterlimit:10;" d="
			M604.643,238.854c0.612,0.612-0.036,1.308-0.036,1.308l-1.135,1.137c0.925,0.864,1.884,1.634,2.73,2.146
			c0.42,0.254,0.852,0.488,1.294,0.699h0.002c0.316,0.149,0.668,0.098,0.892-0.123c0.36-0.452,0.72-0.905,1.081-1.357
			c-0.505-0.489-1.01-0.977-1.514-1.466c-0.017,0.022-0.046,0.054-0.09,0.078c-0.308,0.173-0.895-0.265-1.146-0.516
			c-2.022-2.019-2.699-2.736-3.878-3.876c-0.206-0.199-0.792-0.753-0.646-1.081c0.022-0.051,0.057-0.084,0.081-0.104
			c-0.539-0.522-1.078-1.043-1.617-1.565c-0.387,0.362-0.694,0.718-1.081,1.081c-0.216,0.218-0.274,0.561-0.131,0.868
			c0.22,0.474,0.474,0.932,0.745,1.379c0.487,0.796,1.201,1.694,2.01,2.566l1.135-1.134
			C603.336,238.894,604.03,238.244,604.643,238.854z"/>
		
			<path style="opacity:0.8;fill:none;stroke:#5B5D65;stroke-width:0.2861;stroke-linecap:round;stroke-linejoin:round;stroke-miterlimit:10;" d="
			M595.803,247.695c1.818,1.818,4.765,1.818,6.583,0c1.601-1.601,1.789-4.074,0.571-5.884l-3.216,3.216c0,0-0.696,0.648-1.308,0.038
			c-0.612-0.612,0.04-1.308,0.04-1.308l3.214-3.216c-1.81-1.218-4.284-1.03-5.885,0.571
			C593.985,242.931,593.985,245.877,595.803,247.695z"/>
	</g>
</g>
<g id="&#x43D;&#x435;&#x441;&#x443;&#x449;&#x438;&#x435;">
	
		<rect x="13.219" y="207.203" style="fill:#5B5D65;stroke:#5B5D65;stroke-width:1.1444;stroke-linecap:round;stroke-linejoin:round;stroke-miterlimit:10;" width="61.92" height="12.149"/>
	
		<rect x="13.219" y="392.179" style="fill:#5B5D65;stroke:#5B5D65;stroke-width:1.1444;stroke-linecap:round;stroke-linejoin:round;stroke-miterlimit:10;" width="61.92" height="12.539"/>
	
		<rect x="291.073" y="392.179" style="fill:#5B5D65;stroke:#5B5D65;stroke-width:1.1444;stroke-linecap:round;stroke-linejoin:round;stroke-miterlimit:10;" width="61.528" height="12.539"/>
	
		<rect x="291.073" y="207.203" style="fill:#5B5D65;stroke:#5B5D65;stroke-width:1.1444;stroke-linecap:round;stroke-linejoin:round;stroke-miterlimit:10;" width="61.528" height="12.149"/>
	
		<rect x="574.807" y="207.203" style="fill:#5B5D65;stroke:#5B5D65;stroke-width:1.1444;stroke-linecap:round;stroke-linejoin:round;stroke-miterlimit:10;" width="61.528" height="12.149"/>
	
		<rect x="852.662" y="207.203" style="fill:#5B5D65;stroke:#5B5D65;stroke-width:1.1444;stroke-linecap:round;stroke-linejoin:round;stroke-miterlimit:10;" width="61.528" height="12.149"/>
	
		<rect x="852.662" y="392.179" style="fill:#5B5D65;stroke:#5B5D65;stroke-width:1.1444;stroke-linecap:round;stroke-linejoin:round;stroke-miterlimit:10;" width="61.528" height="12.539"/>
	
		<rect x="623.794" y="392.179" style="fill:#5B5D65;stroke:#5B5D65;stroke-width:1.1444;stroke-linecap:round;stroke-linejoin:round;stroke-miterlimit:10;" width="61.92" height="12.539"/>
	
		<rect x="512.887" y="781.826" style="fill:#5B5D65;stroke:#5B5D65;stroke-width:1.1444;stroke-linecap:round;stroke-linejoin:round;stroke-miterlimit:10;" width="400.518" height="10.971"/>
	
		<rect x="902.505" y="535.469" style="fill:#5B5D65;stroke:#5B5D65;stroke-width:1.1444;stroke-linecap:round;stroke-linejoin:round;stroke-miterlimit:10;" width="24.156" height="101.645"/>
	
		<rect x="902.505" y="354.805" style="fill:#5B5D65;stroke:#5B5D65;stroke-width:1.1444;stroke-linecap:round;stroke-linejoin:round;stroke-miterlimit:10;" width="24.156" height="81"/>
	
		<rect x="902.505" y="207.203" style="fill:#5B5D65;stroke:#5B5D65;stroke-width:1.1444;stroke-linecap:round;stroke-linejoin:round;stroke-miterlimit:10;" width="24.156" height="50.751"/>
	
		<rect x="0.572" y="353.773" style="fill:#5B5D65;stroke:#5B5D65;stroke-width:1.1444;stroke-linecap:round;stroke-linejoin:round;stroke-miterlimit:10;" width="24.795" height="50.947"/>
	
		<rect x="0.572" y="207.203" style="fill:#5B5D65;stroke:#5B5D65;stroke-width:1.1444;stroke-linecap:round;stroke-linejoin:round;stroke-miterlimit:10;" width="24.795" height="49.771"/>
	
		<rect x="902.505" y="736.511" style="fill:#5B5D65;stroke:#5B5D65;stroke-width:1.1444;stroke-linecap:round;stroke-linejoin:round;stroke-miterlimit:10;" width="24.156" height="56.286"/>
</g>
<g id="&#x43B;&#x435;&#x441;&#x442;&#x43D;&#x438;&#x446;&#x44B;_x2C__&#x43B;&#x438;&#x444;&#x442;&#x44B;">
</g>
<g id="&#x43F;&#x43B;&#x43E;&#x449;&#x430;&#x434;&#x438;">
	<g>
		<path style="fill:#5B5D65;" d="M845.238,351.794l-1.589,1.589c-0.133,0.131-0.294,0.195-0.483,0.195
			c-0.462,0-0.694-0.23-0.694-0.691c0-0.188,0.066-0.349,0.199-0.481l2.703-2.703c0.182-0.182,0.367-0.272,0.556-0.272
			c0.461,0,0.691,0.23,0.691,0.691v12.447c0,0.461-0.23,0.691-0.691,0.691c-0.461,0-0.692-0.23-0.692-0.691V351.794z"/>
		<path style="fill:#5B5D65;" d="M852.845,349.43c0.957,0,1.772,0.337,2.446,1.011c0.674,0.674,1.011,1.489,1.011,2.446
			c0,0.657-0.209,1.32-0.629,1.991l-4.358,6.999h4.296c0.461,0,0.691,0.23,0.691,0.691s-0.23,0.691-0.691,0.691h-5.532
			c-0.461,0-0.692-0.23-0.692-0.691c0-0.14,0.039-0.272,0.116-0.397l5.07-8.143c0.231-0.37,0.346-0.75,0.346-1.142
			c0-0.572-0.203-1.062-0.607-1.467c-0.405-0.405-0.895-0.607-1.467-0.607c-0.783,0-1.505,0.58-2.169,1.739
			c-0.126,0.224-0.325,0.335-0.597,0.335c-0.461,0-0.692-0.23-0.692-0.691c0-0.104,0.021-0.199,0.063-0.283
			C850.31,350.257,851.441,349.43,852.845,349.43z"/>
		<path style="fill:#5B5D65;" d="M860.452,361.877c0.461,0,0.691,0.227,0.691,0.681c0,0.063-0.237,1.044-0.712,2.944
			c-0.084,0.35-0.308,0.523-0.67,0.523c-0.461,0-0.692-0.23-0.692-0.691c0-0.314,0.238-1.292,0.713-2.934
			C859.879,362.052,860.102,361.877,860.452,361.877z"/>
		<path style="fill:#5B5D65;" d="M867.367,356.345h-1.383c-0.461,0-0.691-0.23-0.691-0.691s0.23-0.691,0.691-0.691h1.383
			c0.58,0,1.07-0.201,1.472-0.603c0.402-0.402,0.603-0.893,0.603-1.473c0-0.572-0.203-1.062-0.607-1.467
			c-0.405-0.405-0.895-0.607-1.467-0.607h-2.766c-0.461,0-0.692-0.23-0.692-0.691s0.231-0.691,0.692-0.691h2.766
			c0.957,0,1.772,0.339,2.446,1.016c0.674,0.678,1.011,1.492,1.011,2.441c0,1.146-0.461,2.068-1.383,2.767
			c0.922,0.698,1.383,1.62,1.383,2.766v1.383c0,0.957-0.339,1.772-1.017,2.447c-0.677,0.674-1.491,1.011-2.441,1.011h-2.766
			c-0.461,0-0.692-0.23-0.692-0.691s0.231-0.691,0.692-0.691h2.766c0.58,0,1.07-0.201,1.472-0.603
			c0.402-0.401,0.603-0.893,0.603-1.473v-1.383c0-0.572-0.203-1.062-0.607-1.467C868.429,356.547,867.94,356.345,867.367,356.345z"
			/>
		<path style="fill:#5B5D65;" d="M875.665,363.26c-0.182,0-0.342-0.069-0.482-0.21c-0.14-0.14-0.209-0.3-0.209-0.481
			c0-0.321,0.115-0.521,0.346-0.598c0.503-0.167,0.922-0.359,1.257-0.576c1.488-0.964,2.319-2.186,2.494-3.667h-2.022
			c-0.957,0-1.772-0.337-2.447-1.011s-1.011-1.489-1.011-2.447v-1.383c0-0.957,0.337-1.772,1.011-2.446s1.49-1.011,2.447-1.011
			c0.964,0,1.781,0.333,2.452,1c0.67,0.667,1.006,1.479,1.006,2.437v4.17c0,2.347-1.093,4.201-3.28,5.563
			C876.521,363.04,876.001,363.26,875.665,363.26z M879.123,356.345v-3.458c0-0.572-0.203-1.062-0.607-1.467
			c-0.405-0.405-0.895-0.607-1.467-0.607c-0.573,0-1.062,0.202-1.467,0.607c-0.405,0.405-0.607,0.895-0.607,1.467v1.383
			c0,0.58,0.201,1.071,0.603,1.473c0.401,0.401,0.892,0.603,1.472,0.603H879.123z"/>
	</g>
	<g>
		<path style="fill:#5B5D65;" d="M543.203,304.527h-1.383c-0.461,0-0.691-0.23-0.691-0.691s0.23-0.691,0.691-0.691h1.383
			c0.58,0,1.07-0.201,1.472-0.603c0.402-0.402,0.603-0.893,0.603-1.473c0-0.572-0.203-1.062-0.607-1.467
			c-0.405-0.405-0.895-0.607-1.467-0.607h-2.766c-0.461,0-0.692-0.23-0.692-0.691s0.231-0.691,0.692-0.691h2.766
			c0.957,0,1.772,0.339,2.446,1.016c0.674,0.678,1.011,1.492,1.011,2.441c0,1.146-0.461,2.068-1.383,2.767
			c0.922,0.698,1.383,1.62,1.383,2.766v1.383c0,0.957-0.339,1.772-1.017,2.447c-0.677,0.674-1.491,1.011-2.441,1.011h-2.766
			c-0.461,0-0.692-0.23-0.692-0.691s0.231-0.691,0.692-0.691h2.766c0.58,0,1.07-0.201,1.472-0.603
			c0.402-0.401,0.603-0.893,0.603-1.473v-1.383c0-0.572-0.203-1.062-0.607-1.467C544.264,304.729,543.775,304.527,543.203,304.527z"
			/>
		<path style="fill:#5B5D65;" d="M550.809,310.06c0.461,0,0.691,0.227,0.691,0.681c0,0.063-0.237,1.044-0.712,2.944
			c-0.084,0.35-0.308,0.523-0.67,0.523c-0.461,0-0.692-0.23-0.692-0.691c0-0.314,0.238-1.292,0.713-2.934
			C550.236,310.234,550.46,310.06,550.809,310.06z"/>
		<path style="fill:#5B5D65;" d="M557.033,299.977l-1.589,1.589c-0.133,0.131-0.294,0.195-0.483,0.195
			c-0.462,0-0.694-0.23-0.694-0.691c0-0.188,0.066-0.349,0.199-0.481l2.703-2.703c0.182-0.182,0.367-0.272,0.556-0.272
			c0.461,0,0.691,0.23,0.691,0.691v12.447c0,0.461-0.23,0.691-0.691,0.691c-0.461,0-0.692-0.23-0.692-0.691V299.977z"/>
		<path style="fill:#5B5D65;" d="M564.64,297.612c0.957,0,1.772,0.337,2.446,1.011c0.674,0.674,1.011,1.489,1.011,2.446
			c0,0.657-0.209,1.32-0.629,1.991l-4.358,6.999h4.296c0.461,0,0.691,0.23,0.691,0.691s-0.23,0.691-0.691,0.691h-5.532
			c-0.461,0-0.692-0.23-0.692-0.691c0-0.14,0.039-0.272,0.116-0.397l5.07-8.143c0.231-0.37,0.346-0.75,0.346-1.142
			c0-0.572-0.203-1.062-0.607-1.467c-0.405-0.405-0.895-0.607-1.467-0.607c-0.783,0-1.505,0.58-2.169,1.739
			c-0.126,0.224-0.325,0.335-0.597,0.335c-0.461,0-0.692-0.23-0.692-0.691c0-0.104,0.021-0.199,0.063-0.283
			C562.104,298.439,563.235,297.612,564.64,297.612z"/>
	</g>
	<g>
		<path style="fill:#5B5D65;" d="M355.485,298.65h-1.383c-0.461,0-0.691-0.23-0.691-0.691s0.23-0.691,0.691-0.691h1.383
			c0.58,0,1.07-0.201,1.472-0.603c0.402-0.402,0.603-0.893,0.603-1.473c0-0.572-0.203-1.062-0.607-1.467
			c-0.405-0.405-0.895-0.607-1.467-0.607h-2.766c-0.461,0-0.692-0.23-0.692-0.691s0.231-0.691,0.692-0.691h2.766
			c0.957,0,1.772,0.339,2.446,1.016c0.674,0.678,1.011,1.492,1.011,2.441c0,1.146-0.461,2.068-1.383,2.767
			c0.922,0.698,1.383,1.62,1.383,2.766v1.383c0,0.957-0.339,1.772-1.017,2.447c-0.677,0.674-1.491,1.011-2.441,1.011h-2.766
			c-0.461,0-0.692-0.23-0.692-0.691s0.231-0.691,0.692-0.691h2.766c0.58,0,1.07-0.201,1.472-0.603
			c0.402-0.401,0.603-0.893,0.603-1.473v-1.383c0-0.572-0.203-1.062-0.607-1.467C356.546,298.853,356.057,298.65,355.485,298.65z"/>
		<path style="fill:#5B5D65;" d="M363.091,304.183c0.461,0,0.691,0.227,0.691,0.681c0,0.063-0.237,1.044-0.712,2.944
			c-0.084,0.35-0.308,0.523-0.67,0.523c-0.461,0-0.692-0.23-0.692-0.691c0-0.314,0.238-1.292,0.713-2.934
			C362.519,304.357,362.742,304.183,363.091,304.183z"/>
		<path style="fill:#5B5D65;" d="M370.007,298.65h-1.383c-0.461,0-0.691-0.23-0.691-0.691s0.23-0.691,0.691-0.691h1.383
			c0.58,0,1.07-0.201,1.472-0.603c0.402-0.402,0.603-0.893,0.603-1.473c0-0.572-0.203-1.062-0.607-1.467
			c-0.405-0.405-0.895-0.607-1.467-0.607h-2.766c-0.461,0-0.692-0.23-0.692-0.691s0.231-0.691,0.692-0.691h2.766
			c0.957,0,1.772,0.339,2.446,1.016c0.674,0.678,1.011,1.492,1.011,2.441c0,1.146-0.461,2.068-1.383,2.767
			c0.922,0.698,1.383,1.62,1.383,2.766v1.383c0,0.957-0.339,1.772-1.017,2.447c-0.677,0.674-1.491,1.011-2.441,1.011h-2.766
			c-0.461,0-0.692-0.23-0.692-0.691s0.231-0.691,0.692-0.691h2.766c0.58,0,1.07-0.201,1.472-0.603
			c0.402-0.401,0.603-0.893,0.603-1.473v-1.383c0-0.572-0.203-1.062-0.607-1.467C371.068,298.853,370.579,298.65,370.007,298.65z"/>
		<path style="fill:#5B5D65;" d="M379.688,305.565c-0.957,0-1.772-0.337-2.447-1.011c-0.674-0.675-1.011-1.49-1.011-2.447v-1.383
			c0-1.146,0.461-2.067,1.383-2.766c-0.922-0.698-1.383-1.621-1.383-2.767c0-0.957,0.337-1.772,1.011-2.446s1.49-1.011,2.447-1.011
			c0.957,0,1.772,0.337,2.446,1.011c0.674,0.674,1.011,1.489,1.011,2.446c0,1.146-0.461,2.068-1.383,2.767
			c0.664,0.503,1.083,1.121,1.257,1.854c0.084,0.37,0.126,1.135,0.126,2.294c0,0.957-0.337,1.772-1.011,2.447
			C381.46,305.228,380.645,305.565,379.688,305.565z M379.688,297.268c0.58,0,1.07-0.201,1.472-0.603
			c0.402-0.402,0.603-0.893,0.603-1.473c0-0.572-0.203-1.062-0.607-1.467c-0.405-0.405-0.895-0.607-1.467-0.607
			c-0.58,0-1.071,0.201-1.472,0.603c-0.402,0.401-0.603,0.893-0.603,1.472c0,0.58,0.201,1.07,0.603,1.473
			C378.617,297.066,379.108,297.268,379.688,297.268z M379.688,304.183c0.58,0,1.07-0.201,1.472-0.603
			c0.402-0.401,0.603-0.893,0.603-1.473v-1.383c0-0.572-0.203-1.062-0.607-1.467c-0.405-0.405-0.895-0.607-1.467-0.607
			c-0.58,0-1.071,0.201-1.472,0.603c-0.402,0.401-0.603,0.893-0.603,1.472v1.383c0,0.58,0.201,1.071,0.603,1.473
			C378.617,303.981,379.108,304.183,379.688,304.183z"/>
	</g>
	<g>
		<path style="fill:#5B5D65;" d="M46.37,351.794l-1.589,1.589c-0.133,0.131-0.294,0.195-0.483,0.195
			c-0.462,0-0.694-0.23-0.694-0.691c0-0.188,0.066-0.349,0.199-0.481l2.703-2.703c0.182-0.182,0.367-0.272,0.556-0.272
			c0.461,0,0.691,0.23,0.691,0.691v12.447c0,0.461-0.23,0.691-0.691,0.691c-0.461,0-0.692-0.23-0.692-0.691V351.794z"/>
		<path style="fill:#5B5D65;" d="M50.519,359.802c0-0.076,0.007-0.14,0.021-0.188l2.766-9.681c0.098-0.336,0.321-0.503,0.671-0.503
			c0.461,0,0.691,0.23,0.691,0.692c0,0.063-0.008,0.13-0.024,0.2l-2.521,8.788h3.237v-2.074c0-0.461,0.23-0.691,0.691-0.691
			s0.692,0.23,0.692,0.691v2.074h1.383c0.461,0,0.691,0.23,0.691,0.691s-0.23,0.692-0.691,0.692h-1.383v2.074
			c0,0.461-0.231,0.691-0.692,0.691s-0.691-0.23-0.691-0.691v-2.074h-4.149C50.75,360.494,50.519,360.263,50.519,359.802z"/>
		<path style="fill:#5B5D65;" d="M62.966,361.877c0.461,0,0.691,0.227,0.691,0.681c0,0.063-0.237,1.044-0.712,2.944
			c-0.084,0.35-0.308,0.523-0.67,0.523c-0.461,0-0.692-0.23-0.692-0.691c0-0.314,0.238-1.292,0.713-2.934
			C62.394,362.052,62.617,361.877,62.966,361.877z"/>
		<path style="fill:#5B5D65;" d="M69.882,349.43c0.957,0,1.772,0.337,2.446,1.011c0.674,0.674,1.011,1.489,1.011,2.446
			c0,0.657-0.209,1.32-0.629,1.991l-4.358,6.999h4.296c0.461,0,0.691,0.23,0.691,0.691s-0.23,0.691-0.691,0.691h-5.532
			c-0.461,0-0.692-0.23-0.692-0.691c0-0.14,0.039-0.272,0.116-0.397l5.07-8.143c0.231-0.37,0.346-0.75,0.346-1.142
			c0-0.572-0.203-1.062-0.607-1.467c-0.405-0.405-0.895-0.607-1.467-0.607c-0.783,0-1.505,0.58-2.169,1.739
			c-0.126,0.224-0.325,0.335-0.597,0.335c-0.461,0-0.692-0.23-0.692-0.691c0-0.104,0.021-0.199,0.063-0.283
			C67.346,350.257,68.478,349.43,69.882,349.43z"/>
		<path style="fill:#5B5D65;" d="M79.563,349.43c0.957,0,1.772,0.337,2.446,1.011c0.674,0.674,1.011,1.489,1.011,2.446
			c0,0.657-0.209,1.32-0.629,1.991l-4.358,6.999h4.296c0.461,0,0.691,0.23,0.691,0.691s-0.23,0.691-0.691,0.691h-5.532
			c-0.461,0-0.692-0.23-0.692-0.691c0-0.14,0.039-0.272,0.116-0.397l5.07-8.143c0.231-0.37,0.346-0.75,0.346-1.142
			c0-0.572-0.203-1.062-0.607-1.467c-0.405-0.405-0.895-0.607-1.467-0.607c-0.783,0-1.505,0.58-2.169,1.739
			c-0.126,0.224-0.325,0.335-0.597,0.335c-0.461,0-0.692-0.23-0.692-0.691c0-0.104,0.021-0.199,0.063-0.283
			C77.027,350.257,78.159,349.43,79.563,349.43z"/>
	</g>
	<g>
		<path style="fill:#5B5D65;" d="M848.004,544.133l-1.589,1.589c-0.133,0.131-0.294,0.195-0.483,0.195
			c-0.462,0-0.694-0.23-0.694-0.691c0-0.188,0.066-0.349,0.199-0.481l2.703-2.703c0.182-0.182,0.367-0.272,0.556-0.272
			c0.461,0,0.691,0.23,0.691,0.691v12.447c0,0.461-0.23,0.691-0.691,0.691c-0.461,0-0.692-0.23-0.692-0.691V544.133z"/>
		<path style="fill:#5B5D65;" d="M855.611,541.769c0.957,0,1.772,0.337,2.446,1.011c0.674,0.674,1.011,1.489,1.011,2.446
			c0,0.657-0.209,1.32-0.629,1.991l-4.358,6.999h4.296c0.461,0,0.691,0.23,0.691,0.691s-0.23,0.691-0.691,0.691h-5.532
			c-0.461,0-0.692-0.23-0.692-0.691c0-0.14,0.039-0.272,0.116-0.397l5.07-8.143c0.231-0.37,0.346-0.75,0.346-1.142
			c0-0.572-0.203-1.062-0.607-1.467c-0.405-0.405-0.895-0.607-1.467-0.607c-0.783,0-1.505,0.58-2.169,1.739
			c-0.126,0.224-0.325,0.335-0.597,0.335c-0.461,0-0.692-0.23-0.692-0.691c0-0.104,0.021-0.199,0.063-0.283
			C853.075,542.596,854.207,541.769,855.611,541.769z"/>
		<path style="fill:#5B5D65;" d="M863.217,554.216c0.461,0,0.691,0.227,0.691,0.681c0,0.063-0.237,1.044-0.712,2.944
			c-0.084,0.35-0.308,0.523-0.67,0.523c-0.461,0-0.692-0.23-0.692-0.691c0-0.314,0.238-1.292,0.713-2.934
			C862.645,554.391,862.868,554.216,863.217,554.216z"/>
		<path style="fill:#5B5D65;" d="M870.133,555.599c-0.957,0-1.772-0.337-2.447-1.011c-0.674-0.675-1.011-1.49-1.011-2.447v-1.383
			c0-1.146,0.461-2.067,1.383-2.766c-0.922-0.698-1.383-1.621-1.383-2.767c0-0.957,0.337-1.772,1.011-2.446s1.49-1.011,2.447-1.011
			c0.957,0,1.772,0.337,2.446,1.011c0.674,0.674,1.011,1.489,1.011,2.446c0,1.146-0.461,2.068-1.383,2.767
			c0.664,0.503,1.083,1.121,1.257,1.854c0.084,0.37,0.126,1.135,0.126,2.294c0,0.957-0.337,1.772-1.011,2.447
			C871.905,555.262,871.089,555.599,870.133,555.599z M870.133,547.301c0.58,0,1.07-0.201,1.472-0.603
			c0.402-0.402,0.603-0.893,0.603-1.473c0-0.572-0.203-1.062-0.607-1.467c-0.405-0.405-0.895-0.607-1.467-0.607
			c-0.58,0-1.071,0.201-1.472,0.603c-0.402,0.401-0.603,0.893-0.603,1.472c0,0.58,0.201,1.07,0.603,1.473
			C869.062,547.1,869.553,547.301,870.133,547.301z M870.133,554.216c0.58,0,1.07-0.201,1.472-0.603
			c0.402-0.401,0.603-0.893,0.603-1.473v-1.383c0-0.572-0.203-1.062-0.607-1.467c-0.405-0.405-0.895-0.607-1.467-0.607
			c-0.58,0-1.071,0.201-1.472,0.603c-0.402,0.401-0.603,0.893-0.603,1.472v1.383c0,0.58,0.201,1.071,0.603,1.473
			C869.062,554.015,869.553,554.216,870.133,554.216z"/>
		<path style="fill:#5B5D65;" d="M879.122,544.133l-1.589,1.589c-0.133,0.131-0.294,0.195-0.483,0.195
			c-0.462,0-0.694-0.23-0.694-0.691c0-0.188,0.066-0.349,0.199-0.481l2.703-2.703c0.182-0.182,0.367-0.272,0.556-0.272
			c0.461,0,0.691,0.23,0.691,0.691v12.447c0,0.461-0.23,0.691-0.691,0.691c-0.461,0-0.692-0.23-0.692-0.691V544.133z"/>
	</g>
	<g>
		<path style="fill:#5B5D65;" d="M433.54,499.783v-5.532c0-0.461,0.231-0.691,0.692-0.691h4.84c0.461,0,0.692,0.23,0.692,0.691
			s-0.231,0.691-0.692,0.691h-4.149v4.149h2.075c0.957,0,1.772,0.339,2.446,1.016c0.674,0.678,1.011,1.492,1.011,2.441v1.383
			c0,0.957-0.339,1.772-1.017,2.447c-0.677,0.674-1.491,1.011-2.441,1.011h-2.766c-0.461,0-0.692-0.23-0.692-0.691
			s0.231-0.691,0.692-0.691h2.766c0.58,0,1.07-0.201,1.472-0.603c0.402-0.401,0.603-0.893,0.603-1.473v-1.383
			c0-0.572-0.203-1.062-0.607-1.467c-0.405-0.405-0.895-0.607-1.467-0.607h-2.766C433.771,500.475,433.54,500.244,433.54,499.783z"
			/>
		<path style="fill:#5B5D65;" d="M444.605,506.007c0.461,0,0.691,0.227,0.691,0.681c0,0.063-0.237,1.044-0.712,2.944
			c-0.084,0.35-0.308,0.523-0.67,0.523c-0.461,0-0.692-0.23-0.692-0.691c0-0.314,0.238-1.292,0.713-2.934
			C444.032,506.182,444.255,506.007,444.605,506.007z"/>
		<path style="fill:#5B5D65;" d="M454.978,500.475c0,1.648-0.203,3.073-0.608,4.274c-0.594,1.761-1.543,2.641-2.85,2.641
			c-1.307,0-2.256-0.877-2.85-2.63c-0.405-1.201-0.608-2.63-0.608-4.285s0.203-3.084,0.608-4.285c0.594-1.754,1.543-2.63,2.85-2.63
			c1.306,0,2.256,0.88,2.85,2.64C454.775,497.401,454.978,498.826,454.978,500.475z M453.594,500.475
			c0-1.146-0.122-2.225-0.367-3.237c-0.37-1.53-0.939-2.295-1.708-2.295c-0.762,0-1.328,0.769-1.698,2.305
			c-0.251,1.034-0.377,2.11-0.377,3.228c0,1.139,0.122,2.218,0.367,3.237c0.37,1.53,0.939,2.295,1.708,2.295
			c0.768,0,1.337-0.765,1.708-2.295C453.472,502.692,453.594,501.613,453.594,500.475z"/>
		<path style="fill:#5B5D65;" d="M462.584,493.56c0.461,0,0.691,0.23,0.691,0.691c0,0.342-0.115,0.541-0.346,0.597
			c-1.027,0.259-1.924,0.874-2.693,1.845c-0.607,0.769-0.96,1.567-1.058,2.399h2.022c0.978,0,1.798,0.335,2.462,1.006
			c0.664,0.67,0.996,1.487,0.996,2.451v1.383c0,0.964-0.337,1.781-1.011,2.452c-0.674,0.671-1.49,1.006-2.446,1.006
			c-0.964,0-1.781-0.333-2.452-1.001c-0.67-0.667-1.006-1.479-1.006-2.436v-4.17c0-1.564,0.521-2.938,1.562-4.118
			c0.81-0.915,1.694-1.564,2.651-1.948C462.228,493.611,462.438,493.56,462.584,493.56z M459.127,500.475v3.457
			c0,0.58,0.201,1.071,0.603,1.473c0.401,0.401,0.892,0.603,1.472,0.603c0.58,0,1.07-0.203,1.472-0.608
			c0.402-0.404,0.603-0.894,0.603-1.467v-1.383c0-0.579-0.203-1.07-0.607-1.472c-0.405-0.401-0.895-0.603-1.467-0.603H459.127z"/>
	</g>
	<g>
		<path style="fill:#5B5D65;" d="M577.419,501.166h-0.514c-0.462,0-0.693-0.23-0.693-0.691s0.23-0.691,0.689-0.691l0.815-0.001
			l1.086-4.84h-4.665c-0.461,0-0.692-0.23-0.692-0.691s0.231-0.691,0.692-0.691h5.532c0.454,0,0.684,0.224,0.691,0.67
			c0,0.042-0.007,0.099-0.021,0.168l-1.197,5.385l0.525,0.001c0.462,0,0.693,0.23,0.693,0.691s-0.231,0.691-0.694,0.691
			l-0.841-0.001l-1.252,5.68c-0.083,0.363-0.304,0.545-0.66,0.545c-0.468,0-0.702-0.23-0.702-0.691c0-0.069,0.004-0.122,0.013-0.157
			L577.419,501.166z"/>
		<path style="fill:#5B5D65;" d="M584.51,506.007c0.461,0,0.691,0.227,0.691,0.681c0,0.063-0.237,1.044-0.712,2.944
			c-0.084,0.35-0.308,0.523-0.67,0.523c-0.461,0-0.692-0.23-0.692-0.691c0-0.314,0.238-1.292,0.713-2.934
			C583.938,506.182,584.161,506.007,584.51,506.007z"/>
		<path style="fill:#5B5D65;" d="M591.426,507.39c-0.957,0-1.772-0.337-2.447-1.011c-0.674-0.675-1.011-1.49-1.011-2.447v-1.383
			c0-1.146,0.461-2.067,1.383-2.766c-0.922-0.698-1.383-1.621-1.383-2.767c0-0.957,0.337-1.772,1.011-2.446s1.49-1.011,2.447-1.011
			c0.957,0,1.772,0.337,2.446,1.011c0.674,0.674,1.011,1.489,1.011,2.446c0,1.146-0.461,2.068-1.383,2.767
			c0.664,0.503,1.083,1.121,1.257,1.854c0.084,0.37,0.126,1.135,0.126,2.294c0,0.957-0.337,1.772-1.011,2.447
			C593.198,507.053,592.382,507.39,591.426,507.39z M591.426,499.092c0.58,0,1.07-0.201,1.472-0.603
			c0.402-0.402,0.603-0.893,0.603-1.473c0-0.572-0.203-1.062-0.607-1.467c-0.405-0.405-0.895-0.607-1.467-0.607
			c-0.58,0-1.071,0.201-1.472,0.603c-0.402,0.401-0.603,0.893-0.603,1.472c0,0.58,0.201,1.07,0.603,1.473
			C590.355,498.891,590.846,499.092,591.426,499.092z M591.426,506.007c0.58,0,1.07-0.201,1.472-0.603
			c0.402-0.401,0.603-0.893,0.603-1.473v-1.383c0-0.572-0.203-1.062-0.607-1.467c-0.405-0.405-0.895-0.607-1.467-0.607
			c-0.58,0-1.071,0.201-1.472,0.603c-0.402,0.401-0.603,0.893-0.603,1.472v1.383c0,0.58,0.201,1.071,0.603,1.473
			C590.355,505.806,590.846,506.007,591.426,506.007z"/>
		<path style="fill:#5B5D65;" d="M601.107,507.39c-0.957,0-1.772-0.337-2.447-1.011c-0.674-0.675-1.011-1.49-1.011-2.447v-1.383
			c0-1.146,0.461-2.067,1.383-2.766c-0.922-0.698-1.383-1.621-1.383-2.767c0-0.957,0.337-1.772,1.011-2.446s1.49-1.011,2.447-1.011
			c0.957,0,1.772,0.337,2.446,1.011c0.674,0.674,1.011,1.489,1.011,2.446c0,1.146-0.461,2.068-1.383,2.767
			c0.664,0.503,1.083,1.121,1.257,1.854c0.084,0.37,0.126,1.135,0.126,2.294c0,0.957-0.337,1.772-1.011,2.447
			C602.879,507.053,602.064,507.39,601.107,507.39z M601.107,499.092c0.58,0,1.07-0.201,1.472-0.603
			c0.402-0.402,0.603-0.893,0.603-1.473c0-0.572-0.203-1.062-0.607-1.467c-0.405-0.405-0.895-0.607-1.467-0.607
			c-0.58,0-1.071,0.201-1.472,0.603c-0.402,0.401-0.603,0.893-0.603,1.472c0,0.58,0.201,1.07,0.603,1.473
			C600.036,498.891,600.527,499.092,601.107,499.092z M601.107,506.007c0.58,0,1.07-0.201,1.472-0.603
			c0.402-0.401,0.603-0.893,0.603-1.473v-1.383c0-0.572-0.203-1.062-0.607-1.467c-0.405-0.405-0.895-0.607-1.467-0.607
			c-0.58,0-1.071,0.201-1.472,0.603c-0.402,0.401-0.603,0.893-0.603,1.472v1.383c0,0.58,0.201,1.071,0.603,1.473
			C600.036,505.806,600.527,506.007,601.107,506.007z"/>
	</g>
	<g>
		<path style="fill:#5B5D65;" d="M576.904,648.479c-0.957,0-1.772-0.337-2.447-1.011c-0.674-0.675-1.011-1.49-1.011-2.447v-1.383
			c0-1.146,0.461-2.067,1.383-2.766c-0.922-0.698-1.383-1.621-1.383-2.767c0-0.957,0.337-1.772,1.011-2.446s1.49-1.011,2.447-1.011
			c0.957,0,1.772,0.337,2.446,1.011c0.674,0.674,1.011,1.489,1.011,2.446c0,1.146-0.461,2.068-1.383,2.767
			c0.664,0.503,1.083,1.121,1.257,1.854c0.084,0.37,0.126,1.135,0.126,2.294c0,0.957-0.337,1.772-1.011,2.447
			C578.676,648.143,577.861,648.479,576.904,648.479z M576.904,640.182c0.58,0,1.07-0.201,1.472-0.603
			c0.402-0.402,0.603-0.893,0.603-1.473c0-0.572-0.203-1.062-0.607-1.467c-0.405-0.405-0.895-0.607-1.467-0.607
			c-0.58,0-1.071,0.201-1.472,0.603c-0.402,0.401-0.603,0.893-0.603,1.472c0,0.58,0.201,1.07,0.603,1.473
			C575.834,639.98,576.324,640.182,576.904,640.182z M576.904,647.097c0.58,0,1.07-0.201,1.472-0.603
			c0.402-0.401,0.603-0.893,0.603-1.473v-1.383c0-0.572-0.203-1.062-0.607-1.467c-0.405-0.405-0.895-0.607-1.467-0.607
			c-0.58,0-1.071,0.201-1.472,0.603c-0.402,0.401-0.603,0.893-0.603,1.472v1.383c0,0.58,0.201,1.071,0.603,1.473
			C575.834,646.896,576.324,647.097,576.904,647.097z"/>
		<path style="fill:#5B5D65;" d="M584.511,647.097c0.461,0,0.691,0.227,0.691,0.681c0,0.063-0.237,1.044-0.712,2.944
			c-0.084,0.35-0.308,0.523-0.67,0.523c-0.461,0-0.692-0.23-0.692-0.691c0-0.314,0.238-1.292,0.713-2.934
			C583.938,647.271,584.161,647.097,584.511,647.097z"/>
		<path style="fill:#5B5D65;" d="M594.884,641.564c0,1.648-0.203,3.073-0.608,4.274c-0.594,1.761-1.543,2.641-2.85,2.641
			c-1.307,0-2.256-0.877-2.85-2.63c-0.405-1.201-0.608-2.63-0.608-4.285s0.203-3.084,0.608-4.285c0.594-1.754,1.543-2.63,2.85-2.63
			c1.306,0,2.256,0.88,2.85,2.64C594.681,638.491,594.884,639.916,594.884,641.564z M593.501,641.564
			c0-1.146-0.122-2.225-0.367-3.237c-0.37-1.53-0.939-2.295-1.708-2.295c-0.762,0-1.328,0.769-1.698,2.305
			c-0.251,1.034-0.377,2.11-0.377,3.228c0,1.139,0.122,2.218,0.367,3.237c0.37,1.53,0.939,2.295,1.708,2.295
			c0.768,0,1.337-0.765,1.708-2.295C593.378,643.782,593.501,642.703,593.501,641.564z"/>
		<path style="fill:#5B5D65;" d="M599.724,648.479c-0.182,0-0.342-0.069-0.482-0.21c-0.14-0.14-0.209-0.3-0.209-0.481
			c0-0.321,0.115-0.521,0.346-0.598c0.503-0.167,0.922-0.359,1.257-0.576c1.488-0.964,2.319-2.186,2.494-3.667h-2.022
			c-0.957,0-1.772-0.337-2.447-1.011s-1.011-1.489-1.011-2.447v-1.383c0-0.957,0.337-1.772,1.011-2.446s1.49-1.011,2.447-1.011
			c0.964,0,1.781,0.333,2.452,1c0.67,0.667,1.006,1.479,1.006,2.437v4.17c0,2.347-1.093,4.201-3.28,5.563
			C600.58,648.26,600.06,648.479,599.724,648.479z M603.182,641.564v-3.458c0-0.572-0.203-1.062-0.607-1.467
			c-0.405-0.405-0.895-0.607-1.467-0.607c-0.573,0-1.062,0.202-1.467,0.607c-0.405,0.405-0.607,0.895-0.607,1.467v1.383
			c0,0.58,0.201,1.071,0.603,1.473c0.401,0.401,0.892,0.603,1.472,0.603H603.182z"/>
	</g>
	<g>
		<path style="fill:#5B5D65;" d="M845.238,746.352l-1.589,1.589c-0.133,0.131-0.294,0.195-0.483,0.195
			c-0.462,0-0.694-0.23-0.694-0.691c0-0.188,0.066-0.349,0.199-0.481l2.703-2.703c0.182-0.182,0.367-0.272,0.556-0.272
			c0.461,0,0.691,0.23,0.691,0.691v12.447c0,0.461-0.23,0.691-0.691,0.691c-0.461,0-0.692-0.23-0.692-0.691V746.352z"/>
		<path style="fill:#5B5D65;" d="M856.303,750.902c0,1.648-0.203,3.073-0.608,4.274c-0.594,1.761-1.543,2.641-2.85,2.641
			c-1.307,0-2.256-0.877-2.85-2.63c-0.405-1.201-0.608-2.63-0.608-4.285s0.203-3.084,0.608-4.285c0.594-1.754,1.543-2.63,2.85-2.63
			c1.306,0,2.256,0.88,2.85,2.64C856.1,747.829,856.303,749.254,856.303,750.902z M854.919,750.902c0-1.146-0.122-2.225-0.367-3.237
			c-0.37-1.53-0.939-2.295-1.708-2.295c-0.762,0-1.328,0.769-1.698,2.305c-0.251,1.034-0.377,2.11-0.377,3.228
			c0,1.139,0.122,2.218,0.367,3.237c0.37,1.53,0.939,2.295,1.708,2.295c0.768,0,1.337-0.765,1.708-2.295
			C854.797,753.12,854.919,752.041,854.919,750.902z"/>
		<path style="fill:#5B5D65;" d="M860.452,756.435c0.461,0,0.691,0.227,0.691,0.681c0,0.063-0.237,1.044-0.712,2.944
			c-0.084,0.35-0.308,0.523-0.67,0.523c-0.461,0-0.692-0.23-0.692-0.691c0-0.314,0.238-1.292,0.713-2.934
			C859.879,756.609,860.102,756.435,860.452,756.435z"/>
		<path style="fill:#5B5D65;" d="M867.883,751.594h-0.514c-0.462,0-0.693-0.23-0.693-0.691s0.23-0.691,0.689-0.691l0.815-0.001
			l1.086-4.84h-4.665c-0.461,0-0.692-0.23-0.692-0.691s0.231-0.691,0.692-0.691h5.532c0.454,0,0.684,0.224,0.691,0.67
			c0,0.042-0.007,0.099-0.021,0.168l-1.197,5.385l0.525,0.001c0.462,0,0.693,0.23,0.693,0.691s-0.231,0.691-0.694,0.691
			l-0.841-0.001l-1.252,5.68c-0.083,0.363-0.304,0.545-0.66,0.545c-0.468,0-0.702-0.23-0.702-0.691c0-0.069,0.004-0.122,0.013-0.157
			L867.883,751.594z"/>
		<path style="fill:#5B5D65;" d="M875.665,757.817c-0.182,0-0.342-0.069-0.482-0.21c-0.14-0.14-0.209-0.3-0.209-0.481
			c0-0.321,0.115-0.521,0.346-0.598c0.503-0.167,0.922-0.359,1.257-0.576c1.488-0.964,2.319-2.186,2.494-3.667h-2.022
			c-0.957,0-1.772-0.337-2.447-1.011s-1.011-1.489-1.011-2.447v-1.383c0-0.957,0.337-1.772,1.011-2.446s1.49-1.011,2.447-1.011
			c0.964,0,1.781,0.333,2.452,1c0.67,0.667,1.006,1.479,1.006,2.437v4.17c0,2.347-1.093,4.201-3.28,5.563
			C876.521,757.598,876.001,757.817,875.665,757.817z M879.123,750.902v-3.458c0-0.572-0.203-1.062-0.607-1.467
			c-0.405-0.405-0.895-0.607-1.467-0.607c-0.573,0-1.062,0.202-1.467,0.607c-0.405,0.405-0.607,0.895-0.607,1.467v1.383
			c0,0.58,0.201,1.071,0.603,1.473c0.401,0.401,0.892,0.603,1.472,0.603H879.123z"/>
	</g>
	<g>
		<path style="fill:#5B5D65;" d="M948.031,455.552c0.957,0,1.772,0.337,2.446,1.011c0.674,0.674,1.011,1.489,1.011,2.446
			c0,0.657-0.209,1.32-0.629,1.991l-4.358,6.999h4.296c0.461,0,0.691,0.23,0.691,0.691s-0.23,0.691-0.691,0.691h-5.532
			c-0.461,0-0.692-0.23-0.692-0.691c0-0.14,0.039-0.272,0.116-0.397l5.07-8.143c0.231-0.37,0.346-0.75,0.346-1.142
			c0-0.572-0.203-1.062-0.607-1.467c-0.405-0.405-0.895-0.607-1.467-0.607c-0.783,0-1.505,0.58-2.169,1.739
			c-0.126,0.224-0.325,0.335-0.597,0.335c-0.461,0-0.692-0.23-0.692-0.691c0-0.104,0.021-0.199,0.063-0.283
			C945.496,456.379,946.627,455.552,948.031,455.552z"/>
		<path style="fill:#5B5D65;" d="M955.638,467.999c0.461,0,0.691,0.227,0.691,0.681c0,0.063-0.237,1.044-0.712,2.944
			c-0.084,0.35-0.308,0.523-0.67,0.523c-0.461,0-0.692-0.23-0.692-0.691c0-0.314,0.238-1.292,0.713-2.934
			C955.065,468.174,955.288,467.999,955.638,467.999z"/>
		<path style="fill:#5B5D65;" d="M959.095,465.924c0-0.076,0.007-0.14,0.021-0.188l2.766-9.681c0.098-0.336,0.321-0.503,0.671-0.503
			c0.461,0,0.691,0.23,0.691,0.692c0,0.063-0.008,0.13-0.024,0.2l-2.521,8.788h3.237v-2.074c0-0.461,0.23-0.691,0.691-0.691
			s0.692,0.23,0.692,0.691v2.074h1.383c0.461,0,0.691,0.23,0.691,0.691s-0.23,0.692-0.691,0.692h-1.383v2.074
			c0,0.461-0.231,0.691-0.692,0.691s-0.691-0.23-0.691-0.691v-2.074h-4.149C959.326,466.616,959.095,466.385,959.095,465.924z"/>
		<path style="fill:#5B5D65;" d="M972.926,457.916l-1.589,1.589c-0.133,0.131-0.294,0.195-0.483,0.195
			c-0.462,0-0.694-0.23-0.694-0.691c0-0.188,0.066-0.349,0.199-0.481l2.703-2.703c0.182-0.182,0.367-0.272,0.556-0.272
			c0.461,0,0.691,0.23,0.691,0.691v12.447c0,0.461-0.23,0.691-0.691,0.691c-0.461,0-0.692-0.23-0.692-0.691V457.916z"/>
		<path style="fill:#5B5D65;" d="M945.957,488.217c0,1.396,0.136,2.783,0.409,4.159c0.161,0.824,0.468,1.89,0.922,3.196
			c0.035,0.098,0.052,0.182,0.052,0.251c0,0.188-0.07,0.352-0.209,0.487s-0.304,0.204-0.492,0.204c-0.293,0-0.489-0.108-0.587-0.324
			c-0.384-0.824-0.727-1.977-1.027-3.458c-0.3-1.48-0.451-2.986-0.451-4.516c0-1.53,0.15-3.035,0.451-4.516
			c0.3-1.481,0.643-2.634,1.027-3.458c0.098-0.217,0.293-0.325,0.587-0.325c0.468,0,0.702,0.23,0.702,0.692
			c0,0.069-0.017,0.153-0.052,0.251c-0.454,1.307-0.761,2.372-0.922,3.195C946.093,485.434,945.957,486.819,945.957,488.217z"/>
		<path style="fill:#5B5D65;" d="M957.021,488.217c0,1.648-0.203,3.073-0.608,4.274c-0.594,1.761-1.543,2.641-2.85,2.641
			c-1.307,0-2.256-0.877-2.85-2.63c-0.405-1.201-0.608-2.63-0.608-4.285s0.203-3.084,0.608-4.285c0.594-1.754,1.543-2.63,2.85-2.63
			c1.306,0,2.256,0.88,2.85,2.64C956.818,485.144,957.021,486.568,957.021,488.217z M955.638,488.217
			c0-1.146-0.122-2.225-0.367-3.237c-0.37-1.53-0.939-2.295-1.708-2.295c-0.762,0-1.328,0.769-1.698,2.305
			c-0.251,1.034-0.377,2.11-0.377,3.228c0,1.139,0.122,2.218,0.367,3.237c0.37,1.53,0.939,2.295,1.708,2.295
			c0.768,0,1.337-0.765,1.708-2.295C955.516,490.435,955.638,489.355,955.638,488.217z"/>
		<path style="fill:#5B5D65;" d="M961.17,493.749c0.461,0,0.691,0.227,0.691,0.681c0,0.063-0.237,1.044-0.712,2.944
			c-0.084,0.35-0.308,0.523-0.67,0.523c-0.461,0-0.692-0.23-0.692-0.691c0-0.314,0.238-1.292,0.713-2.934
			C960.597,493.924,960.82,493.749,961.17,493.749z"/>
		<path style="fill:#5B5D65;" d="M968.601,488.908h-0.514c-0.462,0-0.693-0.23-0.693-0.691s0.23-0.691,0.689-0.691l0.815-0.001
			l1.086-4.84h-4.665c-0.461,0-0.692-0.23-0.692-0.691s0.231-0.691,0.692-0.691h5.532c0.454,0,0.684,0.224,0.691,0.67
			c0,0.042-0.007,0.099-0.021,0.168l-1.197,5.385l0.525,0.001c0.462,0,0.693,0.23,0.693,0.691s-0.231,0.691-0.694,0.691
			l-0.841-0.001l-1.252,5.68c-0.083,0.363-0.304,0.545-0.66,0.545c-0.468,0-0.702-0.23-0.702-0.691c0-0.069,0.004-0.122,0.013-0.157
			L968.601,488.908z"/>
		<path style="fill:#5B5D65;" d="M977.767,481.302c0.957,0,1.772,0.337,2.446,1.011c0.674,0.674,1.011,1.489,1.011,2.446
			c0,0.657-0.209,1.32-0.629,1.991l-4.358,6.999h4.296c0.461,0,0.691,0.23,0.691,0.691s-0.23,0.691-0.691,0.691h-5.532
			c-0.461,0-0.692-0.23-0.692-0.691c0-0.14,0.039-0.272,0.116-0.397l5.07-8.143c0.231-0.37,0.346-0.75,0.346-1.142
			c0-0.572-0.203-1.062-0.607-1.467c-0.405-0.405-0.895-0.607-1.467-0.607c-0.783,0-1.505,0.58-2.169,1.739
			c-0.126,0.224-0.325,0.335-0.597,0.335c-0.461,0-0.692-0.23-0.692-0.691c0-0.104,0.021-0.199,0.063-0.283
			C975.231,482.129,976.362,481.302,977.767,481.302z"/>
		<path style="fill:#5B5D65;" d="M985.373,488.217c0-1.397-0.136-2.783-0.409-4.16c-0.154-0.775-0.464-1.84-0.933-3.195
			c-0.028-0.084-0.042-0.168-0.042-0.251c0-0.189,0.07-0.352,0.21-0.487c0.14-0.137,0.304-0.205,0.492-0.205
			c0.293,0,0.489,0.108,0.587,0.325c0.384,0.824,0.726,1.977,1.027,3.458c0.3,1.48,0.45,2.985,0.45,4.516
			c0,1.529-0.15,3.035-0.45,4.516c-0.301,1.481-0.643,2.634-1.027,3.458c-0.098,0.216-0.293,0.324-0.587,0.324
			c-0.182,0-0.344-0.069-0.487-0.209c-0.143-0.141-0.215-0.301-0.215-0.482c0-0.084,0.014-0.168,0.042-0.251
			c0.468-1.355,0.779-2.421,0.933-3.196C985.237,491,985.373,489.613,985.373,488.217z"/>
	</g>
</g>
<g id="&#x442;&#x430;&#x431;&#x43B;&#x438;&#x447;&#x43A;&#x438;">
</g>
<g id="&#x44D;&#x442;&#x430;&#x436;_x2C__&#x441;&#x435;&#x43A;&#x446;&#x438;&#x438;">
</g>
<g id="&#x421;&#x43B;&#x43E;&#x439;_12">
</g>
</svg>
