<?xml version="1.0" encoding="iso-8859-1"?>
<!-- Generator: Adobe Illustrator 27.0.0, SVG Export Plug-In . SVG Version: 6.00 Build 0)  -->
<svg version="1.1" xmlns="http://www.w3.org/2000/svg" xmlns:xlink="http://www.w3.org/1999/xlink" x="0px" y="0px"
	 viewBox="0 0 1000 1000.593" style="enable-background:new 0 0 1000 1000.593;" xml:space="preserve">
<g id="&#x426;&#x432;&#x435;&#x442;_&#x43F;&#x43E;&#x43C;&#x435;&#x449;&#x435;&#x43D;&#x438;&#x439;">
</g>
<g id="_x21__x21__x21__&#x41E;&#x43A;&#x43D;&#x430;_x2C__&#x434;&#x432;&#x435;&#x440;&#x438;">
	<g>
		<path style="fill:none;stroke:#5B5D65;stroke-width:0.593;stroke-linecap:round;stroke-linejoin:round;stroke-miterlimit:10;" d="
			M412.71,471.195v49.988c-27.776,0-50.289-22.513-50.289-50.289"/>
	</g>
	<g>
		<path style="fill:none;stroke:#5B5D65;stroke-width:0.593;stroke-linecap:round;stroke-linejoin:round;stroke-miterlimit:10;" d="
			M340.763,418.28l40.427,0c0-22.464-18.207-40.671-40.671-40.671"/>
	</g>
	<g>
		<path style="fill:none;stroke:#5B5D65;stroke-width:0.593;stroke-linecap:round;stroke-linejoin:round;stroke-miterlimit:10;" d="
			M667.491,427.63l-40.427,0c0,22.464,18.207,40.671,40.671,40.671"/>
	</g>
	<g>
		<path style="fill:none;stroke:#5B5D65;stroke-width:0.593;stroke-linecap:round;stroke-linejoin:round;stroke-miterlimit:10;" d="
			M598.627,552.82l-40.427,0c0-22.464,18.207-40.671,40.671-40.671"/>
	</g>
	<g>
		<path style="fill:none;stroke:#5B5D65;stroke-width:0.593;stroke-linecap:round;stroke-linejoin:round;stroke-miterlimit:10;" d="
			M667.491,538.467l-40.427,0c0,22.464,18.207,40.671,40.671,40.671"/>
	</g>
	<g>
		<path style="fill:none;stroke:#5B5D65;stroke-width:0.593;stroke-linecap:round;stroke-linejoin:round;stroke-miterlimit:10;" d="
			M394.613,352.032l0-45.771c-25.433,0-46.047,20.613-46.047,46.047"/>
	</g>
	<g>
		<path style="fill:none;stroke:#5B5D65;stroke-width:0.593;stroke-linecap:round;stroke-linejoin:round;stroke-miterlimit:10;" d="
			M589.576,352.032v-45.771c-25.433,0-46.047,20.613-46.047,46.047"/>
	</g>
	<g>
		<path style="fill:none;stroke:#5B5D65;stroke-width:0.593;stroke-linecap:round;stroke-linejoin:round;stroke-miterlimit:10;" d="
			M612.427,626.827l0,45.771c25.433,0,46.047-20.613,46.047-46.047"/>
	</g>
	<g>
		<path style="fill:none;stroke:#5B5D65;stroke-width:0.593;stroke-linecap:round;stroke-linejoin:round;stroke-miterlimit:10;" d="
			M613.176,352.032l0-45.771c25.433,0,46.047,20.613,46.047,46.047"/>
	</g>
	<g>
		
			<line style="fill:none;stroke:#5B5D65;stroke-width:0.593;stroke-linecap:round;stroke-linejoin:round;stroke-miterlimit:10;" x1="387.901" y1="70.826" x2="266.409" y2="70.826"/>
		
			<line style="fill:none;stroke:#5B5D65;stroke-width:0.593;stroke-linecap:round;stroke-linejoin:round;stroke-miterlimit:10;" x1="387.901" y1="98.318" x2="266.409" y2="98.318"/>
		
			<line style="fill:none;stroke:#5B5D65;stroke-width:0.593;stroke-linecap:round;stroke-linejoin:round;stroke-miterlimit:10;" x1="387.901" y1="79.664" x2="266.409" y2="79.664"/>
		
			<line style="fill:none;stroke:#5B5D65;stroke-width:0.593;stroke-linecap:round;stroke-linejoin:round;stroke-miterlimit:10;" x1="387.901" y1="86.36" x2="266.409" y2="86.36"/>
	</g>
	<g>
		
			<line style="fill:none;stroke:#5B5D65;stroke-width:0.593;stroke-linecap:round;stroke-linejoin:round;stroke-miterlimit:10;" x1="557.152" y1="70.826" x2="435.659" y2="70.826"/>
		
			<line style="fill:none;stroke:#5B5D65;stroke-width:0.593;stroke-linecap:round;stroke-linejoin:round;stroke-miterlimit:10;" x1="557.152" y1="98.318" x2="435.659" y2="98.318"/>
		
			<line style="fill:none;stroke:#5B5D65;stroke-width:0.593;stroke-linecap:round;stroke-linejoin:round;stroke-miterlimit:10;" x1="557.152" y1="79.664" x2="435.659" y2="79.664"/>
		
			<line style="fill:none;stroke:#5B5D65;stroke-width:0.593;stroke-linecap:round;stroke-linejoin:round;stroke-miterlimit:10;" x1="557.152" y1="86.36" x2="435.659" y2="86.36"/>
	</g>
	<g>
		
			<line style="fill:none;stroke:#5B5D65;stroke-width:0.593;stroke-linecap:round;stroke-linejoin:round;stroke-miterlimit:10;" x1="740.297" y1="962.618" x2="622.918" y2="962.618"/>
		
			<line style="fill:none;stroke:#5B5D65;stroke-width:0.593;stroke-linecap:round;stroke-linejoin:round;stroke-miterlimit:10;" x1="740.296" y1="935.126" x2="622.918" y2="935.126"/>
		
			<line style="fill:none;stroke:#5B5D65;stroke-width:0.593;stroke-linecap:round;stroke-linejoin:round;stroke-miterlimit:10;" x1="740.296" y1="953.779" x2="622.918" y2="953.779"/>
		
			<line style="fill:none;stroke:#5B5D65;stroke-width:0.593;stroke-linecap:round;stroke-linejoin:round;stroke-miterlimit:10;" x1="740.296" y1="947.084" x2="622.918" y2="947.084"/>
	</g>
	<g>
		
			<rect x="663.542" y="946.259" transform="matrix(-4.492158e-11 1 -1 -4.492158e-11 1663.8389 299.0754)" style="fill:none;stroke:#5B5D65;stroke-width:0.593;stroke-linecap:round;stroke-linejoin:round;stroke-miterlimit:10;" width="37.679" height="70.396"/>
		
			<rect x="665.572" y="948.3" transform="matrix(-4.488517e-11 1 -1 -4.488517e-11 1663.8707 299.1315)" style="fill:none;stroke:#5B5D65;stroke-width:0.593;stroke-linecap:round;stroke-linejoin:round;stroke-miterlimit:10;" width="33.596" height="66.403"/>
	</g>
	<g>
		<g>
			<g>
				
					<path style="fill:none;stroke:#5B5D65;stroke-width:0.593;stroke-linecap:round;stroke-linejoin:round;stroke-miterlimit:10;" d="
					M631.839,83.179v42.168c23.431,0,42.422-18.991,42.422-42.422"/>
			</g>
			<g>
				
					<line style="fill:none;stroke:#5B5D65;stroke-width:0.593;stroke-linecap:round;stroke-linejoin:round;stroke-miterlimit:10;" x1="678.507" y1="98.4" x2="739.596" y2="98.4"/>
				
					<line style="fill:none;stroke:#5B5D65;stroke-width:0.593;stroke-linecap:round;stroke-linejoin:round;stroke-miterlimit:10;" x1="678.507" y1="79.747" x2="739.596" y2="79.747"/>
				
					<line style="fill:none;stroke:#5B5D65;stroke-width:0.593;stroke-linecap:round;stroke-linejoin:round;stroke-miterlimit:10;" x1="678.507" y1="86.443" x2="739.596" y2="86.442"/>
				
					<polyline style="fill:none;stroke:#5B5D65;stroke-width:0.593;stroke-linecap:round;stroke-linejoin:round;stroke-miterlimit:10;" points="
					678.507,98.4 678.507,70.909 739.596,70.908 				"/>
			</g>
		</g>
		<g>
			
				<rect x="580.236" y="0.58" transform="matrix(-1 -4.509028e-11 4.509028e-11 -1 1198.1499 71.5568)" style="fill:none;stroke:#5B5D65;stroke-width:0.593;stroke-linecap:round;stroke-linejoin:round;stroke-miterlimit:10;" width="37.679" height="70.396"/>
			
				<rect x="582.233" y="2.565" transform="matrix(-1 -4.526391e-11 4.526391e-11 -1 1198.0619 71.5327)" style="fill:none;stroke:#5B5D65;stroke-width:0.593;stroke-linecap:round;stroke-linejoin:round;stroke-miterlimit:10;" width="33.596" height="66.403"/>
		</g>
		
			<polygon style="fill:none;stroke:#5B5D65;stroke-width:0.593;stroke-linecap:round;stroke-linejoin:round;stroke-miterlimit:10;" points="
			745.929,70.769 740.061,70.769 740.061,6.254 622.808,6.254 622.808,71.863 617.914,71.863 617.914,6.254 617.914,3.417 
			617.914,0.58 740.061,0.58 741.209,0.58 745.929,0.58 		"/>
	</g>
	
		<polyline style="fill:none;stroke:#5B5D65;stroke-width:0.593;stroke-linecap:round;stroke-linejoin:round;stroke-miterlimit:10;" points="
		395.886,72.147 395.886,0.297 267.575,0.296 267.575,71.358 	"/>
</g>
<g id="_x21__x21__x21__&#x41F;&#x443;&#x43D;&#x43A;&#x442;&#x438;&#x440;">
	<g>
		<g>
			
				<line style="fill:none;stroke:#5B5D65;stroke-width:0.593;stroke-linecap:round;stroke-linejoin:round;" x1="460.371" y1="356.743" x2="460.371" y2="362.038"/>
			
				<line style="fill:none;stroke:#5B5D65;stroke-width:0.593;stroke-linecap:round;stroke-linejoin:round;stroke-dasharray:10.3066,10.3066,0,0,0,0;" x1="460.371" y1="372.344" x2="460.371" y2="454.798"/>
			
				<line style="fill:none;stroke:#5B5D65;stroke-width:0.593;stroke-linecap:round;stroke-linejoin:round;" x1="460.371" y1="454.798" x2="460.371" y2="460.092"/>
		</g>
	</g>
</g>
<g id="&#x421;&#x430;&#x43D;&#x442;&#x435;&#x445;&#x43D;&#x438;&#x43A;&#x430;">
	<g>
		
			<rect x="231.51" y="210.745" transform="matrix(6.123234e-17 -1 1 6.123234e-17 20.7656 478.2728)" style="opacity:0.8;fill:none;stroke:#5B5D65;stroke-width:0.2965;stroke-linecap:round;stroke-linejoin:round;stroke-miterlimit:10;" width="36.017" height="36.017"/>
		<g>
			
				<circle style="opacity:0.8;fill:none;stroke:#5B5D65;stroke-width:0.2965;stroke-linecap:round;stroke-linejoin:round;stroke-miterlimit:10;" cx="241.145" cy="219.238" r="6.303"/>
		</g>
		<g>
			
				<circle style="opacity:0.8;fill:none;stroke:#5B5D65;stroke-width:0.2965;stroke-linecap:round;stroke-linejoin:round;stroke-miterlimit:10;" cx="256.506" cy="239.169" r="5.403"/>
		</g>
		<g>
			
				<circle style="opacity:0.8;fill:none;stroke:#5B5D65;stroke-width:0.2965;stroke-linecap:round;stroke-linejoin:round;stroke-miterlimit:10;" cx="241.145" cy="239.169" r="4.202"/>
		</g>
		<g>
			
				<circle style="opacity:0.8;fill:none;stroke:#5B5D65;stroke-width:0.2965;stroke-linecap:round;stroke-linejoin:round;stroke-miterlimit:10;" cx="256.506" cy="219.238" r="4.202"/>
		</g>
		
			<circle style="opacity:0.8;fill:none;stroke:#5B5D65;stroke-width:0.2965;stroke-linecap:round;stroke-linejoin:round;stroke-miterlimit:10;" cx="264.743" cy="229.835" r="0.406"/>
		
			<circle style="opacity:0.8;fill:none;stroke:#5B5D65;stroke-width:0.2965;stroke-linecap:round;stroke-linejoin:round;stroke-miterlimit:10;" cx="264.743" cy="227.586" r="0.406"/>
		
			<circle style="opacity:0.8;fill:none;stroke:#5B5D65;stroke-width:0.2965;stroke-linecap:round;stroke-linejoin:round;stroke-miterlimit:10;" cx="262.494" cy="227.586" r="0.406"/>
		
			<circle style="opacity:0.8;fill:none;stroke:#5B5D65;stroke-width:0.2965;stroke-linecap:round;stroke-linejoin:round;stroke-miterlimit:10;" cx="262.494" cy="229.835" r="0.406"/>
	</g>
	<g>
		
			<rect x="231.76" y="315.769" transform="matrix(-6.258722e-07 -1 1 -6.258722e-07 -84.0087 583.5469)" style="opacity:0.8;fill:none;stroke:#5B5D65;stroke-width:0.2965;stroke-linecap:round;stroke-linejoin:round;stroke-miterlimit:10;" width="36.017" height="36.017"/>
		
			<circle style="opacity:0.8;fill:none;stroke:#5B5D65;stroke-width:0.2965;stroke-linecap:round;stroke-linejoin:round;stroke-miterlimit:10;" cx="246.461" cy="333.755" r="2.702"/>
		
			<circle style="opacity:0.8;fill:none;stroke:#5B5D65;stroke-width:0.2965;stroke-linecap:round;stroke-linejoin:round;stroke-miterlimit:10;" cx="237.163" cy="333.755" r="1.051"/>
		
			<circle style="opacity:0.8;fill:none;stroke:#5B5D65;stroke-width:0.2965;stroke-linecap:round;stroke-linejoin:round;stroke-miterlimit:10;" cx="237.163" cy="323.307" r="1.051"/>
		
			<path style="opacity:0.8;fill:none;stroke:#5B5D65;stroke-width:0.2965;stroke-linecap:round;stroke-linejoin:round;stroke-miterlimit:10;" d="
			M264.776,319.071v29.414c0,0.165-0.135,0.3-0.3,0.3l-29.414,0c-0.165,0-0.3-0.135-0.3-0.3l0-29.414c0-0.165,0.135-0.3,0.3-0.3
			l29.414,0C264.641,318.77,264.776,318.906,264.776,319.071z"/>
		
			<path style="opacity:0.8;fill:none;stroke:#5B5D65;stroke-width:0.2965;stroke-linecap:round;stroke-linejoin:round;stroke-miterlimit:10;" d="
			M263.272,320.557l0,26.413c0,0.165-0.135,0.3-0.3,0.3h-23.411c-0.165,0-0.3-0.135-0.3-0.3l0-26.413c0-0.165,0.135-0.3,0.3-0.3
			l23.411,0C263.137,320.257,263.272,320.392,263.272,320.557z"/>
	</g>
	<g>
		
			<line style="opacity:0.8;fill:none;stroke:#5B5D65;stroke-width:0.2965;stroke-linecap:round;stroke-linejoin:round;stroke-miterlimit:10;" x1="747.371" y1="490.981" x2="751.753" y2="490.981"/>
		
			<path style="opacity:0.8;fill:none;stroke:#5B5D65;stroke-width:0.2965;stroke-linecap:round;stroke-linejoin:round;stroke-miterlimit:10;" d="
			M753.695,490.981h9.057c1.237,0,2.236-1.082,2.236-2.414v-70.083c0-4.782-1.65-9.398-4.625-12.939
			c-7.067-8.403-19.298-8.403-26.363,0c-2.979,3.541-4.629,8.157-4.629,12.939v70.083c0,1.332,1.004,2.414,2.24,2.414h10.606"/>
		
			<rect x="726.17" y="394.089" style="opacity:0.8;fill:none;stroke:#5B5D65;stroke-width:0.2965;stroke-linecap:round;stroke-linejoin:round;stroke-miterlimit:10;" width="42.02" height="102.049"/>
		
			<path style="opacity:0.8;fill:none;stroke:#5B5D65;stroke-width:0.2965;stroke-linecap:round;stroke-linejoin:round;stroke-miterlimit:10;" d="
			M747.181,475.34c1.188,0,2.149,0.961,2.149,2.149c0,1.186-0.961,2.149-2.149,2.149c-1.188,0-2.151-0.964-2.151-2.149
			C745.03,476.301,745.993,475.34,747.181,475.34z"/>
		
			<path style="opacity:0.8;fill:none;stroke:#5B5D65;stroke-width:0.2965;stroke-linecap:round;stroke-linejoin:round;stroke-miterlimit:10;" d="
			M751.753,496.137h1.942v-3.164v-0.216v-5c0,0-0.036-1.029-0.97-1.029s-0.972,1.029-0.972,1.029v5v0.216v1.167"/>
		
			<path style="opacity:0.8;fill:none;stroke:#5B5D65;stroke-width:0.2965;stroke-linecap:round;stroke-linejoin:round;stroke-miterlimit:10;" d="
			M743.684,493.417l-0.052,0.63c-0.08,0.999,0.671,1.946,1.773,2.075c0.074,0.009,0.146,0.013,0.222,0.013
			c0.074,0,0.148-0.004,0.222-0.013c1.101-0.129,1.853-1.076,1.775-2.075l-0.896-10.851c0-0.345-0.309-0.625-0.692-0.625h-0.815
			c-0.385,0-0.69,0.28-0.69,0.625l-0.455,5.496"/>
		
			<path style="opacity:0.8;fill:none;stroke:#5B5D65;stroke-width:0.2965;stroke-linecap:round;stroke-linejoin:round;stroke-miterlimit:10;" d="
			M742.029,488.34l0.318-0.193c0.568-0.339,1.309-0.157,1.648,0.411l2.624,4.354c0.341,0.565,0.157,1.307-0.407,1.65l-0.324,0.191
			c-0.561,0.341-1.304,0.155-1.645-0.409l-2.622-4.356C741.279,489.422,741.462,488.681,742.029,488.34z"/>
		
			<path style="opacity:0.8;fill:none;stroke:#5B5D65;stroke-width:0.2965;stroke-linecap:round;stroke-linejoin:round;stroke-miterlimit:10;" d="
			M743.74,493.506c-1.531,0.083-3.521,0.24-4.053,0.51c-0.741,0.379-0.413,1.434-0.413,1.434v0.673h12.71v-0.673
			c0,0,0.326-1.055-0.415-1.434c-0.524-0.266-2.466-0.422-3.99-0.506"/>
		
			<path style="opacity:0.8;fill:none;stroke:#5B5D65;stroke-width:0.2965;stroke-linecap:round;stroke-linejoin:round;stroke-miterlimit:10;" d="
			M754.534,490.981c1.135-0.635,1.901-1.848,1.901-3.24c0-2.05-1.66-3.712-3.71-3.712c-2.05,0-3.71,1.662-3.71,3.712
			c0,1.392,0.767,2.605,1.901,3.24"/>
	</g>
	<g>
		
			<path style="opacity:0.8;fill:none;stroke:#5B5D65;stroke-width:0.2965;stroke-linecap:round;stroke-linejoin:round;stroke-miterlimit:10;" d="
			M702.715,485.231c0-0.696-0.567-1.26-1.265-1.26c-0.697,0-1.262,0.564-1.262,1.26c0,0.698,0.566,1.262,1.262,1.262
			C702.148,486.493,702.715,485.929,702.715,485.231z"/>
		
			<path style="opacity:0.8;fill:none;stroke:#5B5D65;stroke-width:0.2965;stroke-linecap:round;stroke-linejoin:round;stroke-miterlimit:10;" d="
			M703.454,485.231c0-1.103-0.899-1.997-2.005-1.997c-1.104,0-2,0.894-2,1.997c0,1.106,0.896,2,2,2
			C702.556,487.23,703.454,486.336,703.454,485.231z"/>
		
			<path style="opacity:0.8;fill:none;stroke:#5B5D65;stroke-width:0.2965;stroke-linecap:round;stroke-linejoin:round;stroke-miterlimit:10;" d="
			M717.96,496.138h-0.006H684.95h-0.006c0-4.583,0-9.165,0-13.748c0.001-0.032,0.002-0.067,0.004-0.102
			c-0.03-1.399,0.084-5.137,2.541-8.166c2.061-2.542,4.711-3.275,6.78-3.848c0.625-0.173,1.238-0.289,1.91-0.367
			c1.417-0.196,2.919-0.19,5.274-0.177c2.355-0.013,3.857-0.019,5.274,0.177c0.672,0.078,1.285,0.194,1.91,0.367
			c2.069,0.573,4.719,1.306,6.78,3.848c2.457,3.029,2.571,6.767,2.541,8.166c0.001,0.035,0.003,0.07,0.004,0.102
			C717.96,486.973,717.96,491.556,717.96,496.138z"/>
		
			<path style="opacity:0.8;fill:none;stroke:#5B5D65;stroke-width:0.2965;stroke-linecap:round;stroke-linejoin:round;stroke-miterlimit:10;" d="
			M714.298,480.542c-0.013,0.809-0.033,1.721-0.334,2.854c-0.099,0.372-0.443,1.672-1.137,2.628
			c-1.27,1.751-3.449,1.908-7.122,2.362c-1.748,0.216-3.188,0.214-4.251,0.208c0,0-0.001,0-0.002,0c0,0-0.001,0-0.002,0
			c-1.063,0.005-2.503,0.008-4.251-0.208c-3.671-0.454-5.851-0.612-7.122-2.362c-0.68-0.936-1.022-2.197-1.124-2.572
			c-0.313-1.153-0.334-2.084-0.347-2.91c-0.026-1.619-0.042-2.578,0.362-3.634c0.719-1.877,2.277-2.787,3.087-3.261
			c1.026-0.6,2.154-0.805,4.408-1.216c0,0,2.459-0.449,4.988-0.449c0,0,0.001,0,0.002,0c0,0,0.001,0,0.002,0
			c2.522,0,4.988,0.449,4.988,0.449c2.238,0.407,3.357,0.611,4.365,1.193c0.819,0.472,2.406,1.388,3.13,3.284
			C714.34,477.966,714.324,478.934,714.298,480.542z"/>
		<g>
			
				<line style="fill:none;stroke:#5B5D65;stroke-width:0.2965;stroke-linecap:round;stroke-linejoin:round;stroke-miterlimit:10;" x1="698.825" y1="485.232" x2="704.078" y2="485.232"/>
			
				<line style="fill:none;stroke:#5B5D65;stroke-width:0.2965;stroke-linecap:round;stroke-linejoin:round;stroke-miterlimit:10;" x1="701.452" y1="482.605" x2="701.452" y2="487.858"/>
		</g>
		<g>
			
				<path style="opacity:0.8;fill:none;stroke:#5B5D65;stroke-width:0.2965;stroke-linecap:round;stroke-linejoin:round;stroke-miterlimit:10;" d="
				M702.51,492.505c0-0.584-0.475-1.057-1.059-1.057c-0.583,0-1.057,0.473-1.057,1.057c0,0.585,0.474,1.059,1.057,1.059
				C702.035,493.563,702.51,493.09,702.51,492.505z"/>
			<g>
				
					<line style="fill:none;stroke:#5B5D65;stroke-width:0.2965;stroke-linecap:round;stroke-linejoin:round;stroke-miterlimit:10;" x1="699.761" y1="492.505" x2="703.143" y2="492.505"/>
				
					<line style="fill:none;stroke:#5B5D65;stroke-width:0.2965;stroke-linecap:round;stroke-linejoin:round;stroke-miterlimit:10;" x1="701.452" y1="490.814" x2="701.452" y2="494.196"/>
			</g>
		</g>
	</g>
	<g>
		
			<path style="opacity:0.8;fill:none;stroke:#5B5D65;stroke-width:0.2965;stroke-linecap:round;stroke-linejoin:round;stroke-miterlimit:10;" d="
			M257.293,386.216c0.696,0,1.26-0.567,1.26-1.265c0-0.697-0.564-1.262-1.26-1.262c-0.698,0-1.262,0.566-1.262,1.262
			C256.031,385.649,256.595,386.216,257.293,386.216z"/>
		
			<path style="opacity:0.8;fill:none;stroke:#5B5D65;stroke-width:0.2965;stroke-linecap:round;stroke-linejoin:round;stroke-miterlimit:10;" d="
			M257.293,386.955c1.103,0,1.997-0.899,1.997-2.005c0-1.104-0.894-2-1.997-2c-1.106,0-2,0.896-2,2
			C255.294,386.056,256.188,386.955,257.293,386.955z"/>
		
			<path style="opacity:0.8;fill:none;stroke:#5B5D65;stroke-width:0.2965;stroke-linecap:round;stroke-linejoin:round;stroke-miterlimit:10;" d="
			M246.386,401.46v-0.006V368.45v-0.006c4.583,0,9.165,0,13.748,0c0.032,0.001,0.067,0.002,0.102,0.004
			c1.399-0.03,5.137,0.084,8.166,2.541c2.542,2.061,3.275,4.711,3.848,6.78c0.173,0.625,0.289,1.238,0.367,1.91
			c0.196,1.417,0.19,2.919,0.177,5.274c0.013,2.355,0.019,3.857-0.177,5.274c-0.078,0.672-0.194,1.285-0.367,1.91
			c-0.573,2.069-1.306,4.719-3.848,6.78c-3.029,2.457-6.767,2.571-8.166,2.541c-0.035,0.001-0.07,0.003-0.102,0.004
			C255.551,401.46,250.969,401.46,246.386,401.46z"/>
		
			<path style="opacity:0.8;fill:none;stroke:#5B5D65;stroke-width:0.2965;stroke-linecap:round;stroke-linejoin:round;stroke-miterlimit:10;" d="
			M261.982,397.799c-0.809-0.013-1.721-0.033-2.854-0.334c-0.372-0.099-1.672-0.443-2.628-1.137
			c-1.751-1.27-1.908-3.449-2.362-7.122c-0.216-1.748-0.214-3.188-0.208-4.251c0-0.001,0-0.001,0-0.002c0-0.001,0-0.001,0-0.002
			c-0.005-1.063-0.008-2.503,0.208-4.251c0.454-3.671,0.612-5.851,2.362-7.122c0.936-0.68,2.197-1.022,2.572-1.124
			c1.153-0.313,2.084-0.334,2.91-0.347c1.619-0.026,2.578-0.042,3.634,0.362c1.877,0.719,2.787,2.277,3.261,3.087
			c0.6,1.026,0.805,2.154,1.216,4.408c0,0,0.449,2.459,0.449,4.988c0,0,0,0.001,0,0.002c0,0,0,0.001,0,0.002
			c0,2.522-0.449,4.988-0.449,4.988c-0.407,2.238-0.611,3.357-1.193,4.365c-0.472,0.819-1.388,2.406-3.284,3.129
			C264.558,397.84,263.59,397.825,261.982,397.799z"/>
		<g>
			
				<line style="fill:none;stroke:#5B5D65;stroke-width:0.2965;stroke-linecap:round;stroke-linejoin:round;stroke-miterlimit:10;" x1="257.292" y1="382.326" x2="257.292" y2="387.579"/>
			
				<line style="fill:none;stroke:#5B5D65;stroke-width:0.2965;stroke-linecap:round;stroke-linejoin:round;stroke-miterlimit:10;" x1="259.919" y1="384.952" x2="254.666" y2="384.952"/>
		</g>
		<g>
			
				<path style="opacity:0.8;fill:none;stroke:#5B5D65;stroke-width:0.2965;stroke-linecap:round;stroke-linejoin:round;stroke-miterlimit:10;" d="
				M250.02,386.01c0.584,0,1.057-0.475,1.057-1.059c0-0.583-0.473-1.057-1.057-1.057c-0.585,0-1.059,0.474-1.059,1.057
				C248.961,385.535,249.434,386.01,250.02,386.01z"/>
			<g>
				
					<line style="fill:none;stroke:#5B5D65;stroke-width:0.2965;stroke-linecap:round;stroke-linejoin:round;stroke-miterlimit:10;" x1="250.019" y1="383.261" x2="250.019" y2="386.643"/>
				
					<line style="fill:none;stroke:#5B5D65;stroke-width:0.2965;stroke-linecap:round;stroke-linejoin:round;stroke-miterlimit:10;" x1="251.71" y1="384.952" x2="248.328" y2="384.952"/>
			</g>
		</g>
	</g>
	<g>
		
			<path style="opacity:0.8;fill:none;stroke:#5B5D65;stroke-width:0.2965;stroke-linecap:round;stroke-linejoin:round;stroke-miterlimit:10;" d="
			M246.386,420.828h5.898h0.602c1.659,0,3.017,1.361,3.017,3.025l0,15.56c0,1.664-1.358,3.025-3.017,3.025h-0.602h-5.898
			L246.386,420.828z"/>
		
			<ellipse style="opacity:0.8;fill:none;stroke:#5B5D65;stroke-width:0.2965;stroke-linecap:round;stroke-linejoin:round;stroke-miterlimit:10;" cx="253.659" cy="431.633" rx="0.814" ry="0.816"/>
		
			<line style="opacity:0.8;fill:none;stroke:#5B5D65;stroke-width:0.2965;stroke-linecap:round;stroke-linejoin:round;stroke-miterlimit:10;" x1="253.659" y1="430.208" x2="253.659" y2="430.817"/>
		
			<line style="opacity:0.8;fill:none;stroke:#5B5D65;stroke-width:0.2965;stroke-linecap:round;stroke-linejoin:round;stroke-miterlimit:10;" x1="253.659" y1="432.449" x2="253.659" y2="433.059"/>
		
			<line style="opacity:0.8;fill:none;stroke:#5B5D65;stroke-width:0.2965;stroke-linecap:round;stroke-linejoin:round;stroke-miterlimit:10;" x1="255.081" y1="431.633" x2="254.473" y2="431.633"/>
		
			<line style="opacity:0.8;fill:none;stroke:#5B5D65;stroke-width:0.2965;stroke-linecap:round;stroke-linejoin:round;stroke-miterlimit:10;" x1="252.845" y1="431.633" x2="252.238" y2="431.633"/>
		
			<line style="opacity:0.8;fill:none;stroke:#5B5D65;stroke-width:0.2965;stroke-linecap:round;stroke-linejoin:round;stroke-miterlimit:10;" x1="259.357" y1="426.045" x2="259.357" y2="426.45"/>
		
			<line style="opacity:0.8;fill:none;stroke:#5B5D65;stroke-width:0.2965;stroke-linecap:round;stroke-linejoin:round;stroke-miterlimit:10;" x1="259.357" y1="427.534" x2="259.357" y2="427.938"/>
		
			<line style="opacity:0.8;fill:none;stroke:#5B5D65;stroke-width:0.2965;stroke-linecap:round;stroke-linejoin:round;stroke-miterlimit:10;" x1="260.301" y1="426.992" x2="259.897" y2="426.992"/>
		
			<line style="opacity:0.8;fill:none;stroke:#5B5D65;stroke-width:0.2965;stroke-linecap:round;stroke-linejoin:round;stroke-miterlimit:10;" x1="258.817" y1="426.992" x2="258.413" y2="426.992"/>
		
			<circle style="opacity:0.8;fill:none;stroke:#5B5D65;stroke-width:0.2965;stroke-linecap:round;stroke-linejoin:round;stroke-miterlimit:10;" cx="259.357" cy="426.992" r="0.541"/>
		
			<circle style="opacity:0.8;fill:none;stroke:#5B5D65;stroke-width:0.2965;stroke-linecap:round;stroke-linejoin:round;stroke-miterlimit:10;" cx="259.357" cy="436.275" r="0.541"/>
		
			<line style="opacity:0.8;fill:none;stroke:#5B5D65;stroke-width:0.2965;stroke-linecap:round;stroke-linejoin:round;stroke-miterlimit:10;" x1="259.357" y1="435.328" x2="259.357" y2="435.733"/>
		
			<line style="opacity:0.8;fill:none;stroke:#5B5D65;stroke-width:0.2965;stroke-linecap:round;stroke-linejoin:round;stroke-miterlimit:10;" x1="259.357" y1="436.816" x2="259.357" y2="437.221"/>
		
			<line style="opacity:0.8;fill:none;stroke:#5B5D65;stroke-width:0.2965;stroke-linecap:round;stroke-linejoin:round;stroke-miterlimit:10;" x1="260.301" y1="436.275" x2="259.897" y2="436.275"/>
		
			<line style="opacity:0.8;fill:none;stroke:#5B5D65;stroke-width:0.2965;stroke-linecap:round;stroke-linejoin:round;stroke-miterlimit:10;" x1="258.817" y1="436.275" x2="258.413" y2="436.275"/>
		
			<path style="opacity:0.8;fill:none;stroke:#5B5D65;stroke-width:0.2965;stroke-linecap:round;stroke-linejoin:round;stroke-miterlimit:10;" d="
			M269.24,442.113c-0.418-0.029-0.762-0.064-0.988-0.089c-4.118-0.783-8.236-1.566-12.355-2.349
			c0.001-2.681,0.002-5.362,0.003-8.042c-0.001-2.681-0.002-5.362-0.003-8.042c4.118-0.783,8.236-1.566,12.355-2.349
			c0.226-0.025,0.569-0.059,0.988-0.089c2.469-0.173,6.627-0.466,10.378,1.706c0.605,0.35,1.824,1.07,2.989,2.445
			c0.698,0.824,2.496,3.012,2.497,6.25c0,0.027-0.002,0.052-0.003,0.079c0,0.027,0.003,0.052,0.003,0.079
			c-0.002,3.239-1.8,5.427-2.497,6.25c-1.165,1.375-2.384,2.095-2.989,2.445C275.868,442.579,271.709,442.286,269.24,442.113z"/>
		
			<path style="opacity:0.8;fill:none;stroke:#5B5D65;stroke-width:0.2965;stroke-linecap:round;stroke-linejoin:round;stroke-miterlimit:10;" d="
			M269.781,440.058c-1.213-0.177-2.571-0.392-3.965-1.392c-1.719-1.234-2.418-2.891-2.637-3.431
			c-0.599-1.472-0.599-2.726-0.599-3.601c0-0.875,0-2.129,0.599-3.601c0.22-0.54,0.918-2.197,2.637-3.431
			c1.394-1,2.751-1.215,3.965-1.392c1.546-0.226,5.589-0.817,9.228,1.673c0.906,0.62,2.818,1.948,3.608,4.498
			c0.164,0.529,0.666,2.358,0,4.506c-0.79,2.55-2.702,3.878-3.609,4.498C275.371,440.875,271.327,440.284,269.781,440.058z"/>
		
			<path style="opacity:0.8;fill:none;stroke:#5B5D65;stroke-width:0.2965;stroke-linecap:round;stroke-linejoin:round;stroke-miterlimit:10;" d="
			M266.601,436.921c-1.867-1.999-1.861-4.604-1.856-5.287c-0.005-0.683-0.012-3.289,1.856-5.287c1.652-1.768,3.92-2.151,5.721-2.139
			c1.246-0.019,2.257,0.161,2.656,0.232c0.984,0.176,2.918,0.609,4.621,2.13c0.688,0.615,2.648,2.365,2.655,5.048
			c0.007,2.702-1.972,4.471-2.655,5.081c-1.702,1.521-3.636,1.954-4.621,2.13c-0.4,0.071-1.411,0.252-2.656,0.232
			C270.521,439.072,268.252,438.689,266.601,436.921z"/>
		
			<path style="opacity:0.8;fill:none;stroke:#5B5D65;stroke-width:0.2965;stroke-linecap:round;stroke-linejoin:round;stroke-miterlimit:10;" d="
			M266.778,434.276c-0.599-0.286-0.875-0.807-0.963-0.996c0-1.099,0-2.198,0-3.297c0.089-0.19,0.364-0.712,0.963-0.996
			c0.495-0.234,0.947-0.182,1.268-0.141c1.083,0.139,1.815,0.821,2.114,1.137c0,1.099,0,2.198,0,3.297
			c-0.287,0.309-0.991,0.976-2.052,1.131C267.769,434.46,267.294,434.523,266.778,434.276z"/>
	</g>
	<g>
		
			<path style="opacity:0.8;fill:none;stroke:#5B5D65;stroke-width:0.2965;stroke-linecap:round;stroke-linejoin:round;stroke-miterlimit:10;" d="
			M743.007,579.21c-0.696,0-1.26,0.567-1.26,1.265c0,0.697,0.564,1.262,1.26,1.262c0.698,0,1.262-0.566,1.262-1.262
			C744.269,579.777,743.705,579.21,743.007,579.21z"/>
		
			<path style="opacity:0.8;fill:none;stroke:#5B5D65;stroke-width:0.2965;stroke-linecap:round;stroke-linejoin:round;stroke-miterlimit:10;" d="
			M743.007,578.471c-1.103,0-1.997,0.899-1.997,2.005c0,1.104,0.894,2,1.997,2c1.106,0,2-0.896,2-2
			C745.007,579.37,744.113,578.471,743.007,578.471z"/>
		
			<path style="opacity:0.8;fill:none;stroke:#5B5D65;stroke-width:0.2965;stroke-linecap:round;stroke-linejoin:round;stroke-miterlimit:10;" d="
			M753.914,563.966v0.006v33.004v0.006c-4.583,0-9.165,0-13.748,0c-0.032-0.001-0.067-0.002-0.102-0.004
			c-1.399,0.03-5.137-0.084-8.166-2.541c-2.542-2.061-3.275-4.711-3.848-6.78c-0.173-0.625-0.289-1.238-0.367-1.91
			c-0.196-1.417-0.19-2.919-0.177-5.274c-0.013-2.355-0.019-3.857,0.177-5.274c0.078-0.672,0.194-1.285,0.367-1.91
			c0.573-2.069,1.306-4.719,3.848-6.78c3.029-2.457,6.767-2.571,8.166-2.541c0.035-0.001,0.07-0.003,0.102-0.004
			C744.749,563.966,749.332,563.966,753.914,563.966z"/>
		
			<path style="opacity:0.8;fill:none;stroke:#5B5D65;stroke-width:0.2965;stroke-linecap:round;stroke-linejoin:round;stroke-miterlimit:10;" d="
			M738.318,567.627c0.809,0.013,1.721,0.033,2.854,0.334c0.372,0.099,1.672,0.443,2.628,1.137c1.75,1.27,1.908,3.449,2.362,7.122
			c0.216,1.748,0.214,3.188,0.208,4.251c0,0,0,0.001,0,0.002s0,0.001,0,0.002c0.005,1.063,0.008,2.503-0.208,4.251
			c-0.454,3.671-0.612,5.851-2.362,7.122c-0.936,0.68-2.197,1.022-2.572,1.124c-1.153,0.313-2.084,0.334-2.91,0.347
			c-1.619,0.026-2.578,0.042-3.634-0.362c-1.877-0.719-2.787-2.277-3.26-3.087c-0.6-1.026-0.805-2.154-1.216-4.408
			c0,0-0.449-2.459-0.449-4.988c0,0,0-0.001,0-0.002c0,0,0-0.001,0-0.002c0-2.522,0.449-4.988,0.449-4.988
			c0.407-2.238,0.611-3.357,1.193-4.365c0.472-0.819,1.388-2.406,3.284-3.13C735.742,567.585,736.71,567.601,738.318,567.627z"/>
		<g>
			
				<line style="fill:none;stroke:#5B5D65;stroke-width:0.2965;stroke-linecap:round;stroke-linejoin:round;stroke-miterlimit:10;" x1="743.008" y1="583.1" x2="743.008" y2="577.847"/>
			
				<line style="fill:none;stroke:#5B5D65;stroke-width:0.2965;stroke-linecap:round;stroke-linejoin:round;stroke-miterlimit:10;" x1="740.382" y1="580.474" x2="745.635" y2="580.474"/>
		</g>
		<g>
			
				<path style="opacity:0.8;fill:none;stroke:#5B5D65;stroke-width:0.2965;stroke-linecap:round;stroke-linejoin:round;stroke-miterlimit:10;" d="
				M750.281,579.416c-0.584,0-1.057,0.475-1.057,1.059c0,0.583,0.473,1.057,1.057,1.057c0.585,0,1.059-0.474,1.059-1.057
				C751.339,579.89,750.866,579.416,750.281,579.416z"/>
			<g>
				
					<line style="fill:none;stroke:#5B5D65;stroke-width:0.2965;stroke-linecap:round;stroke-linejoin:round;stroke-miterlimit:10;" x1="750.281" y1="582.164" x2="750.281" y2="578.783"/>
				
					<line style="fill:none;stroke:#5B5D65;stroke-width:0.2965;stroke-linecap:round;stroke-linejoin:round;stroke-miterlimit:10;" x1="748.59" y1="580.474" x2="751.972" y2="580.474"/>
			</g>
		</g>
	</g>
	<g>
		
			<path style="opacity:0.8;fill:none;stroke:#5B5D65;stroke-width:0.2965;stroke-linecap:round;stroke-linejoin:round;stroke-miterlimit:10;" d="
			M753.914,544.598h-5.898h-0.602c-1.659,0-3.017-1.361-3.017-3.025v-15.56c0-1.664,1.358-3.025,3.017-3.025h0.602h5.898V544.598z"
			/>
		
			<ellipse style="opacity:0.8;fill:none;stroke:#5B5D65;stroke-width:0.2965;stroke-linecap:round;stroke-linejoin:round;stroke-miterlimit:10;" cx="746.641" cy="533.793" rx="0.814" ry="0.816"/>
		
			<line style="opacity:0.8;fill:none;stroke:#5B5D65;stroke-width:0.2965;stroke-linecap:round;stroke-linejoin:round;stroke-miterlimit:10;" x1="746.641" y1="535.218" x2="746.641" y2="534.609"/>
		
			<line style="opacity:0.8;fill:none;stroke:#5B5D65;stroke-width:0.2965;stroke-linecap:round;stroke-linejoin:round;stroke-miterlimit:10;" x1="746.641" y1="532.977" x2="746.641" y2="532.367"/>
		
			<line style="opacity:0.8;fill:none;stroke:#5B5D65;stroke-width:0.2965;stroke-linecap:round;stroke-linejoin:round;stroke-miterlimit:10;" x1="745.22" y1="533.793" x2="745.828" y2="533.793"/>
		
			<line style="opacity:0.8;fill:none;stroke:#5B5D65;stroke-width:0.2965;stroke-linecap:round;stroke-linejoin:round;stroke-miterlimit:10;" x1="747.455" y1="533.793" x2="748.063" y2="533.793"/>
		
			<line style="opacity:0.8;fill:none;stroke:#5B5D65;stroke-width:0.2965;stroke-linecap:round;stroke-linejoin:round;stroke-miterlimit:10;" x1="740.944" y1="539.38" x2="740.944" y2="538.976"/>
		
			<line style="opacity:0.8;fill:none;stroke:#5B5D65;stroke-width:0.2965;stroke-linecap:round;stroke-linejoin:round;stroke-miterlimit:10;" x1="740.944" y1="537.892" x2="740.944" y2="537.487"/>
		
			<line style="opacity:0.8;fill:none;stroke:#5B5D65;stroke-width:0.2965;stroke-linecap:round;stroke-linejoin:round;stroke-miterlimit:10;" x1="740" y1="538.434" x2="740.403" y2="538.434"/>
		
			<line style="opacity:0.8;fill:none;stroke:#5B5D65;stroke-width:0.2965;stroke-linecap:round;stroke-linejoin:round;stroke-miterlimit:10;" x1="741.484" y1="538.434" x2="741.887" y2="538.434"/>
		
			<circle style="opacity:0.8;fill:none;stroke:#5B5D65;stroke-width:0.2965;stroke-linecap:round;stroke-linejoin:round;stroke-miterlimit:10;" cx="740.944" cy="538.434" r="0.541"/>
		
			<circle style="opacity:0.8;fill:none;stroke:#5B5D65;stroke-width:0.2965;stroke-linecap:round;stroke-linejoin:round;stroke-miterlimit:10;" cx="740.944" cy="529.151" r="0.541"/>
		
			<line style="opacity:0.8;fill:none;stroke:#5B5D65;stroke-width:0.2965;stroke-linecap:round;stroke-linejoin:round;stroke-miterlimit:10;" x1="740.944" y1="530.098" x2="740.944" y2="529.693"/>
		
			<line style="opacity:0.8;fill:none;stroke:#5B5D65;stroke-width:0.2965;stroke-linecap:round;stroke-linejoin:round;stroke-miterlimit:10;" x1="740.944" y1="528.61" x2="740.944" y2="528.205"/>
		
			<line style="opacity:0.8;fill:none;stroke:#5B5D65;stroke-width:0.2965;stroke-linecap:round;stroke-linejoin:round;stroke-miterlimit:10;" x1="740" y1="529.151" x2="740.403" y2="529.151"/>
		
			<line style="opacity:0.8;fill:none;stroke:#5B5D65;stroke-width:0.2965;stroke-linecap:round;stroke-linejoin:round;stroke-miterlimit:10;" x1="741.484" y1="529.151" x2="741.887" y2="529.151"/>
		
			<path style="opacity:0.8;fill:none;stroke:#5B5D65;stroke-width:0.2965;stroke-linecap:round;stroke-linejoin:round;stroke-miterlimit:10;" d="
			M731.06,523.313c0.418,0.029,0.762,0.064,0.988,0.089c4.118,0.783,8.236,1.566,12.355,2.349c-0.001,2.681-0.002,5.362-0.003,8.042
			c0.001,2.681,0.002,5.362,0.003,8.042c-4.118,0.783-8.236,1.566-12.355,2.349c-0.226,0.025-0.569,0.059-0.988,0.089
			c-2.469,0.173-6.627,0.466-10.378-1.706c-0.605-0.35-1.824-1.07-2.989-2.445c-0.698-0.824-2.496-3.012-2.497-6.25
			c0-0.027,0.002-0.052,0.003-0.079c0-0.027-0.003-0.052-0.003-0.079c0.002-3.239,1.799-5.427,2.497-6.25
			c1.165-1.375,2.384-2.095,2.989-2.445C724.433,522.847,728.591,523.139,731.06,523.313z"/>
		
			<path style="opacity:0.8;fill:none;stroke:#5B5D65;stroke-width:0.2965;stroke-linecap:round;stroke-linejoin:round;stroke-miterlimit:10;" d="
			M730.519,525.368c1.214,0.177,2.571,0.392,3.965,1.392c1.719,1.234,2.417,2.891,2.637,3.431c0.599,1.472,0.599,2.726,0.599,3.601
			s0,2.129-0.599,3.601c-0.22,0.54-0.918,2.197-2.637,3.431c-1.394,1-2.751,1.215-3.965,1.392c-1.546,0.226-5.589,0.817-9.228-1.673
			c-0.906-0.62-2.818-1.948-3.608-4.498c-0.164-0.529-0.666-2.358,0-4.506c0.79-2.55,2.702-3.878,3.609-4.498
			C724.93,524.551,728.973,525.142,730.519,525.368z"/>
		
			<path style="opacity:0.8;fill:none;stroke:#5B5D65;stroke-width:0.2965;stroke-linecap:round;stroke-linejoin:round;stroke-miterlimit:10;" d="
			M733.7,528.505c1.867,1.999,1.861,4.604,1.856,5.287c0.005,0.683,0.012,3.289-1.856,5.287c-1.652,1.768-3.92,2.151-5.721,2.139
			c-1.246,0.019-2.257-0.161-2.656-0.232c-0.984-0.176-2.918-0.609-4.621-2.13c-0.688-0.615-2.648-2.365-2.655-5.048
			c-0.007-2.702,1.972-4.471,2.655-5.081c1.702-1.521,3.636-1.954,4.621-2.13c0.4-0.071,1.411-0.252,2.656-0.232
			C729.78,526.354,732.048,526.737,733.7,528.505z"/>
		
			<path style="opacity:0.8;fill:none;stroke:#5B5D65;stroke-width:0.2965;stroke-linecap:round;stroke-linejoin:round;stroke-miterlimit:10;" d="
			M733.523,531.15c0.599,0.286,0.875,0.807,0.964,0.996c0,1.099,0,2.198,0,3.297c-0.089,0.19-0.364,0.712-0.964,0.996
			c-0.495,0.234-0.947,0.182-1.268,0.141c-1.083-0.139-1.815-0.821-2.114-1.137c0-1.099,0-2.198,0-3.297
			c0.286-0.309,0.991-0.976,2.052-1.131C732.531,530.965,733.006,530.903,733.523,531.15z"/>
	</g>
</g>
<g id="&#x41F;&#x435;&#x440;&#x435;&#x433;&#x43E;&#x440;&#x43E;&#x434;&#x43A;&#x438;">
	<rect x="219.788" y="156.055" style="fill:#5B5D65;" width="12.008" height="224.421"/>
	<rect x="228.8" y="458.095" style="fill:#5B5D65;" width="128.529" height="11.495"/>
	<rect x="457.962" y="468.092" style="fill:#5B5D65;" width="11.982" height="97.927"/>
	<g>
		<rect x="334.644" y="352.75" style="fill:#5B5D65;" width="5.242" height="21.968"/>
		<rect x="334.644" y="420.162" style="fill:#5B5D65;" width="5.242" height="39.93"/>
	</g>
	<rect x="469.196" y="458.095" style="fill:#5B5D65;" width="134.302" height="3.506"/>
	<g>
		<rect x="599.254" y="553.953" style="fill:#5B5D65;" width="4.493" height="12.16"/>
		<rect x="599.254" y="459.592" style="fill:#5B5D65;" width="4.493" height="50.426"/>
	</g>
	<rect x="768.23" y="156.055" style="fill:#5B5D65;" width="11.982" height="721.195"/>
	<g>
		<rect x="601.501" y="620.356" style="fill:#5B5D65;" width="7.489" height="5.242"/>
		<rect x="662.161" y="620.356" style="fill:#5B5D65;" width="109.089" height="5.242"/>
	</g>
	<rect x="671.648" y="388.197" style="fill:#5B5D65;" width="100.352" height="6.241"/>
	<rect x="671.148" y="496.039" style="fill:#5B5D65;" width="99.603" height="1.997"/>
	<rect x="726.067" y="496.538" style="fill:#5B5D65;" width="2.996" height="7.988"/>
	<rect x="669.65" y="504.276" style="fill:#5B5D65;" width="100.851" height="4.743"/>
	<rect x="753.777" y="508.033" style="fill:#5B5D65;" width="2.746" height="106.344"/>
	<rect x="715.583" y="612.867" style="fill:#5B5D65;" width="40.94" height="1.946"/>
	<rect x="715.583" y="614.153" style="fill:#5B5D65;" width="1.781" height="6.702"/>
	<g>
		<rect x="668.153" y="351.751" style="fill:#5B5D65;" width="4.493" height="73.404"/>
		<rect x="668.153" y="470.576" style="fill:#5B5D65;" width="4.493" height="65.653"/>
		<rect x="668.153" y="581.175" style="fill:#5B5D65;" width="4.493" height="41.178"/>
	</g>
	<rect x="243.278" y="355.757" style="fill:#5B5D65;" width="2.995" height="103.597"/>
	<g>
		<rect x="396.053" y="351.751" style="fill:#5B5D65;" width="145.286" height="4.993"/>
		<rect x="592.514" y="351.751" style="fill:#5B5D65;" width="18.223" height="4.993"/>
		<rect x="662.661" y="351.751" style="fill:#5B5D65;" width="7.239" height="4.993"/>
		<rect x="229.299" y="351.751" style="fill:#5B5D65;" width="116.828" height="4.993"/>
	</g>
	<rect x="402.544" y="97.945" style="fill:#5B5D65;" width="4.992" height="254.805"/>
	<rect x="598.755" y="156.039" style="fill:#5B5D65;" width="4.993" height="197.721"/>
</g>
<g id="_x21__x21__x21__&#x428;&#x430;&#x445;&#x442;&#x44B;">
</g>
<g id="&#x41D;&#x435;&#x441;&#x443;&#x449;&#x438;&#x435;">
	
		<polygon style="fill:#5B5D65;stroke:#5B5D65;stroke-width:1.1859;stroke-linecap:round;stroke-linejoin:round;stroke-miterlimit:10;" points="
		487.357,70.691 508.11,70.691 508.11,78.726 504.832,78.726 504.832,98.598 490.635,98.598 490.635,78.726 487.357,78.726 	"/>
	
		<rect x="768.23" y="70.691" style="fill:#5B5D65;stroke:#5B5D65;stroke-width:1.1859;stroke-linecap:round;stroke-linejoin:round;stroke-miterlimit:10;" width="11.982" height="85.364"/>
	
		<rect x="768.23" y="363.983" style="fill:#5B5D65;stroke:#5B5D65;stroke-width:1.1859;stroke-linecap:round;stroke-linejoin:round;stroke-miterlimit:10;" width="11.982" height="71.889"/>
	
		<rect x="768.23" y="601.134" style="fill:#5B5D65;stroke:#5B5D65;stroke-width:1.1859;stroke-linecap:round;stroke-linejoin:round;stroke-miterlimit:10;" width="11.982" height="71.889"/>
	
		<polygon style="fill:#5B5D65;stroke:#5B5D65;stroke-width:1.1859;stroke-linecap:round;stroke-linejoin:round;stroke-miterlimit:10;" points="
		780.212,70.691 734.772,70.691 734.772,78.726 738.05,78.726 738.05,98.598 780.212,98.598 	"/>
	
		<rect x="219.788" y="70.691" style="fill:#5B5D65;stroke:#5B5D65;stroke-width:1.1859;stroke-linecap:round;stroke-linejoin:round;stroke-miterlimit:10;" width="11.982" height="85.364"/>
	
		<rect x="219.788" y="440.121" style="fill:#5B5D65;stroke:#5B5D65;stroke-width:1.1859;stroke-linecap:round;stroke-linejoin:round;stroke-miterlimit:10;" width="11.982" height="29.456"/>
	
		<polygon style="fill:#5B5D65;stroke:#5B5D65;stroke-width:1.1859;stroke-linecap:round;stroke-linejoin:round;stroke-miterlimit:10;" points="
		219.788,98.598 271.595,98.598 271.595,78.726 274.873,78.726 274.873,70.691 219.788,70.691 	"/>
	
		<polygon style="fill:#5B5D65;stroke:#5B5D65;stroke-width:1.1859;stroke-linecap:round;stroke-linejoin:round;stroke-miterlimit:10;" points="
		629.712,70.691 550.823,70.691 550.823,78.726 554.641,78.726 554.641,98.598 625.895,98.598 625.895,78.726 629.712,78.726 	"/>
	
		<polygon style="fill:#5B5D65;stroke:#5B5D65;stroke-width:1.1859;stroke-linecap:round;stroke-linejoin:round;stroke-miterlimit:10;" points="
		444.643,70.691 381.469,70.691 381.469,78.726 385.286,78.726 385.286,98.598 440.826,98.598 440.826,78.726 444.643,78.726 	"/>
	
		<polygon style="fill:#5B5D65;stroke:#5B5D65;stroke-width:1.1859;stroke-linecap:round;stroke-linejoin:round;stroke-miterlimit:10;" points="
		779.849,934.671 736.204,934.671 736.204,954.544 732.926,954.544 732.926,962.579 779.849,962.579 	"/>
	
		<rect x="731.319" y="914.048" transform="matrix(-1.836970e-16 1 -1 -1.836970e-16 1693.8976 145.9318)" style="fill:#5B5D65;stroke:#5B5D65;stroke-width:1.1859;stroke-linecap:round;stroke-linejoin:round;stroke-miterlimit:10;" width="85.328" height="11.733"/>
	<g>
		
			<polygon style="fill:#5B5D65;stroke:#5B5D65;stroke-width:1.1859;stroke-linecap:round;stroke-linejoin:round;stroke-miterlimit:10;" points="
			591.871,934.671 624.934,934.671 624.934,954.544 628.212,954.544 628.212,962.579 591.871,962.579 		"/>
		
			<rect x="398.457" y="757.365" transform="matrix(-1.836970e-16 1 -1 -1.836970e-16 1360.9684 165.4936)" style="fill:#5B5D65;stroke:#5B5D65;stroke-width:1.1859;stroke-linecap:round;stroke-linejoin:round;stroke-miterlimit:10;" width="398.56" height="11.733"/>
		
			<rect x="458.212" y="563.951" style="fill:#5B5D65;stroke:#5B5D65;stroke-width:1.1859;stroke-linecap:round;stroke-linejoin:round;stroke-miterlimit:10;" width="140.293" height="10.472"/>
	</g>
	
		<rect x="219.788" y="380.476" style="fill:#5B5D65;stroke:#5B5D65;stroke-width:1.1859;stroke-linecap:round;stroke-linejoin:round;stroke-miterlimit:10;" width="11.982" height="61.892"/>
	
		<rect x="591.266" y="86.642" style="fill:#5B5D65;stroke:#5B5D65;stroke-width:1.1859;stroke-linecap:round;stroke-linejoin:round;stroke-miterlimit:10;" width="12.482" height="70.396"/>
	
		<rect x="416.523" y="458.106" style="fill:#5B5D65;stroke:#5B5D65;stroke-width:1.1859;stroke-linecap:round;stroke-linejoin:round;stroke-miterlimit:10;" width="53.421" height="11.471"/>
</g>
<g id="_x21__x21__x21__&#x41B;&#x435;&#x441;&#x442;&#x43D;&#x438;&#x446;&#x44B;_x2C__&#x43B;&#x438;&#x444;&#x442;&#x44B;">
</g>
<g id="_x21__x21__x21__&#x41F;&#x43B;&#x43E;&#x449;&#x430;&#x434;&#x438;">
	<g>
		<path style="fill:#5B5D65;" d="M296.815,426.788c0.992,0,1.836,0.349,2.535,1.048c0.698,0.698,1.048,1.543,1.048,2.535
			c0,0.68-0.217,1.368-0.651,2.062l-4.517,7.253h4.451c0.478,0,0.717,0.239,0.717,0.716c0,0.478-0.239,0.717-0.717,0.717h-5.732
			c-0.478,0-0.717-0.239-0.717-0.716c0-0.145,0.04-0.282,0.12-0.413l5.254-8.437c0.239-0.384,0.359-0.778,0.359-1.184
			c0-0.593-0.21-1.1-0.63-1.52c-0.42-0.42-0.927-0.63-1.52-0.63c-0.811,0-1.56,0.601-2.248,1.802
			c-0.13,0.232-0.336,0.348-0.619,0.348c-0.478,0-0.717-0.239-0.717-0.717c0-0.108,0.022-0.206,0.065-0.293
			C294.188,427.646,295.36,426.788,296.815,426.788z"/>
		<path style="fill:#5B5D65;" d="M304.697,439.687c0.478,0,0.717,0.235,0.717,0.706c0,0.065-0.246,1.082-0.738,3.051
			c-0.087,0.362-0.319,0.543-0.695,0.543c-0.478,0-0.717-0.239-0.717-0.716c0-0.326,0.246-1.339,0.738-3.04
			C304.104,439.868,304.335,439.687,304.697,439.687z"/>
		<path style="fill:#5B5D65;" d="M313.296,426.788c0.478,0,0.717,0.239,0.717,0.716c0,0.355-0.12,0.561-0.358,0.619
			c-1.064,0.268-1.994,0.905-2.791,1.911c-0.629,0.796-0.995,1.625-1.097,2.486h2.096c1.013,0,1.864,0.348,2.551,1.042
			s1.032,1.542,1.032,2.541v1.433c0,0.999-0.35,1.846-1.048,2.541c-0.699,0.695-1.543,1.042-2.535,1.042
			c-0.999,0-1.846-0.346-2.541-1.037c-0.695-0.691-1.042-1.532-1.042-2.524v-4.321c0-1.622,0.539-3.043,1.618-4.267
			c0.84-0.948,1.755-1.621,2.747-2.02C312.927,426.842,313.145,426.788,313.296,426.788z M309.713,433.954v3.583
			c0,0.601,0.208,1.109,0.625,1.525c0.416,0.417,0.924,0.625,1.525,0.625c0.601,0,1.109-0.21,1.525-0.63
			c0.416-0.419,0.625-0.926,0.625-1.52v-1.433c0-0.601-0.21-1.109-0.63-1.525c-0.42-0.416-0.927-0.625-1.52-0.625H309.713z"/>
		<path style="fill:#5B5D65;" d="M325.479,433.954c0,1.708-0.21,3.185-0.63,4.43c-0.615,1.824-1.6,2.736-2.953,2.736
			s-2.338-0.908-2.953-2.725c-0.42-1.245-0.63-2.725-0.63-4.441c0-1.715,0.21-3.195,0.63-4.44c0.615-1.817,1.6-2.725,2.953-2.725
			s2.338,0.912,2.953,2.736C325.269,430.769,325.479,432.246,325.479,433.954z M324.045,433.954c0-1.187-0.127-2.305-0.38-3.354
			c-0.384-1.585-0.974-2.378-1.77-2.378c-0.789,0-1.375,0.796-1.759,2.389c-0.261,1.071-0.391,2.186-0.391,3.344
			c0,1.18,0.126,2.298,0.38,3.355c0.384,1.585,0.974,2.378,1.77,2.378c0.796,0,1.386-0.792,1.77-2.378
			C323.918,436.252,324.045,435.134,324.045,433.954z"/>
	</g>
	<g>
		<path style="fill:#5B5D65;" d="M260.06,131.972l-1.646,1.647c-0.138,0.135-0.305,0.203-0.501,0.203
			c-0.479,0-0.719-0.239-0.719-0.716c0-0.196,0.069-0.362,0.207-0.5l2.801-2.801c0.188-0.188,0.38-0.282,0.576-0.282
			c0.478,0,0.716,0.239,0.716,0.716v12.898c0,0.478-0.239,0.717-0.716,0.717s-0.717-0.239-0.717-0.716V131.972z"/>
		<path style="fill:#5B5D65;" d="M267.943,129.522c0.992,0,1.836,0.349,2.535,1.048c0.698,0.698,1.048,1.543,1.048,2.535
			c0,0.68-0.217,1.368-0.651,2.062l-4.517,7.253h4.451c0.478,0,0.717,0.239,0.717,0.716c0,0.478-0.239,0.717-0.717,0.717h-5.732
			c-0.478,0-0.717-0.239-0.717-0.716c0-0.145,0.04-0.282,0.12-0.413l5.254-8.437c0.239-0.384,0.359-0.778,0.359-1.184
			c0-0.593-0.21-1.1-0.63-1.52c-0.42-0.42-0.927-0.63-1.52-0.63c-0.811,0-1.56,0.601-2.248,1.802
			c-0.13,0.232-0.336,0.348-0.619,0.348c-0.478,0-0.717-0.239-0.717-0.717c0-0.108,0.022-0.206,0.065-0.293
			C265.315,130.38,266.488,129.522,267.943,129.522z"/>
		<path style="fill:#5B5D65;" d="M275.825,142.421c0.478,0,0.717,0.235,0.717,0.706c0,0.065-0.246,1.082-0.738,3.051
			c-0.087,0.362-0.319,0.543-0.695,0.543c-0.478,0-0.717-0.239-0.717-0.716c0-0.326,0.246-1.339,0.738-3.04
			C275.232,142.602,275.463,142.421,275.825,142.421z"/>
		<path style="fill:#5B5D65;" d="M279.408,140.271c0-0.08,0.007-0.145,0.022-0.195l2.866-10.032
			c0.101-0.347,0.333-0.521,0.695-0.521c0.478,0,0.716,0.239,0.716,0.718c0,0.065-0.008,0.134-0.025,0.207l-2.613,9.107h3.355v-2.15
			c0-0.478,0.239-0.717,0.717-0.717c0.478,0,0.716,0.239,0.716,0.717v2.15h1.433c0.478,0,0.717,0.239,0.717,0.716
			c0,0.478-0.239,0.717-0.717,0.717h-1.433v2.149c0,0.478-0.239,0.717-0.716,0.717c-0.478,0-0.717-0.239-0.717-0.717v-2.149h-4.299
			C279.647,140.988,279.408,140.749,279.408,140.271z"/>
		<path style="fill:#5B5D65;" d="M294.991,137.405l-0.533,0c-0.479,0-0.718-0.239-0.718-0.717c0-0.478,0.238-0.716,0.714-0.716
			l0.845-0.001l1.125-5.015h-4.833c-0.478,0-0.717-0.239-0.717-0.717c0-0.478,0.239-0.716,0.717-0.716h5.732
			c0.471,0,0.709,0.231,0.717,0.695c0,0.043-0.007,0.102-0.022,0.174l-1.24,5.58l0.543,0c0.479,0,0.718,0.239,0.718,0.716
			c0,0.478-0.24,0.717-0.719,0.717l-0.872-0.001l-1.297,5.886c-0.087,0.376-0.314,0.564-0.684,0.564
			c-0.485,0-0.728-0.239-0.728-0.716c0-0.072,0.004-0.126,0.014-0.163L294.991,137.405z"/>
	</g>
	<g>
		<path style="fill:#5B5D65;" d="M428.312,131.972l-1.646,1.647c-0.138,0.135-0.305,0.203-0.501,0.203
			c-0.479,0-0.719-0.239-0.719-0.716c0-0.196,0.069-0.362,0.207-0.5l2.801-2.801c0.188-0.188,0.38-0.282,0.576-0.282
			c0.478,0,0.716,0.239,0.716,0.716v12.898c0,0.478-0.239,0.717-0.716,0.717s-0.717-0.239-0.717-0.716V131.972z"/>
		<path style="fill:#5B5D65;" d="M436.195,136.688h-1.433c-0.478,0-0.717-0.239-0.717-0.716c0-0.478,0.239-0.717,0.717-0.717h1.433
			c0.601,0,1.109-0.208,1.525-0.624c0.416-0.417,0.625-0.925,0.625-1.525c0-0.594-0.21-1.101-0.63-1.52
			c-0.42-0.42-0.927-0.63-1.52-0.63h-2.866c-0.478,0-0.717-0.239-0.717-0.717c0-0.478,0.239-0.716,0.717-0.716h2.866
			c0.992,0,1.836,0.351,2.535,1.053c0.698,0.702,1.048,1.545,1.048,2.53c0,1.187-0.478,2.143-1.433,2.866
			c0.955,0.724,1.433,1.679,1.433,2.866v1.433c0,0.992-0.351,1.837-1.053,2.535c-0.702,0.699-1.545,1.048-2.53,1.048h-2.866
			c-0.478,0-0.717-0.239-0.717-0.717c0-0.478,0.239-0.716,0.717-0.716h2.866c0.601,0,1.109-0.208,1.525-0.625
			c0.416-0.416,0.625-0.924,0.625-1.525v-1.433c0-0.593-0.21-1.1-0.63-1.52C437.295,136.898,436.788,136.688,436.195,136.688z"/>
		<path style="fill:#5B5D65;" d="M444.077,142.421c0.478,0,0.717,0.235,0.717,0.706c0,0.065-0.246,1.082-0.738,3.051
			c-0.087,0.362-0.319,0.543-0.695,0.543c-0.478,0-0.717-0.239-0.717-0.716c0-0.326,0.246-1.339,0.738-3.04
			C443.484,142.602,443.715,142.421,444.077,142.421z"/>
		<path style="fill:#5B5D65;" d="M451.243,143.854c-0.992,0-1.837-0.349-2.535-1.048c-0.699-0.698-1.048-1.543-1.048-2.535v-1.433
			c0-1.187,0.478-2.143,1.433-2.866c-0.956-0.724-1.433-1.679-1.433-2.866c0-0.992,0.349-1.837,1.048-2.535
			c0.698-0.699,1.543-1.048,2.535-1.048s1.836,0.349,2.535,1.048c0.698,0.698,1.048,1.543,1.048,2.535
			c0,1.187-0.478,2.143-1.433,2.866c0.688,0.521,1.122,1.162,1.303,1.922c0.087,0.383,0.13,1.176,0.13,2.377
			c0,0.992-0.35,1.837-1.048,2.535C453.08,143.505,452.235,143.854,451.243,143.854z M451.243,135.255
			c0.601,0,1.109-0.208,1.525-0.624c0.416-0.417,0.625-0.925,0.625-1.525c0-0.594-0.21-1.101-0.63-1.52
			c-0.42-0.42-0.927-0.63-1.52-0.63c-0.601,0-1.109,0.208-1.525,0.624c-0.417,0.417-0.625,0.925-0.625,1.526
			c0,0.601,0.208,1.109,0.625,1.525C450.134,135.047,450.642,135.255,451.243,135.255z M451.243,142.421
			c0.601,0,1.109-0.208,1.525-0.625c0.416-0.416,0.625-0.924,0.625-1.525v-1.433c0-0.593-0.21-1.1-0.63-1.52
			c-0.42-0.419-0.927-0.63-1.52-0.63c-0.601,0-1.109,0.208-1.525,0.625c-0.417,0.417-0.625,0.925-0.625,1.525v1.433
			c0,0.601,0.208,1.109,0.625,1.525C450.134,142.213,450.642,142.421,451.243,142.421z"/>
		<path style="fill:#5B5D65;" d="M462.708,129.522c0.478,0,0.717,0.239,0.717,0.716c0,0.355-0.12,0.561-0.358,0.619
			c-1.064,0.268-1.994,0.905-2.791,1.911c-0.629,0.796-0.995,1.625-1.097,2.486h2.096c1.013,0,1.864,0.348,2.551,1.042
			s1.032,1.542,1.032,2.541v1.433c0,0.999-0.35,1.846-1.048,2.541c-0.699,0.695-1.543,1.042-2.535,1.042
			c-0.999,0-1.846-0.346-2.541-1.037c-0.695-0.691-1.042-1.532-1.042-2.524v-4.321c0-1.622,0.539-3.043,1.618-4.267
			c0.84-0.948,1.755-1.621,2.747-2.02C462.339,129.576,462.557,129.522,462.708,129.522z M459.125,136.688v3.583
			c0,0.601,0.208,1.109,0.625,1.525c0.416,0.417,0.924,0.625,1.525,0.625c0.601,0,1.109-0.21,1.525-0.63
			c0.416-0.419,0.625-0.926,0.625-1.52v-1.433c0-0.601-0.21-1.109-0.63-1.525c-0.42-0.416-0.927-0.625-1.52-0.625H459.125z"/>
	</g>
	<g>
		<path style="fill:#5B5D65;" d="M417.546,433.954h-1.433c-0.478,0-0.717-0.239-0.717-0.716c0-0.478,0.239-0.717,0.717-0.717h1.433
			c0.601,0,1.109-0.208,1.525-0.624c0.416-0.417,0.625-0.925,0.625-1.525c0-0.594-0.21-1.101-0.63-1.52
			c-0.42-0.42-0.927-0.63-1.52-0.63h-2.866c-0.478,0-0.717-0.239-0.717-0.717c0-0.478,0.239-0.716,0.717-0.716h2.866
			c0.992,0,1.836,0.351,2.535,1.053c0.698,0.702,1.048,1.545,1.048,2.53c0,1.187-0.478,2.143-1.433,2.866
			c0.955,0.724,1.433,1.679,1.433,2.866v1.433c0,0.992-0.351,1.837-1.053,2.535c-0.702,0.699-1.545,1.048-2.53,1.048h-2.866
			c-0.478,0-0.717-0.239-0.717-0.717c0-0.478,0.239-0.716,0.717-0.716h2.866c0.601,0,1.109-0.208,1.525-0.625
			c0.416-0.416,0.625-0.924,0.625-1.525v-1.433c0-0.593-0.21-1.1-0.63-1.52C418.646,434.164,418.14,433.954,417.546,433.954z"/>
		<path style="fill:#5B5D65;" d="M425.429,439.687c0.478,0,0.717,0.235,0.717,0.706c0,0.065-0.246,1.082-0.738,3.051
			c-0.087,0.362-0.319,0.543-0.695,0.543c-0.478,0-0.717-0.239-0.717-0.716c0-0.326,0.246-1.339,0.738-3.04
			C424.835,439.868,425.067,439.687,425.429,439.687z"/>
		<path style="fill:#5B5D65;" d="M429.012,433.238v-5.733c0-0.478,0.239-0.716,0.717-0.716h5.016c0.478,0,0.716,0.239,0.716,0.716
			c0,0.478-0.239,0.717-0.716,0.717h-4.3v4.299h2.15c0.992,0,1.836,0.351,2.535,1.053c0.698,0.702,1.048,1.545,1.048,2.53v1.433
			c0,0.992-0.351,1.837-1.053,2.535c-0.702,0.699-1.545,1.048-2.53,1.048h-2.866c-0.478,0-0.717-0.239-0.717-0.717
			c0-0.478,0.239-0.716,0.717-0.716h2.866c0.601,0,1.109-0.208,1.525-0.625c0.416-0.416,0.625-0.924,0.625-1.525v-1.433
			c0-0.593-0.21-1.1-0.63-1.52c-0.42-0.419-0.927-0.63-1.52-0.63h-2.866C429.25,433.954,429.012,433.715,429.012,433.238z"/>
		<path style="fill:#5B5D65;" d="M439.044,437.537c0-0.08,0.007-0.145,0.022-0.195l2.866-10.032
			c0.101-0.347,0.333-0.521,0.695-0.521c0.478,0,0.716,0.239,0.716,0.718c0,0.065-0.008,0.134-0.025,0.207l-2.613,9.107h3.355v-2.15
			c0-0.478,0.239-0.717,0.717-0.717c0.478,0,0.716,0.239,0.716,0.717v2.15h1.433c0.478,0,0.717,0.239,0.717,0.716
			c0,0.478-0.239,0.717-0.717,0.717h-1.433v2.149c0,0.478-0.239,0.717-0.716,0.717c-0.478,0-0.717-0.239-0.717-0.717v-2.149h-4.299
			C439.283,438.254,439.044,438.015,439.044,437.537z"/>
	</g>
	<g>
		<path style="fill:#5B5D65;" d="M488.442,540.375h-1.433c-0.478,0-0.717-0.239-0.717-0.716c0-0.478,0.239-0.717,0.717-0.717h1.433
			c0.601,0,1.109-0.208,1.525-0.624c0.416-0.417,0.625-0.925,0.625-1.525c0-0.594-0.21-1.101-0.63-1.52
			c-0.42-0.42-0.927-0.63-1.52-0.63h-2.866c-0.478,0-0.717-0.239-0.717-0.717c0-0.478,0.239-0.716,0.717-0.716h2.866
			c0.992,0,1.836,0.351,2.535,1.053c0.698,0.702,1.048,1.545,1.048,2.53c0,1.187-0.478,2.143-1.433,2.866
			c0.955,0.724,1.433,1.679,1.433,2.866v1.433c0,0.992-0.351,1.837-1.053,2.535c-0.702,0.699-1.545,1.048-2.53,1.048h-2.866
			c-0.478,0-0.717-0.239-0.717-0.717c0-0.478,0.239-0.716,0.717-0.716h2.866c0.601,0,1.109-0.208,1.525-0.625
			c0.416-0.416,0.625-0.924,0.625-1.525v-1.433c0-0.593-0.21-1.1-0.63-1.52C489.542,540.586,489.035,540.375,488.442,540.375z"/>
		<path style="fill:#5B5D65;" d="M496.324,546.108c0.478,0,0.717,0.235,0.717,0.706c0,0.065-0.246,1.082-0.738,3.051
			c-0.087,0.362-0.319,0.543-0.695,0.543c-0.478,0-0.717-0.239-0.717-0.716c0-0.326,0.246-1.339,0.738-3.04
			C495.731,546.289,495.962,546.108,496.324,546.108z"/>
		<path style="fill:#5B5D65;" d="M503.49,547.541c-0.992,0-1.837-0.349-2.535-1.048c-0.699-0.698-1.048-1.543-1.048-2.535v-1.433
			c0-1.187,0.478-2.143,1.433-2.866c-0.956-0.724-1.433-1.679-1.433-2.866c0-0.992,0.349-1.837,1.048-2.535
			c0.698-0.699,1.543-1.048,2.535-1.048s1.836,0.349,2.535,1.048c0.698,0.698,1.048,1.543,1.048,2.535
			c0,1.187-0.478,2.143-1.433,2.866c0.688,0.521,1.122,1.162,1.303,1.922c0.087,0.383,0.13,1.176,0.13,2.377
			c0,0.992-0.35,1.837-1.048,2.535C505.327,547.192,504.482,547.541,503.49,547.541z M503.49,538.942
			c0.601,0,1.109-0.208,1.525-0.624c0.416-0.417,0.625-0.925,0.625-1.525c0-0.594-0.21-1.101-0.63-1.52
			c-0.42-0.42-0.927-0.63-1.52-0.63c-0.601,0-1.109,0.208-1.525,0.624c-0.417,0.417-0.625,0.925-0.625,1.526
			c0,0.601,0.208,1.109,0.625,1.525C502.381,538.734,502.889,538.942,503.49,538.942z M503.49,546.108
			c0.601,0,1.109-0.208,1.525-0.625c0.416-0.416,0.625-0.924,0.625-1.525v-1.433c0-0.593-0.21-1.1-0.63-1.52
			c-0.42-0.419-0.927-0.63-1.52-0.63c-0.601,0-1.109,0.208-1.525,0.625c-0.417,0.417-0.625,0.925-0.625,1.525v1.433
			c0,0.601,0.208,1.109,0.625,1.525C502.381,545.9,502.889,546.108,503.49,546.108z"/>
		<path style="fill:#5B5D65;" d="M512.806,535.659l-1.646,1.647c-0.138,0.135-0.305,0.203-0.501,0.203
			c-0.479,0-0.719-0.239-0.719-0.716c0-0.196,0.069-0.362,0.207-0.5l2.801-2.801c0.188-0.188,0.38-0.282,0.576-0.282
			c0.478,0,0.716,0.239,0.716,0.716v12.898c0,0.478-0.239,0.717-0.716,0.717s-0.717-0.239-0.717-0.716V535.659z"/>
	</g>
	<g>
		<path style="fill:#5B5D65;" d="M625.745,602.632c-0.992,0-1.837-0.349-2.535-1.048c-0.699-0.698-1.048-1.543-1.048-2.535v-1.433
			c0-1.187,0.478-2.143,1.433-2.866c-0.956-0.724-1.433-1.679-1.433-2.866c0-0.992,0.349-1.837,1.048-2.535
			c0.698-0.699,1.543-1.048,2.535-1.048s1.836,0.349,2.535,1.048c0.698,0.698,1.048,1.543,1.048,2.535
			c0,1.187-0.478,2.143-1.433,2.866c0.688,0.521,1.122,1.162,1.303,1.922c0.087,0.383,0.13,1.176,0.13,2.377
			c0,0.992-0.35,1.837-1.048,2.535C627.581,602.283,626.736,602.632,625.745,602.632z M625.745,594.033
			c0.601,0,1.109-0.208,1.525-0.624c0.416-0.417,0.625-0.925,0.625-1.525c0-0.594-0.21-1.101-0.63-1.52
			c-0.42-0.42-0.927-0.63-1.52-0.63c-0.601,0-1.109,0.208-1.525,0.624c-0.417,0.417-0.625,0.925-0.625,1.526
			c0,0.601,0.208,1.109,0.625,1.525C624.635,593.825,625.144,594.033,625.745,594.033z M625.745,601.199
			c0.601,0,1.109-0.208,1.525-0.625c0.416-0.416,0.625-0.924,0.625-1.525v-1.433c0-0.593-0.21-1.1-0.63-1.52
			c-0.42-0.419-0.927-0.63-1.52-0.63c-0.601,0-1.109,0.208-1.525,0.625c-0.417,0.417-0.625,0.925-0.625,1.525v1.433
			c0,0.601,0.208,1.109,0.625,1.525C624.635,600.991,625.144,601.199,625.745,601.199z"/>
		<path style="fill:#5B5D65;" d="M633.627,601.199c0.478,0,0.717,0.235,0.717,0.706c0,0.065-0.246,1.082-0.738,3.051
			c-0.087,0.362-0.319,0.543-0.695,0.543c-0.478,0-0.717-0.239-0.717-0.716c0-0.326,0.246-1.339,0.738-3.04
			C633.034,601.38,633.265,601.199,633.627,601.199z"/>
		<path style="fill:#5B5D65;" d="M639.36,602.632c-0.188,0-0.355-0.072-0.5-0.217c-0.145-0.145-0.217-0.311-0.217-0.5
			c0-0.333,0.12-0.539,0.358-0.619c0.521-0.174,0.956-0.373,1.303-0.597c1.542-0.999,2.403-2.266,2.584-3.8h-2.095
			c-0.992,0-1.837-0.35-2.535-1.048c-0.699-0.699-1.048-1.543-1.048-2.535v-1.433c0-0.992,0.349-1.837,1.048-2.535
			c0.698-0.699,1.543-1.048,2.535-1.048c0.999,0,1.846,0.346,2.541,1.037c0.695,0.691,1.042,1.533,1.042,2.524v4.321
			c0,2.432-1.133,4.354-3.398,5.765C640.246,602.404,639.707,602.632,639.36,602.632z M642.943,595.466v-3.583
			c0-0.594-0.21-1.101-0.63-1.52c-0.42-0.42-0.927-0.63-1.52-0.63c-0.594,0-1.101,0.21-1.52,0.63c-0.42,0.419-0.63,0.926-0.63,1.52
			v1.433c0,0.601,0.208,1.109,0.625,1.525c0.416,0.416,0.924,0.624,1.525,0.624H642.943z"/>
		<path style="fill:#5B5D65;" d="M650.825,602.632c-0.992,0-1.837-0.349-2.535-1.048c-0.699-0.698-1.048-1.543-1.048-2.535v-1.433
			c0-1.187,0.478-2.143,1.433-2.866c-0.956-0.724-1.433-1.679-1.433-2.866c0-0.992,0.349-1.837,1.048-2.535
			c0.698-0.699,1.543-1.048,2.535-1.048s1.836,0.349,2.535,1.048c0.698,0.698,1.048,1.543,1.048,2.535
			c0,1.187-0.478,2.143-1.433,2.866c0.688,0.521,1.122,1.162,1.303,1.922c0.087,0.383,0.13,1.176,0.13,2.377
			c0,0.992-0.35,1.837-1.048,2.535C652.662,602.283,651.817,602.632,650.825,602.632z M650.825,594.033
			c0.601,0,1.109-0.208,1.525-0.624c0.416-0.417,0.625-0.925,0.625-1.525c0-0.594-0.21-1.101-0.63-1.52
			c-0.42-0.42-0.927-0.63-1.52-0.63c-0.601,0-1.109,0.208-1.525,0.624c-0.417,0.417-0.625,0.925-0.625,1.526
			c0,0.601,0.208,1.109,0.625,1.525C649.716,593.825,650.224,594.033,650.825,594.033z M650.825,601.199
			c0.601,0,1.109-0.208,1.525-0.625c0.416-0.416,0.625-0.924,0.625-1.525v-1.433c0-0.593-0.21-1.1-0.63-1.52
			c-0.42-0.419-0.927-0.63-1.52-0.63c-0.601,0-1.109,0.208-1.525,0.625c-0.417,0.417-0.625,0.925-0.625,1.525v1.433
			c0,0.601,0.208,1.109,0.625,1.525C649.716,600.991,650.224,601.199,650.825,601.199z"/>
	</g>
	<g>
		<path style="fill:#5B5D65;" d="M689.895,588.301c0.992,0,1.836,0.349,2.535,1.048c0.698,0.698,1.048,1.543,1.048,2.535
			c0,0.68-0.217,1.368-0.651,2.062l-4.517,7.253h4.451c0.478,0,0.717,0.239,0.717,0.716c0,0.478-0.239,0.717-0.717,0.717h-5.732
			c-0.478,0-0.717-0.239-0.717-0.716c0-0.145,0.04-0.282,0.12-0.413l5.254-8.437c0.239-0.384,0.359-0.778,0.359-1.184
			c0-0.593-0.21-1.1-0.63-1.52c-0.42-0.42-0.927-0.63-1.52-0.63c-0.811,0-1.56,0.601-2.248,1.802
			c-0.13,0.232-0.336,0.348-0.619,0.348c-0.478,0-0.717-0.239-0.717-0.717c0-0.108,0.022-0.206,0.065-0.293
			C687.268,589.158,688.44,588.301,689.895,588.301z"/>
		<path style="fill:#5B5D65;" d="M697.777,601.199c0.478,0,0.717,0.235,0.717,0.706c0,0.065-0.246,1.082-0.738,3.051
			c-0.087,0.362-0.319,0.543-0.695,0.543c-0.478,0-0.717-0.239-0.717-0.716c0-0.326,0.246-1.339,0.738-3.04
			C697.184,601.38,697.416,601.199,697.777,601.199z"/>
		<path style="fill:#5B5D65;" d="M701.36,594.75v-5.733c0-0.478,0.239-0.716,0.717-0.716h5.016c0.478,0,0.716,0.239,0.716,0.716
			c0,0.478-0.239,0.717-0.716,0.717h-4.3v4.299h2.15c0.992,0,1.836,0.351,2.535,1.053c0.698,0.702,1.048,1.545,1.048,2.53v1.433
			c0,0.992-0.351,1.837-1.053,2.535c-0.702,0.699-1.545,1.048-2.53,1.048h-2.866c-0.478,0-0.717-0.239-0.717-0.717
			c0-0.478,0.239-0.716,0.717-0.716h2.866c0.601,0,1.109-0.208,1.525-0.625c0.416-0.416,0.625-0.924,0.625-1.525v-1.433
			c0-0.593-0.21-1.1-0.63-1.52c-0.42-0.419-0.927-0.63-1.52-0.63h-2.866C701.599,595.466,701.36,595.227,701.36,594.75z"/>
		<path style="fill:#5B5D65;" d="M714.259,590.75l-1.646,1.647c-0.138,0.135-0.305,0.203-0.501,0.203
			c-0.479,0-0.719-0.239-0.719-0.716c0-0.196,0.069-0.362,0.207-0.5l2.801-2.801c0.188-0.188,0.38-0.282,0.576-0.282
			c0.478,0,0.716,0.239,0.716,0.716v12.898c0,0.478-0.239,0.717-0.716,0.717s-0.717-0.239-0.717-0.716V590.75z"/>
	</g>
	<g>
		<path style="fill:#5B5D65;" d="M687.464,426.788c0.992,0,1.836,0.349,2.535,1.048c0.698,0.698,1.048,1.543,1.048,2.535
			c0,0.68-0.217,1.368-0.651,2.062l-4.517,7.253h4.451c0.478,0,0.717,0.239,0.717,0.716c0,0.478-0.239,0.717-0.717,0.717h-5.732
			c-0.478,0-0.717-0.239-0.717-0.716c0-0.145,0.04-0.282,0.12-0.413l5.254-8.437c0.239-0.384,0.359-0.778,0.359-1.184
			c0-0.593-0.21-1.1-0.63-1.52c-0.42-0.42-0.927-0.63-1.52-0.63c-0.811,0-1.56,0.601-2.248,1.802
			c-0.13,0.232-0.336,0.348-0.619,0.348c-0.478,0-0.717-0.239-0.717-0.717c0-0.108,0.022-0.206,0.065-0.293
			C684.837,427.646,686.009,426.788,687.464,426.788z"/>
		<path style="fill:#5B5D65;" d="M695.347,439.687c0.478,0,0.717,0.235,0.717,0.706c0,0.065-0.246,1.082-0.738,3.051
			c-0.087,0.362-0.319,0.543-0.695,0.543c-0.478,0-0.717-0.239-0.717-0.716c0-0.326,0.246-1.339,0.738-3.04
			C694.753,439.868,694.985,439.687,695.347,439.687z"/>
		<path style="fill:#5B5D65;" d="M703.047,434.671l-0.533,0c-0.479,0-0.718-0.239-0.718-0.717c0-0.478,0.238-0.716,0.714-0.716
			l0.845-0.001l1.125-5.015h-4.833c-0.478,0-0.717-0.239-0.717-0.717c0-0.478,0.239-0.716,0.717-0.716h5.732
			c0.471,0,0.709,0.231,0.717,0.695c0,0.043-0.007,0.102-0.022,0.174l-1.24,5.58l0.543,0c0.479,0,0.718,0.239,0.718,0.716
			c0,0.478-0.24,0.717-0.719,0.717l-0.872-0.001l-1.297,5.886c-0.087,0.376-0.314,0.564-0.684,0.564
			c-0.485,0-0.728-0.239-0.728-0.716c0-0.072,0.004-0.126,0.014-0.163L703.047,434.671z"/>
		<path style="fill:#5B5D65;" d="M711.112,441.12c-0.188,0-0.355-0.072-0.5-0.217c-0.145-0.145-0.217-0.311-0.217-0.5
			c0-0.333,0.12-0.539,0.358-0.619c0.521-0.174,0.956-0.373,1.303-0.597c1.542-0.999,2.403-2.266,2.584-3.8h-2.095
			c-0.992,0-1.837-0.35-2.535-1.048c-0.699-0.699-1.048-1.543-1.048-2.535v-1.433c0-0.992,0.349-1.837,1.048-2.535
			c0.698-0.699,1.543-1.048,2.535-1.048c0.999,0,1.846,0.346,2.541,1.037c0.695,0.691,1.042,1.533,1.042,2.524v4.321
			c0,2.432-1.133,4.354-3.398,5.765C711.998,440.892,711.459,441.12,711.112,441.12z M714.695,433.954v-3.583
			c0-0.594-0.21-1.101-0.63-1.52c-0.42-0.42-0.927-0.63-1.52-0.63c-0.594,0-1.101,0.21-1.52,0.63c-0.42,0.419-0.63,0.926-0.63,1.52
			v1.433c0,0.601,0.208,1.109,0.625,1.525c0.416,0.416,0.924,0.624,1.525,0.624H714.695z"/>
	</g>
	<g>
		<path style="fill:#5B5D65;" d="M710.147,131.972l-1.646,1.647c-0.138,0.135-0.305,0.203-0.501,0.203
			c-0.479,0-0.719-0.239-0.719-0.716c0-0.196,0.069-0.362,0.207-0.5l2.801-2.801c0.188-0.188,0.38-0.282,0.576-0.282
			c0.478,0,0.716,0.239,0.716,0.716v12.898c0,0.478-0.239,0.717-0.716,0.717s-0.717-0.239-0.717-0.716V131.972z"/>
		<path style="fill:#5B5D65;" d="M718.03,136.688h-1.433c-0.478,0-0.717-0.239-0.717-0.716c0-0.478,0.239-0.717,0.717-0.717h1.433
			c0.601,0,1.109-0.208,1.525-0.624c0.416-0.417,0.625-0.925,0.625-1.525c0-0.594-0.21-1.101-0.63-1.52
			c-0.42-0.42-0.927-0.63-1.52-0.63h-2.866c-0.478,0-0.717-0.239-0.717-0.717c0-0.478,0.239-0.716,0.717-0.716h2.866
			c0.992,0,1.836,0.351,2.535,1.053c0.698,0.702,1.047,1.545,1.047,2.53c0,1.187-0.478,2.143-1.433,2.866
			c0.955,0.724,1.433,1.679,1.433,2.866v1.433c0,0.992-0.351,1.837-1.053,2.535c-0.702,0.699-1.545,1.048-2.53,1.048h-2.866
			c-0.478,0-0.717-0.239-0.717-0.717c0-0.478,0.239-0.716,0.717-0.716h2.866c0.601,0,1.109-0.208,1.525-0.625
			c0.416-0.416,0.625-0.924,0.625-1.525v-1.433c0-0.593-0.21-1.1-0.63-1.52C719.13,136.898,718.623,136.688,718.03,136.688z"/>
		<path style="fill:#5B5D65;" d="M725.912,142.421c0.478,0,0.717,0.235,0.717,0.706c0,0.065-0.246,1.082-0.738,3.051
			c-0.087,0.362-0.318,0.543-0.695,0.543c-0.478,0-0.716-0.239-0.716-0.716c0-0.326,0.245-1.339,0.738-3.04
			C725.318,142.602,725.55,142.421,725.912,142.421z"/>
		<path style="fill:#5B5D65;" d="M736.66,136.688c0,1.708-0.21,3.185-0.629,4.43c-0.616,1.824-1.601,2.736-2.954,2.736
			s-2.338-0.908-2.953-2.725c-0.42-1.245-0.629-2.725-0.629-4.441c0-1.715,0.209-3.195,0.629-4.44
			c0.615-1.817,1.6-2.725,2.953-2.725s2.338,0.912,2.954,2.736C736.45,133.503,736.66,134.98,736.66,136.688z M735.228,136.688
			c0-1.187-0.127-2.305-0.38-3.354c-0.384-1.585-0.974-2.378-1.771-2.378c-0.788,0-1.375,0.796-1.759,2.389
			c-0.26,1.071-0.391,2.186-0.391,3.344c0,1.18,0.127,2.298,0.38,3.355c0.384,1.585,0.974,2.378,1.77,2.378
			c0.797,0,1.387-0.792,1.771-2.378C735.101,138.986,735.228,137.868,735.228,136.688z"/>
		<path style="fill:#5B5D65;" d="M746.692,136.688c0,1.708-0.21,3.185-0.629,4.43c-0.616,1.824-1.601,2.736-2.954,2.736
			s-2.338-0.908-2.953-2.725c-0.42-1.245-0.629-2.725-0.629-4.441c0-1.715,0.209-3.195,0.629-4.44
			c0.615-1.817,1.6-2.725,2.953-2.725s2.338,0.912,2.954,2.736C746.482,133.503,746.692,134.98,746.692,136.688z M745.26,136.688
			c0-1.187-0.127-2.305-0.38-3.354c-0.384-1.585-0.974-2.378-1.771-2.378c-0.788,0-1.375,0.796-1.759,2.389
			c-0.26,1.071-0.391,2.186-0.391,3.344c0,1.18,0.127,2.298,0.38,3.355c0.384,1.585,0.974,2.378,1.77,2.378
			c0.797,0,1.387-0.792,1.771-2.378C745.133,138.986,745.26,137.868,745.26,136.688z"/>
	</g>
	<g>
		<path style="fill:#5B5D65;" d="M644.738,31.854c0.992,0,1.836,0.349,2.535,1.048c0.698,0.698,1.048,1.543,1.048,2.535
			c0,0.68-0.217,1.368-0.651,2.062l-4.517,7.253h4.451c0.478,0,0.717,0.239,0.717,0.716c0,0.478-0.239,0.717-0.717,0.717h-5.732
			c-0.478,0-0.717-0.239-0.717-0.716c0-0.145,0.04-0.282,0.12-0.413l5.254-8.437c0.239-0.384,0.359-0.778,0.359-1.184
			c0-0.593-0.21-1.1-0.63-1.52c-0.42-0.42-0.927-0.63-1.52-0.63c-0.811,0-1.56,0.601-2.248,1.802
			c-0.13,0.232-0.336,0.348-0.619,0.348c-0.478,0-0.717-0.239-0.717-0.717c0-0.108,0.022-0.206,0.065-0.293
			C642.11,32.711,643.283,31.854,644.738,31.854z"/>
		<path style="fill:#5B5D65;" d="M652.62,44.752c0.478,0,0.717,0.235,0.717,0.706c0,0.065-0.246,1.082-0.738,3.051
			c-0.087,0.362-0.319,0.543-0.695,0.543c-0.478,0-0.717-0.239-0.717-0.716c0-0.326,0.246-1.339,0.738-3.04
			C652.027,44.933,652.258,44.752,652.62,44.752z"/>
		<path style="fill:#5B5D65;" d="M659.069,34.303l-1.646,1.647c-0.138,0.135-0.305,0.203-0.501,0.203
			c-0.479,0-0.719-0.239-0.719-0.716c0-0.196,0.069-0.362,0.207-0.5l2.801-2.801c0.188-0.188,0.38-0.282,0.576-0.282
			c0.478,0,0.716,0.239,0.716,0.716v12.898c0,0.478-0.239,0.717-0.716,0.717s-0.717-0.239-0.717-0.716V34.303z"/>
		<path style="fill:#5B5D65;" d="M665.519,46.185c-0.188,0-0.355-0.072-0.5-0.217c-0.145-0.145-0.217-0.311-0.217-0.5
			c0-0.333,0.12-0.539,0.358-0.619c0.521-0.174,0.956-0.373,1.303-0.597c1.542-0.999,2.403-2.266,2.584-3.8h-2.095
			c-0.992,0-1.837-0.35-2.535-1.048c-0.699-0.699-1.048-1.543-1.048-2.535v-1.433c0-0.992,0.349-1.837,1.048-2.535
			c0.698-0.699,1.543-1.048,2.535-1.048c0.999,0,1.846,0.346,2.541,1.037c0.695,0.691,1.042,1.533,1.042,2.524v4.321
			c0,2.432-1.133,4.354-3.398,5.765C666.405,45.957,665.866,46.185,665.519,46.185z M669.102,39.019v-3.583
			c0-0.594-0.21-1.101-0.63-1.52c-0.42-0.42-0.927-0.63-1.52-0.63c-0.594,0-1.101,0.21-1.52,0.63c-0.42,0.419-0.63,0.926-0.63,1.52
			v1.433c0,0.601,0.208,1.109,0.625,1.525c0.416,0.416,0.924,0.624,1.525,0.624H669.102z"/>
		<path style="fill:#5B5D65;" d="M683.434,39.019c0,1.448,0.141,2.885,0.423,4.311c0.167,0.854,0.485,1.958,0.956,3.312
			c0.036,0.101,0.054,0.188,0.054,0.261c0,0.195-0.072,0.363-0.217,0.505c-0.145,0.141-0.315,0.211-0.51,0.211
			c-0.304,0-0.507-0.112-0.608-0.336c-0.398-0.854-0.753-2.048-1.064-3.583S682,40.605,682,39.019c0-1.585,0.156-3.145,0.467-4.679
			s0.666-2.729,1.064-3.583c0.102-0.224,0.304-0.336,0.608-0.336c0.485,0,0.727,0.239,0.727,0.716c0,0.073-0.018,0.159-0.054,0.261
			c-0.471,1.354-0.789,2.458-0.956,3.312C683.575,36.135,683.434,37.572,683.434,39.019z"/>
		<path style="fill:#5B5D65;" d="M694.899,39.019c0,1.708-0.21,3.185-0.63,4.43c-0.615,1.824-1.6,2.736-2.953,2.736
			s-2.338-0.908-2.953-2.725c-0.42-1.245-0.63-2.725-0.63-4.441c0-1.715,0.21-3.195,0.63-4.44c0.615-1.817,1.6-2.725,2.953-2.725
			s2.338,0.912,2.953,2.736C694.689,35.835,694.899,37.311,694.899,39.019z M693.466,39.019c0-1.187-0.127-2.305-0.38-3.354
			c-0.384-1.585-0.974-2.378-1.77-2.378c-0.789,0-1.375,0.796-1.759,2.389c-0.261,1.071-0.391,2.186-0.391,3.344
			c0,1.18,0.126,2.298,0.38,3.355c0.384,1.585,0.974,2.378,1.77,2.378c0.796,0,1.386-0.792,1.77-2.378
			C693.339,41.318,693.466,40.199,693.466,39.019z"/>
		<path style="fill:#5B5D65;" d="M699.198,44.752c0.478,0,0.717,0.235,0.717,0.706c0,0.065-0.246,1.082-0.738,3.051
			c-0.087,0.362-0.319,0.543-0.695,0.543c-0.478,0-0.717-0.239-0.717-0.716c0-0.326,0.246-1.339,0.738-3.04
			C698.605,44.933,698.836,44.752,699.198,44.752z"/>
		<path style="fill:#5B5D65;" d="M707.797,31.854c0.478,0,0.717,0.239,0.717,0.716c0,0.355-0.12,0.561-0.358,0.619
			c-1.064,0.268-1.994,0.905-2.791,1.911c-0.629,0.796-0.995,1.625-1.097,2.486h2.096c1.013,0,1.864,0.348,2.551,1.042
			s1.032,1.542,1.032,2.541v1.433c0,0.999-0.35,1.846-1.048,2.541c-0.699,0.695-1.543,1.042-2.535,1.042
			c-0.999,0-1.846-0.346-2.541-1.037c-0.695-0.691-1.042-1.532-1.042-2.524v-4.321c0-1.622,0.539-3.043,1.618-4.267
			c0.84-0.948,1.755-1.621,2.747-2.02C707.428,31.908,707.646,31.854,707.797,31.854z M704.214,39.019v3.583
			c0,0.601,0.208,1.109,0.625,1.525c0.416,0.417,0.924,0.625,1.525,0.625c0.601,0,1.109-0.21,1.525-0.63
			c0.416-0.419,0.625-0.926,0.625-1.52v-1.433c0-0.601-0.21-1.109-0.63-1.525c-0.42-0.416-0.927-0.625-1.52-0.625H704.214z"/>
		<path style="fill:#5B5D65;" d="M717.83,31.854c0.478,0,0.717,0.239,0.717,0.716c0,0.355-0.12,0.561-0.358,0.619
			c-1.064,0.268-1.994,0.905-2.791,1.911c-0.629,0.796-0.995,1.625-1.097,2.486h2.096c1.013,0,1.864,0.348,2.551,1.042
			s1.032,1.542,1.032,2.541v1.433c0,0.999-0.35,1.846-1.048,2.541c-0.699,0.695-1.543,1.042-2.535,1.042
			c-0.999,0-1.846-0.346-2.541-1.037c-0.695-0.691-1.042-1.532-1.042-2.524v-4.321c0-1.622,0.539-3.043,1.618-4.267
			c0.84-0.948,1.755-1.621,2.747-2.02C717.46,31.908,717.678,31.854,717.83,31.854z M714.247,39.019v3.583
			c0,0.601,0.208,1.109,0.625,1.525c0.416,0.417,0.924,0.625,1.525,0.625c0.601,0,1.109-0.21,1.525-0.63
			c0.416-0.419,0.625-0.926,0.625-1.52v-1.433c0-0.601-0.21-1.109-0.63-1.525c-0.42-0.416-0.927-0.625-1.52-0.625H714.247z"/>
		<path style="fill:#5B5D65;" d="M724.278,39.019c0-1.447-0.141-2.884-0.423-4.31c-0.16-0.804-0.481-1.907-0.967-3.312
			c-0.029-0.087-0.043-0.174-0.043-0.261c0-0.195,0.072-0.364,0.217-0.505s0.314-0.211,0.51-0.211c0.305,0,0.507,0.112,0.608,0.336
			c0.398,0.854,0.753,2.048,1.064,3.583c0.311,1.535,0.467,3.094,0.467,4.679c0,1.585-0.156,3.145-0.467,4.68
			c-0.312,1.535-0.666,2.729-1.064,3.583c-0.102,0.224-0.304,0.336-0.608,0.336c-0.188,0-0.356-0.072-0.505-0.217
			c-0.148-0.145-0.222-0.311-0.222-0.499c0-0.087,0.014-0.174,0.043-0.261c0.485-1.404,0.807-2.508,0.967-3.312
			C724.138,41.904,724.278,40.467,724.278,39.019z"/>
	</g>
	<g>
		<path style="fill:#5B5D65;" d="M710.272,899.545l-1.646,1.647c-0.138,0.135-0.305,0.203-0.501,0.203
			c-0.479,0-0.719-0.239-0.719-0.716c0-0.196,0.069-0.362,0.207-0.5l2.801-2.801c0.188-0.188,0.38-0.282,0.576-0.282
			c0.478,0,0.716,0.239,0.716,0.716v12.898c0,0.478-0.239,0.717-0.716,0.717s-0.717-0.239-0.717-0.716V899.545z"/>
		<path style="fill:#5B5D65;" d="M714.572,907.844c0-0.08,0.007-0.145,0.022-0.195l2.866-10.032
			c0.101-0.347,0.333-0.521,0.695-0.521c0.478,0,0.716,0.239,0.716,0.718c0,0.065-0.008,0.134-0.025,0.207l-2.613,9.107h3.355v-2.15
			c0-0.478,0.239-0.717,0.717-0.717c0.478,0,0.716,0.239,0.716,0.717v2.15h1.433c0.478,0,0.717,0.239,0.717,0.716
			c0,0.478-0.239,0.717-0.717,0.717h-1.433v2.149c0,0.478-0.239,0.717-0.716,0.717c-0.478,0-0.717-0.239-0.717-0.717v-2.149h-4.299
			C714.811,908.561,714.572,908.322,714.572,907.844z"/>
		<path style="fill:#5B5D65;" d="M727.47,909.994c0.478,0,0.717,0.235,0.717,0.706c0,0.065-0.246,1.082-0.738,3.051
			c-0.087,0.362-0.318,0.543-0.695,0.543c-0.478,0-0.716-0.239-0.716-0.716c0-0.326,0.245-1.339,0.738-3.04
			C726.876,910.175,727.107,909.994,727.47,909.994z"/>
		<path style="fill:#5B5D65;" d="M735.17,904.978l-0.533,0c-0.479,0-0.718-0.239-0.718-0.717c0-0.478,0.237-0.716,0.714-0.716
			l0.845-0.001l1.125-5.015h-4.833c-0.479,0-0.717-0.239-0.717-0.717c0-0.478,0.238-0.716,0.716-0.716h5.733
			c0.47,0,0.709,0.231,0.716,0.695c0,0.043-0.007,0.102-0.021,0.174l-1.24,5.58l0.544,0c0.479,0,0.718,0.239,0.718,0.716
			c0,0.478-0.239,0.717-0.719,0.717l-0.872-0.001l-1.297,5.886c-0.087,0.376-0.314,0.564-0.684,0.564
			c-0.485,0-0.728-0.239-0.728-0.716c0-0.072,0.004-0.126,0.013-0.163L735.17,904.978z"/>
		<path style="fill:#5B5D65;" d="M748.25,904.261c0,1.708-0.21,3.185-0.629,4.43c-0.616,1.824-1.601,2.736-2.954,2.736
			s-2.338-0.908-2.953-2.725c-0.42-1.245-0.629-2.725-0.629-4.441c0-1.715,0.209-3.195,0.629-4.44
			c0.615-1.817,1.6-2.725,2.953-2.725s2.338,0.912,2.954,2.736C748.04,901.076,748.25,902.553,748.25,904.261z M746.817,904.261
			c0-1.187-0.127-2.305-0.38-3.354c-0.384-1.585-0.974-2.378-1.771-2.378c-0.788,0-1.375,0.796-1.759,2.389
			c-0.26,1.071-0.391,2.186-0.391,3.344c0,1.18,0.127,2.298,0.38,3.355c0.384,1.585,0.974,2.378,1.77,2.378
			c0.797,0,1.387-0.792,1.771-2.378C746.69,906.559,746.817,905.441,746.817,904.261z"/>
	</g>
</g>
<g id="&#x422;&#x430;&#x431;&#x43B;&#x438;&#x447;&#x43A;&#x438;">
</g>
<g id="_x21__x21__x21__&#x42D;&#x442;&#x430;&#x436;_x2C__&#x441;&#x435;&#x43A;&#x446;&#x438;&#x438;">
</g>
<g id="&#x421;&#x43B;&#x43E;&#x439;_13">
</g>
</svg>
