<?xml version="1.0" encoding="utf-8"?>
<!-- Generator: Adobe Illustrator 28.0.0, SVG Export Plug-In . SVG Version: 6.00 Build 0)  -->
<svg version="1.1" xmlns="http://www.w3.org/2000/svg" xmlns:xlink="http://www.w3.org/1999/xlink" x="0px" y="0px"
	 viewBox="0 0 1000 1002.2" style="enable-background:new 0 0 1000 1002.2;" xml:space="preserve">
<style type="text/css">
	.st0{fill:none;stroke:#5B5D65;stroke-width:1.101;stroke-linecap:round;stroke-linejoin:round;stroke-miterlimit:10;}
	.st1{fill:#FFFFFF;stroke:#5B5D65;stroke-width:1.101;stroke-linecap:round;stroke-linejoin:round;stroke-miterlimit:10;}
	.st2{fill:#5B5D65;}
	.st3{opacity:0.8;}
	.st4{opacity:0.8;fill:none;stroke:#5B5D65;stroke-width:0.5505;stroke-linecap:round;stroke-linejoin:round;stroke-miterlimit:10;}
	.st5{fill:#5B5D65;stroke:#5B5D65;stroke-width:2.202;stroke-linecap:round;stroke-linejoin:round;stroke-miterlimit:10;}
</style>
<g id="Цвет_помещений">
</g>
<g id="Окна_x2C__двери">
	<g>
		
			<rect x="581.06" y="952.4" transform="matrix(-1 -2.728429e-07 2.728429e-07 -1 1364.295 1953.4393)" class="st0" width="202.18" height="48.64"/>
		<line class="st0" x1="783.24" y1="975.29" x2="581.06" y2="975.29"/>
		<line class="st0" x1="783.24" y1="963.84" x2="581.06" y2="963.84"/>
	</g>
	<g>
		
			<rect x="242.98" y="952.4" transform="matrix(-1 -2.728429e-07 2.728429e-07 -1 688.1328 1953.4393)" class="st0" width="202.18" height="48.64"/>
		<line class="st0" x1="445.16" y1="975.29" x2="242.98" y2="975.29"/>
		<line class="st0" x1="445.16" y1="963.84" x2="242.98" y2="963.84"/>
	</g>
	<g>
		
			<rect x="72.74" y="444.09" transform="matrix(2.996198e-07 -1 1 2.996198e-07 -328.4282 608.3841)" class="st0" width="134.47" height="48.64"/>
		<line class="st0" x1="141.41" y1="535.64" x2="141.41" y2="401.17"/>
		<line class="st0" x1="152.85" y1="535.64" x2="152.85" y2="401.17"/>
	</g>
	<g>
		
			<rect x="72.74" y="140.34" transform="matrix(2.996198e-07 -1 1 2.996198e-07 -24.6797 304.6357)" class="st0" width="134.47" height="48.64"/>
		<line class="st0" x1="141.41" y1="231.89" x2="141.41" y2="97.42"/>
		<line class="st0" x1="152.85" y1="231.89" x2="152.85" y2="97.42"/>
	</g>
	<path class="st0" d="M531.47,588.94l87.99,50.76c8.09-13.22,12.88-30.7,12.67-45.51l0.01-4.18"/>
	<path class="st0" d="M485.27,588.94l-87.99,50.76c-8.09-13.22-12.88-30.7-12.67-45.51l-0.01-4.18"/>
	<path class="st0" d="M660.15,409.2l-39.99,69.33c10.42,6.38,24.19,10.15,35.86,9.99l3.29,0.01"/>
	<path class="st0" d="M536.58,248.71l99-56.79c9.24,15.1,14.72,35.08,14.48,52l0.01,4.78"/>
</g>
<g id="Пунктиры">
</g>
<g id="Шахты">
	<g>
		<rect x="443.3" y="63.25" class="st1" width="45.25" height="90.48"/>
		<path class="st1" d="M479.99,69.02h-28.12c-1.53,0-2.79,1.25-2.79,2.79v56.99c0,1.53,1.25,2.79,2.79,2.79h28.12
			c1.53,0,2.79-1.25,2.79-2.79V71.81C482.77,70.28,481.52,69.02,479.99,69.02z"/>
		<path class="st1" d="M479.99,136.4h-28.12c-1.53,0-2.79,1.25-2.79,2.79v5.98c0,1.53,1.25,2.79,2.79,2.79h28.12
			c1.53,0,2.79-1.25,2.79-2.79v-5.98C482.77,137.65,481.52,136.4,479.99,136.4z"/>
	</g>
	<g>
		<rect x="758.1" y="304.85" class="st1" width="69.36" height="44.82"/>
		<path class="st1" d="M823.03,341.16l0-27.81c0-1.53-1.25-2.79-2.79-2.79h-42.39c-1.53,0-2.79,1.25-2.79,2.79l0,27.81
			c0,1.53,1.25,2.79,2.79,2.79h42.39C821.78,343.95,823.03,342.7,823.03,341.16z"/>
		<path class="st1" d="M771.38,341.16v-27.81c0-1.53-1.25-2.79-2.79-2.79l-3.28,0c-1.53,0-2.79,1.25-2.79,2.79v27.81
			c0,1.53,1.25,2.79,2.79,2.79h3.28C770.13,343.95,771.38,342.7,771.38,341.16z"/>
	</g>
</g>
<g id="Перегородки">
	<rect x="488.55" y="1.1" class="st2" width="21.93" height="236.04"/>
	<polygon class="st2" points="164.3,1.1 488.55,1.1 488.55,12.07 452.8,12.07 452.85,63.25 442.77,63.25 442.77,12.07 164.3,12.07 	
		"/>
	<rect x="465.66" y="237.14" class="st2" width="70.57" height="22.89"/>
	<rect x="465.66" y="397.36" class="st2" width="67.71" height="9.54"/>
	<rect x="827.7" y="341.09" class="st2" width="34.69" height="8.58"/>
	<polygon class="st2" points="862.39,304.85 862.39,282.91 677.38,282.91 677.38,237.14 649.72,237.14 649.72,260.03 654.49,260.03 
		654.49,409.75 664.03,409.75 664.03,304.85 	"/>
	<rect x="862.39" y="451.72" class="st2" width="21.93" height="355.25"/>
	<polygon class="st2" points="654.49,488.91 664.03,488.91 664.03,584.28 862.39,584.28 862.39,593.82 632.56,593.82 632.56,584.28 
		654.49,584.28 	"/>
	<polygon class="st2" points="485.69,584.28 531.47,584.28 531.47,593.82 513.35,593.82 513.35,952.4 503.81,952.4 503.81,593.82 
		485.69,593.82 	"/>
	<rect x="164.3" y="584.28" class="st2" width="220.3" height="9.54"/>
	<rect x="442.77" y="153.72" class="st2" width="10.07" height="83.41"/>
</g>
<g id="Сантехника">
	<g class="st3">
		
			<rect x="376.48" y="137.91" transform="matrix(-1.836970e-16 1 -1 -1.836970e-16 581.2604 -238.5719)" class="st4" width="66.88" height="66.88"/>
		<g>
			<circle class="st4" cx="425.46" cy="189.01" r="11.7"/>
		</g>
		<g>
			<circle class="st4" cx="396.94" cy="152" r="10.03"/>
		</g>
		<g>
			<circle class="st4" cx="425.46" cy="152" r="7.8"/>
		</g>
		<g>
			<circle class="st4" cx="396.94" cy="189.01" r="7.8"/>
		</g>
		<circle class="st4" cx="381.65" cy="169.34" r="0.75"/>
		<circle class="st4" cx="381.65" cy="173.51" r="0.75"/>
		<circle class="st4" cx="385.82" cy="173.51" r="0.75"/>
		<circle class="st4" cx="385.82" cy="169.34" r="0.75"/>
	</g>
	<g class="st3">
		<rect x="313.97" y="12.01" class="st4" width="66.88" height="66.88"/>
		<circle class="st4" cx="347.45" cy="39.3" r="5.02"/>
		<circle class="st4" cx="347.45" cy="22.04" r="1.95"/>
		<circle class="st4" cx="366.85" cy="22.04" r="1.95"/>
		<path class="st4" d="M374.71,73.31H320.1c-0.31,0-0.56-0.25-0.56-0.56V18.14c0-0.31,0.25-0.56,0.56-0.56h54.62
			c0.31,0,0.56,0.25,0.56,0.56v54.62C375.27,73.06,375.02,73.31,374.71,73.31z"/>
		<path class="st4" d="M371.95,70.52h-49.04c-0.31,0-0.56-0.25-0.56-0.56V26.49c0-0.31,0.25-0.56,0.56-0.56h49.04
			c0.31,0,0.56,0.25,0.56,0.56v43.47C372.51,70.27,372.26,70.52,371.95,70.52z"/>
	</g>
	<g class="st3">
		<line class="st4" x1="852.82" y1="544.82" x2="852.82" y2="536.69"/>
		<path class="st4" d="M852.82,533.08v-16.82c0-2.3-2.01-4.15-4.48-4.15l-130.13,0c-8.88,0-17.45,3.06-24.02,8.59
			c-15.6,13.12-15.6,35.83,0,48.95c6.57,5.53,15.15,8.6,24.02,8.6l130.13,0c2.47,0,4.48-1.86,4.48-4.16l0-19.69"/>
		<rect x="672.91" y="506.17" class="st4" width="189.48" height="78.02"/>
		<path class="st4" d="M823.78,545.18c0-2.21,1.79-3.99,3.99-3.99c2.2,0,3.99,1.79,3.99,3.99c0,2.21-1.79,3.99-3.99,3.99
			C825.56,549.17,823.78,547.38,823.78,545.18z"/>
		<path class="st4" d="M862.39,536.69v-3.61h-5.87h-0.4h-9.28c0,0-1.91,0.07-1.91,1.8c0,1.73,1.91,1.8,1.91,1.8h9.28h0.4h2.17"/>
		<path class="st4" d="M857.34,551.67l1.17,0.1c1.86,0.15,3.61-1.25,3.85-3.29c0.02-0.14,0.02-0.27,0.02-0.41
			c0-0.14-0.01-0.28-0.02-0.41c-0.24-2.04-2-3.44-3.85-3.3l-20.15,1.66c-0.64,0-1.16,0.57-1.16,1.29v1.51
			c0,0.72,0.52,1.28,1.16,1.28l10.21,0.84"/>
		<path class="st4" d="M847.91,554.74l-0.36-0.59c-0.63-1.05-0.29-2.43,0.76-3.06l8.08-4.87c1.05-0.63,2.43-0.29,3.06,0.76l0.35,0.6
			c0.63,1.04,0.29,2.42-0.76,3.06l-8.09,4.87C849.92,556.13,848.55,555.8,847.91,554.74z"/>
		<path class="st4" d="M857.51,551.57c0.15,2.84,0.45,6.54,0.95,7.53c0.7,1.38,2.66,0.77,2.66,0.77h1.25l0-23.6h-1.25
			c0,0-1.96-0.61-2.66,0.77c-0.49,0.97-0.78,4.58-0.94,7.41"/>
		<path class="st4" d="M852.82,531.52c-1.18-2.11-3.43-3.53-6.02-3.53c-3.81,0-6.89,3.08-6.89,6.89c0,3.81,3.09,6.89,6.89,6.89
			c2.58,0,4.84-1.42,6.02-3.53"/>
	</g>
	<g class="st3">
		<ellipse class="st4" cx="850.91" cy="390.68" rx="1.83" ry="1.84"/>
		<line class="st4" x1="850.91" y1="387.47" x2="850.91" y2="388.85"/>
		<line class="st4" x1="850.91" y1="392.52" x2="850.91" y2="393.89"/>
		<line class="st4" x1="847.71" y1="390.68" x2="849.08" y2="390.68"/>
		<line class="st4" x1="852.74" y1="390.68" x2="854.11" y2="390.68"/>
		<line class="st4" x1="836.06" y1="380.47" x2="836.06" y2="381.21"/>
		<line class="st4" x1="836.06" y1="383.19" x2="836.06" y2="383.93"/>
		<line class="st4" x1="834.33" y1="382.2" x2="835.07" y2="382.2"/>
		<line class="st4" x1="837.04" y1="382.2" x2="837.78" y2="382.2"/>
		<ellipse class="st4" cx="836.06" cy="382.2" rx="0.99" ry="0.99"/>
		<ellipse class="st4" cx="836.06" cy="399.17" rx="0.99" ry="0.99"/>
		<line class="st4" x1="836.06" y1="397.44" x2="836.06" y2="398.17"/>
		<line class="st4" x1="836.06" y1="400.16" x2="836.06" y2="400.9"/>
		<line class="st4" x1="834.33" y1="399.17" x2="835.07" y2="399.17"/>
		<line class="st4" x1="837.04" y1="399.17" x2="837.78" y2="399.17"/>
		<path class="st4" d="M820.24,408.61c0.76-0.05,1.39-0.11,1.81-0.15c7.53-1.34,12.56-2.96,20.09-4.3
			c-0.47-4.05-0.78-8.56-0.78-13.48c0-4.93,0.31-9.46,0.78-13.53c-7.53-1.34-12.56-2.91-20.09-4.25c-0.41-0.04-1.04-0.1-1.81-0.15
			c-4.51-0.3-12.11-0.8-18.97,2.92c-1.11,0.6-3.33,1.83-5.46,4.18c-1.28,1.41-4.56,5.15-4.57,10.69c0,0.05,0,0.09,0,0.13
			c0,0.05,0,0.09,0,0.13c0,5.54,3.29,9.28,4.57,10.69c2.13,2.35,4.36,3.58,5.46,4.18C808.13,409.4,815.73,408.9,820.24,408.61z"/>
		<path class="st4" d="M818.98,405.67c2.26-0.32,4.8-0.7,7.4-2.48c3.21-2.2,4.51-5.14,4.92-6.11c1.12-2.62,1.12-4.85,1.12-6.41
			c0-1.56,0-3.79-1.12-6.41c-0.41-0.96-1.71-3.91-4.92-6.11c-2.6-1.78-5.13-2.16-7.4-2.48c-2.88-0.4-10.43-1.45-17.21,2.98
			c-1.69,1.1-5.26,3.47-6.73,8.01c-0.31,0.94-1.24,4.2,0,8.02c1.47,4.54,5.04,6.9,6.73,8.01
			C808.56,407.13,816.1,406.08,818.98,405.67z"/>
		<path class="st4" d="M826.07,399.98c3.46-3.52,3.45-8.1,3.44-9.3c0.01-1.2,0.02-5.79-3.44-9.3c-3.06-3.11-7.26-3.78-10.59-3.76
			c-2.06,0.01-3.64,0.18-4.92,0.41c-3.17,0.56-6.35,1.12-9.08,3.44c-2.16,1.83-4.43,5.09-4.39,9.25c0.05,4.91,3.3,8.07,4.44,9.05
			c2.84,2.45,6.14,3.05,9.04,3.57c1.17,0.21,2.79,0.4,4.92,0.41C818.82,403.77,823.02,403.09,826.07,399.98z"/>
		<path class="st4" d="M824.26,395.32c0.54-0.19,1.42-0.58,2.24-1.37c0.45-0.44,0.76-0.89,0.96-1.24c0-0.01,0-0.01,0-0.02
			c0-1.87,0-2.16,0-4.01c0-0.01,0-0.01,0-0.02c-0.2-0.36-0.51-0.8-0.96-1.24c-0.81-0.79-1.69-1.18-2.24-1.37
			c-2.49-0.07-4.98-0.13-7.48-0.2c-0.34,0.02-1.59,0.13-2.63,1.09c-0.81,0.75-1.05,1.61-1.12,1.96c0,1.19,0,2.37,0,3.56
			c0.07,0.35,0.31,1.21,1.12,1.96c1.04,0.96,2.3,1.07,2.63,1.09C819.28,395.45,821.77,395.38,824.26,395.32z"/>
		<path class="st4" d="M821.32,395.41c-0.44-0.57-1.64-2.25-1.66-4.67c-0.02-2.49,1.22-4.22,1.66-4.78"/>
		<path class="st4" d="M862.02,409.81v-38.26c0-0.52-0.45-0.93-1-0.93c0,0-9.27,0-10.26,0c-0.54,0.12-1.25,0.3-2.04,0.61
			c-0.79,0.31-1.67,0.74-2.56,1.35c-1.17,0.8-2.05,1.69-2.7,2.51c-0.65,0.82-1.07,1.56-1.32,2.06c-0.24,2.03-0.43,4.18-0.57,6.44
			c-0.14,2.26-0.21,4.62-0.21,7.09c0,2.46,0.08,4.81,0.21,7.06c0.14,2.25,0.33,4.39,0.57,6.41c0.19,0.45,0.51,1.12,1.03,1.87
			c0.52,0.75,1.24,1.59,2.23,2.37c1.07,0.84,2.16,1.39,3.11,1.74c0.95,0.36,1.76,0.52,2.27,0.6c1.13,0,10.26,0,10.26,0
			C861.57,410.74,862.02,410.33,862.02,409.81z"/>
	</g>
	<g class="st3">
		<path class="st4" d="M841.94,459.86c-1.41,0-2.55-1.15-2.55-2.56c0-1.41,1.14-2.55,2.55-2.55c1.41,0,2.55,1.14,2.55,2.55
			C844.49,458.71,843.35,459.86,841.94,459.86z"/>
		<line class="st4" x1="841.95" y1="453.59" x2="841.95" y2="461.03"/>
		<line class="st4" x1="838.23" y1="457.31" x2="845.66" y2="457.31"/>
		<path class="st4" d="M854.17,459.14c-1.01,0-1.83-0.82-1.83-1.83c0-1.01,0.82-1.83,1.83-1.83c1.01,0,1.83,0.82,1.83,1.83
			C856,458.32,855.18,459.14,854.17,459.14z"/>
		<line class="st4" x1="854.17" y1="454.39" x2="854.17" y2="460.23"/>
		<line class="st4" x1="851.25" y1="457.31" x2="857.09" y2="457.31"/>
		<path class="st4" d="M843.02,484.86c1.31,0.1,2.94,0.16,4.8,0.09c0.73-0.03,2.12-0.1,3.86-0.31c1.44-0.18,3.23-0.48,5.26-0.98
			c1.64-0.55,3.29-1.1,4.93-1.65c0,0,0-0.01,0-0.01c0-0.7,0-49.55,0-49.76c0,0,0-0.01,0-0.01c-1.64-0.55-3.29-1.1-4.93-1.65
			c-2.03-0.51-3.82-0.8-5.26-0.98c-1.75-0.22-3.13-0.29-3.86-0.31c-1.86-0.07-3.49-0.01-4.8,0.09c-1.82,0.04-13.48,0.47-21.09,9.91
			c-5.64,6.99-5.75,14.82-5.75,17.83c0,3.01,0.12,10.84,5.75,17.83C829.55,484.39,841.2,484.82,843.02,484.86z"/>
		<path class="st4" d="M840.17,477.24c0.64,0.06,1.5,0.11,2.53-0.19c0.05-0.02,0.1-0.03,0.14-0.04c0,0,0.9-0.31,1.71-1
			c4.24-3.59,4.24-18.71,4.24-18.71l0,0c0-8.31-0.45-15.3-4.24-18.43c0,0,0,0,0,0c0,0,0,0,0,0c-0.84-0.73-1.59-0.96-1.71-1
			c0,0,0,0,0,0c-1.13-0.39-2.5-0.25-2.67-0.24c-1.3,0.09-1.95,0.13-2.88,0.32c-5.35,1.08-8.68,3.32-8.68,3.32
			c-2.48,1.67-3.98,3.49-4.75,4.44c-0.62,0.76-1.55,1.92-2.41,3.61c-1.88,3.69-1.97,7.08-1.97,7.98c-0.02,4,1.34,6.93,1.97,8.26
			c0,0,0,0,0,0c0.53,0.98,1.31,2.25,2.41,3.61c0.76,0.94,2.26,2.76,4.75,4.44c0,0,3.36,2.26,8.68,3.32
			C837.87,477.04,838.64,477.1,840.17,477.24z"/>
	</g>
</g>
<g id="Несущие">
	<polygon class="st5" points="115.66,102.41 115.66,1.1 164.3,1.1 164.3,97.65 141.41,97.65 141.41,102.41 	"/>
	<polygon class="st5" points="777.99,1001.1 777.99,975.35 782.76,975.35 782.76,952.46 862.38,952.46 862.38,806.55 884.34,806.55 
		884.34,1001.04 	"/>
	<polygon class="st5" points="115.66,1001.04 248.22,1001.04 248.22,975.29 243.45,975.29 243.45,952.4 164.3,952.4 164.3,535.64 
		141.41,535.64 141.41,529.92 115.66,529.92 	"/>
	<polygon class="st5" points="585.83,1001.04 439.46,1001.04 439.46,975.29 445.07,975.29 445.07,952.4 581.06,952.4 581.06,975.29 
		585.83,975.29 	"/>
	<polygon class="st5" points="115.66,406.89 115.66,226.71 141.41,226.71 141.41,232.31 164.3,232.31 164.3,400.92 141.41,400.92 
		141.41,406.89 	"/>
	<rect x="862.39" y="282.91" class="st5" width="21.93" height="168.8"/>
	<rect x="442.77" y="237.14" class="st5" width="22.89" height="169.76"/>
</g>
<g id="Лестницы_x2C__лифты">
</g>
<g id="Площади">
	<g>
		<path class="st2" d="M372.05,461.88l-3.06,3.06c-0.26,0.25-0.57,0.38-0.93,0.38c-0.89,0-1.33-0.44-1.33-1.33
			c0-0.36,0.13-0.67,0.38-0.93l5.2-5.2c0.35-0.35,0.71-0.52,1.07-0.52c0.89,0,1.33,0.44,1.33,1.33v23.95c0,0.89-0.44,1.33-1.33,1.33
			c-0.89,0-1.33-0.44-1.33-1.33V461.88z"/>
		<path class="st2" d="M386.22,457.33c1.84,0,3.41,0.65,4.71,1.95c1.3,1.3,1.95,2.87,1.95,4.71c0,1.26-0.4,2.54-1.21,3.83
			l-8.39,13.47h8.27c0.89,0,1.33,0.44,1.33,1.33s-0.44,1.33-1.33,1.33H380.9c-0.89,0-1.33-0.44-1.33-1.33
			c0-0.27,0.07-0.52,0.22-0.77l9.76-15.67c0.44-0.71,0.67-1.44,0.67-2.2c0-1.1-0.39-2.04-1.17-2.82c-0.78-0.78-1.72-1.17-2.82-1.17
			c-1.5,0-2.9,1.12-4.17,3.35c-0.24,0.43-0.62,0.65-1.15,0.65c-0.89,0-1.33-0.44-1.33-1.33c0-0.2,0.04-0.38,0.12-0.54
			C381.34,458.92,383.52,457.33,386.22,457.33z"/>
		<path class="st2" d="M399.89,481.28c0.89,0,1.33,0.44,1.33,1.31c0,0.12-0.46,2.01-1.37,5.66c-0.16,0.67-0.59,1.01-1.29,1.01
			c-0.89,0-1.33-0.44-1.33-1.33c0-0.6,0.46-2.49,1.37-5.65C398.79,481.61,399.22,481.28,399.89,481.28z"/>
		<path class="st2" d="M414.9,457.33c0.89,0,1.33,0.44,1.33,1.33c0,0.66-0.22,1.04-0.67,1.15c-1.98,0.5-3.7,1.68-5.18,3.55
			c-1.17,1.48-1.85,3.02-2.04,4.62h3.89c1.88,0,3.46,0.65,4.74,1.94c1.28,1.29,1.92,2.86,1.92,4.72v2.66c0,1.85-0.65,3.43-1.95,4.72
			c-1.3,1.29-2.87,1.94-4.71,1.94c-1.85,0-3.43-0.64-4.72-1.93c-1.29-1.28-1.94-2.85-1.94-4.69v-8.02c0-3.01,1-5.65,3-7.92
			c1.56-1.76,3.26-3.01,5.1-3.75C414.22,457.43,414.62,457.33,414.9,457.33z M408.25,470.63v6.65c0,1.12,0.39,2.06,1.16,2.83
			c0.77,0.77,1.72,1.16,2.83,1.16c1.12,0,2.06-0.39,2.83-1.17s1.16-1.72,1.16-2.82v-2.66c0-1.12-0.39-2.06-1.17-2.83
			c-0.78-0.77-1.72-1.16-2.82-1.16H408.25z"/>
	</g>
	<g>
		<path class="st2" d="M538.6,469.3v-10.64c0-0.89,0.44-1.33,1.33-1.33h9.31c0.89,0,1.33,0.44,1.33,1.33c0,0.89-0.44,1.33-1.33,1.33
			h-7.98v7.98h3.99c1.84,0,3.41,0.65,4.71,1.96c1.3,1.3,1.95,2.87,1.95,4.7v2.66c0,1.84-0.65,3.41-1.96,4.71s-2.87,1.95-4.7,1.95
			h-5.32c-0.89,0-1.33-0.44-1.33-1.33s0.44-1.33,1.33-1.33h5.32c1.12,0,2.06-0.39,2.83-1.16c0.77-0.77,1.16-1.72,1.16-2.83v-2.66
			c0-1.1-0.39-2.04-1.17-2.82c-0.78-0.78-1.72-1.17-2.82-1.17h-5.32C539.04,470.63,538.6,470.19,538.6,469.3z"/>
		<path class="st2" d="M558.2,481.28c0.89,0,1.33,0.44,1.33,1.31c0,0.12-0.46,2.01-1.37,5.66c-0.16,0.67-0.59,1.01-1.29,1.01
			c-0.89,0-1.33-0.44-1.33-1.33c0-0.6,0.46-2.49,1.37-5.65C557.1,481.61,557.53,481.28,558.2,481.28z"/>
		<path class="st2" d="M567.13,461.88l-3.06,3.06c-0.26,0.25-0.57,0.38-0.93,0.38c-0.89,0-1.33-0.44-1.33-1.33
			c0-0.36,0.13-0.67,0.38-0.93l5.2-5.2c0.35-0.35,0.71-0.52,1.07-0.52c0.89,0,1.33,0.44,1.33,1.33v23.95c0,0.89-0.44,1.33-1.33,1.33
			c-0.89,0-1.33-0.44-1.33-1.33V461.88z"/>
	</g>
	<g>
		<path class="st2" d="M700.97,477.28c0-0.15,0.01-0.27,0.04-0.36l5.32-18.63c0.19-0.65,0.62-0.97,1.29-0.97
			c0.89,0,1.33,0.44,1.33,1.33c0,0.12-0.02,0.25-0.05,0.38l-4.85,16.91h6.23v-3.99c0-0.89,0.44-1.33,1.33-1.33
			c0.89,0,1.33,0.44,1.33,1.33v3.99h2.66c0.89,0,1.33,0.44,1.33,1.33c0,0.89-0.44,1.33-1.33,1.33h-2.66v3.99
			c0,0.89-0.44,1.33-1.33,1.33c-0.89,0-1.33-0.44-1.33-1.33v-3.99h-7.98C701.41,478.62,700.97,478.17,700.97,477.28z"/>
		<path class="st2" d="M723.1,481.28c0.89,0,1.33,0.44,1.33,1.31c0,0.12-0.46,2.01-1.37,5.66c-0.16,0.67-0.59,1.01-1.29,1.01
			c-0.89,0-1.33-0.44-1.33-1.33c0-0.6,0.46-2.49,1.37-5.65C722,481.61,722.43,481.28,723.1,481.28z"/>
		<path class="st2" d="M741.62,470.63c0,3.17-0.39,5.91-1.17,8.23c-1.14,3.39-2.97,5.08-5.48,5.08c-2.51,0-4.34-1.69-5.48-5.06
			c-0.78-2.31-1.17-5.06-1.17-8.25c0-3.19,0.39-5.93,1.17-8.25c1.14-3.37,2.97-5.06,5.48-5.06c2.51,0,4.34,1.69,5.48,5.08
			C741.23,464.72,741.62,467.46,741.62,470.63z M738.96,470.63c0-2.2-0.24-4.28-0.71-6.23c-0.71-2.94-1.81-4.42-3.29-4.42
			c-1.46,0-2.55,1.48-3.27,4.44c-0.48,1.99-0.73,4.06-0.73,6.21c0,2.19,0.23,4.27,0.71,6.23c0.71,2.94,1.81,4.42,3.29,4.42
			s2.57-1.47,3.29-4.42C738.73,474.9,738.96,472.82,738.96,470.63z"/>
	</g>
	<g>
		<path class="st2" d="M707.28,921.58c-0.35,0-0.66-0.13-0.93-0.4c-0.27-0.27-0.4-0.58-0.4-0.93c0-0.62,0.22-1,0.67-1.15
			c0.97-0.32,1.77-0.69,2.42-1.11c2.86-1.85,4.46-4.21,4.8-7.06h-3.89c-1.84,0-3.41-0.65-4.71-1.95s-1.95-2.87-1.95-4.71v-2.66
			c0-1.84,0.65-3.41,1.95-4.71s2.87-1.95,4.71-1.95c1.85,0,3.43,0.64,4.72,1.92c1.29,1.28,1.94,2.85,1.94,4.69v8.02
			c0,4.52-2.1,8.08-6.31,10.7C708.92,921.16,707.92,921.58,707.28,921.58z M713.93,908.28v-6.65c0-1.1-0.39-2.04-1.17-2.82
			s-1.72-1.17-2.82-1.17c-1.1,0-2.04,0.39-2.82,1.17s-1.17,1.72-1.17,2.82v2.66c0,1.12,0.39,2.06,1.16,2.83
			c0.77,0.77,1.72,1.16,2.83,1.16H713.93z"/>
		<path class="st2" d="M722.12,918.92c0.89,0,1.33,0.44,1.33,1.31c0,0.12-0.46,2.01-1.37,5.67c-0.16,0.67-0.59,1.01-1.29,1.01
			c-0.89,0-1.33-0.44-1.33-1.33c0-0.6,0.46-2.49,1.37-5.64C721.01,919.26,721.44,918.92,722.12,918.92z"/>
		<path class="st2" d="M730.92,921.58c-0.35,0-0.66-0.13-0.93-0.4c-0.27-0.27-0.4-0.58-0.4-0.93c0-0.62,0.22-1,0.67-1.15
			c0.97-0.32,1.77-0.69,2.42-1.11c2.86-1.85,4.46-4.21,4.8-7.06h-3.89c-1.84,0-3.41-0.65-4.71-1.95s-1.95-2.87-1.95-4.71v-2.66
			c0-1.84,0.65-3.41,1.95-4.71s2.87-1.95,4.71-1.95c1.85,0,3.43,0.64,4.72,1.92c1.29,1.28,1.94,2.85,1.94,4.69v8.02
			c0,4.52-2.1,8.08-6.31,10.7C732.57,921.16,731.57,921.58,730.92,921.58z M737.58,908.28v-6.65c0-1.1-0.39-2.04-1.17-2.82
			s-1.72-1.17-2.82-1.17c-1.1,0-2.04,0.39-2.82,1.17s-1.17,1.72-1.17,2.82v2.66c0,1.12,0.39,2.06,1.16,2.83
			c0.77,0.77,1.72,1.16,2.83,1.16H737.58z"/>
	</g>
	<g>
		<path class="st2" d="M377.8,921.58c-0.35,0-0.66-0.13-0.93-0.4c-0.27-0.27-0.4-0.58-0.4-0.93c0-0.62,0.22-1,0.67-1.15
			c0.97-0.32,1.77-0.69,2.42-1.11c2.86-1.85,4.46-4.21,4.8-7.06h-3.89c-1.84,0-3.41-0.65-4.71-1.95c-1.3-1.3-1.95-2.87-1.95-4.71
			v-2.66c0-1.84,0.65-3.41,1.95-4.71c1.3-1.3,2.87-1.95,4.71-1.95c1.85,0,3.43,0.64,4.72,1.92c1.29,1.28,1.94,2.85,1.94,4.69v8.02
			c0,4.52-2.1,8.08-6.31,10.7C379.44,921.16,378.44,921.58,377.8,921.58z M384.45,908.28v-6.65c0-1.1-0.39-2.04-1.17-2.82
			c-0.78-0.78-1.72-1.17-2.82-1.17s-2.04,0.39-2.82,1.17s-1.17,1.72-1.17,2.82v2.66c0,1.12,0.39,2.06,1.16,2.83
			c0.77,0.77,1.72,1.16,2.83,1.16H384.45z"/>
		<path class="st2" d="M392.64,918.92c0.89,0,1.33,0.44,1.33,1.31c0,0.12-0.46,2.01-1.37,5.67c-0.16,0.67-0.59,1.01-1.29,1.01
			c-0.89,0-1.33-0.44-1.33-1.33c0-0.6,0.46-2.49,1.37-5.64C391.54,919.26,391.97,918.92,392.64,918.92z"/>
		<path class="st2" d="M407.65,894.97c0.89,0,1.33,0.44,1.33,1.33c0,0.66-0.22,1.04-0.67,1.15c-1.98,0.5-3.7,1.68-5.18,3.55
			c-1.17,1.48-1.85,3.02-2.04,4.62h3.89c1.88,0,3.46,0.65,4.74,1.94c1.28,1.29,1.92,2.86,1.92,4.72v2.66c0,1.85-0.65,3.43-1.95,4.72
			c-1.3,1.29-2.87,1.94-4.71,1.94c-1.85,0-3.43-0.64-4.72-1.92c-1.29-1.28-1.94-2.85-1.94-4.69v-8.02c0-3.01,1-5.65,3-7.92
			c1.56-1.76,3.26-3.01,5.1-3.75C406.97,895.07,407.37,894.97,407.65,894.97z M401,908.28v6.65c0,1.12,0.39,2.06,1.16,2.83
			c0.77,0.77,1.72,1.16,2.83,1.16c1.12,0,2.06-0.39,2.83-1.17s1.16-1.72,1.16-2.82v-2.66c0-1.12-0.39-2.06-1.17-2.83
			c-0.78-0.77-1.72-1.16-2.82-1.16H401z"/>
	</g>
</g>
<g id="Таблички">
</g>
<g id="Этажи_x2C__секции">
</g>
</svg>
