<?xml version="1.0" encoding="iso-8859-1"?>
<!-- Generator: Adobe Illustrator 27.0.0, SVG Export Plug-In . SVG Version: 6.00 Build 0)  -->
<svg version="1.1" xmlns="http://www.w3.org/2000/svg" xmlns:xlink="http://www.w3.org/1999/xlink" x="0px" y="0px"
	 viewBox="0 0 1000 1001.235" style="enable-background:new 0 0 1000 1001.235;" xml:space="preserve">
<g id="&#x446;&#x432;&#x435;&#x442;_&#x43F;&#x43E;&#x43C;&#x435;&#x449;&#x435;&#x43D;&#x438;&#x439;">
</g>
<g id="&#x43E;&#x43A;&#x43D;&#x430;_x2C__&#x434;&#x432;&#x435;&#x440;&#x438;">
	<g>
		
			<rect x="595.67" y="974.348" transform="matrix(-1 7.125802e-07 -7.125802e-07 -1 1302.0671 1963.4003)" style="fill:none;stroke:#5B5D65;stroke-width:0.6177;stroke-linecap:round;stroke-linejoin:round;stroke-miterlimit:10;" width="110.725" height="14.705"/>
		
			<rect x="595.67" y="994.781" transform="matrix(-1 8.549393e-07 -8.549393e-07 -1 1302.0665 1995.3949)" style="fill:none;stroke:#5B5D65;stroke-width:0.6177;stroke-linecap:round;stroke-linejoin:round;stroke-miterlimit:10;" width="110.725" height="5.833"/>
	</g>
	<g>
		
			<rect x="386.067" y="12.295" style="fill:none;stroke:#5B5D65;stroke-width:0.6177;stroke-linecap:round;stroke-linejoin:round;stroke-miterlimit:10;" width="114.356" height="14.599"/>
		
			<rect x="386.068" y="0.816" style="fill:none;stroke:#5B5D65;stroke-width:0.6177;stroke-linecap:round;stroke-linejoin:round;stroke-miterlimit:10;" width="114.356" height="5.791"/>
	</g>
	<g>
		
			<rect x="591.525" y="12.295" style="fill:none;stroke:#5B5D65;stroke-width:0.6177;stroke-linecap:round;stroke-linejoin:round;stroke-miterlimit:10;" width="114.356" height="14.599"/>
		
			<rect x="591.525" y="0.816" style="fill:none;stroke:#5B5D65;stroke-width:0.6177;stroke-linecap:round;stroke-linejoin:round;stroke-miterlimit:10;" width="114.356" height="5.791"/>
	</g>
	<path style="fill:none;stroke:#5B5D65;stroke-width:0.6177;stroke-linecap:round;stroke-linejoin:round;stroke-miterlimit:10;" d="
		M628.118,549.783c-24.763,0-44.832,20.169-44.832,45.032l44.832,0"/>
	<path style="fill:none;stroke:#5B5D65;stroke-width:0.6177;stroke-linecap:round;stroke-linejoin:round;stroke-miterlimit:10;" d="
		M628.118,431.495c-24.763,0-44.832-20.169-44.832-45.032l44.832,0"/>
	<path style="fill:none;stroke:#5B5D65;stroke-width:0.6177;stroke-linecap:round;stroke-linejoin:round;stroke-miterlimit:10;" d="
		M616.835,324.405c0-27.23-22.179-49.3-49.52-49.3l0,49.3"/>
	<path style="fill:none;stroke:#5B5D65;stroke-width:0.6177;stroke-linecap:round;stroke-linejoin:round;stroke-miterlimit:10;" d="
		M618.54,635.229c0,27.027-22.014,48.932-49.15,48.932l0-48.932"/>
	<path style="fill:none;stroke:#5B5D65;stroke-width:0.6177;stroke-linecap:round;stroke-linejoin:round;stroke-miterlimit:10;" d="
		M431.206,517.527c-30.979,0-56.087-25.888-56.087-57.799l56.086,0"/>
</g>
<g id="&#x43F;&#x435;&#x440;&#x435;&#x433;&#x43E;&#x440;&#x43E;&#x434;&#x43A;&#x438;">
	<rect x="745.289" y="687.083" style="fill:#5B5D65;" width="13.131" height="233.434"/>
	<rect x="745.289" y="380.357" style="fill:#5B5D65;" width="13.131" height="240.212"/>
	<rect x="745.289" y="79.985" style="fill:#5B5D65;" width="13.131" height="233.858"/>
	<rect x="745.296" y="687.321" style="fill:#5B5D65;" width="13.133" height="233.434"/>
	<rect x="745.296" y="380.595" style="fill:#5B5D65;" width="13.133" height="240.212"/>
	<rect x="545.331" y="687.321" style="fill:#5B5D65;" width="13.133" height="233.434"/>
	<g>
		<defs>
			<path id="SVGID_1_" d="M621.589,322.131v5.084h123.707v-5.084H621.589z M558.464,322.131v5.084h3.39v-5.084H558.464z"/>
		</defs>
		<use xlink:href="#SVGID_1_"  style="overflow:visible;fill-rule:evenodd;clip-rule:evenodd;fill:#5B5D65;"/>
		<clipPath id="SVGID_00000178201604461402523570000006401122921229639072_">
			<use xlink:href="#SVGID_1_"  style="overflow:visible;"/>
		</clipPath>
		
			<rect x="558.465" y="322.13" style="clip-path:url(#SVGID_00000178201604461402523570000006401122921229639072_);fill:#5B5D65;" width="186.832" height="5.084"/>
	</g>
	<rect x="631.333" y="483.119" style="fill:#5B5D65;" width="97.441" height="5.508"/>
	<rect x="545.331" y="553.87" style="fill:#5B5D65;" width="13.133" height="66.937"/>
	<rect x="253.433" y="402.201" style="fill:#5B5D65;" width="171.58" height="13.133"/>
	<rect x="745.296" y="80.224" style="fill:#5B5D65;" width="13.133" height="233.858"/>
	<g>
		<defs>
			<path id="SVGID_00000144296542177852225740000017170328338979560832_" d="M625.826,437.789v45.331h5.507v-45.331H625.826z
				 M625.826,327.214v54.228h5.507v-54.228H625.826z"/>
		</defs>
		
			<use xlink:href="#SVGID_00000144296542177852225740000017170328338979560832_"  style="overflow:visible;fill-rule:evenodd;clip-rule:evenodd;fill:#5B5D65;"/>
		<clipPath id="SVGID_00000145039641202893051500000014242101739530476427_">
			<use xlink:href="#SVGID_00000144296542177852225740000017170328338979560832_"  style="overflow:visible;"/>
		</clipPath>
		
			<rect x="625.826" y="327.214" style="clip-path:url(#SVGID_00000145039641202893051500000014242101739530476427_);fill:#5B5D65;" width="5.508" height="155.906"/>
	</g>
	<rect x="545.331" y="73.869" style="fill:#5B5D65;" width="13.133" height="186.408"/>
	<g>
		<defs>
			<path id="SVGID_00000151518071461321524270000016157327467749370511_" d="M625.826,599.201v37.705h5.507v-37.705H625.826z
				 M625.826,483.119v62.701h5.507v-62.701H625.826z"/>
		</defs>
		
			<use xlink:href="#SVGID_00000151518071461321524270000016157327467749370511_"  style="overflow:visible;fill-rule:evenodd;clip-rule:evenodd;fill:#5B5D65;"/>
		<clipPath id="SVGID_00000181073755748053678980000010780155127079770557_">
			<use xlink:href="#SVGID_00000151518071461321524270000016157327467749370511_"  style="overflow:visible;"/>
		</clipPath>
		
			<rect x="625.826" y="483.119" style="clip-path:url(#SVGID_00000181073755748053678980000010780155127079770557_);fill:#5B5D65;" width="5.508" height="153.787"/>
	</g>
	<g>
		<defs>
			<path id="SVGID_00000145759137407370858380000004529964041729061812_" d="M425.013,520.825v33.045h13.557v-33.045H425.013z
				 M425.013,402.201v51.686h13.557v-51.686H425.013z"/>
		</defs>
		
			<use xlink:href="#SVGID_00000145759137407370858380000004529964041729061812_"  style="overflow:visible;fill-rule:evenodd;clip-rule:evenodd;fill:#5B5D65;"/>
		<clipPath id="SVGID_00000145054464148462895960000006177711513940453002_">
			<use xlink:href="#SVGID_00000145759137407370858380000004529964041729061812_"  style="overflow:visible;"/>
		</clipPath>
		
			<rect x="425.013" y="402.201" style="clip-path:url(#SVGID_00000145054464148462895960000006177711513940453002_);fill:#5B5D65;" width="13.557" height="151.668"/>
	</g>
	<rect x="438.57" y="402.201" style="fill:#5B5D65;" width="121.165" height="5.084"/>
	<g>
		<defs>
			<path id="SVGID_00000000925528589512565550000001084655602688974513_" d="M624.131,631.823v5.084h1.695v-5.084H624.131z
				 M558.464,631.823v5.084h5.508v-5.084H558.464z"/>
		</defs>
		
			<use xlink:href="#SVGID_00000000925528589512565550000001084655602688974513_"  style="overflow:visible;fill-rule:evenodd;clip-rule:evenodd;fill:#5B5D65;"/>
		<clipPath id="SVGID_00000130622664591938106350000018255286626113308089_">
			<use xlink:href="#SVGID_00000000925528589512565550000001084655602688974513_"  style="overflow:visible;"/>
		</clipPath>
		
			<rect x="558.465" y="631.822" style="clip-path:url(#SVGID_00000130622664591938106350000018255286626113308089_);fill:#5B5D65;" width="67.361" height="5.085"/>
	</g>
	<rect x="631.333" y="630.551" style="fill:#5B5D65;" width="113.963" height="6.355"/>
	<rect x="425.013" y="553.87" style="fill:#5B5D65;" width="120.318" height="13.557"/>
	<rect x="631.333" y="336.111" style="fill:#5B5D65;" width="105.067" height="4.66"/>
	<rect x="732.163" y="340.772" style="fill:#5B5D65;" width="4.236" height="117.776"/>
	<rect x="724.114" y="539.889" style="fill:#5B5D65;" width="21.183" height="4.66"/>
	<rect x="724.114" y="544.55" style="fill:#5B5D65;" width="4.66" height="19.911"/>
	<rect x="724.114" y="458.547" style="fill:#5B5D65;" width="12.286" height="4.66"/>
	<rect x="728.774" y="483.119" style="fill:#5B5D65;" width="16.523" height="5.508"/>
	<rect x="732.163" y="569.122" style="fill:#5B5D65;" width="4.236" height="61.43"/>
	<rect x="724.114" y="564.461" style="fill:#5B5D65;" width="12.286" height="4.66"/>
	<rect x="724.114" y="463.208" style="fill:#5B5D65;" width="4.66" height="19.911"/>
</g>
<g id="&#x448;&#x430;&#x445;&#x442;&#x44B;">
	<g>
		
			<polyline style="fill:#FFFFFF;stroke:#5B5D65;stroke-width:0.6177;stroke-linecap:round;stroke-linejoin:round;stroke-miterlimit:10;" points="
			729.022,564.461 745.298,564.461 745.298,544.55 729.022,544.55 729.022,564.461 		"/>
		<polygon style="fill:#5B5D65;" points="729.022,544.55 729.022,564.461 732.906,549.756 745.298,544.55 		"/>
	</g>
	<g>
		
			<polyline style="fill:#FFFFFF;stroke:#5B5D65;stroke-width:0.6177;stroke-linecap:round;stroke-linejoin:round;stroke-miterlimit:10;" points="
			728.988,483.119 745.298,483.119 745.298,462.999 728.988,462.999 728.988,483.119 		"/>
		<polygon style="fill:#5B5D65;" points="728.988,462.999 728.988,483.119 732.88,468.26 745.298,462.999 		"/>
	</g>
</g>
<g id="&#x43F;&#x443;&#x43D;&#x43A;&#x442;&#x438;&#x440;">
	
		<line style="fill:none;stroke:#5B5D65;stroke-width:0.6177;stroke-linecap:round;stroke-linejoin:round;stroke-miterlimit:10;stroke-dasharray:11.0311,11.0311,0,0,0,0;" x1="558.464" y1="327.214" x2="558.464" y2="553.87"/>
	
		<line style="fill:none;stroke:#5B5D65;stroke-width:0.6177;stroke-linecap:round;stroke-linejoin:round;stroke-miterlimit:10;stroke-dasharray:11.0311,11.0311,0,0,0,0;" x1="251.315" y1="214.946" x2="545.543" y2="214.946"/>
</g>
<g id="&#x43C;&#x435;&#x431;&#x435;&#x43B;&#x44C;_x2C__&#x441;&#x430;&#x43D;&#x442;&#x435;&#x445;&#x43D;&#x438;&#x43A;&#x430;">
	<g>
		
			<rect x="345.322" y="364.678" transform="matrix(-1 -1.224647e-16 1.224647e-16 -1 728.1671 766.88)" style="opacity:0.8;fill:none;stroke:#5B5D65;stroke-width:0.3089;stroke-linecap:round;stroke-linejoin:round;stroke-miterlimit:10;" width="37.523" height="37.523"/>
		<g>
			
				<circle style="opacity:0.8;fill:none;stroke:#5B5D65;stroke-width:0.3089;stroke-linecap:round;stroke-linejoin:round;stroke-miterlimit:10;" cx="354.171" cy="392.164" r="6.567"/>
		</g>
		<g>
			
				<circle style="opacity:0.8;fill:none;stroke:#5B5D65;stroke-width:0.3089;stroke-linecap:round;stroke-linejoin:round;stroke-miterlimit:10;" cx="374.935" cy="376.161" r="5.628"/>
		</g>
		<g>
			
				<circle style="opacity:0.8;fill:none;stroke:#5B5D65;stroke-width:0.3089;stroke-linecap:round;stroke-linejoin:round;stroke-miterlimit:10;" cx="374.935" cy="392.164" r="4.378"/>
		</g>
		<g>
			
				<circle style="opacity:0.8;fill:none;stroke:#5B5D65;stroke-width:0.3089;stroke-linecap:round;stroke-linejoin:round;stroke-miterlimit:10;" cx="354.171" cy="376.161" r="4.378"/>
		</g>
		
			<circle style="opacity:0.8;fill:none;stroke:#5B5D65;stroke-width:0.3089;stroke-linecap:round;stroke-linejoin:round;stroke-miterlimit:10;" cx="365.211" cy="367.58" r="0.423"/>
		
			<circle style="opacity:0.8;fill:none;stroke:#5B5D65;stroke-width:0.3089;stroke-linecap:round;stroke-linejoin:round;stroke-miterlimit:10;" cx="362.868" cy="367.58" r="0.423"/>
		
			<circle style="opacity:0.8;fill:none;stroke:#5B5D65;stroke-width:0.3089;stroke-linecap:round;stroke-linejoin:round;stroke-miterlimit:10;" cx="362.868" cy="369.923" r="0.423"/>
		
			<circle style="opacity:0.8;fill:none;stroke:#5B5D65;stroke-width:0.3089;stroke-linecap:round;stroke-linejoin:round;stroke-miterlimit:10;" cx="365.211" cy="369.923" r="0.423"/>
	</g>
	<g>
		
			<rect x="253.856" y="320.285" transform="matrix(-3.267948e-07 -1 1 -3.267948e-07 -66.4292 611.6649)" style="opacity:0.8;fill:none;stroke:#5B5D65;stroke-width:0.3089;stroke-linecap:round;stroke-linejoin:round;stroke-miterlimit:10;" width="37.523" height="37.523"/>
		
			<circle style="opacity:0.8;fill:none;stroke:#5B5D65;stroke-width:0.3089;stroke-linecap:round;stroke-linejoin:round;stroke-miterlimit:10;" cx="269.171" cy="339.023" r="2.815"/>
		
			<circle style="opacity:0.8;fill:none;stroke:#5B5D65;stroke-width:0.3089;stroke-linecap:round;stroke-linejoin:round;stroke-miterlimit:10;" cx="259.485" cy="339.023" r="1.095"/>
		
			<circle style="opacity:0.8;fill:none;stroke:#5B5D65;stroke-width:0.3089;stroke-linecap:round;stroke-linejoin:round;stroke-miterlimit:10;" cx="259.485" cy="328.139" r="1.095"/>
		
			<path style="opacity:0.8;fill:none;stroke:#5B5D65;stroke-width:0.3089;stroke-linecap:round;stroke-linejoin:round;stroke-miterlimit:10;" d="
			M288.252,323.725l0,30.644c0,0.172-0.141,0.313-0.313,0.313h-30.644c-0.172,0-0.313-0.141-0.313-0.313l0-30.644
			c0-0.172,0.141-0.313,0.313-0.313l30.644,0C288.112,323.412,288.252,323.553,288.252,323.725z"/>
		
			<path style="opacity:0.8;fill:none;stroke:#5B5D65;stroke-width:0.3089;stroke-linecap:round;stroke-linejoin:round;stroke-miterlimit:10;" d="
			M286.686,325.274v27.517c0,0.172-0.141,0.313-0.313,0.313h-24.39c-0.172,0-0.313-0.141-0.313-0.313l0-27.517
			c0-0.172,0.141-0.313,0.313-0.313h24.39C286.545,324.961,286.686,325.102,286.686,325.274z"/>
	</g>
	<g>
		
			<line style="opacity:0.8;fill:none;stroke:#5B5D65;stroke-width:0.3089;stroke-linecap:round;stroke-linejoin:round;stroke-miterlimit:10;" x1="739.923" y1="510.317" x2="739.923" y2="505.751"/>
		
			<path style="opacity:0.8;fill:none;stroke:#5B5D65;stroke-width:0.3089;stroke-linecap:round;stroke-linejoin:round;stroke-miterlimit:10;" d="
			M739.923,503.728v-9.436c0-1.288-1.127-2.33-2.515-2.33l-73.013,0c-4.982,0-9.791,1.719-13.48,4.818
			c-8.754,7.362-8.754,20.105,0,27.465c3.689,3.104,8.498,4.823,13.48,4.823l73.013,0c1.388,0,2.515-1.046,2.515-2.334v-11.049"/>
		
			<rect x="638.981" y="488.627" style="opacity:0.8;fill:none;stroke:#5B5D65;stroke-width:0.3089;stroke-linecap:round;stroke-linejoin:round;stroke-miterlimit:10;" width="106.315" height="43.777"/>
		
			<path style="opacity:0.8;fill:none;stroke:#5B5D65;stroke-width:0.3089;stroke-linecap:round;stroke-linejoin:round;stroke-miterlimit:10;" d="
			M723.628,510.514c0-1.238,1.002-2.239,2.239-2.239c1.235,0,2.239,1.002,2.239,2.239c0,1.238-1.004,2.241-2.239,2.241
			C724.63,512.755,723.628,511.752,723.628,510.514z"/>
		
			<path style="opacity:0.8;fill:none;stroke:#5B5D65;stroke-width:0.3089;stroke-linecap:round;stroke-linejoin:round;stroke-miterlimit:10;" d="
			M745.295,505.751v-2.023h-3.296h-0.225h-5.209c0,0-1.072,0.038-1.072,1.01c0,0.973,1.072,1.013,1.072,1.013h5.209h0.225h1.216"/>
		
			<path style="opacity:0.8;fill:none;stroke:#5B5D65;stroke-width:0.3089;stroke-linecap:round;stroke-linejoin:round;stroke-miterlimit:10;" d="
			M742.461,514.157l0.656,0.054c1.041,0.084,2.028-0.699,2.162-1.847c0.009-0.077,0.013-0.152,0.013-0.232
			c0-0.077-0.004-0.154-0.013-0.232c-0.134-1.147-1.121-1.93-2.162-1.849l-11.304,0.933c-0.36,0-0.651,0.322-0.651,0.721v0.849
			c0,0.401,0.291,0.719,0.651,0.719l5.726,0.474"/>
		
			<path style="opacity:0.8;fill:none;stroke:#5B5D65;stroke-width:0.3089;stroke-linecap:round;stroke-linejoin:round;stroke-miterlimit:10;" d="
			M737.172,515.882l-0.201-0.331c-0.353-0.591-0.163-1.363,0.428-1.716l4.536-2.733c0.589-0.355,1.361-0.163,1.719,0.424
			l0.199,0.338c0.355,0.585,0.161,1.359-0.426,1.714l-4.538,2.731C738.299,516.663,737.527,516.473,737.172,515.882z"/>
		
			<path style="opacity:0.8;fill:none;stroke:#5B5D65;stroke-width:0.3089;stroke-linecap:round;stroke-linejoin:round;stroke-miterlimit:10;" d="
			M742.554,514.099c0.086,1.595,0.25,3.668,0.531,4.222c0.395,0.772,1.494,0.43,1.494,0.43h0.702l0-13.241h-0.702
			c0,0-1.099-0.34-1.494,0.432c-0.277,0.546-0.44,2.569-0.527,4.156"/>
		
			<path style="opacity:0.8;fill:none;stroke:#5B5D65;stroke-width:0.3089;stroke-linecap:round;stroke-linejoin:round;stroke-miterlimit:10;" d="
			M739.923,502.854c-0.661-1.182-1.926-1.981-3.375-1.981c-2.136,0-3.867,1.73-3.867,3.865c0,2.136,1.732,3.865,3.867,3.865
			c1.45,0,2.714-0.799,3.375-1.981"/>
	</g>
	<g>
		
			<ellipse style="opacity:0.8;fill:none;stroke:#5B5D65;stroke-width:0.3089;stroke-linecap:round;stroke-linejoin:round;stroke-miterlimit:10;" cx="726.504" cy="607.373" rx="1.027" ry="1.03"/>
		
			<line style="opacity:0.8;fill:none;stroke:#5B5D65;stroke-width:0.3089;stroke-linecap:round;stroke-linejoin:round;stroke-miterlimit:10;" x1="726.504" y1="605.574" x2="726.504" y2="606.343"/>
		
			<line style="opacity:0.8;fill:none;stroke:#5B5D65;stroke-width:0.3089;stroke-linecap:round;stroke-linejoin:round;stroke-miterlimit:10;" x1="726.504" y1="608.403" x2="726.504" y2="609.172"/>
		
			<line style="opacity:0.8;fill:none;stroke:#5B5D65;stroke-width:0.3089;stroke-linecap:round;stroke-linejoin:round;stroke-miterlimit:10;" x1="724.709" y1="607.373" x2="725.476" y2="607.373"/>
		
			<line style="opacity:0.8;fill:none;stroke:#5B5D65;stroke-width:0.3089;stroke-linecap:round;stroke-linejoin:round;stroke-miterlimit:10;" x1="727.531" y1="607.373" x2="728.298" y2="607.373"/>
		
			<line style="opacity:0.8;fill:none;stroke:#5B5D65;stroke-width:0.3089;stroke-linecap:round;stroke-linejoin:round;stroke-miterlimit:10;" x1="718.171" y1="601.642" x2="718.171" y2="602.057"/>
		
			<line style="opacity:0.8;fill:none;stroke:#5B5D65;stroke-width:0.3089;stroke-linecap:round;stroke-linejoin:round;stroke-miterlimit:10;" x1="718.171" y1="603.168" x2="718.171" y2="603.583"/>
		
			<line style="opacity:0.8;fill:none;stroke:#5B5D65;stroke-width:0.3089;stroke-linecap:round;stroke-linejoin:round;stroke-miterlimit:10;" x1="717.203" y1="602.613" x2="717.617" y2="602.613"/>
		
			<line style="opacity:0.8;fill:none;stroke:#5B5D65;stroke-width:0.3089;stroke-linecap:round;stroke-linejoin:round;stroke-miterlimit:10;" x1="718.725" y1="602.613" x2="719.139" y2="602.613"/>
		
			<circle style="opacity:0.8;fill:none;stroke:#5B5D65;stroke-width:0.3089;stroke-linecap:round;stroke-linejoin:round;stroke-miterlimit:10;" cx="718.171" cy="602.613" r="0.555"/>
		
			<circle style="opacity:0.8;fill:none;stroke:#5B5D65;stroke-width:0.3089;stroke-linecap:round;stroke-linejoin:round;stroke-miterlimit:10;" cx="718.171" cy="612.133" r="0.555"/>
		
			<line style="opacity:0.8;fill:none;stroke:#5B5D65;stroke-width:0.3089;stroke-linecap:round;stroke-linejoin:round;stroke-miterlimit:10;" x1="718.171" y1="611.163" x2="718.171" y2="611.578"/>
		
			<line style="opacity:0.8;fill:none;stroke:#5B5D65;stroke-width:0.3089;stroke-linecap:round;stroke-linejoin:round;stroke-miterlimit:10;" x1="718.171" y1="612.689" x2="718.171" y2="613.104"/>
		
			<line style="opacity:0.8;fill:none;stroke:#5B5D65;stroke-width:0.3089;stroke-linecap:round;stroke-linejoin:round;stroke-miterlimit:10;" x1="717.203" y1="612.133" x2="717.617" y2="612.133"/>
		
			<line style="opacity:0.8;fill:none;stroke:#5B5D65;stroke-width:0.3089;stroke-linecap:round;stroke-linejoin:round;stroke-miterlimit:10;" x1="718.725" y1="612.133" x2="719.139" y2="612.133"/>
		
			<path style="opacity:0.8;fill:none;stroke:#5B5D65;stroke-width:0.3089;stroke-linecap:round;stroke-linejoin:round;stroke-miterlimit:10;" d="
			M709.298,617.43c0.429-0.028,0.781-0.061,1.013-0.085c4.224-0.751,7.048-1.659,11.272-2.411c-0.263-2.272-0.437-4.805-0.438-7.561
			c0-2.767,0.174-5.31,0.438-7.59c-4.224-0.751-7.048-1.631-11.272-2.382c-0.232-0.024-0.584-0.057-1.013-0.085
			c-2.532-0.167-6.797-0.447-10.644,1.637c-0.621,0.336-1.871,1.027-3.066,2.346c-0.716,0.79-2.56,2.89-2.561,5.998
			c0,0.026,0.002,0.05,0.003,0.076c0,0.026-0.003,0.05-0.003,0.076c0.002,3.108,1.846,5.208,2.561,5.998
			c1.195,1.319,2.445,2.01,3.066,2.346C702.501,617.877,706.766,617.597,709.298,617.43z"/>
		
			<path style="opacity:0.8;fill:none;stroke:#5B5D65;stroke-width:0.3089;stroke-linecap:round;stroke-linejoin:round;stroke-miterlimit:10;" d="
			M708.591,615.786c1.27-0.177,2.691-0.391,4.15-1.391c1.799-1.232,2.53-2.887,2.76-3.426c0.627-1.47,0.627-2.722,0.627-3.596
			c0-0.874,0-2.126-0.627-3.596c-0.23-0.539-0.961-2.194-2.76-3.426c-1.459-0.999-2.88-1.213-4.15-1.391
			c-1.619-0.226-5.85-0.816-9.659,1.671c-0.948,0.619-2.95,1.945-3.777,4.492c-0.171,0.528-0.697,2.354,0,4.5
			c0.827,2.547,2.828,3.872,3.777,4.492C702.741,616.602,706.973,616.011,708.591,615.786z"/>
		
			<path style="opacity:0.8;fill:none;stroke:#5B5D65;stroke-width:0.3089;stroke-linecap:round;stroke-linejoin:round;stroke-miterlimit:10;" d="
			M712.57,612.592c1.94-1.973,1.933-4.544,1.928-5.219c0.005-0.674,0.012-3.246-1.928-5.219c-1.716-1.745-4.072-2.123-5.943-2.111
			c-1.157,0.008-2.041,0.103-2.76,0.229c-1.778,0.314-3.563,0.629-5.097,1.93c-1.213,1.029-2.486,2.858-2.462,5.187
			c0.028,2.755,1.854,4.531,2.489,5.079c1.593,1.374,3.448,1.711,5.07,2.006c0.657,0.119,1.568,0.222,2.76,0.229
			C708.498,614.715,710.854,614.337,712.57,612.592z"/>
		
			<path style="opacity:0.8;fill:none;stroke:#5B5D65;stroke-width:0.3089;stroke-linecap:round;stroke-linejoin:round;stroke-miterlimit:10;" d="
			M711.555,609.975c0.303-0.106,0.799-0.324,1.254-0.766c0.255-0.248,0.427-0.497,0.541-0.698c0-0.004,0-0.008,0-0.012
			c0-1.05,0-1.209,0-2.252c0-0.004,0-0.008,0-0.012c-0.114-0.201-0.286-0.45-0.541-0.698c-0.455-0.442-0.951-0.66-1.254-0.766
			c-1.398-0.037-2.797-0.074-4.195-0.111c-0.188,0.011-0.895,0.074-1.477,0.614c-0.454,0.421-0.587,0.905-0.629,1.1
			c0,0.665,0,1.331,0,1.996c0.042,0.195,0.175,0.679,0.629,1.101c0.582,0.54,1.289,0.603,1.477,0.614
			C708.758,610.049,710.156,610.012,711.555,609.975z"/>
		
			<path style="opacity:0.8;fill:none;stroke:#5B5D65;stroke-width:0.3089;stroke-linecap:round;stroke-linejoin:round;stroke-miterlimit:10;" d="
			M709.903,610.024c-0.249-0.317-0.919-1.26-0.929-2.617c-0.011-1.398,0.684-2.37,0.929-2.684"/>
		
			<path style="opacity:0.8;fill:none;stroke:#5B5D65;stroke-width:0.3089;stroke-linecap:round;stroke-linejoin:round;stroke-miterlimit:10;" d="
			M732.738,618.107V596.64c0-0.289-0.251-0.523-0.56-0.523c0,0-5.199,0-5.755,0c-0.304,0.066-0.701,0.171-1.146,0.345
			c-0.445,0.174-0.939,0.416-1.439,0.757c-0.659,0.449-1.152,0.949-1.516,1.407c-0.364,0.458-0.598,0.875-0.741,1.159
			c-0.132,1.14-0.241,2.345-0.318,3.612c-0.076,1.267-0.12,2.594-0.12,3.978c0,1.378,0.044,2.7,0.12,3.962
			c0.076,1.262,0.186,2.463,0.317,3.599c0.106,0.251,0.285,0.628,0.577,1.051c0.292,0.423,0.695,0.893,1.249,1.329
			c0.598,0.472,1.209,0.777,1.742,0.976c0.533,0.199,0.988,0.292,1.273,0.339c0.634,0,5.755,0,5.755,0
			C732.488,618.63,732.738,618.396,732.738,618.107z"/>
	</g>
	<g>
		
			<path style="opacity:0.8;fill:none;stroke:#5B5D65;stroke-width:0.3089;stroke-linecap:round;stroke-linejoin:round;stroke-miterlimit:10;" d="
			M713.021,556.045c-0.789,0-1.428-0.643-1.428-1.434c0-0.789,0.639-1.43,1.428-1.43c0.791,0,1.43,0.641,1.43,1.43
			C714.451,555.403,713.812,556.045,713.021,556.045z"/>
		
			<line style="opacity:0.8;fill:none;stroke:#5B5D65;stroke-width:0.3089;stroke-linecap:round;stroke-linejoin:round;stroke-miterlimit:10;" x1="713.022" y1="552.526" x2="713.022" y2="556.7"/>
		
			<line style="opacity:0.8;fill:none;stroke:#5B5D65;stroke-width:0.3089;stroke-linecap:round;stroke-linejoin:round;stroke-miterlimit:10;" x1="710.935" y1="554.613" x2="715.109" y2="554.613"/>
		
			<path style="opacity:0.8;fill:none;stroke:#5B5D65;stroke-width:0.3089;stroke-linecap:round;stroke-linejoin:round;stroke-miterlimit:10;" d="
			M719.879,555.639c-0.566,0-1.025-0.46-1.025-1.027c0-0.565,0.459-1.025,1.025-1.025c0.568,0,1.026,0.459,1.026,1.025
			C720.905,555.179,720.446,555.639,719.879,555.639z"/>
		
			<line style="opacity:0.8;fill:none;stroke:#5B5D65;stroke-width:0.3089;stroke-linecap:round;stroke-linejoin:round;stroke-miterlimit:10;" x1="719.88" y1="552.974" x2="719.88" y2="556.253"/>
		
			<line style="opacity:0.8;fill:none;stroke:#5B5D65;stroke-width:0.3089;stroke-linecap:round;stroke-linejoin:round;stroke-miterlimit:10;" x1="718.24" y1="554.613" x2="721.519" y2="554.613"/>
		
			<path style="opacity:0.8;fill:none;stroke:#5B5D65;stroke-width:0.3089;stroke-linecap:round;stroke-linejoin:round;stroke-miterlimit:10;" d="
			M713.626,570.073c0.736,0.055,1.647,0.089,2.693,0.051c0.409-0.015,1.188-0.054,2.167-0.176c0.806-0.101,1.81-0.267,2.952-0.551
			c0.923-0.308,1.845-0.616,2.768-0.924c0-0.001,0-0.006,0-0.008c0-0.392,0-27.803,0-27.917c0-0.002,0-0.008,0-0.008
			c-0.923-0.308-1.845-0.616-2.768-0.924c-1.142-0.284-2.146-0.45-2.952-0.551c-0.979-0.123-1.758-0.161-2.167-0.176
			c-1.046-0.038-1.957-0.004-2.693,0.051c-1.021,0.021-7.561,0.263-11.834,5.562c-3.163,3.923-3.228,8.315-3.228,10.005
			s0.065,6.082,3.228,10.005C706.066,569.81,712.606,570.051,713.626,570.073z"/>
		
			<path style="opacity:0.8;fill:none;stroke:#5B5D65;stroke-width:0.3089;stroke-linecap:round;stroke-linejoin:round;stroke-miterlimit:10;" d="
			M712.025,565.797c0.357,0.032,0.842,0.064,1.42-0.108c0.03-0.009,0.055-0.017,0.077-0.025c0,0,0.504-0.173,0.96-0.559
			c2.381-2.013,2.381-10.499,2.381-10.499l0,0c0-4.66-0.253-8.583-2.378-10.342c-0.001-0.001-0.002-0.001-0.002-0.002
			c0,0-0.001-0.001-0.001-0.001c-0.47-0.411-0.89-0.539-0.959-0.558c0,0-0.001,0-0.001,0c-0.632-0.216-1.402-0.14-1.498-0.133
			c-0.729,0.049-1.094,0.074-1.617,0.18c-3.001,0.608-4.868,1.863-4.868,1.863c-1.391,0.936-2.232,1.956-2.664,2.489
			c-0.346,0.427-0.87,1.079-1.351,2.025c-1.053,2.07-1.104,3.972-1.107,4.48c-0.013,2.242,0.75,3.887,1.107,4.633l0,0
			c0.296,0.548,0.732,1.261,1.352,2.026c0.425,0.525,1.269,1.55,2.664,2.489c0,0,1.884,1.267,4.868,1.863
			C710.735,565.682,711.165,565.72,712.025,565.797z"/>
	</g>
	<g>
		
			<ellipse style="opacity:0.8;fill:none;stroke:#5B5D65;stroke-width:0.3089;stroke-linecap:round;stroke-linejoin:round;stroke-miterlimit:10;" cx="725.928" cy="432.196" rx="1.027" ry="1.03"/>
		
			<line style="opacity:0.8;fill:none;stroke:#5B5D65;stroke-width:0.3089;stroke-linecap:round;stroke-linejoin:round;stroke-miterlimit:10;" x1="725.928" y1="430.396" x2="725.928" y2="431.166"/>
		
			<line style="opacity:0.8;fill:none;stroke:#5B5D65;stroke-width:0.3089;stroke-linecap:round;stroke-linejoin:round;stroke-miterlimit:10;" x1="725.928" y1="433.226" x2="725.928" y2="433.995"/>
		
			<line style="opacity:0.8;fill:none;stroke:#5B5D65;stroke-width:0.3089;stroke-linecap:round;stroke-linejoin:round;stroke-miterlimit:10;" x1="724.134" y1="432.196" x2="724.901" y2="432.196"/>
		
			<line style="opacity:0.8;fill:none;stroke:#5B5D65;stroke-width:0.3089;stroke-linecap:round;stroke-linejoin:round;stroke-miterlimit:10;" x1="726.956" y1="432.196" x2="727.723" y2="432.196"/>
		
			<line style="opacity:0.8;fill:none;stroke:#5B5D65;stroke-width:0.3089;stroke-linecap:round;stroke-linejoin:round;stroke-miterlimit:10;" x1="717.596" y1="426.464" x2="717.596" y2="426.879"/>
		
			<line style="opacity:0.8;fill:none;stroke:#5B5D65;stroke-width:0.3089;stroke-linecap:round;stroke-linejoin:round;stroke-miterlimit:10;" x1="717.596" y1="427.991" x2="717.596" y2="428.406"/>
		
			<line style="opacity:0.8;fill:none;stroke:#5B5D65;stroke-width:0.3089;stroke-linecap:round;stroke-linejoin:round;stroke-miterlimit:10;" x1="716.628" y1="427.435" x2="717.041" y2="427.435"/>
		
			<line style="opacity:0.8;fill:none;stroke:#5B5D65;stroke-width:0.3089;stroke-linecap:round;stroke-linejoin:round;stroke-miterlimit:10;" x1="718.15" y1="427.435" x2="718.564" y2="427.435"/>
		
			<circle style="opacity:0.8;fill:none;stroke:#5B5D65;stroke-width:0.3089;stroke-linecap:round;stroke-linejoin:round;stroke-miterlimit:10;" cx="717.596" cy="427.435" r="0.555"/>
		
			<circle style="opacity:0.8;fill:none;stroke:#5B5D65;stroke-width:0.3089;stroke-linecap:round;stroke-linejoin:round;stroke-miterlimit:10;" cx="717.596" cy="436.956" r="0.555"/>
		
			<line style="opacity:0.8;fill:none;stroke:#5B5D65;stroke-width:0.3089;stroke-linecap:round;stroke-linejoin:round;stroke-miterlimit:10;" x1="717.596" y1="435.985" x2="717.596" y2="436.4"/>
		
			<line style="opacity:0.8;fill:none;stroke:#5B5D65;stroke-width:0.3089;stroke-linecap:round;stroke-linejoin:round;stroke-miterlimit:10;" x1="717.596" y1="437.512" x2="717.596" y2="437.927"/>
		
			<line style="opacity:0.8;fill:none;stroke:#5B5D65;stroke-width:0.3089;stroke-linecap:round;stroke-linejoin:round;stroke-miterlimit:10;" x1="716.628" y1="436.956" x2="717.041" y2="436.956"/>
		
			<line style="opacity:0.8;fill:none;stroke:#5B5D65;stroke-width:0.3089;stroke-linecap:round;stroke-linejoin:round;stroke-miterlimit:10;" x1="718.15" y1="436.956" x2="718.564" y2="436.956"/>
		
			<path style="opacity:0.8;fill:none;stroke:#5B5D65;stroke-width:0.3089;stroke-linecap:round;stroke-linejoin:round;stroke-miterlimit:10;" d="
			M708.723,442.253c0.429-0.028,0.781-0.061,1.013-0.085c4.224-0.751,7.048-1.659,11.272-2.411
			c-0.263-2.272-0.437-4.805-0.438-7.561c0-2.767,0.174-5.31,0.438-7.59c-4.224-0.751-7.048-1.631-11.272-2.382
			c-0.232-0.024-0.584-0.057-1.013-0.085c-2.532-0.166-6.797-0.447-10.644,1.637c-0.621,0.336-1.871,1.027-3.066,2.346
			c-0.716,0.79-2.56,2.89-2.561,5.998c0,0.026,0.002,0.05,0.003,0.076c0,0.026-0.003,0.05-0.003,0.076
			c0.002,3.108,1.846,5.208,2.561,5.998c1.195,1.319,2.445,2.01,3.066,2.346C701.925,442.699,706.191,442.419,708.723,442.253z"/>
		
			<path style="opacity:0.8;fill:none;stroke:#5B5D65;stroke-width:0.3089;stroke-linecap:round;stroke-linejoin:round;stroke-miterlimit:10;" d="
			M708.016,440.608c1.27-0.177,2.691-0.391,4.15-1.39c1.799-1.232,2.53-2.887,2.76-3.426c0.627-1.47,0.627-2.722,0.627-3.596
			c0-0.874,0-2.126-0.627-3.596c-0.23-0.539-0.961-2.194-2.76-3.426c-1.459-0.999-2.88-1.213-4.15-1.39
			c-1.619-0.226-5.85-0.816-9.659,1.671c-0.948,0.619-2.95,1.945-3.777,4.492c-0.171,0.528-0.697,2.354,0,4.5
			c0.827,2.547,2.828,3.872,3.777,4.492C702.166,441.424,706.398,440.834,708.016,440.608z"/>
		
			<path style="opacity:0.8;fill:none;stroke:#5B5D65;stroke-width:0.3089;stroke-linecap:round;stroke-linejoin:round;stroke-miterlimit:10;" d="
			M711.995,437.414c1.94-1.973,1.933-4.544,1.928-5.219c0.005-0.675,0.012-3.246-1.928-5.219c-1.716-1.745-4.072-2.123-5.943-2.111
			c-1.157,0.007-2.041,0.103-2.76,0.229c-1.778,0.314-3.563,0.629-5.097,1.93c-1.213,1.029-2.486,2.858-2.462,5.187
			c0.028,2.755,1.854,4.531,2.489,5.079c1.593,1.374,3.448,1.711,5.069,2.006c0.657,0.119,1.568,0.222,2.76,0.229
			C707.922,439.538,710.279,439.16,711.995,437.414z"/>
		
			<path style="opacity:0.8;fill:none;stroke:#5B5D65;stroke-width:0.3089;stroke-linecap:round;stroke-linejoin:round;stroke-miterlimit:10;" d="
			M710.979,434.798c0.303-0.106,0.799-0.324,1.254-0.766c0.255-0.248,0.427-0.497,0.541-0.698c0-0.004,0-0.008,0-0.012
			c0-1.05,0-1.209,0-2.252c0-0.004,0-0.007,0-0.012c-0.114-0.201-0.286-0.45-0.541-0.698c-0.455-0.442-0.951-0.66-1.254-0.766
			c-1.398-0.037-2.797-0.074-4.195-0.111c-0.188,0.011-0.895,0.074-1.477,0.614c-0.454,0.421-0.587,0.905-0.629,1.1
			c0,0.665,0,1.331,0,1.996c0.042,0.195,0.175,0.679,0.629,1.101c0.582,0.54,1.289,0.603,1.477,0.614
			C708.182,434.871,709.581,434.835,710.979,434.798z"/>
		
			<path style="opacity:0.8;fill:none;stroke:#5B5D65;stroke-width:0.3089;stroke-linecap:round;stroke-linejoin:round;stroke-miterlimit:10;" d="
			M709.327,434.846c-0.249-0.317-0.919-1.26-0.929-2.617c-0.011-1.398,0.684-2.37,0.929-2.684"/>
		
			<path style="opacity:0.8;fill:none;stroke:#5B5D65;stroke-width:0.3089;stroke-linecap:round;stroke-linejoin:round;stroke-miterlimit:10;" d="
			M732.163,442.929v-21.467c0-0.289-0.251-0.524-0.56-0.524c0,0-5.199,0-5.755,0c-0.304,0.066-0.701,0.171-1.146,0.345
			c-0.445,0.174-0.939,0.416-1.439,0.757c-0.659,0.449-1.152,0.949-1.516,1.407c-0.364,0.458-0.598,0.875-0.741,1.159
			c-0.132,1.14-0.241,2.345-0.318,3.612c-0.076,1.267-0.12,2.594-0.12,3.978c0,1.378,0.044,2.7,0.12,3.962
			c0.076,1.262,0.186,2.463,0.317,3.599c0.106,0.251,0.285,0.628,0.577,1.051c0.292,0.423,0.695,0.893,1.249,1.329
			c0.598,0.472,1.209,0.777,1.742,0.976c0.533,0.199,0.988,0.292,1.273,0.339c0.634,0,5.755,0,5.755,0
			C731.913,443.453,732.163,443.218,732.163,442.929z"/>
	</g>
	<g>
		
			<path style="opacity:0.8;fill:none;stroke:#5B5D65;stroke-width:0.3089;stroke-linecap:round;stroke-linejoin:round;stroke-miterlimit:10;" d="
			M650.976,472.045c0-0.789,0.643-1.428,1.434-1.428c0.789,0,1.43,0.639,1.43,1.428c0,0.791-0.641,1.43-1.43,1.43
			C651.619,473.475,650.976,472.836,650.976,472.045z"/>
		
			<line style="opacity:0.8;fill:none;stroke:#5B5D65;stroke-width:0.3089;stroke-linecap:round;stroke-linejoin:round;stroke-miterlimit:10;" x1="654.495" y1="472.046" x2="650.321" y2="472.046"/>
		
			<line style="opacity:0.8;fill:none;stroke:#5B5D65;stroke-width:0.3089;stroke-linecap:round;stroke-linejoin:round;stroke-miterlimit:10;" x1="652.408" y1="469.959" x2="652.408" y2="474.133"/>
		
			<path style="opacity:0.8;fill:none;stroke:#5B5D65;stroke-width:0.3089;stroke-linecap:round;stroke-linejoin:round;stroke-miterlimit:10;" d="
			M651.382,478.903c0-0.566,0.46-1.025,1.027-1.025c0.565,0,1.025,0.459,1.025,1.025c0,0.568-0.459,1.026-1.025,1.026
			C651.843,479.929,651.382,479.47,651.382,478.903z"/>
		
			<line style="opacity:0.8;fill:none;stroke:#5B5D65;stroke-width:0.3089;stroke-linecap:round;stroke-linejoin:round;stroke-miterlimit:10;" x1="654.048" y1="478.903" x2="650.768" y2="478.903"/>
		
			<line style="opacity:0.8;fill:none;stroke:#5B5D65;stroke-width:0.3089;stroke-linecap:round;stroke-linejoin:round;stroke-miterlimit:10;" x1="652.408" y1="477.264" x2="652.408" y2="480.543"/>
		
			<path style="opacity:0.8;fill:none;stroke:#5B5D65;stroke-width:0.3089;stroke-linecap:round;stroke-linejoin:round;stroke-miterlimit:10;" d="
			M636.948,472.65c-0.055,0.736-0.089,1.647-0.051,2.693c0.015,0.409,0.054,1.188,0.176,2.167c0.101,0.806,0.267,1.81,0.551,2.952
			c0.308,0.923,0.616,1.845,0.924,2.768c0.001,0,0.006,0,0.008,0c0.392,0,27.803,0,27.917,0c0.002,0,0.008,0,0.008,0
			c0.308-0.923,0.616-1.845,0.924-2.768c0.284-1.142,0.45-2.146,0.551-2.952c0.123-0.979,0.161-1.758,0.176-2.167
			c0.038-1.046,0.004-1.957-0.051-2.693c-0.021-1.02-0.263-7.561-5.562-11.834c-3.923-3.163-8.315-3.228-10.005-3.228
			c-1.69,0-6.082,0.065-10.005,3.228C637.211,465.09,636.97,471.629,636.948,472.65z"/>
		
			<path style="opacity:0.8;fill:none;stroke:#5B5D65;stroke-width:0.3089;stroke-linecap:round;stroke-linejoin:round;stroke-miterlimit:10;" d="
			M641.224,471.049c-0.032,0.357-0.064,0.842,0.108,1.42c0.009,0.03,0.017,0.055,0.025,0.077c0,0,0.173,0.504,0.559,0.96
			c2.013,2.381,10.499,2.381,10.499,2.381l0,0c4.66,0,8.583-0.253,10.342-2.378c0.001-0.001,0.001-0.002,0.002-0.002
			c0,0,0.001-0.001,0.001-0.001c0.411-0.47,0.538-0.89,0.558-0.959c0,0,0-0.001,0-0.001c0.216-0.632,0.14-1.402,0.133-1.498
			c-0.049-0.729-0.074-1.094-0.18-1.617c-0.608-3.001-1.863-4.868-1.863-4.868c-0.936-1.391-1.956-2.233-2.489-2.664
			c-0.427-0.347-1.079-0.87-2.025-1.351c-2.07-1.053-3.972-1.104-4.48-1.107c-2.242-0.013-3.887,0.75-4.633,1.107l0,0
			c-0.548,0.296-1.261,0.732-2.026,1.352c-0.525,0.425-1.55,1.269-2.489,2.664c0,0-1.267,1.884-1.863,4.868
			C641.339,469.759,641.301,470.189,641.224,471.049z"/>
	</g>
	<g>
		
			<polygon style="opacity:0.8;fill:none;stroke:#5B5D65;stroke-width:0.3089;stroke-linecap:round;stroke-linejoin:round;stroke-miterlimit:10;" points="
			713.839,390.803 732.163,390.803 732.163,340.772 682.132,340.772 682.132,359.097 684.482,359.097 684.482,343.354 
			720.302,343.354 729.814,352.563 729.814,388.151 713.839,388.151 		"/>
		
			<path style="opacity:0.8;fill:none;stroke:#5B5D65;stroke-width:0.3089;stroke-linecap:round;stroke-linejoin:round;stroke-miterlimit:10;" d="
			M682.132,359.097c0,17.51,14.196,31.705,31.707,31.705"/>
		
			<path style="opacity:0.8;fill:none;stroke:#5B5D65;stroke-width:0.3089;stroke-linecap:round;stroke-linejoin:round;stroke-miterlimit:10;" d="
			M719.312,355.115l3.532-3.532l0.153-0.151l1.567-1.569c0,0,0.7-0.751,0.039-1.412c-0.661-0.659-1.41,0.043-1.41,0.043
			l-1.567,1.565l-0.153,0.153l-3.53,3.532c0,0-0.704,0.751-0.043,1.412C718.561,355.815,719.312,355.115,719.312,355.115z"/>
		
			<path style="opacity:0.8;fill:none;stroke:#5B5D65;stroke-width:0.3089;stroke-linecap:round;stroke-linejoin:round;stroke-miterlimit:10;" d="
			M713.133,363.557c-1.179,1.177-3.142,1.177-4.32,0c-1.181-1.181-1.181-3.144,0.002-4.316c1.177-1.179,3.14-1.179,4.318,0
			C714.315,360.413,714.315,362.376,713.133,363.557z"/>
		
			<path style="opacity:0.8;fill:none;stroke:#5B5D65;stroke-width:0.3089;stroke-linecap:round;stroke-linejoin:round;stroke-miterlimit:10;" d="
			M724.604,348.451c0.661,0.661-0.039,1.412-0.039,1.412l-1.226,1.227c0.999,0.933,2.034,1.764,2.947,2.317
			c0.453,0.274,0.92,0.527,1.397,0.755h0.002c0.341,0.161,0.722,0.106,0.963-0.133c0.389-0.488,0.778-0.977,1.167-1.465
			c-0.545-0.528-1.09-1.055-1.635-1.583c-0.018,0.023-0.049,0.058-0.097,0.085c-0.332,0.187-0.967-0.287-1.237-0.557
			c-2.182-2.18-2.914-2.954-4.187-4.185c-0.223-0.215-0.855-0.813-0.697-1.167c0.024-0.055,0.062-0.091,0.087-0.112
			c-0.582-0.563-1.163-1.126-1.745-1.69c-0.418,0.391-0.749,0.776-1.167,1.167c-0.233,0.235-0.296,0.606-0.141,0.938
			c0.237,0.512,0.512,1.006,0.804,1.488c0.526,0.859,1.297,1.828,2.17,2.771l1.225-1.224
			C723.193,348.494,723.943,347.792,724.604,348.451z"/>
		
			<path style="opacity:0.8;fill:none;stroke:#5B5D65;stroke-width:0.3089;stroke-linecap:round;stroke-linejoin:round;stroke-miterlimit:10;" d="
			M715.061,357.995c1.963,1.963,5.144,1.963,7.107,0c1.728-1.728,1.931-4.398,0.617-6.352l-3.472,3.471c0,0-0.751,0.7-1.412,0.041
			c-0.661-0.661,0.043-1.412,0.043-1.412l3.47-3.471c-1.954-1.315-4.625-1.112-6.353,0.616
			C713.098,352.852,713.098,356.032,715.061,357.995z"/>
	</g>
</g>
<g id="&#x43D;&#x435;&#x441;&#x443;&#x449;&#x438;&#x435;">
	<g>
		
			<rect x="745.297" y="920.756" style="fill:#5B5D65;stroke:#5B5D65;stroke-width:1.2355;stroke-linecap:round;stroke-linejoin:round;stroke-miterlimit:10;" width="13.133" height="66.937"/>
		
			<rect x="705.473" y="974.351" style="fill:#5B5D65;stroke:#5B5D65;stroke-width:1.2355;stroke-linecap:round;stroke-linejoin:round;stroke-miterlimit:10;" width="52.957" height="26.266"/>
	</g>
	<g>
		
			<rect x="745.296" y="13.709" style="fill:#5B5D65;stroke:#5B5D65;stroke-width:1.2355;stroke-linecap:round;stroke-linejoin:round;stroke-miterlimit:10;" width="13.133" height="66.514"/>
		
			<rect x="703.52" y="0.619" transform="matrix(-1 -1.704964e-05 1.704964e-05 -1 1461.9487 27.5178)" style="fill:#5B5D65;stroke:#5B5D65;stroke-width:1.2355;stroke-linecap:round;stroke-linejoin:round;stroke-miterlimit:10;" width="54.91" height="26.266"/>
	</g>
	
		<rect x="745.289" y="620.568" style="fill:#5B5D65;stroke:#5B5D65;stroke-width:1.2355;stroke-linecap:round;stroke-linejoin:round;stroke-miterlimit:10;" width="13.131" height="66.514"/>
	
		<rect x="745.289" y="313.843" style="fill:#5B5D65;stroke:#5B5D65;stroke-width:1.2355;stroke-linecap:round;stroke-linejoin:round;stroke-miterlimit:10;" width="13.131" height="66.514"/>
	
		<rect x="745.289" y="13.471" style="fill:#5B5D65;stroke:#5B5D65;stroke-width:1.2355;stroke-linecap:round;stroke-linejoin:round;stroke-miterlimit:10;" width="13.131" height="66.514"/>
	
		<rect x="745.296" y="620.807" style="fill:#5B5D65;stroke:#5B5D65;stroke-width:1.2355;stroke-linecap:round;stroke-linejoin:round;stroke-miterlimit:10;" width="13.133" height="66.514"/>
	
		<rect x="745.296" y="314.081" style="fill:#5B5D65;stroke:#5B5D65;stroke-width:1.2355;stroke-linecap:round;stroke-linejoin:round;stroke-miterlimit:10;" width="13.133" height="66.514"/>
	
		<rect x="545.331" y="13.709" style="fill:#5B5D65;stroke:#5B5D65;stroke-width:1.2355;stroke-linecap:round;stroke-linejoin:round;stroke-miterlimit:10;" width="13.133" height="60.159"/>
	
		<rect x="545.331" y="620.807" style="fill:#5B5D65;stroke:#5B5D65;stroke-width:1.2355;stroke-linecap:round;stroke-linejoin:round;stroke-miterlimit:10;" width="13.133" height="66.514"/>
	
		<rect x="545.331" y="260.277" style="fill:#5B5D65;stroke:#5B5D65;stroke-width:1.2355;stroke-linecap:round;stroke-linejoin:round;stroke-miterlimit:10;" width="13.133" height="66.937"/>
	
		<rect x="497.24" y="0.619" transform="matrix(-1 -9.186547e-06 9.186547e-06 -1 1096.3899 27.5104)" style="fill:#5B5D65;stroke:#5B5D65;stroke-width:1.2355;stroke-linecap:round;stroke-linejoin:round;stroke-miterlimit:10;" width="101.909" height="26.266"/>
	<g>
		
			<rect x="545.523" y="974.351" style="fill:#5B5D65;stroke:#5B5D65;stroke-width:1.2355;stroke-linecap:round;stroke-linejoin:round;stroke-miterlimit:10;" width="53.058" height="26.266"/>
		
			<rect x="545.53" y="920.544" style="fill:#5B5D65;stroke:#5B5D65;stroke-width:1.2355;stroke-linecap:round;stroke-linejoin:round;stroke-miterlimit:10;" width="13.133" height="66.514"/>
	</g>
	<g>
		
			<rect x="241.573" y="0.619" transform="matrix(-1 -1.483064e-05 1.483064e-05 -1 631.8464 27.5088)" style="fill:#5B5D65;stroke:#5B5D65;stroke-width:1.2355;stroke-linecap:round;stroke-linejoin:round;stroke-miterlimit:10;" width="148.7" height="26.266"/>
		
			<rect x="241.57" y="14.557" style="fill:#5B5D65;stroke:#5B5D65;stroke-width:1.2355;stroke-linecap:round;stroke-linejoin:round;stroke-miterlimit:10;" width="11.863" height="400.778"/>
	</g>
</g>
<g id="&#x43B;&#x435;&#x441;&#x442;&#x43D;&#x438;&#x446;&#x44B;_x2C__&#x43B;&#x438;&#x444;&#x442;&#x44B;">
</g>
<g id="&#x43F;&#x43B;&#x43E;&#x449;&#x430;&#x434;&#x438;">
	<g>
		<path style="fill:#5B5D65;" d="M492.502,520.743h-1.493c-0.497,0-0.746-0.249-0.746-0.747s0.249-0.747,0.746-0.747h1.493
			c0.626,0,1.155-0.217,1.59-0.65c0.433-0.434,0.65-0.963,0.65-1.589c0-0.618-0.219-1.146-0.656-1.583
			c-0.438-0.437-0.966-0.656-1.584-0.656h-2.986c-0.497,0-0.746-0.249-0.746-0.747c0-0.498,0.249-0.747,0.746-0.747h2.986
			c1.033,0,1.913,0.366,2.642,1.097c0.728,0.731,1.091,1.61,1.091,2.635c0,1.237-0.497,2.232-1.492,2.986
			c0.995,0.754,1.492,1.75,1.492,2.986v1.493c0,1.033-0.365,1.914-1.097,2.642c-0.731,0.728-1.61,1.091-2.636,1.091h-2.986
			c-0.497,0-0.746-0.249-0.746-0.747s0.249-0.747,0.746-0.747h2.986c0.626,0,1.155-0.217,1.59-0.65
			c0.433-0.434,0.65-0.963,0.65-1.589v-1.493c0-0.619-0.219-1.146-0.656-1.584C493.649,520.962,493.121,520.743,492.502,520.743z"/>
		<path style="fill:#5B5D65;" d="M500.714,526.716c0.497,0,0.746,0.245,0.746,0.735c0,0.068-0.256,1.127-0.769,3.178
			c-0.091,0.377-0.332,0.566-0.725,0.566c-0.497,0-0.746-0.249-0.746-0.747c0-0.339,0.256-1.396,0.77-3.167
			C500.096,526.904,500.337,526.716,500.714,526.716z"/>
		<path style="fill:#5B5D65;" d="M506.686,528.209c-0.196,0-0.369-0.075-0.521-0.226c-0.15-0.151-0.226-0.324-0.226-0.521
			c0-0.347,0.124-0.562,0.373-0.645c0.543-0.181,0.995-0.389,1.357-0.622c1.606-1.041,2.504-2.36,2.692-3.959h-2.184
			c-1.033,0-1.913-0.364-2.641-1.092c-0.729-0.728-1.092-1.608-1.092-2.641v-1.493c0-1.033,0.363-1.913,1.092-2.641
			c0.728-0.728,1.607-1.091,2.641-1.091c1.041,0,1.923,0.36,2.647,1.08c0.724,0.72,1.085,1.597,1.085,2.63v4.502
			c0,2.534-1.18,4.536-3.54,6.006C507.61,527.971,507.048,528.209,506.686,528.209z M510.419,520.743v-3.733
			c0-0.618-0.219-1.146-0.656-1.583c-0.438-0.437-0.966-0.656-1.584-0.656s-1.146,0.219-1.583,0.656
			c-0.438,0.438-0.656,0.965-0.656,1.583v1.493c0,0.626,0.217,1.156,0.65,1.589s0.963,0.65,1.589,0.65H510.419z"/>
		<path style="fill:#5B5D65;" d="M520.124,513.278c0.498,0,0.747,0.249,0.747,0.747c0,0.37-0.125,0.584-0.374,0.645
			c-1.108,0.279-2.077,0.943-2.906,1.991c-0.656,0.83-1.037,1.693-1.143,2.59h2.183c1.056,0,1.941,0.362,2.658,1.086
			s1.074,1.606,1.074,2.647v1.493c0,1.041-0.363,1.923-1.091,2.647c-0.729,0.724-1.608,1.086-2.642,1.086
			c-1.04,0-1.923-0.36-2.646-1.08s-1.086-1.597-1.086-2.63v-4.502c0-1.689,0.562-3.171,1.686-4.445
			c0.874-0.988,1.828-1.689,2.861-2.104C519.739,513.335,519.965,513.278,520.124,513.278z M516.391,520.743v3.732
			c0,0.626,0.217,1.156,0.65,1.589s0.963,0.65,1.589,0.65s1.155-0.219,1.59-0.656c0.433-0.438,0.65-0.965,0.65-1.584v-1.493
			c0-0.626-0.219-1.156-0.656-1.589s-0.966-0.65-1.584-0.65H516.391z"/>
	</g>
	<g>
		<path style="fill:#5B5D65;" d="M679.86,933.132l-1.716,1.716c-0.144,0.141-0.317,0.211-0.521,0.211
			c-0.5,0-0.749-0.249-0.749-0.747c0-0.204,0.071-0.377,0.215-0.52l2.918-2.918c0.196-0.196,0.396-0.294,0.6-0.294
			c0.498,0,0.747,0.249,0.747,0.747v13.438c0,0.498-0.249,0.747-0.747,0.747c-0.497,0-0.746-0.249-0.746-0.746V933.132z"/>
		<path style="fill:#5B5D65;" d="M684.339,941.777c0-0.083,0.008-0.15,0.022-0.204l2.986-10.451
			c0.105-0.362,0.347-0.543,0.724-0.543c0.498,0,0.747,0.25,0.747,0.748c0,0.068-0.009,0.14-0.026,0.216l-2.723,9.488h3.495v-2.24
			c0-0.498,0.249-0.747,0.747-0.747c0.497,0,0.746,0.249,0.746,0.747v2.24h1.493c0.498,0,0.746,0.249,0.746,0.746
			c0,0.498-0.248,0.747-0.746,0.747h-1.493v2.24c0,0.498-0.249,0.747-0.746,0.747c-0.498,0-0.747-0.249-0.747-0.747v-2.24h-4.479
			C684.588,942.524,684.339,942.275,684.339,941.777z"/>
		<path style="fill:#5B5D65;" d="M697.777,944.017c0.497,0,0.746,0.245,0.746,0.735c0,0.068-0.256,1.127-0.769,3.178
			c-0.091,0.377-0.332,0.566-0.725,0.566c-0.497,0-0.746-0.249-0.746-0.747c0-0.339,0.256-1.396,0.77-3.167
			C697.159,944.205,697.4,944.017,697.777,944.017z"/>
		<path style="fill:#5B5D65;" d="M704.496,933.132l-1.716,1.716c-0.144,0.141-0.317,0.211-0.521,0.211
			c-0.5,0-0.749-0.249-0.749-0.747c0-0.204,0.071-0.377,0.215-0.52l2.918-2.918c0.196-0.196,0.396-0.294,0.6-0.294
			c0.498,0,0.747,0.249,0.747,0.747v13.438c0,0.498-0.249,0.747-0.747,0.747c-0.497,0-0.746-0.249-0.746-0.746V933.132z"/>
		<path style="fill:#5B5D65;" d="M714.201,930.579c0.498,0,0.747,0.249,0.747,0.747c0,0.37-0.125,0.584-0.374,0.645
			c-1.108,0.279-2.077,0.943-2.906,1.991c-0.656,0.83-1.037,1.693-1.143,2.59h2.183c1.056,0,1.941,0.362,2.658,1.086
			s1.074,1.606,1.074,2.647v1.493c0,1.041-0.363,1.923-1.091,2.647c-0.729,0.724-1.608,1.086-2.642,1.086
			c-1.04,0-1.923-0.36-2.646-1.08s-1.086-1.597-1.086-2.63v-4.502c0-1.689,0.562-3.171,1.686-4.445
			c0.874-0.988,1.828-1.689,2.861-2.104C713.816,930.636,714.042,930.579,714.201,930.579z M710.468,938.045v3.732
			c0,0.626,0.217,1.156,0.65,1.589s0.963,0.65,1.589,0.65s1.155-0.219,1.59-0.656c0.433-0.438,0.65-0.965,0.65-1.584v-1.493
			c0-0.626-0.219-1.156-0.656-1.589s-0.966-0.65-1.584-0.65H710.468z"/>
	</g>
	<g>
		<path style="fill:#5B5D65;" d="M649.576,578.575h-1.493c-0.497,0-0.746-0.249-0.746-0.747s0.249-0.747,0.746-0.747h1.493
			c0.626,0,1.155-0.217,1.59-0.65c0.433-0.434,0.65-0.963,0.65-1.589c0-0.618-0.219-1.146-0.656-1.583
			c-0.438-0.437-0.966-0.656-1.584-0.656h-2.986c-0.497,0-0.746-0.249-0.746-0.747c0-0.498,0.249-0.747,0.746-0.747h2.986
			c1.033,0,1.913,0.366,2.642,1.097c0.728,0.731,1.091,1.61,1.091,2.635c0,1.237-0.497,2.232-1.492,2.986
			c0.995,0.754,1.492,1.75,1.492,2.986v1.493c0,1.033-0.365,1.914-1.097,2.642c-0.731,0.728-1.61,1.091-2.636,1.091h-2.986
			c-0.497,0-0.746-0.249-0.746-0.747s0.249-0.747,0.746-0.747h2.986c0.626,0,1.155-0.217,1.59-0.65
			c0.433-0.434,0.65-0.963,0.65-1.589v-1.493c0-0.619-0.219-1.146-0.656-1.584C650.722,578.794,650.194,578.575,649.576,578.575z"/>
		<path style="fill:#5B5D65;" d="M657.788,584.548c0.497,0,0.746,0.245,0.746,0.735c0,0.068-0.256,1.127-0.769,3.178
			c-0.091,0.377-0.332,0.566-0.725,0.566c-0.497,0-0.746-0.249-0.746-0.747c0-0.339,0.256-1.396,0.77-3.167
			C657.169,584.736,657.411,584.548,657.788,584.548z"/>
		<path style="fill:#5B5D65;" d="M665.252,578.575h-1.493c-0.497,0-0.746-0.249-0.746-0.747s0.249-0.747,0.746-0.747h1.493
			c0.626,0,1.155-0.217,1.59-0.65c0.433-0.434,0.65-0.963,0.65-1.589c0-0.618-0.219-1.146-0.656-1.583
			c-0.438-0.437-0.966-0.656-1.584-0.656h-2.986c-0.497,0-0.746-0.249-0.746-0.747c0-0.498,0.249-0.747,0.746-0.747h2.986
			c1.033,0,1.913,0.366,2.642,1.097c0.728,0.731,1.091,1.61,1.091,2.635c0,1.237-0.497,2.232-1.492,2.986
			c0.995,0.754,1.492,1.75,1.492,2.986v1.493c0,1.033-0.365,1.914-1.097,2.642c-0.731,0.728-1.61,1.091-2.636,1.091h-2.986
			c-0.497,0-0.746-0.249-0.746-0.747s0.249-0.747,0.746-0.747h2.986c0.626,0,1.155-0.217,1.59-0.65
			c0.433-0.434,0.65-0.963,0.65-1.589v-1.493c0-0.619-0.219-1.146-0.656-1.584C666.399,578.794,665.871,578.575,665.252,578.575z"/>
		<path style="fill:#5B5D65;" d="M674.958,573.662l-1.716,1.716c-0.144,0.141-0.317,0.211-0.521,0.211
			c-0.5,0-0.749-0.249-0.749-0.747c0-0.204,0.071-0.377,0.215-0.52l2.918-2.918c0.196-0.196,0.396-0.294,0.6-0.294
			c0.498,0,0.747,0.249,0.747,0.747v13.438c0,0.498-0.249,0.747-0.747,0.747c-0.497,0-0.746-0.249-0.746-0.746V573.662z"/>
	</g>
	<g>
		<path style="fill:#5B5D65;" d="M649.575,416.091h-1.493c-0.497,0-0.746-0.249-0.746-0.747s0.249-0.747,0.746-0.747h1.493
			c0.626,0,1.155-0.217,1.59-0.65c0.433-0.434,0.65-0.963,0.65-1.589c0-0.618-0.219-1.146-0.656-1.583
			c-0.438-0.437-0.966-0.656-1.584-0.656h-2.986c-0.497,0-0.746-0.249-0.746-0.747c0-0.498,0.249-0.747,0.746-0.747h2.986
			c1.033,0,1.913,0.366,2.642,1.097c0.728,0.731,1.091,1.61,1.091,2.635c0,1.237-0.497,2.232-1.492,2.986
			c0.995,0.754,1.492,1.75,1.492,2.986v1.493c0,1.033-0.365,1.914-1.097,2.642c-0.731,0.728-1.61,1.091-2.636,1.091h-2.986
			c-0.497,0-0.746-0.249-0.746-0.747s0.249-0.747,0.746-0.747h2.986c0.626,0,1.155-0.217,1.59-0.65
			c0.433-0.434,0.65-0.963,0.65-1.589v-1.493c0-0.619-0.219-1.146-0.656-1.584C650.721,416.309,650.193,416.091,649.575,416.091z"/>
		<path style="fill:#5B5D65;" d="M657.787,422.063c0.497,0,0.746,0.245,0.746,0.735c0,0.068-0.256,1.127-0.769,3.178
			c-0.091,0.377-0.332,0.566-0.725,0.566c-0.497,0-0.746-0.249-0.746-0.747c0-0.339,0.256-1.396,0.77-3.167
			C657.168,422.251,657.41,422.063,657.787,422.063z"/>
		<path style="fill:#5B5D65;" d="M664.505,411.177l-1.716,1.716c-0.144,0.141-0.317,0.211-0.521,0.211
			c-0.5,0-0.749-0.249-0.749-0.747c0-0.204,0.071-0.377,0.215-0.52l2.918-2.918c0.196-0.196,0.396-0.294,0.6-0.294
			c0.498,0,0.747,0.249,0.747,0.747v13.438c0,0.498-0.249,0.747-0.747,0.747c-0.497,0-0.746-0.249-0.746-0.746V411.177z"/>
		<path style="fill:#5B5D65;" d="M672.717,423.556c-1.033,0-1.913-0.364-2.641-1.091c-0.729-0.728-1.092-1.608-1.092-2.642v-1.493
			c0-1.237,0.498-2.232,1.493-2.986c-0.995-0.754-1.493-1.75-1.493-2.986c0-1.033,0.363-1.913,1.092-2.641
			c0.728-0.728,1.607-1.091,2.641-1.091s1.913,0.364,2.642,1.091c0.728,0.728,1.091,1.608,1.091,2.641
			c0,1.237-0.497,2.232-1.492,2.986c0.716,0.543,1.168,1.21,1.356,2.002c0.091,0.4,0.136,1.226,0.136,2.477
			c0,1.033-0.363,1.914-1.091,2.642C674.63,423.192,673.75,423.556,672.717,423.556z M672.717,414.597
			c0.626,0,1.155-0.217,1.59-0.65c0.433-0.434,0.65-0.963,0.65-1.589c0-0.618-0.219-1.146-0.656-1.583
			c-0.438-0.437-0.966-0.656-1.584-0.656c-0.626,0-1.155,0.217-1.589,0.65s-0.65,0.963-0.65,1.589c0,0.626,0.217,1.156,0.65,1.589
			S672.091,414.597,672.717,414.597z M672.717,422.063c0.626,0,1.155-0.217,1.59-0.65c0.433-0.434,0.65-0.963,0.65-1.589v-1.493
			c0-0.619-0.219-1.146-0.656-1.584c-0.438-0.437-0.966-0.656-1.584-0.656c-0.626,0-1.155,0.217-1.589,0.65s-0.65,0.963-0.65,1.589
			v1.493c0,0.626,0.217,1.156,0.65,1.589S672.091,422.063,672.717,422.063z"/>
	</g>
	<g>
		<path style="fill:#5B5D65;" d="M466.762,362.894l-1.716,1.716c-0.144,0.141-0.317,0.211-0.521,0.211
			c-0.5,0-0.749-0.249-0.749-0.747c0-0.204,0.071-0.377,0.215-0.52l2.918-2.918c0.196-0.196,0.396-0.294,0.6-0.294
			c0.498,0,0.747,0.249,0.747,0.747v13.438c0,0.498-0.249,0.747-0.747,0.747c-0.497,0-0.746-0.249-0.746-0.746V362.894z"/>
		<path style="fill:#5B5D65;" d="M474.974,360.342c1.033,0,1.913,0.364,2.642,1.091c0.728,0.728,1.091,1.608,1.091,2.641
			c0,0.709-0.226,1.425-0.678,2.149l-4.706,7.556h4.638c0.498,0,0.746,0.249,0.746,0.747s-0.248,0.747-0.746,0.747h-5.973
			c-0.497,0-0.746-0.249-0.746-0.747c0-0.15,0.041-0.293,0.125-0.429l5.474-8.79c0.249-0.4,0.374-0.811,0.374-1.233
			c0-0.618-0.219-1.146-0.656-1.583c-0.438-0.437-0.966-0.656-1.584-0.656c-0.845,0-1.625,0.626-2.341,1.877
			c-0.136,0.241-0.351,0.362-0.646,0.362c-0.497,0-0.746-0.249-0.746-0.747c0-0.113,0.022-0.215,0.067-0.305
			C472.237,361.235,473.458,360.342,474.974,360.342z"/>
		<path style="fill:#5B5D65;" d="M483.186,373.779c0.497,0,0.746,0.245,0.746,0.735c0,0.068-0.256,1.127-0.769,3.178
			c-0.091,0.377-0.332,0.566-0.725,0.566c-0.497,0-0.746-0.249-0.746-0.747c0-0.339,0.256-1.396,0.77-3.167
			C482.568,373.968,482.809,373.779,483.186,373.779z"/>
		<path style="fill:#5B5D65;" d="M486.918,367.06v-5.972c0-0.498,0.249-0.747,0.746-0.747h5.227c0.497,0,0.746,0.249,0.746,0.747
			c0,0.498-0.249,0.747-0.746,0.747h-4.479v4.479h2.239c1.033,0,1.913,0.366,2.642,1.097c0.728,0.731,1.091,1.61,1.091,2.636v1.493
			c0,1.033-0.365,1.914-1.097,2.642c-0.731,0.728-1.61,1.091-2.636,1.091h-2.986c-0.497,0-0.746-0.249-0.746-0.747
			s0.249-0.747,0.746-0.747h2.986c0.626,0,1.155-0.217,1.59-0.65c0.433-0.434,0.65-0.963,0.65-1.589v-1.493
			c0-0.619-0.219-1.146-0.656-1.584c-0.438-0.437-0.966-0.656-1.584-0.656h-2.986C487.167,367.807,486.918,367.558,486.918,367.06z"
			/>
		<path style="fill:#5B5D65;" d="M501.102,360.342c1.033,0,1.913,0.364,2.642,1.091c0.728,0.728,1.091,1.608,1.091,2.641
			c0,0.709-0.226,1.425-0.678,2.149l-4.706,7.556h4.638c0.498,0,0.746,0.249,0.746,0.747s-0.248,0.747-0.746,0.747h-5.973
			c-0.497,0-0.746-0.249-0.746-0.747c0-0.15,0.041-0.293,0.125-0.429l5.474-8.79c0.249-0.4,0.374-0.811,0.374-1.233
			c0-0.618-0.219-1.146-0.656-1.583c-0.438-0.437-0.966-0.656-1.584-0.656c-0.845,0-1.625,0.626-2.341,1.877
			c-0.136,0.241-0.351,0.362-0.646,0.362c-0.497,0-0.746-0.249-0.746-0.747c0-0.113,0.022-0.215,0.067-0.305
			C498.365,361.235,499.586,360.342,501.102,360.342z"/>
	</g>
	<g>
		<path style="fill:#5B5D65;" d="M461.677,52.352l-1.716,1.716c-0.144,0.141-0.317,0.211-0.521,0.211
			c-0.5,0-0.749-0.249-0.749-0.747c0-0.204,0.071-0.377,0.215-0.52l2.918-2.918c0.196-0.196,0.396-0.294,0.6-0.294
			c0.498,0,0.747,0.249,0.747,0.747v13.438c0,0.498-0.249,0.747-0.747,0.747c-0.497,0-0.746-0.249-0.746-0.746V52.352z"/>
		<path style="fill:#5B5D65;" d="M469.889,49.8c1.033,0,1.913,0.364,2.642,1.091c0.728,0.728,1.091,1.608,1.091,2.641
			c0,0.709-0.226,1.425-0.678,2.149l-4.706,7.556h4.638c0.498,0,0.746,0.249,0.746,0.747c0,0.498-0.248,0.747-0.746,0.747h-5.973
			c-0.497,0-0.746-0.249-0.746-0.747c0-0.15,0.041-0.293,0.125-0.429l5.474-8.79c0.249-0.4,0.374-0.811,0.374-1.233
			c0-0.618-0.219-1.146-0.656-1.583c-0.438-0.437-0.966-0.656-1.584-0.656c-0.845,0-1.625,0.626-2.341,1.877
			c-0.136,0.241-0.351,0.362-0.646,0.362c-0.497,0-0.746-0.249-0.746-0.747c0-0.113,0.022-0.215,0.067-0.305
			C467.152,50.694,468.374,49.8,469.889,49.8z"/>
		<path style="fill:#5B5D65;" d="M478.101,63.238c0.497,0,0.746,0.245,0.746,0.735c0,0.068-0.256,1.127-0.769,3.178
			c-0.091,0.377-0.332,0.566-0.725,0.566c-0.497,0-0.746-0.249-0.746-0.747c0-0.339,0.256-1.396,0.77-3.167
			C477.483,63.426,477.724,63.238,478.101,63.238z"/>
		<path style="fill:#5B5D65;" d="M485.566,49.8c1.033,0,1.913,0.364,2.642,1.091c0.728,0.728,1.091,1.608,1.091,2.641
			c0,0.709-0.226,1.425-0.678,2.149l-4.706,7.556h4.638c0.498,0,0.746,0.249,0.746,0.747c0,0.498-0.248,0.747-0.746,0.747h-5.973
			c-0.497,0-0.746-0.249-0.746-0.747c0-0.15,0.041-0.293,0.125-0.429l5.474-8.79c0.249-0.4,0.374-0.811,0.374-1.233
			c0-0.618-0.219-1.146-0.656-1.583c-0.438-0.437-0.966-0.656-1.584-0.656c-0.845,0-1.625,0.626-2.341,1.877
			c-0.136,0.241-0.351,0.362-0.646,0.362c-0.497,0-0.746-0.249-0.746-0.747c0-0.113,0.022-0.215,0.067-0.305
			C482.829,50.694,484.05,49.8,485.566,49.8z"/>
		<path style="fill:#5B5D65;" d="M496.017,64.731c-1.033,0-1.913-0.364-2.641-1.091c-0.729-0.728-1.092-1.608-1.092-2.642v-1.493
			c0-1.237,0.498-2.232,1.493-2.986c-0.995-0.754-1.493-1.75-1.493-2.986c0-1.033,0.363-1.913,1.092-2.641
			c0.728-0.728,1.607-1.091,2.641-1.091s1.913,0.364,2.642,1.091c0.728,0.728,1.091,1.608,1.091,2.641
			c0,1.237-0.497,2.232-1.492,2.986c0.716,0.543,1.168,1.21,1.356,2.002c0.091,0.4,0.136,1.226,0.136,2.477
			c0,1.033-0.363,1.914-1.091,2.642C497.93,64.367,497.05,64.731,496.017,64.731z M496.017,55.772c0.626,0,1.155-0.217,1.59-0.65
			c0.433-0.434,0.65-0.963,0.65-1.589c0-0.618-0.219-1.146-0.656-1.583c-0.438-0.437-0.966-0.656-1.584-0.656
			c-0.626,0-1.155,0.217-1.589,0.65s-0.65,0.963-0.65,1.589c0,0.626,0.217,1.156,0.65,1.589S495.391,55.772,496.017,55.772z
			 M496.017,63.238c0.626,0,1.155-0.217,1.59-0.65c0.433-0.434,0.65-0.963,0.65-1.589v-1.493c0-0.619-0.219-1.146-0.656-1.584
			c-0.438-0.437-0.966-0.656-1.584-0.656c-0.626,0-1.155,0.217-1.589,0.65s-0.65,0.963-0.65,1.589v1.493
			c0,0.626,0.217,1.156,0.65,1.589S495.391,63.238,496.017,63.238z"/>
	</g>
	<g>
		<path style="fill:#5B5D65;" d="M684.097,52.352l-1.716,1.716c-0.144,0.141-0.317,0.211-0.521,0.211
			c-0.5,0-0.749-0.249-0.749-0.747c0-0.204,0.071-0.377,0.215-0.52l2.918-2.918c0.196-0.196,0.396-0.294,0.6-0.294
			c0.498,0,0.747,0.249,0.747,0.747v13.438c0,0.498-0.249,0.747-0.747,0.747c-0.497,0-0.746-0.249-0.746-0.746V52.352z"/>
		<path style="fill:#5B5D65;" d="M692.309,49.8c1.033,0,1.913,0.364,2.642,1.091c0.728,0.728,1.091,1.608,1.091,2.641
			c0,0.709-0.226,1.425-0.678,2.149l-4.706,7.556h4.638c0.498,0,0.746,0.249,0.746,0.747c0,0.498-0.248,0.747-0.746,0.747h-5.973
			c-0.497,0-0.746-0.249-0.746-0.747c0-0.15,0.041-0.293,0.125-0.429l5.474-8.79c0.249-0.4,0.374-0.811,0.374-1.233
			c0-0.618-0.219-1.146-0.656-1.583c-0.438-0.437-0.966-0.656-1.584-0.656c-0.845,0-1.625,0.626-2.341,1.877
			c-0.136,0.241-0.351,0.362-0.646,0.362c-0.497,0-0.746-0.249-0.746-0.747c0-0.113,0.022-0.215,0.067-0.305
			C689.572,50.694,690.793,49.8,692.309,49.8z"/>
		<path style="fill:#5B5D65;" d="M700.521,63.238c0.497,0,0.746,0.245,0.746,0.735c0,0.068-0.256,1.127-0.769,3.178
			c-0.091,0.377-0.332,0.566-0.725,0.566c-0.497,0-0.746-0.249-0.746-0.747c0-0.339,0.256-1.396,0.77-3.167
			C699.903,63.426,700.144,63.238,700.521,63.238z"/>
		<path style="fill:#5B5D65;" d="M707.986,57.265h-1.493c-0.497,0-0.746-0.249-0.746-0.747s0.249-0.747,0.746-0.747h1.493
			c0.626,0,1.155-0.217,1.59-0.65c0.433-0.434,0.65-0.963,0.65-1.589c0-0.618-0.219-1.146-0.656-1.583
			c-0.438-0.437-0.966-0.656-1.584-0.656H705c-0.497,0-0.746-0.249-0.746-0.747c0-0.498,0.249-0.747,0.746-0.747h2.986
			c1.033,0,1.913,0.366,2.642,1.097c0.728,0.731,1.091,1.61,1.091,2.635c0,1.237-0.497,2.232-1.492,2.986
			c0.995,0.754,1.492,1.75,1.492,2.986v1.493c0,1.033-0.365,1.914-1.097,2.642c-0.731,0.728-1.61,1.091-2.636,1.091H705
			c-0.497,0-0.746-0.249-0.746-0.747c0-0.498,0.249-0.747,0.746-0.747h2.986c0.626,0,1.155-0.217,1.59-0.65
			c0.433-0.434,0.65-0.963,0.65-1.589v-1.493c0-0.619-0.219-1.146-0.656-1.584C709.132,57.484,708.604,57.265,707.986,57.265z"/>
		<path style="fill:#5B5D65;" d="M718.437,64.731c-1.033,0-1.913-0.364-2.641-1.091c-0.729-0.728-1.092-1.608-1.092-2.642v-1.493
			c0-1.237,0.498-2.232,1.493-2.986c-0.995-0.754-1.493-1.75-1.493-2.986c0-1.033,0.363-1.913,1.092-2.641
			c0.728-0.728,1.607-1.091,2.641-1.091s1.913,0.364,2.642,1.091c0.728,0.728,1.091,1.608,1.091,2.641
			c0,1.237-0.497,2.232-1.492,2.986c0.716,0.543,1.168,1.21,1.356,2.002c0.091,0.4,0.136,1.226,0.136,2.477
			c0,1.033-0.363,1.914-1.091,2.642C720.35,64.367,719.47,64.731,718.437,64.731z M718.437,55.772c0.626,0,1.155-0.217,1.59-0.65
			c0.433-0.434,0.65-0.963,0.65-1.589c0-0.618-0.219-1.146-0.656-1.583c-0.438-0.437-0.966-0.656-1.584-0.656
			c-0.626,0-1.155,0.217-1.589,0.65s-0.65,0.963-0.65,1.589c0,0.626,0.217,1.156,0.65,1.589S717.811,55.772,718.437,55.772z
			 M718.437,63.238c0.626,0,1.155-0.217,1.59-0.65c0.433-0.434,0.65-0.963,0.65-1.589v-1.493c0-0.619-0.219-1.146-0.656-1.584
			c-0.438-0.437-0.966-0.656-1.584-0.656c-0.626,0-1.155,0.217-1.589,0.65s-0.65,0.963-0.65,1.589v1.493
			c0,0.626,0.217,1.156,0.65,1.589S717.811,63.238,718.437,63.238z"/>
	</g>
	<g>
		<path style="fill:#5B5D65;" d="M570.882,523.446c0-0.083,0.008-0.15,0.022-0.204l2.986-10.451
			c0.105-0.362,0.347-0.543,0.724-0.543c0.498,0,0.747,0.25,0.747,0.748c0,0.068-0.009,0.14-0.026,0.216l-2.723,9.488h3.495v-2.24
			c0-0.498,0.249-0.747,0.747-0.747c0.497,0,0.746,0.249,0.746,0.747v2.24h1.493c0.498,0,0.746,0.249,0.746,0.746
			c0,0.498-0.248,0.747-0.746,0.747h-1.493v2.24c0,0.498-0.249,0.747-0.746,0.747c-0.498,0-0.747-0.249-0.747-0.747v-2.24h-4.479
			C571.131,524.193,570.882,523.944,570.882,523.446z"/>
		<path style="fill:#5B5D65;" d="M584.32,525.686c0.497,0,0.746,0.245,0.746,0.735c0,0.068-0.256,1.127-0.769,3.178
			c-0.091,0.377-0.332,0.566-0.725,0.566c-0.497,0-0.746-0.249-0.746-0.747c0-0.339,0.256-1.396,0.77-3.167
			C583.702,525.874,583.943,525.686,584.32,525.686z"/>
		<path style="fill:#5B5D65;" d="M593.278,512.248c0.498,0,0.747,0.249,0.747,0.747c0,0.37-0.125,0.584-0.374,0.645
			c-1.108,0.279-2.077,0.943-2.906,1.991c-0.656,0.83-1.037,1.693-1.143,2.59h2.183c1.056,0,1.941,0.362,2.658,1.086
			s1.074,1.606,1.074,2.647v1.493c0,1.041-0.363,1.923-1.091,2.647c-0.729,0.724-1.608,1.086-2.642,1.086
			c-1.04,0-1.923-0.36-2.646-1.08s-1.086-1.597-1.086-2.63v-4.502c0-1.689,0.562-3.171,1.686-4.445
			c0.874-0.988,1.828-1.689,2.861-2.104C592.893,512.305,593.12,512.248,593.278,512.248z M589.545,519.714v3.732
			c0,0.626,0.217,1.156,0.65,1.589s0.963,0.65,1.589,0.65s1.155-0.219,1.59-0.656c0.433-0.438,0.65-0.965,0.65-1.584v-1.493
			c0-0.626-0.219-1.156-0.656-1.589s-0.966-0.65-1.584-0.65H589.545z"/>
		<path style="fill:#5B5D65;" d="M602.236,512.248c1.033,0,1.913,0.364,2.642,1.091c0.728,0.728,1.091,1.608,1.091,2.641
			c0,0.709-0.226,1.425-0.678,2.149l-4.706,7.556h4.638c0.498,0,0.746,0.249,0.746,0.747s-0.248,0.747-0.746,0.747h-5.973
			c-0.497,0-0.746-0.249-0.746-0.747c0-0.15,0.041-0.293,0.125-0.429l5.474-8.79c0.249-0.4,0.374-0.811,0.374-1.233
			c0-0.618-0.219-1.146-0.656-1.583c-0.438-0.437-0.966-0.656-1.584-0.656c-0.845,0-1.625,0.626-2.341,1.877
			c-0.136,0.241-0.351,0.362-0.646,0.362c-0.497,0-0.746-0.249-0.746-0.747c0-0.113,0.022-0.215,0.067-0.305
			C599.499,513.142,600.72,512.248,602.236,512.248z"/>
	</g>
</g>
<g id="&#x442;&#x430;&#x431;&#x43B;&#x438;&#x447;&#x43A;&#x438;">
</g>
<g id="&#x44D;&#x442;&#x430;&#x436;_x2C__&#x441;&#x435;&#x43A;&#x446;&#x438;&#x438;">
</g>
<g id="&#x421;&#x43B;&#x43E;&#x439;_12">
</g>
</svg>
