<?xml version="1.0" encoding="iso-8859-1"?>
<!-- Generator: Adobe Illustrator 27.0.0, SVG Export Plug-In . SVG Version: 6.00 Build 0)  -->
<svg version="1.1" xmlns="http://www.w3.org/2000/svg" xmlns:xlink="http://www.w3.org/1999/xlink" x="0px" y="0px"
	 viewBox="0 0 1001.091 1000" style="enable-background:new 0 0 1001.091 1000;" xml:space="preserve">
<g id="&#x446;&#x432;&#x435;&#x442;_&#x43F;&#x43E;&#x43C;&#x435;&#x449;&#x435;&#x43D;&#x438;&#x439;">
</g>
<g id="&#x43E;&#x43A;&#x43D;&#x430;_x2C__&#x434;&#x432;&#x435;&#x440;&#x438;">
	<g>
		
			<rect x="-29.618" y="687.361" transform="matrix(-1.104801e-06 -1 1 -1.104801e-06 -676.2848 711.1595)" style="fill:none;stroke:#5B5D65;stroke-width:0.5455;stroke-linecap:round;stroke-linejoin:round;stroke-miterlimit:10;" width="94.111" height="12.722"/>
		
			<rect x="-43.458" y="691.198" transform="matrix(-1.249707e-06 -1 1 -1.249707e-06 -690.1245 697.3192)" style="fill:none;stroke:#5B5D65;stroke-width:0.5455;stroke-linecap:round;stroke-linejoin:round;stroke-miterlimit:10;" width="94.111" height="5.047"/>
	</g>
	<g>
		<g>
			<g>
				
					<rect x="832.14" y="657.337" transform="matrix(9.560013e-06 1 -1 9.560013e-06 1519.1799 -191.7074)" style="fill:none;stroke:#5B5D65;stroke-width:0.5455;stroke-linecap:round;stroke-linejoin:round;stroke-miterlimit:10;" width="46.609" height="12.813"/>
				
					<rect x="846.08" y="661.202" transform="matrix(9.854714e-06 1 -1 9.854714e-06 1533.1195 -205.6476)" style="fill:none;stroke:#5B5D65;stroke-width:0.5455;stroke-linecap:round;stroke-linejoin:round;stroke-miterlimit:10;" width="46.609" height="5.083"/>
				
					<rect x="843.584" y="658.705" transform="matrix(9.536214e-06 1 -1 9.536214e-06 1530.6218 -203.1519)" style="fill:none;stroke:#5B5D65;stroke-width:0.5455;stroke-linecap:round;stroke-linejoin:round;stroke-miterlimit:10;" width="46.609" height="10.075"/>
			</g>
			
				<path style="fill:none;stroke:#5B5D65;stroke-width:0.5455;stroke-linecap:round;stroke-linejoin:round;stroke-miterlimit:10;" d="
				M861.331,692.905c-21.532,0-38.983,17.539-38.983,39.158l38.984,0"/>
		</g>
		
			<polygon style="fill:none;stroke:#5B5D65;stroke-width:0.5455;stroke-linecap:round;stroke-linejoin:round;stroke-miterlimit:10;" points="
			870.3,632.797 870.3,638.335 935.731,638.334 935.732,745.79 870.301,745.79 870.301,751.328 941.269,751.327 941.269,749.295 
			941.269,745.789 941.268,638.334 941.268,634.23 941.268,632.797 		"/>
	</g>
	<path style="fill:none;stroke:#5B5D65;stroke-width:0.5455;stroke-linecap:round;stroke-linejoin:round;stroke-miterlimit:10;" d="
		M311.616,667.77c-24.573,0-44.49-20.015-44.49-44.688l44.49,0"/>
	<path style="fill:none;stroke:#5B5D65;stroke-width:0.5455;stroke-linecap:round;stroke-linejoin:round;stroke-miterlimit:10;" d="
		M569.433,667.77c24.573,0,44.49-20.015,44.49-44.688l-44.49,0"/>
	<path style="fill:none;stroke:#5B5D65;stroke-width:0.5455;stroke-linecap:round;stroke-linejoin:round;stroke-miterlimit:10;" d="
		M700.951,336.788c-16.889,11.817-20.952,35.151-9.087,52.109l30.578-21.395"/>
	<path style="fill:none;stroke:#5B5D65;stroke-width:0.5455;stroke-linecap:round;stroke-linejoin:round;stroke-miterlimit:10;" d="
		M506.619,676.387c0-21.578,17.575-39.067,39.24-39.067l0.001,39.066"/>
	<path style="fill:none;stroke:#5B5D65;stroke-width:0.5455;stroke-linecap:round;stroke-linejoin:round;stroke-miterlimit:10;" d="
		M351.411,676.387c0-21.578,17.575-39.067,39.24-39.067l0.001,39.066"/>
	<path style="fill:none;stroke:#5B5D65;stroke-width:0.5455;stroke-linecap:round;stroke-linejoin:round;stroke-miterlimit:10;" d="
		M607.867,339.638c-15.392-22.177-46.399-27.288-69.243-11.433l27.866,40.151"/>
	<g>
		
			<rect x="904.677" y="565.264" transform="matrix(0.8202 -0.572 0.572 0.8202 -159.4464 635.8564)" style="fill:none;stroke:#5B5D65;stroke-width:0.5455;stroke-linecap:round;stroke-linejoin:round;stroke-miterlimit:10;" width="54.631" height="12.722"/>
		
			<rect x="896.76" y="557.749" transform="matrix(0.8202 -0.572 0.572 0.8202 -154.3757 629.2878)" style="fill:none;stroke:#5B5D65;stroke-width:0.5455;stroke-linecap:round;stroke-linejoin:round;stroke-miterlimit:10;" width="54.631" height="5.047"/>
	</g>
</g>
<g id="&#x43F;&#x435;&#x440;&#x435;&#x433;&#x43E;&#x440;&#x43E;&#x434;&#x43A;&#x438;">
	<g>
		<defs>
			<polygon id="SVGID_1_" points="23.563,774.828 23.194,775.197 12.134,786.257 847.901,786.626 847.901,774.828 			"/>
		</defs>
		<use xlink:href="#SVGID_1_"  style="overflow:visible;fill-rule:evenodd;clip-rule:evenodd;fill:#5B5D65;"/>
		<clipPath id="SVGID_00000054260952312528196390000005379240750946619559_">
			<use xlink:href="#SVGID_1_"  style="overflow:visible;"/>
		</clipPath>
		
			<rect x="12.134" y="774.828" style="clip-path:url(#SVGID_00000054260952312528196390000005379240750946619559_);fill:#5B5D65;" width="835.767" height="11.798"/>
	</g>
	<rect x="115.729" y="600.818" style="fill:#5B5D65;" width="150.785" height="11.429"/>
	<rect x="336.192" y="600.818" style="fill:#5B5D65;" width="137.144" height="11.429"/>
	<rect x="632.231" y="600.818" style="fill:#5B5D65;" width="174.379" height="11.429"/>
	<g>
		<defs>
			<polygon id="SVGID_00000016773106199542633880000007642847158896772030_" points="309.648,673.814 309.279,774.46 
				315.178,774.828 315.178,673.814 			"/>
		</defs>
		
			<use xlink:href="#SVGID_00000016773106199542633880000007642847158896772030_"  style="overflow:visible;fill-rule:evenodd;clip-rule:evenodd;fill:#5B5D65;"/>
		<clipPath id="SVGID_00000068637151214081735990000000149919851157179834_">
			<use xlink:href="#SVGID_00000016773106199542633880000007642847158896772030_"  style="overflow:visible;"/>
		</clipPath>
		
			<rect x="309.28" y="673.813" style="clip-path:url(#SVGID_00000068637151214081735990000000149919851157179834_);fill:#5B5D65;" width="5.899" height="101.015"/>
	</g>
	<rect x="566.24" y="678.607" style="fill:#5B5D65;" width="5.53" height="96.221"/>
	<g>
		<defs>
			<path id="SVGID_00000120528657742666996120000001289458634724039072_" d="M549.281,673.814v4.793h18.065v-4.793H549.281z
				 M394.441,673.814v4.793h108.388v-4.793H394.441z M315.178,673.814v4.793h32.811v-4.793H315.178z"/>
		</defs>
		
			<use xlink:href="#SVGID_00000120528657742666996120000001289458634724039072_"  style="overflow:visible;fill-rule:evenodd;clip-rule:evenodd;fill:#5B5D65;"/>
		<clipPath id="SVGID_00000001627520148892234990000011371098998517017491_">
			<use xlink:href="#SVGID_00000120528657742666996120000001289458634724039072_"  style="overflow:visible;"/>
		</clipPath>
		
			<rect x="315.178" y="673.813" style="clip-path:url(#SVGID_00000001627520148892234990000011371098998517017491_);fill:#5B5D65;" width="252.168" height="4.793"/>
	</g>
	<rect x="322.92" y="678.607" style="fill:#5B5D65;" width="3.687" height="88.848"/>
	<g>
		<defs>
			<path id="SVGID_00000158746586186633885550000013295680195497525418_" d="M309.648,671.602v2.212h4.424v-2.212H309.648z
				 M309.648,612.246v7.005h4.424v-7.005H309.648z"/>
		</defs>
		
			<use xlink:href="#SVGID_00000158746586186633885550000013295680195497525418_"  style="overflow:visible;fill-rule:evenodd;clip-rule:evenodd;fill:#5B5D65;"/>
		<clipPath id="SVGID_00000137110344551644718700000016116400689676224686_">
			<use xlink:href="#SVGID_00000158746586186633885550000013295680195497525418_"  style="overflow:visible;"/>
		</clipPath>
		
			<rect x="309.648" y="612.245" style="clip-path:url(#SVGID_00000137110344551644718700000016116400689676224686_);fill:#5B5D65;" width="4.424" height="61.567"/>
	</g>
	<g>
		<defs>
			<path id="SVGID_00000101093900696927346050000008481109415623247776_" d="M567.346,671.602v7.005h4.424v-7.005H567.346z
				 M567.346,612.246v7.005h4.424v-7.005H567.346z"/>
		</defs>
		
			<use xlink:href="#SVGID_00000101093900696927346050000008481109415623247776_"  style="overflow:visible;fill-rule:evenodd;clip-rule:evenodd;fill:#5B5D65;"/>
		<clipPath id="SVGID_00000047059048124356381000000017914279196248254871_">
			<use xlink:href="#SVGID_00000101093900696927346050000008481109415623247776_"  style="overflow:visible;"/>
		</clipPath>
		
			<rect x="567.346" y="612.245" style="clip-path:url(#SVGID_00000047059048124356381000000017914279196248254871_);fill:#5B5D65;" width="4.424" height="66.36"/>
	</g>
	<rect x="544.489" y="756.395" style="fill:#5B5D65;" width="21.751" height="4.056"/>
	<rect x="488.82" y="767.455" style="fill:#5B5D65;" width="4.055" height="7.373"/>
	<rect x="326.607" y="763.399" style="fill:#5B5D65;" width="119.817" height="4.056"/>
	<rect x="567.346" y="600.818" style="fill:#5B5D65;" width="12.903" height="11.429"/>
	<g>
		<defs>
			<polygon id="SVGID_00000047022013422645411360000001810565450673981617_" points="446.423,678.607 446.423,775.602 
				450.847,775.23 451.216,678.607 			"/>
		</defs>
		
			<use xlink:href="#SVGID_00000047022013422645411360000001810565450673981617_"  style="overflow:visible;fill-rule:evenodd;clip-rule:evenodd;fill:#5B5D65;"/>
		<clipPath id="SVGID_00000052066392005822395400000012253852220617655212_">
			<use xlink:href="#SVGID_00000047022013422645411360000001810565450673981617_"  style="overflow:visible;"/>
		</clipPath>
		
			<rect x="446.423" y="678.606" style="clip-path:url(#SVGID_00000052066392005822395400000012253852220617655212_);fill:#5B5D65;" width="4.793" height="96.996"/>
	</g>
	<rect x="488.82" y="763.399" style="fill:#5B5D65;" width="55.669" height="4.056"/>
	<rect x="544.489" y="760.45" style="fill:#5B5D65;" width="4.055" height="7.005"/>
	
		<rect x="684.218" y="295.403" transform="matrix(0.8185 -0.5745 0.5745 0.8185 -57.0062 451.8069)" style="fill:#5B5D65;" width="4.722" height="41.449"/>
	
		<rect x="725.485" y="370.091" transform="matrix(0.8185 -0.5745 0.5745 0.8185 -83.0771 486.1206)" style="fill:#5B5D65;" width="4.722" height="8.911"/>
	<rect x="70.692" y="774.791" style="fill:#5B5D65;" width="203.135" height="11.429"/>
	<rect x="331.708" y="774.791" style="fill:#5B5D65;" width="209.034" height="11.429"/>
	<rect x="598.622" y="774.791" style="fill:#5B5D65;" width="203.504" height="11.429"/>
	<polygon style="fill-rule:evenodd;clip-rule:evenodd;fill:#5B5D65;" points="607.932,333.441 614.557,342.843 785.715,222.23 
		779.09,212.829 765.637,222.309 	"/>
	<polygon style="fill-rule:evenodd;clip-rule:evenodd;fill:#5B5D65;" points="657.451,426.538 664.076,435.939 737.733,384.034 
		731.108,374.633 725.319,378.712 	"/>
	<polygon style="fill-rule:evenodd;clip-rule:evenodd;fill:#5B5D65;" points="473.497,427.761 480.122,437.162 566.566,376.246 
		559.941,366.845 553.147,371.633 	"/>
	<rect x="473.336" y="428.281" style="fill:#5B5D65;" width="11.429" height="183.965"/>
	<rect x="567.346" y="498.177" style="fill:#5B5D65;" width="4.424" height="106.696"/>
	<polygon style="fill-rule:evenodd;clip-rule:evenodd;fill:#5B5D65;" points="732.287,382.65 734.746,386.139 837.749,313.554 
		835.291,310.065 827.195,315.77 	"/>
	<polygon style="fill-rule:evenodd;clip-rule:evenodd;fill:#5B5D65;" points="567.411,498.075 569.928,501.647 612.311,471.78 
		609.795,468.208 606.464,470.556 	"/>
	<g>
		<path style="fill:#5B5D65;" d="M569.005,593.494l32.61,0.034l0.068-63.541l-32.61-0.034L569.005,593.494z M592.395,535.576
			l-0.056,52.831l-16.158-0.017l0.056-52.831L592.395,535.576z"/>
		
			<rect x="594.884" y="588.413" transform="matrix(-1 -0.001 0.001 -1 1195.8732 1190.8383)" style="fill:#5B5D65;" width="6.73" height="13.386"/>
	</g>
	<path style="fill:#5B5D65;" d="M446.423,711.34h-24.654l0,52.06h24.654V711.34z M427.737,758.37l0-40.671h12.757v40.671
		L427.737,758.37z"/>
</g>
<g id="&#x448;&#x430;&#x445;&#x442;&#x44B;">
</g>
<g id="&#x43F;&#x443;&#x43D;&#x43A;&#x442;&#x438;&#x440;">
	<g>
		<g>
			
				<line style="fill:none;stroke:#5B5D65;stroke-width:0.5455;stroke-linecap:round;stroke-linejoin:round;" x1="675.734" y1="427.544" x2="678.482" y2="431.565"/>
			
				<polyline style="fill:none;stroke:#5B5D65;stroke-width:0.5455;stroke-linecap:round;stroke-linejoin:round;stroke-dasharray:9.2956,9.2956,0,0,0,0;" points="
				683.725,439.24 716.287,486.899 716.287,596.5 			"/>
			
				<line style="fill:none;stroke:#5B5D65;stroke-width:0.5455;stroke-linecap:round;stroke-linejoin:round;" x1="716.287" y1="596.5" x2="716.287" y2="601.37"/>
		</g>
	</g>
	<g>
		<g>
			
				<line style="fill:none;stroke:#5B5D65;stroke-width:0.5455;stroke-linecap:round;stroke-linejoin:round;" x1="519.419" y1="409.48" x2="522.24" y2="413.45"/>
			
				<line style="fill:none;stroke:#5B5D65;stroke-width:0.5455;stroke-linecap:round;stroke-linejoin:round;stroke-dasharray:10.0224,10.0224,0,0,0,0;" x1="528.044" y1="421.62" x2="574.479" y2="486.985"/>
			
				<line style="fill:none;stroke:#5B5D65;stroke-width:0.5455;stroke-linecap:round;stroke-linejoin:round;" x1="574.479" y1="486.985" x2="577.3" y2="490.955"/>
		</g>
	</g>
	<g>
		<g>
			
				<line style="fill:none;stroke:#5B5D65;stroke-width:0.5455;stroke-linecap:round;stroke-linejoin:round;" x1="611.217" y1="470.573" x2="615.17" y2="467.727"/>
			
				<line style="fill:none;stroke:#5B5D65;stroke-width:0.5455;stroke-linecap:round;stroke-linejoin:round;stroke-dasharray:10.6354,10.6354,0,0,0,0;" x1="623.801" y1="461.513" x2="658.325" y2="436.657"/>
			
				<line style="fill:none;stroke:#5B5D65;stroke-width:0.5455;stroke-linecap:round;stroke-linejoin:round;" x1="658.325" y1="436.657" x2="662.278" y2="433.811"/>
		</g>
	</g>
</g>
<g id="&#x43C;&#x435;&#x431;&#x435;&#x43B;&#x44C;_x2C__&#x441;&#x430;&#x43D;&#x442;&#x435;&#x445;&#x43D;&#x438;&#x43A;&#x430;">
	<g>
		
			<rect x="683.588" y="568.122" transform="matrix(-1 1.316956e-04 -1.316956e-04 -1 1399.9498 1168.85)" style="opacity:0.8;fill:none;stroke:#5B5D65;stroke-width:0.2727;stroke-linecap:round;stroke-linejoin:round;stroke-miterlimit:10;" width="32.697" height="32.697"/>
		<g>
			
				<circle style="opacity:0.8;fill:none;stroke:#5B5D65;stroke-width:0.2727;stroke-linecap:round;stroke-linejoin:round;stroke-miterlimit:10;" cx="691.299" cy="592.074" r="5.722"/>
		</g>
		<g>
			
				<circle style="opacity:0.8;fill:none;stroke:#5B5D65;stroke-width:0.2727;stroke-linecap:round;stroke-linejoin:round;stroke-miterlimit:10;" cx="709.391" cy="578.127" r="4.905"/>
		</g>
		<g>
			
				<circle style="opacity:0.8;fill:none;stroke:#5B5D65;stroke-width:0.2727;stroke-linecap:round;stroke-linejoin:round;stroke-miterlimit:10;" cx="709.393" cy="592.072" r="3.815"/>
		</g>
		<g>
			
				<circle style="opacity:0.8;fill:none;stroke:#5B5D65;stroke-width:0.2727;stroke-linecap:round;stroke-linejoin:round;stroke-miterlimit:10;" cx="691.297" cy="578.129" r="3.815"/>
		</g>
		
			<circle style="opacity:0.8;fill:none;stroke:#5B5D65;stroke-width:0.2727;stroke-linecap:round;stroke-linejoin:round;stroke-miterlimit:10;" cx="700.917" cy="570.65" r="0.368"/>
		
			<circle style="opacity:0.8;fill:none;stroke:#5B5D65;stroke-width:0.2727;stroke-linecap:round;stroke-linejoin:round;stroke-miterlimit:10;" cx="698.875" cy="570.651" r="0.368"/>
		
			<circle style="opacity:0.8;fill:none;stroke:#5B5D65;stroke-width:0.2727;stroke-linecap:round;stroke-linejoin:round;stroke-miterlimit:10;" cx="698.875" cy="572.692" r="0.368"/>
		
			<circle style="opacity:0.8;fill:none;stroke:#5B5D65;stroke-width:0.2727;stroke-linecap:round;stroke-linejoin:round;stroke-miterlimit:10;" cx="700.917" cy="572.692" r="0.368"/>
	</g>
	<g>
		
			<rect x="614.225" y="568.624" transform="matrix(-1 2.795085e-05 -2.795085e-05 -1 1261.1628 1169.927)" style="opacity:0.8;fill:none;stroke:#5B5D65;stroke-width:0.2727;stroke-linecap:round;stroke-linejoin:round;stroke-miterlimit:10;" width="32.697" height="32.697"/>
		
			<circle style="opacity:0.8;fill:none;stroke:#5B5D65;stroke-width:0.2727;stroke-linecap:round;stroke-linejoin:round;stroke-miterlimit:10;" cx="630.553" cy="587.975" r="2.453"/>
		
			<circle style="opacity:0.8;fill:none;stroke:#5B5D65;stroke-width:0.2727;stroke-linecap:round;stroke-linejoin:round;stroke-miterlimit:10;" cx="630.553" cy="596.416" r="0.954"/>
		
			<circle style="opacity:0.8;fill:none;stroke:#5B5D65;stroke-width:0.2727;stroke-linecap:round;stroke-linejoin:round;stroke-miterlimit:10;" cx="621.068" cy="596.417" r="0.954"/>
		
			<path style="opacity:0.8;fill:none;stroke:#5B5D65;stroke-width:0.2727;stroke-linecap:round;stroke-linejoin:round;stroke-miterlimit:10;" d="
			M617.225,571.349l26.696-0.001c0.152,0,0.276,0.124,0.276,0.276l0.001,26.696c0,0.152-0.124,0.276-0.276,0.276l-26.696,0.001
			c-0.152,0-0.276-0.124-0.276-0.276l-0.001-26.696C616.949,571.473,617.073,571.349,617.225,571.349z"/>
		
			<path style="opacity:0.8;fill:none;stroke:#5B5D65;stroke-width:0.2727;stroke-linecap:round;stroke-linejoin:round;stroke-miterlimit:10;" d="
			M618.575,572.714l23.971-0.001c0.152,0,0.276,0.124,0.276,0.276l0.001,21.246c0,0.152-0.124,0.276-0.276,0.276l-23.971,0.001
			c-0.152,0-0.276-0.124-0.276-0.276l-0.001-21.246C618.299,572.838,618.423,572.714,618.575,572.714z"/>
	</g>
	<g>
		
			<line style="opacity:0.8;fill:none;stroke:#5B5D65;stroke-width:0.2727;stroke-linecap:round;stroke-linejoin:round;stroke-miterlimit:10;" x1="470.008" y1="770.109" x2="473.986" y2="770.109"/>
		
			<path style="opacity:0.8;fill:none;stroke:#5B5D65;stroke-width:0.2727;stroke-linecap:round;stroke-linejoin:round;stroke-miterlimit:10;" d="
			M475.749,770.109l8.222,0c1.123,0,2.03-0.982,2.03-2.192L486,704.294c0-4.341-1.498-8.532-4.199-11.746
			c-6.415-7.628-17.519-7.628-23.932,0c-2.705,3.214-4.202,7.405-4.202,11.746l0.001,63.623c0,1.209,0.911,2.192,2.034,2.192
			l9.628,0"/>
		
			<rect x="450.76" y="682.148" style="opacity:0.8;fill:none;stroke:#5B5D65;stroke-width:0.2727;stroke-linecap:round;stroke-linejoin:round;stroke-miterlimit:10;" width="38.147" height="92.642"/>
		
			<path style="opacity:0.8;fill:none;stroke:#5B5D65;stroke-width:0.2727;stroke-linecap:round;stroke-linejoin:round;stroke-miterlimit:10;" d="
			M469.835,755.91c1.078,0,1.951,0.873,1.951,1.951c0,1.077-0.873,1.951-1.951,1.951c-1.078,0-1.953-0.875-1.953-1.951
			C467.882,756.782,468.757,755.91,469.835,755.91z"/>
		
			<path style="opacity:0.8;fill:none;stroke:#5B5D65;stroke-width:0.2727;stroke-linecap:round;stroke-linejoin:round;stroke-miterlimit:10;" d="
			M473.986,774.79h1.763l0-2.872v-0.196l0-4.539c0,0-0.033-0.934-0.881-0.934c-0.848,0-0.882,0.934-0.882,0.934l0,4.539v0.196
			l0,1.06"/>
		
			<path style="opacity:0.8;fill:none;stroke:#5B5D65;stroke-width:0.2727;stroke-linecap:round;stroke-linejoin:round;stroke-miterlimit:10;" d="
			M466.661,772.32l-0.047,0.572c-0.073,0.907,0.609,1.767,1.609,1.884c0.067,0.008,0.133,0.012,0.202,0.012
			c0.067,0,0.135-0.004,0.202-0.012c1-0.117,1.682-0.977,1.611-1.884l-0.813-9.851c0-0.313-0.281-0.567-0.629-0.567l-0.74,0
			c-0.35,0-0.627,0.254-0.627,0.567l-0.413,4.99"/>
		
			<path style="opacity:0.8;fill:none;stroke:#5B5D65;stroke-width:0.2727;stroke-linecap:round;stroke-linejoin:round;stroke-miterlimit:10;" d="
			M465.158,767.712l0.288-0.175c0.515-0.308,1.188-0.142,1.496,0.373l2.382,3.953c0.309,0.513,0.142,1.186-0.369,1.498l-0.294,0.173
			c-0.509,0.31-1.184,0.14-1.494-0.371l-2.38-3.954C464.478,768.694,464.643,768.021,465.158,767.712z"/>
		
			<path style="opacity:0.8;fill:none;stroke:#5B5D65;stroke-width:0.2727;stroke-linecap:round;stroke-linejoin:round;stroke-miterlimit:10;" d="
			M466.711,772.401c-1.39,0.075-3.196,0.218-3.679,0.463c-0.673,0.344-0.375,1.302-0.375,1.302l0,0.611l11.539,0l0-0.611
			c0,0,0.296-0.957-0.377-1.302c-0.475-0.242-2.239-0.383-3.622-0.459"/>
		
			<path style="opacity:0.8;fill:none;stroke:#5B5D65;stroke-width:0.2727;stroke-linecap:round;stroke-linejoin:round;stroke-miterlimit:10;" d="
			M476.511,770.109c1.03-0.576,1.726-1.678,1.726-2.941c0-1.861-1.507-3.37-3.368-3.37c-1.861,0-3.368,1.509-3.368,3.37
			c0,1.263,0.696,2.365,1.726,2.941"/>
	</g>
	<g>
		
			<path style="opacity:0.8;fill:none;stroke:#5B5D65;stroke-width:0.2727;stroke-linecap:round;stroke-linejoin:round;stroke-miterlimit:10;" d="
			M336.241,697.357c0.688,0,1.245,0.56,1.245,1.25c0,0.688-0.557,1.247-1.245,1.247c-0.689,0-1.246-0.559-1.246-1.247
			C334.995,697.917,335.552,697.357,336.241,697.357z"/>
		
			<line style="opacity:0.8;fill:none;stroke:#5B5D65;stroke-width:0.2727;stroke-linecap:round;stroke-linejoin:round;stroke-miterlimit:10;" x1="336.241" y1="700.424" x2="336.241" y2="696.787"/>
		
			<line style="opacity:0.8;fill:none;stroke:#5B5D65;stroke-width:0.2727;stroke-linecap:round;stroke-linejoin:round;stroke-miterlimit:10;" x1="338.059" y1="698.605" x2="334.422" y2="698.605"/>
		
			<path style="opacity:0.8;fill:none;stroke:#5B5D65;stroke-width:0.2727;stroke-linecap:round;stroke-linejoin:round;stroke-miterlimit:10;" d="
			M330.266,697.711c0.494,0,0.893,0.401,0.893,0.895c0,0.493-0.4,0.893-0.893,0.893c-0.495,0-0.894-0.4-0.894-0.893
			C329.371,698.112,329.771,697.711,330.266,697.711z"/>
		
			<line style="opacity:0.8;fill:none;stroke:#5B5D65;stroke-width:0.2727;stroke-linecap:round;stroke-linejoin:round;stroke-miterlimit:10;" x1="330.265" y1="700.034" x2="330.265" y2="697.176"/>
		
			<line style="opacity:0.8;fill:none;stroke:#5B5D65;stroke-width:0.2727;stroke-linecap:round;stroke-linejoin:round;stroke-miterlimit:10;" x1="331.694" y1="698.605" x2="328.837" y2="698.605"/>
		
			<path style="opacity:0.8;fill:none;stroke:#5B5D65;stroke-width:0.2727;stroke-linecap:round;stroke-linejoin:round;stroke-miterlimit:10;" d="
			M335.714,685.134c-0.641-0.048-1.436-0.078-2.347-0.045c-0.356,0.013-1.035,0.047-1.888,0.154
			c-0.703,0.088-1.578,0.233-2.572,0.48c-0.804,0.268-1.608,0.537-2.412,0.805c0,0,0,0.005,0,0.007c0,0.342,0,24.228,0,24.327
			c0,0.002,0,0.007,0,0.007c0.804,0.268,1.608,0.537,2.412,0.805c0.995,0.248,1.87,0.392,2.572,0.48
			c0.853,0.107,1.532,0.141,1.888,0.154c0.911,0.033,1.706,0.003,2.346-0.045c0.889-0.018,6.588-0.229,10.312-4.847
			c2.756-3.418,2.813-7.246,2.813-8.719s-0.056-5.3-2.813-8.718C342.302,685.363,336.604,685.152,335.714,685.134z"/>
		
			<path style="opacity:0.8;fill:none;stroke:#5B5D65;stroke-width:0.2727;stroke-linecap:round;stroke-linejoin:round;stroke-miterlimit:10;" d="
			M337.109,688.86c-0.311-0.028-0.733-0.056-1.238,0.094c-0.026,0.008-0.048,0.015-0.067,0.022c0,0-0.439,0.151-0.837,0.487
			c-2.075,1.754-2.075,9.149-2.075,9.149l0,0c0,4.061,0.22,7.479,2.072,9.012c0.001,0.001,0.002,0.001,0.002,0.002
			c0,0,0.001,0.001,0.001,0.001c0.41,0.358,0.776,0.469,0.836,0.487c0,0,0.001,0,0.001,0c0.551,0.189,1.221,0.122,1.305,0.116
			c0.635-0.043,0.953-0.064,1.409-0.157c2.615-0.529,4.242-1.624,4.242-1.624c1.212-0.815,1.945-1.705,2.322-2.169
			c0.302-0.372,0.758-0.94,1.177-1.765c0.918-1.803,0.962-3.461,0.965-3.904c0.012-1.954-0.654-3.387-0.964-4.038l0,0
			c-0.258-0.477-0.638-1.099-1.178-1.765c-0.371-0.457-1.106-1.351-2.322-2.169c0,0-1.641-1.104-4.242-1.624
			C338.233,688.959,337.859,688.926,337.109,688.86z"/>
	</g>
	<g>
		
			<path style="opacity:0.8;fill:none;stroke:#5B5D65;stroke-width:0.2727;stroke-linecap:round;stroke-linejoin:round;stroke-miterlimit:10;" d="
			M516.517,753.58c0-0.688,0.56-1.245,1.25-1.245c0.688,0,1.247,0.557,1.247,1.245c0,0.689-0.559,1.246-1.247,1.246
			C517.077,754.826,516.517,754.269,516.517,753.58z"/>
		
			<line style="opacity:0.8;fill:none;stroke:#5B5D65;stroke-width:0.2727;stroke-linecap:round;stroke-linejoin:round;stroke-miterlimit:10;" x1="519.583" y1="753.581" x2="515.946" y2="753.581"/>
		
			<line style="opacity:0.8;fill:none;stroke:#5B5D65;stroke-width:0.2727;stroke-linecap:round;stroke-linejoin:round;stroke-miterlimit:10;" x1="517.765" y1="751.763" x2="517.765" y2="755.399"/>
		
			<path style="opacity:0.8;fill:none;stroke:#5B5D65;stroke-width:0.2727;stroke-linecap:round;stroke-linejoin:round;stroke-miterlimit:10;" d="
			M516.871,759.556c0-0.494,0.401-0.893,0.895-0.893c0.493,0,0.893,0.4,0.893,0.893c0,0.495-0.4,0.894-0.893,0.894
			C517.272,760.45,516.871,760.05,516.871,759.556z"/>
		
			<line style="opacity:0.8;fill:none;stroke:#5B5D65;stroke-width:0.2727;stroke-linecap:round;stroke-linejoin:round;stroke-miterlimit:10;" x1="519.193" y1="759.556" x2="516.336" y2="759.556"/>
		
			<line style="opacity:0.8;fill:none;stroke:#5B5D65;stroke-width:0.2727;stroke-linecap:round;stroke-linejoin:round;stroke-miterlimit:10;" x1="517.765" y1="758.128" x2="517.765" y2="760.985"/>
		
			<path style="opacity:0.8;fill:none;stroke:#5B5D65;stroke-width:0.2727;stroke-linecap:round;stroke-linejoin:round;stroke-miterlimit:10;" d="
			M504.293,754.107c-0.048,0.641-0.078,1.436-0.045,2.347c0.013,0.356,0.047,1.035,0.154,1.888c0.088,0.703,0.233,1.578,0.48,2.572
			c0.268,0.804,0.537,1.608,0.805,2.412c0,0,0.005,0,0.007,0c0.342,0,24.228,0,24.327,0c0.002,0,0.007,0,0.007,0
			c0.268-0.804,0.537-1.608,0.805-2.412c0.248-0.995,0.392-1.87,0.48-2.572c0.107-0.853,0.141-1.532,0.154-1.888
			c0.033-0.911,0.003-1.706-0.045-2.346c-0.018-0.889-0.229-6.588-4.847-10.312c-3.418-2.756-7.246-2.813-8.719-2.813
			s-5.3,0.056-8.718,2.813C504.522,747.519,504.312,753.218,504.293,754.107z"/>
		
			<path style="opacity:0.8;fill:none;stroke:#5B5D65;stroke-width:0.2727;stroke-linecap:round;stroke-linejoin:round;stroke-miterlimit:10;" d="
			M508.019,752.712c-0.028,0.311-0.056,0.733,0.094,1.238c0.008,0.026,0.015,0.048,0.022,0.067c0,0,0.151,0.439,0.487,0.837
			c1.754,2.075,9.149,2.075,9.149,2.075l0,0c4.061,0,7.479-0.22,9.012-2.072c0-0.001,0.001-0.002,0.002-0.002
			c0,0,0.001-0.001,0.001-0.001c0.358-0.41,0.469-0.776,0.487-0.836c0,0,0-0.001,0-0.001c0.189-0.551,0.122-1.221,0.116-1.305
			c-0.043-0.635-0.064-0.953-0.157-1.409c-0.53-2.615-1.624-4.242-1.624-4.242c-0.815-1.212-1.705-1.945-2.169-2.322
			c-0.372-0.302-0.94-0.758-1.765-1.178c-1.803-0.917-3.461-0.962-3.904-0.965c-1.954-0.012-3.388,0.654-4.038,0.964l0,0
			c-0.477,0.258-1.099,0.638-1.765,1.178c-0.457,0.37-1.351,1.106-2.169,2.322c0,0-1.104,1.642-1.624,4.242
			C508.119,751.588,508.086,751.963,508.019,752.712z"/>
	</g>
	<g>
		
			<ellipse style="opacity:0.8;fill:none;stroke:#5B5D65;stroke-width:0.2727;stroke-linecap:round;stroke-linejoin:round;stroke-miterlimit:10;" cx="554.443" cy="750.925" rx="0.898" ry="0.895"/>
		
			<line style="opacity:0.8;fill:none;stroke:#5B5D65;stroke-width:0.2727;stroke-linecap:round;stroke-linejoin:round;stroke-miterlimit:10;" x1="556.011" y1="750.925" x2="555.34" y2="750.925"/>
		
			<line style="opacity:0.8;fill:none;stroke:#5B5D65;stroke-width:0.2727;stroke-linecap:round;stroke-linejoin:round;stroke-miterlimit:10;" x1="553.545" y1="750.926" x2="552.875" y2="750.926"/>
		
			<line style="opacity:0.8;fill:none;stroke:#5B5D65;stroke-width:0.2727;stroke-linecap:round;stroke-linejoin:round;stroke-miterlimit:10;" x1="554.443" y1="749.362" x2="554.443" y2="750.03"/>
		
			<line style="opacity:0.8;fill:none;stroke:#5B5D65;stroke-width:0.2727;stroke-linecap:round;stroke-linejoin:round;stroke-miterlimit:10;" x1="554.443" y1="751.821" x2="554.443" y2="752.489"/>
		
			<line style="opacity:0.8;fill:none;stroke:#5B5D65;stroke-width:0.2727;stroke-linecap:round;stroke-linejoin:round;stroke-miterlimit:10;" x1="559.436" y1="743.664" x2="559.074" y2="743.664"/>
		
			<line style="opacity:0.8;fill:none;stroke:#5B5D65;stroke-width:0.2727;stroke-linecap:round;stroke-linejoin:round;stroke-miterlimit:10;" x1="558.106" y1="743.664" x2="557.744" y2="743.664"/>
		
			<line style="opacity:0.8;fill:none;stroke:#5B5D65;stroke-width:0.2727;stroke-linecap:round;stroke-linejoin:round;stroke-miterlimit:10;" x1="558.59" y1="742.82" x2="558.59" y2="743.181"/>
		
			<line style="opacity:0.8;fill:none;stroke:#5B5D65;stroke-width:0.2727;stroke-linecap:round;stroke-linejoin:round;stroke-miterlimit:10;" x1="558.59" y1="744.147" x2="558.59" y2="744.508"/>
		
			<circle style="opacity:0.8;fill:none;stroke:#5B5D65;stroke-width:0.2727;stroke-linecap:round;stroke-linejoin:round;stroke-miterlimit:10;" cx="558.59" cy="743.664" r="0.484"/>
		
			<circle style="opacity:0.8;fill:none;stroke:#5B5D65;stroke-width:0.2727;stroke-linecap:round;stroke-linejoin:round;stroke-miterlimit:10;" cx="550.294" cy="743.665" r="0.484"/>
		
			<line style="opacity:0.8;fill:none;stroke:#5B5D65;stroke-width:0.2727;stroke-linecap:round;stroke-linejoin:round;stroke-miterlimit:10;" x1="551.14" y1="743.665" x2="550.778" y2="743.665"/>
		
			<line style="opacity:0.8;fill:none;stroke:#5B5D65;stroke-width:0.2727;stroke-linecap:round;stroke-linejoin:round;stroke-miterlimit:10;" x1="549.81" y1="743.665" x2="549.448" y2="743.665"/>
		
			<line style="opacity:0.8;fill:none;stroke:#5B5D65;stroke-width:0.2727;stroke-linecap:round;stroke-linejoin:round;stroke-miterlimit:10;" x1="550.294" y1="742.821" x2="550.294" y2="743.182"/>
		
			<line style="opacity:0.8;fill:none;stroke:#5B5D65;stroke-width:0.2727;stroke-linecap:round;stroke-linejoin:round;stroke-miterlimit:10;" x1="550.294" y1="744.148" x2="550.294" y2="744.508"/>
		
			<path style="opacity:0.8;fill:none;stroke:#5B5D65;stroke-width:0.2727;stroke-linecap:round;stroke-linejoin:round;stroke-miterlimit:10;" d="
			M545.677,735.934c0.025,0.374,0.054,0.681,0.074,0.883c0.655,3.681,1.447,6.142,2.102,9.822c1.98-0.23,4.187-0.381,6.589-0.382
			c2.411-0.001,4.627,0.151,6.614,0.381c0.654-3.681,1.42-6.142,2.075-9.823c0.021-0.202,0.049-0.509,0.074-0.883
			c0.145-2.206,0.389-5.923-1.427-9.275c-0.293-0.541-0.895-1.63-2.045-2.671c-0.689-0.624-2.519-2.23-5.227-2.231
			c-0.022,0-0.044,0.002-0.066,0.002c-0.022,0-0.043-0.002-0.066-0.002c-2.708,0.002-4.538,1.609-5.227,2.233
			c-1.15,1.041-1.751,2.131-2.044,2.672C545.287,730.01,545.532,733.727,545.677,735.934z"/>
		
			<path style="opacity:0.8;fill:none;stroke:#5B5D65;stroke-width:0.2727;stroke-linecap:round;stroke-linejoin:round;stroke-miterlimit:10;" d="
			M547.11,735.318c0.154,1.107,0.341,2.345,1.212,3.616c1.074,1.568,2.516,2.205,2.986,2.405c1.281,0.546,2.372,0.546,3.134,0.546
			c0.762,0,1.853,0,3.134-0.546c0.47-0.2,1.912-0.838,2.985-2.406c0.87-1.271,1.057-2.509,1.211-3.616
			c0.196-1.41,0.71-5.098-1.457-8.416c-0.54-0.826-1.695-2.57-3.915-3.291c-0.46-0.149-2.052-0.607-3.921,0
			c-2.219,0.721-3.374,2.465-3.914,3.292C546.399,730.22,546.913,733.908,547.11,735.318z"/>
		
			<path style="opacity:0.8;fill:none;stroke:#5B5D65;stroke-width:0.2727;stroke-linecap:round;stroke-linejoin:round;stroke-miterlimit:10;" d="
			M549.894,738.784c1.719,1.69,3.96,1.684,4.548,1.679c0.588,0.005,2.829,0.01,4.547-1.68c1.521-1.495,1.85-3.549,1.839-5.179
			c-0.007-1.009-0.09-1.778-0.2-2.405c-0.274-1.549-0.548-3.105-1.682-4.441c-0.897-1.057-2.491-2.166-4.52-2.145
			c-2.401,0.025-3.948,1.616-4.425,2.169c-1.197,1.388-1.49,3.005-1.747,4.418c-0.104,0.572-0.193,1.366-0.2,2.405
			C548.043,735.236,548.373,737.289,549.894,738.784z"/>
		
			<path style="opacity:0.8;fill:none;stroke:#5B5D65;stroke-width:0.2727;stroke-linecap:round;stroke-linejoin:round;stroke-miterlimit:10;" d="
			M552.174,737.899c0.092,0.264,0.282,0.696,0.668,1.093c0.216,0.222,0.433,0.372,0.608,0.471c0.004,0,0.007,0,0.01,0
			c0.915,0,1.054,0,1.962,0c0.004,0,0.007,0,0.01,0c0.175-0.1,0.392-0.249,0.608-0.471c0.385-0.397,0.575-0.829,0.667-1.093
			c0.032-1.219,0.064-2.437,0.096-3.656c-0.01-0.164-0.065-0.78-0.535-1.287c-0.367-0.396-0.789-0.512-0.959-0.548
			c-0.58,0-1.16,0-1.74,0c-0.17,0.036-0.592,0.152-0.959,0.548c-0.471,0.508-0.525,1.123-0.535,1.287
			C552.109,735.462,552.142,736.681,552.174,737.899z"/>
		
			<path style="opacity:0.8;fill:none;stroke:#5B5D65;stroke-width:0.2727;stroke-linecap:round;stroke-linejoin:round;stroke-miterlimit:10;" d="
			M552.131,736.46c0.277-0.217,1.098-0.801,2.281-0.81c1.218-0.01,2.065,0.596,2.339,0.81"/>
		
			<path style="opacity:0.8;fill:none;stroke:#5B5D65;stroke-width:0.2727;stroke-linecap:round;stroke-linejoin:round;stroke-miterlimit:10;" d="
			M545.091,756.36l18.706-0.002c0.252,0,0.456-0.218,0.456-0.488c0,0-0.001-4.53-0.001-5.015c-0.057-0.265-0.149-0.61-0.301-0.998
			c-0.152-0.388-0.363-0.818-0.66-1.254c-0.391-0.574-0.827-1.004-1.226-1.321c-0.399-0.317-0.763-0.521-1.01-0.645
			c-0.993-0.115-2.044-0.21-3.148-0.277c-1.104-0.066-2.261-0.104-3.466-0.104c-1.201,0-2.353,0.039-3.453,0.105
			s-2.146,0.162-3.136,0.277c-0.219,0.092-0.547,0.248-0.916,0.503c-0.369,0.254-0.778,0.606-1.158,1.089
			c-0.411,0.521-0.677,1.054-0.851,1.519c-0.174,0.465-0.255,0.861-0.295,1.109c0,0.553,0.001,5.015,0.001,5.015
			C544.634,756.141,544.839,756.36,545.091,756.36z"/>
	</g>
	<g>
		
			<ellipse style="opacity:0.8;fill:none;stroke:#5B5D65;stroke-width:0.2727;stroke-linecap:round;stroke-linejoin:round;stroke-miterlimit:10;" cx="405.249" cy="757.895" rx="0.898" ry="0.895"/>
		
			<line style="opacity:0.8;fill:none;stroke:#5B5D65;stroke-width:0.2727;stroke-linecap:round;stroke-linejoin:round;stroke-miterlimit:10;" x1="406.817" y1="757.895" x2="406.147" y2="757.895"/>
		
			<line style="opacity:0.8;fill:none;stroke:#5B5D65;stroke-width:0.2727;stroke-linecap:round;stroke-linejoin:round;stroke-miterlimit:10;" x1="404.352" y1="757.895" x2="403.681" y2="757.895"/>
		
			<line style="opacity:0.8;fill:none;stroke:#5B5D65;stroke-width:0.2727;stroke-linecap:round;stroke-linejoin:round;stroke-miterlimit:10;" x1="405.249" y1="756.331" x2="405.249" y2="757"/>
		
			<line style="opacity:0.8;fill:none;stroke:#5B5D65;stroke-width:0.2727;stroke-linecap:round;stroke-linejoin:round;stroke-miterlimit:10;" x1="405.249" y1="758.79" x2="405.249" y2="759.459"/>
		
			<line style="opacity:0.8;fill:none;stroke:#5B5D65;stroke-width:0.2727;stroke-linecap:round;stroke-linejoin:round;stroke-miterlimit:10;" x1="410.242" y1="750.633" x2="409.881" y2="750.634"/>
		
			<line style="opacity:0.8;fill:none;stroke:#5B5D65;stroke-width:0.2727;stroke-linecap:round;stroke-linejoin:round;stroke-miterlimit:10;" x1="408.912" y1="750.634" x2="408.551" y2="750.634"/>
		
			<line style="opacity:0.8;fill:none;stroke:#5B5D65;stroke-width:0.2727;stroke-linecap:round;stroke-linejoin:round;stroke-miterlimit:10;" x1="409.396" y1="749.79" x2="409.397" y2="750.151"/>
		
			<line style="opacity:0.8;fill:none;stroke:#5B5D65;stroke-width:0.2727;stroke-linecap:round;stroke-linejoin:round;stroke-miterlimit:10;" x1="409.397" y1="751.117" x2="409.397" y2="751.477"/>
		
			<circle style="opacity:0.8;fill:none;stroke:#5B5D65;stroke-width:0.2727;stroke-linecap:round;stroke-linejoin:round;stroke-miterlimit:10;" cx="409.397" cy="750.634" r="0.484"/>
		
			<circle style="opacity:0.8;fill:none;stroke:#5B5D65;stroke-width:0.2727;stroke-linecap:round;stroke-linejoin:round;stroke-miterlimit:10;" cx="401.1" cy="750.635" r="0.484"/>
		
			<line style="opacity:0.8;fill:none;stroke:#5B5D65;stroke-width:0.2727;stroke-linecap:round;stroke-linejoin:round;stroke-miterlimit:10;" x1="401.946" y1="750.635" x2="401.584" y2="750.635"/>
		
			<line style="opacity:0.8;fill:none;stroke:#5B5D65;stroke-width:0.2727;stroke-linecap:round;stroke-linejoin:round;stroke-miterlimit:10;" x1="400.616" y1="750.635" x2="400.254" y2="750.635"/>
		
			<line style="opacity:0.8;fill:none;stroke:#5B5D65;stroke-width:0.2727;stroke-linecap:round;stroke-linejoin:round;stroke-miterlimit:10;" x1="401.1" y1="749.791" x2="401.1" y2="750.152"/>
		
			<line style="opacity:0.8;fill:none;stroke:#5B5D65;stroke-width:0.2727;stroke-linecap:round;stroke-linejoin:round;stroke-miterlimit:10;" x1="401.1" y1="751.117" x2="401.1" y2="751.478"/>
		
			<path style="opacity:0.8;fill:none;stroke:#5B5D65;stroke-width:0.2727;stroke-linecap:round;stroke-linejoin:round;stroke-miterlimit:10;" d="
			M396.484,742.903c0.025,0.374,0.054,0.681,0.074,0.883c0.655,3.681,1.447,6.142,2.102,9.822c1.98-0.23,4.187-0.381,6.589-0.382
			c2.411-0.001,4.627,0.151,6.614,0.381c0.654-3.681,1.42-6.142,2.075-9.823c0.021-0.202,0.05-0.509,0.074-0.883
			c0.145-2.206,0.389-5.923-1.427-9.275c-0.293-0.541-0.895-1.63-2.045-2.671c-0.689-0.624-2.519-2.23-5.227-2.231
			c-0.022,0-0.044,0.002-0.066,0.002c-0.022,0-0.043-0.002-0.066-0.002c-2.708,0.002-4.538,1.609-5.227,2.233
			c-1.15,1.041-1.751,2.131-2.044,2.672C396.094,736.98,396.339,740.697,396.484,742.903z"/>
		
			<path style="opacity:0.8;fill:none;stroke:#5B5D65;stroke-width:0.2727;stroke-linecap:round;stroke-linejoin:round;stroke-miterlimit:10;" d="
			M397.917,742.287c0.154,1.107,0.341,2.345,1.212,3.616c1.074,1.568,2.516,2.205,2.986,2.405c1.281,0.546,2.372,0.546,3.134,0.546
			c0.762,0,1.853,0,3.134-0.546c0.47-0.2,1.912-0.838,2.985-2.406c0.87-1.271,1.057-2.509,1.211-3.616
			c0.197-1.41,0.71-5.098-1.457-8.416c-0.54-0.826-1.695-2.57-3.915-3.291c-0.46-0.149-2.052-0.607-3.921,0
			c-2.219,0.721-3.374,2.465-3.914,3.292C397.205,737.19,397.72,740.878,397.917,742.287z"/>
		
			<path style="opacity:0.8;fill:none;stroke:#5B5D65;stroke-width:0.2727;stroke-linecap:round;stroke-linejoin:round;stroke-miterlimit:10;" d="
			M400.7,745.754c1.719,1.69,3.96,1.684,4.548,1.679c0.588,0.005,2.829,0.01,4.547-1.68c1.521-1.495,1.85-3.549,1.839-5.179
			c-0.007-1.009-0.09-1.778-0.2-2.405c-0.274-1.549-0.548-3.105-1.682-4.441c-0.897-1.057-2.491-2.166-4.52-2.145
			c-2.401,0.025-3.948,1.616-4.425,2.169c-1.197,1.388-1.49,3.004-1.747,4.418c-0.104,0.572-0.193,1.366-0.2,2.405
			C398.85,742.206,399.179,744.259,400.7,745.754z"/>
		
			<path style="opacity:0.8;fill:none;stroke:#5B5D65;stroke-width:0.2727;stroke-linecap:round;stroke-linejoin:round;stroke-miterlimit:10;" d="
			M402.98,744.869c0.092,0.264,0.282,0.697,0.668,1.093c0.216,0.222,0.433,0.372,0.608,0.471c0.004,0,0.007,0,0.01,0
			c0.915,0,1.054,0,1.962,0c0.004,0,0.007,0,0.01,0c0.175-0.1,0.392-0.249,0.608-0.471c0.385-0.396,0.575-0.829,0.667-1.093
			c0.032-1.219,0.064-2.437,0.096-3.656c-0.01-0.164-0.064-0.78-0.535-1.287c-0.367-0.396-0.789-0.512-0.959-0.548
			c-0.58,0-1.16,0-1.74,0c-0.17,0.036-0.592,0.152-0.959,0.548c-0.471,0.508-0.525,1.123-0.535,1.287
			C402.916,742.432,402.948,743.65,402.98,744.869z"/>
		
			<path style="opacity:0.8;fill:none;stroke:#5B5D65;stroke-width:0.2727;stroke-linecap:round;stroke-linejoin:round;stroke-miterlimit:10;" d="
			M402.938,743.43c0.277-0.217,1.098-0.801,2.281-0.81c1.218-0.01,2.065,0.595,2.339,0.81"/>
		
			<path style="opacity:0.8;fill:none;stroke:#5B5D65;stroke-width:0.2727;stroke-linecap:round;stroke-linejoin:round;stroke-miterlimit:10;" d="
			M395.897,763.329l18.706-0.002c0.252,0,0.456-0.218,0.456-0.488c0,0-0.001-4.531-0.001-5.015c-0.057-0.265-0.149-0.61-0.301-0.998
			c-0.152-0.388-0.363-0.818-0.66-1.254c-0.391-0.574-0.827-1.004-1.226-1.321c-0.399-0.317-0.763-0.521-1.01-0.645
			c-0.993-0.115-2.044-0.21-3.148-0.277c-1.104-0.066-2.261-0.104-3.466-0.104c-1.201,0-2.353,0.039-3.453,0.105
			c-1.1,0.067-2.146,0.162-3.136,0.277c-0.219,0.092-0.547,0.248-0.915,0.503c-0.369,0.254-0.778,0.606-1.158,1.089
			c-0.411,0.521-0.677,1.054-0.851,1.518c-0.174,0.465-0.255,0.861-0.295,1.109c0,0.553,0.001,5.015,0.001,5.015
			C395.441,763.111,395.645,763.329,395.897,763.329z"/>
	</g>
	<g>
		
			<polygon style="opacity:0.8;fill:none;stroke:#5B5D65;stroke-width:0.2727;stroke-linecap:round;stroke-linejoin:round;stroke-miterlimit:10;" points="
			342.511,719.801 326.544,719.803 326.549,763.399 370.146,763.394 370.144,747.425 368.096,747.426 368.098,761.144 
			336.884,761.148 328.595,753.124 328.591,722.113 342.512,722.111 		"/>
		
			<path style="opacity:0.8;fill:none;stroke:#5B5D65;stroke-width:0.2727;stroke-linecap:round;stroke-linejoin:round;stroke-miterlimit:10;" d="
			M370.144,747.425c-0.002-15.258-12.374-27.626-27.632-27.625"/>
		
			<path style="opacity:0.8;fill:none;stroke:#5B5D65;stroke-width:0.2727;stroke-linecap:round;stroke-linejoin:round;stroke-miterlimit:10;" d="
			M337.745,750.9l-3.077,3.078l-0.133,0.132l-1.365,1.367c0,0-0.61,0.655-0.034,1.23c0.576,0.574,1.229-0.038,1.229-0.038
			l1.365-1.364l0.133-0.133l3.076-3.078c0,0,0.613-0.654,0.037-1.23C338.4,750.29,337.745,750.9,337.745,750.9z"/>
		
			<path style="opacity:0.8;fill:none;stroke:#5B5D65;stroke-width:0.2727;stroke-linecap:round;stroke-linejoin:round;stroke-miterlimit:10;" d="
			M343.129,743.543c1.027-1.025,2.737-1.026,3.764,0c1.029,1.029,1.029,2.739-0.001,3.761c-1.025,1.027-2.736,1.027-3.763,0
			C342.099,746.282,342.099,744.572,343.129,743.543z"/>
		
			<path style="opacity:0.8;fill:none;stroke:#5B5D65;stroke-width:0.2727;stroke-linecap:round;stroke-linejoin:round;stroke-miterlimit:10;" d="
			M333.135,756.707c-0.576-0.576,0.034-1.23,0.034-1.23l1.068-1.069c-0.87-0.813-1.773-1.537-2.568-2.018
			c-0.395-0.239-0.802-0.459-1.217-0.657h-0.002c-0.297-0.14-0.629-0.092-0.839,0.116c-0.339,0.426-0.678,0.851-1.017,1.277
			c0.475,0.46,0.95,0.919,1.425,1.379c0.016-0.02,0.043-0.05,0.084-0.074c0.289-0.163,0.842,0.25,1.078,0.485
			c1.902,1.899,2.54,2.574,3.649,3.646c0.194,0.188,0.745,0.708,0.608,1.017c-0.021,0.048-0.054,0.079-0.076,0.098
			c0.507,0.491,1.014,0.981,1.521,1.472c0.364-0.341,0.652-0.676,1.016-1.017c0.203-0.205,0.258-0.528,0.123-0.817
			c-0.207-0.446-0.446-0.877-0.701-1.297c-0.458-0.749-1.13-1.593-1.891-2.414l-1.067,1.067
			C334.364,756.669,333.712,757.281,333.135,756.707z"/>
		
			<path style="opacity:0.8;fill:none;stroke:#5B5D65;stroke-width:0.2727;stroke-linecap:round;stroke-linejoin:round;stroke-miterlimit:10;" d="
			M341.45,748.389c-1.711-1.71-4.482-1.71-6.193,0.001c-1.506,1.506-1.682,3.833-0.537,5.535l3.025-3.025c0,0,0.654-0.61,1.23-0.036
			c0.576,0.576-0.037,1.231-0.037,1.231l-3.023,3.025c1.703,1.145,4.03,0.968,5.536-0.538
			C343.161,752.871,343.161,750.099,341.45,748.389z"/>
	</g>
</g>
<g id="&#x43D;&#x435;&#x441;&#x443;&#x449;&#x438;&#x435;">
	
		<rect x="19.323" y="774.802" style="fill:#5B5D65;stroke:#5B5D65;stroke-width:1.0909;stroke-linecap:round;stroke-linejoin:round;stroke-miterlimit:10;" width="62.489" height="11.823"/>
	
		<rect x="273.242" y="774.802" style="fill:#5B5D65;stroke:#5B5D65;stroke-width:1.0909;stroke-linecap:round;stroke-linejoin:round;stroke-miterlimit:10;" width="69.954" height="11.823"/>
	
		<rect x="528.682" y="774.802" style="fill:#5B5D65;stroke:#5B5D65;stroke-width:1.0909;stroke-linecap:round;stroke-linejoin:round;stroke-miterlimit:10;" width="69.954" height="11.823"/>
	
		<rect x="790.067" y="774.802" style="fill:#5B5D65;stroke:#5B5D65;stroke-width:1.0909;stroke-linecap:round;stroke-linejoin:round;stroke-miterlimit:10;" width="69.954" height="11.823"/>
	
		<rect x="12.134" y="600.818" style="fill:#5B5D65;stroke:#5B5D65;stroke-width:1.0909;stroke-linecap:round;stroke-linejoin:round;stroke-miterlimit:10;" width="103.595" height="11.429"/>
	
		<rect x="266.514" y="600.818" style="fill:#5B5D65;stroke:#5B5D65;stroke-width:1.0909;stroke-linecap:round;stroke-linejoin:round;stroke-miterlimit:10;" width="69.678" height="11.429"/>
	
		<rect x="580.249" y="600.818" style="fill:#5B5D65;stroke:#5B5D65;stroke-width:1.0909;stroke-linecap:round;stroke-linejoin:round;stroke-miterlimit:10;" width="51.982" height="11.429"/>
	
		<rect x="12.442" y="774.791" style="fill:#5B5D65;stroke:#5B5D65;stroke-width:1.0909;stroke-linecap:round;stroke-linejoin:round;stroke-miterlimit:10;" width="58.249" height="11.429"/>
	
		<rect x="273.827" y="774.791" style="fill:#5B5D65;stroke:#5B5D65;stroke-width:1.0909;stroke-linecap:round;stroke-linejoin:round;stroke-miterlimit:10;" width="57.881" height="11.429"/>
	
		<rect x="540.742" y="774.791" style="fill:#5B5D65;stroke:#5B5D65;stroke-width:1.0909;stroke-linecap:round;stroke-linejoin:round;stroke-miterlimit:10;" width="57.881" height="11.429"/>
	
		<rect x="802.126" y="774.791" style="fill:#5B5D65;stroke:#5B5D65;stroke-width:1.0909;stroke-linecap:round;stroke-linejoin:round;stroke-miterlimit:10;" width="57.881" height="11.429"/>
	
		<rect x="12.602" y="774.803" style="fill:#5B5D65;stroke:#5B5D65;stroke-width:1.0909;stroke-linecap:round;stroke-linejoin:round;stroke-miterlimit:10;" width="58.249" height="11.429"/>
	
		<rect x="273.987" y="774.803" style="fill:#5B5D65;stroke:#5B5D65;stroke-width:1.0909;stroke-linecap:round;stroke-linejoin:round;stroke-miterlimit:10;" width="57.881" height="11.429"/>
	
		<rect x="540.901" y="774.803" style="fill:#5B5D65;stroke:#5B5D65;stroke-width:1.0909;stroke-linecap:round;stroke-linejoin:round;stroke-miterlimit:10;" width="57.881" height="11.429"/>
	
		<rect x="802.286" y="774.803" style="fill:#5B5D65;stroke:#5B5D65;stroke-width:1.0909;stroke-linecap:round;stroke-linejoin:round;stroke-miterlimit:10;" width="57.881" height="11.429"/>
	
		<rect x="881.835" y="191.551" transform="matrix(0.8202 -0.572 0.572 0.8202 -57.4265 575.8696)" style="fill:#5B5D65;stroke:#5B5D65;stroke-width:1.0909;stroke-linecap:round;stroke-linejoin:round;stroke-miterlimit:10;" width="11.427" height="375.51"/>
	
		<rect x="0.545" y="739.805" style="fill:#5B5D65;stroke:#5B5D65;stroke-width:1.0909;stroke-linecap:round;stroke-linejoin:round;stroke-miterlimit:10;" width="23.325" height="46.415"/>
	
		<rect x="0.545" y="600.818" style="fill:#5B5D65;stroke:#5B5D65;stroke-width:1.0909;stroke-linecap:round;stroke-linejoin:round;stroke-miterlimit:10;" width="23.325" height="45.296"/>
	
		<rect x="849.015" y="739.683" style="fill:#5B5D65;stroke:#5B5D65;stroke-width:1.0909;stroke-linecap:round;stroke-linejoin:round;stroke-miterlimit:10;" width="22.724" height="46.943"/>
	
		<rect x="849.015" y="600.633" style="fill:#5B5D65;stroke:#5B5D65;stroke-width:1.0909;stroke-linecap:round;stroke-linejoin:round;stroke-miterlimit:10;" width="22.724" height="46.145"/>
	
		<rect x="874.806" y="571.577" transform="matrix(0.5733 0.8194 -0.8194 0.5733 867.7416 -471.0982)" style="fill:#5B5D65;stroke:#5B5D65;stroke-width:1.0909;stroke-linecap:round;stroke-linejoin:round;stroke-miterlimit:10;" width="22.719" height="51.961"/>
	
		<rect x="806.242" y="600.633" style="fill:#5B5D65;stroke:#5B5D65;stroke-width:1.0909;stroke-linecap:round;stroke-linejoin:round;stroke-miterlimit:10;" width="49.77" height="11.429"/>
	
		<rect x="960.801" y="510.835" transform="matrix(-0.572 -0.8202 0.8202 -0.572 1087.3531 1642.3906)" style="fill:#5B5D65;stroke:#5B5D65;stroke-width:1.0909;stroke-linecap:round;stroke-linejoin:round;stroke-miterlimit:10;" width="22.724" height="53.357"/>
</g>
<g id="&#x43B;&#x435;&#x441;&#x442;&#x43D;&#x438;&#x446;&#x44B;_x2C__&#x43B;&#x438;&#x444;&#x442;&#x44B;">
</g>
<g id="&#x43F;&#x43B;&#x43E;&#x449;&#x430;&#x434;&#x438;">
	<g>
		<path style="fill:#5B5D65;" d="M422.843,650.541c-0.171,0-0.322-0.065-0.453-0.197c-0.132-0.131-0.197-0.282-0.197-0.453
			c0-0.302,0.108-0.49,0.325-0.562c0.473-0.158,0.868-0.338,1.183-0.542c1.399-0.907,2.181-2.057,2.346-3.45h-1.902
			c-0.9,0-1.667-0.317-2.301-0.951c-0.634-0.634-0.951-1.401-0.951-2.302v-1.301c0-0.9,0.317-1.667,0.951-2.302
			c0.634-0.634,1.401-0.951,2.301-0.951c0.907,0,1.676,0.314,2.307,0.941c0.63,0.627,0.946,1.392,0.946,2.292v3.923
			c0,2.208-1.028,3.953-3.085,5.234C423.648,650.334,423.158,650.541,422.843,650.541z M426.095,644.036v-3.252
			c0-0.539-0.191-0.999-0.572-1.38c-0.381-0.381-0.841-0.572-1.38-0.572c-0.539,0-0.999,0.19-1.38,0.572
			c-0.381,0.381-0.572,0.841-0.572,1.38v1.301c0,0.545,0.189,1.007,0.567,1.385c0.378,0.378,0.839,0.567,1.385,0.567H426.095z"/>
		<path style="fill:#5B5D65;" d="M431.3,649.24c0.434,0,0.65,0.214,0.65,0.641c0,0.059-0.223,0.982-0.67,2.77
			c-0.079,0.329-0.29,0.493-0.631,0.493c-0.434,0-0.65-0.217-0.65-0.65c0-0.296,0.223-1.216,0.67-2.76
			C430.761,649.404,430.971,649.24,431.3,649.24z"/>
		<path style="fill:#5B5D65;" d="M441.057,644.036c0,1.551-0.19,2.892-0.571,4.021c-0.559,1.656-1.453,2.484-2.681,2.484
			c-1.229,0-2.123-0.825-2.681-2.474c-0.381-1.13-0.571-2.474-0.571-4.031c0-1.557,0.19-2.901,0.571-4.031
			c0.559-1.649,1.452-2.474,2.681-2.474c1.229,0,2.123,0.828,2.681,2.484C440.867,641.144,441.057,642.485,441.057,644.036z
			 M439.757,644.036c0-1.078-0.115-2.093-0.345-3.045c-0.348-1.439-0.884-2.159-1.606-2.159c-0.716,0-1.249,0.723-1.597,2.168
			c-0.237,0.973-0.355,1.984-0.355,3.036c0,1.071,0.115,2.086,0.345,3.046c0.348,1.439,0.883,2.158,1.606,2.158
			c0.723,0,1.258-0.719,1.606-2.158C439.641,646.122,439.757,645.107,439.757,644.036z"/>
		<path style="fill:#5B5D65;" d="M446.262,639.754l-1.495,1.495c-0.125,0.123-0.277,0.184-0.455,0.184
			c-0.435,0-0.652-0.217-0.652-0.65c0-0.178,0.062-0.329,0.187-0.454l2.543-2.543c0.171-0.171,0.345-0.256,0.522-0.256
			c0.434,0,0.65,0.217,0.65,0.651v11.709c0,0.434-0.217,0.65-0.65,0.65s-0.65-0.217-0.65-0.65V639.754z"/>
	</g>
	<g>
		<path style="fill:#5B5D65;" d="M619.156,541.315v-5.204c0-0.434,0.217-0.651,0.65-0.651h4.554c0.434,0,0.65,0.217,0.65,0.651
			c0,0.434-0.217,0.65-0.65,0.65h-3.903v3.903h1.952c0.9,0,1.667,0.318,2.301,0.956c0.634,0.637,0.951,1.403,0.951,2.296v1.301
			c0,0.9-0.318,1.667-0.956,2.301c-0.637,0.634-1.403,0.951-2.296,0.951h-2.602c-0.434,0-0.65-0.217-0.65-0.65
			s0.217-0.651,0.65-0.651h2.602c0.545,0,1.007-0.188,1.385-0.566s0.567-0.839,0.567-1.385v-1.301c0-0.539-0.191-0.999-0.572-1.38
			c-0.381-0.381-0.841-0.572-1.38-0.572h-2.602C619.373,541.966,619.156,541.749,619.156,541.315z"/>
		<path style="fill:#5B5D65;" d="M629.564,547.17c0.434,0,0.65,0.214,0.65,0.641c0,0.059-0.223,0.982-0.67,2.77
			c-0.079,0.329-0.29,0.493-0.631,0.493c-0.434,0-0.65-0.217-0.65-0.65c0-0.296,0.223-1.216,0.67-2.76
			C629.026,547.334,629.236,547.17,629.564,547.17z"/>
		<path style="fill:#5B5D65;" d="M636.07,541.966h-1.301c-0.434,0-0.65-0.217-0.65-0.65s0.217-0.65,0.65-0.65h1.301
			c0.545,0,1.007-0.189,1.385-0.567s0.567-0.839,0.567-1.385c0-0.539-0.191-0.999-0.572-1.38c-0.381-0.381-0.841-0.572-1.38-0.572
			h-2.602c-0.434,0-0.65-0.217-0.65-0.65c0-0.434,0.217-0.651,0.65-0.651h2.602c0.9,0,1.667,0.319,2.301,0.956
			c0.634,0.638,0.951,1.403,0.951,2.297c0,1.078-0.434,1.945-1.301,2.602c0.867,0.657,1.301,1.524,1.301,2.602v1.301
			c0,0.9-0.318,1.667-0.956,2.301c-0.637,0.634-1.403,0.951-2.296,0.951h-2.602c-0.434,0-0.65-0.217-0.65-0.65
			s0.217-0.651,0.65-0.651h2.602c0.545,0,1.007-0.188,1.385-0.566s0.567-0.839,0.567-1.385v-1.301c0-0.539-0.191-0.999-0.572-1.38
			C637.068,542.157,636.608,541.966,636.07,541.966z"/>
		<path style="fill:#5B5D65;" d="M645.177,541.966h-1.301c-0.434,0-0.65-0.217-0.65-0.65s0.217-0.65,0.65-0.65h1.301
			c0.545,0,1.007-0.189,1.385-0.567s0.567-0.839,0.567-1.385c0-0.539-0.191-0.999-0.572-1.38c-0.381-0.381-0.841-0.572-1.38-0.572
			h-2.602c-0.434,0-0.65-0.217-0.65-0.65c0-0.434,0.217-0.651,0.65-0.651h2.602c0.9,0,1.667,0.319,2.301,0.956
			c0.634,0.638,0.951,1.403,0.951,2.297c0,1.078-0.434,1.945-1.301,2.602c0.867,0.657,1.301,1.524,1.301,2.602v1.301
			c0,0.9-0.318,1.667-0.956,2.301c-0.637,0.634-1.403,0.951-2.296,0.951h-2.602c-0.434,0-0.65-0.217-0.65-0.65
			s0.217-0.651,0.65-0.651h2.602c0.545,0,1.007-0.188,1.385-0.566s0.567-0.839,0.567-1.385v-1.301c0-0.539-0.191-0.999-0.572-1.38
			C646.176,542.157,645.716,541.966,645.177,541.966z"/>
	</g>
	<g>
		<path style="fill:#5B5D65;" d="M558.696,438.457v-5.204c0-0.434,0.217-0.651,0.65-0.651h4.554c0.434,0,0.65,0.217,0.65,0.651
			c0,0.434-0.217,0.65-0.65,0.65h-3.903v3.903h1.952c0.9,0,1.667,0.318,2.301,0.956c0.634,0.637,0.951,1.403,0.951,2.296v1.301
			c0,0.9-0.318,1.667-0.956,2.301c-0.637,0.634-1.403,0.951-2.296,0.951h-2.602c-0.434,0-0.65-0.217-0.65-0.65
			s0.217-0.651,0.65-0.651h2.602c0.545,0,1.007-0.188,1.385-0.566s0.567-0.839,0.567-1.385v-1.301c0-0.539-0.191-0.999-0.572-1.38
			c-0.381-0.381-0.841-0.572-1.38-0.572h-2.602C558.912,439.108,558.696,438.891,558.696,438.457z"/>
		<path style="fill:#5B5D65;" d="M569.104,444.312c0.434,0,0.65,0.214,0.65,0.641c0,0.059-0.223,0.982-0.67,2.77
			c-0.079,0.329-0.29,0.493-0.631,0.493c-0.434,0-0.65-0.217-0.65-0.65c0-0.296,0.223-1.216,0.67-2.76
			C568.565,444.477,568.775,444.312,569.104,444.312z"/>
		<path style="fill:#5B5D65;" d="M572.357,442.361c0-0.072,0.006-0.131,0.02-0.178l2.602-9.107c0.092-0.315,0.302-0.473,0.631-0.473
			c0.434,0,0.65,0.218,0.65,0.652c0,0.059-0.008,0.122-0.022,0.188l-2.373,8.268h3.046v-1.952c0-0.434,0.217-0.65,0.65-0.65
			s0.65,0.217,0.65,0.65v1.952h1.301c0.434,0,0.65,0.217,0.65,0.651c0,0.434-0.217,0.65-0.65,0.65h-1.301v1.952
			c0,0.434-0.217,0.65-0.65,0.65s-0.65-0.217-0.65-0.65v-1.952h-3.903C572.573,443.011,572.357,442.794,572.357,442.361z"/>
		<path style="fill:#5B5D65;" d="M589.27,439.108c0,1.551-0.19,2.892-0.571,4.021c-0.559,1.656-1.453,2.484-2.681,2.484
			c-1.229,0-2.123-0.825-2.681-2.474c-0.381-1.13-0.571-2.474-0.571-4.031c0-1.557,0.19-2.901,0.571-4.031
			c0.559-1.649,1.452-2.474,2.681-2.474c1.229,0,2.123,0.828,2.681,2.484C589.08,436.217,589.27,437.557,589.27,439.108z
			 M587.969,439.108c0-1.078-0.115-2.093-0.345-3.045c-0.348-1.439-0.884-2.159-1.606-2.159c-0.716,0-1.249,0.723-1.597,2.168
			c-0.237,0.973-0.355,1.984-0.355,3.036c0,1.071,0.115,2.086,0.345,3.046c0.348,1.439,0.883,2.158,1.606,2.158
			c0.723,0,1.258-0.719,1.606-2.158C587.854,441.194,587.969,440.179,587.969,439.108z"/>
	</g>
	<g>
		<path style="fill:#5B5D65;" d="M719.736,333.669h-1.301c-0.434,0-0.65-0.217-0.65-0.65s0.217-0.65,0.65-0.65h1.301
			c0.545,0,1.007-0.189,1.385-0.567s0.567-0.839,0.567-1.385c0-0.539-0.191-0.999-0.572-1.38c-0.381-0.381-0.841-0.572-1.38-0.572
			h-2.602c-0.434,0-0.65-0.217-0.65-0.65c0-0.434,0.217-0.651,0.65-0.651h2.602c0.9,0,1.667,0.319,2.301,0.956
			c0.634,0.638,0.951,1.403,0.951,2.297c0,1.078-0.434,1.945-1.301,2.602c0.867,0.657,1.301,1.524,1.301,2.602v1.301
			c0,0.9-0.318,1.667-0.956,2.301c-0.637,0.634-1.403,0.951-2.296,0.951h-2.602c-0.434,0-0.65-0.217-0.65-0.65
			s0.217-0.651,0.65-0.651h2.602c0.545,0,1.007-0.188,1.385-0.566s0.567-0.839,0.567-1.385v-1.301c0-0.539-0.191-0.999-0.572-1.38
			C720.734,333.86,720.274,333.669,719.736,333.669z"/>
		<path style="fill:#5B5D65;" d="M726.891,338.873c0.434,0,0.65,0.214,0.65,0.641c0,0.059-0.223,0.982-0.67,2.77
			c-0.079,0.329-0.29,0.493-0.631,0.493c-0.434,0-0.65-0.217-0.65-0.65c0-0.296,0.223-1.216,0.67-2.76
			C726.353,339.038,726.563,338.873,726.891,338.873z"/>
		<path style="fill:#5B5D65;" d="M730.144,333.018v-5.204c0-0.434,0.217-0.651,0.65-0.651h4.554c0.434,0,0.65,0.217,0.65,0.651
			c0,0.434-0.217,0.65-0.65,0.65h-3.903v3.903h1.952c0.9,0,1.667,0.318,2.301,0.956c0.634,0.637,0.951,1.403,0.951,2.296v1.301
			c0,0.9-0.318,1.667-0.956,2.301c-0.637,0.634-1.403,0.951-2.296,0.951h-2.602c-0.434,0-0.65-0.217-0.65-0.65
			s0.217-0.651,0.65-0.651h2.602c0.545,0,1.007-0.188,1.385-0.566s0.567-0.839,0.567-1.385v-1.301c0-0.539-0.191-0.999-0.572-1.38
			c-0.381-0.381-0.841-0.572-1.38-0.572h-2.602C730.361,333.669,730.144,333.452,730.144,333.018z"/>
		<path style="fill:#5B5D65;" d="M743.805,327.164c0.434,0,0.65,0.217,0.65,0.651c0,0.322-0.108,0.509-0.325,0.562
			c-0.966,0.243-1.811,0.822-2.533,1.735c-0.572,0.723-0.904,1.475-0.996,2.257h1.902c0.92,0,1.692,0.315,2.316,0.946
			c0.624,0.631,0.936,1.4,0.936,2.307v1.301c0,0.907-0.317,1.675-0.951,2.306c-0.634,0.631-1.401,0.946-2.301,0.946
			c-0.907,0-1.676-0.313-2.307-0.941c-0.63-0.627-0.946-1.391-0.946-2.292v-3.923c0-1.472,0.489-2.763,1.468-3.874
			c0.762-0.861,1.594-1.472,2.494-1.833C743.47,327.213,743.667,327.164,743.805,327.164z M740.552,333.669v3.253
			c0,0.545,0.189,1.007,0.567,1.385s0.839,0.566,1.385,0.566s1.007-0.19,1.385-0.571c0.378-0.381,0.567-0.841,0.567-1.38v-1.301
			c0-0.545-0.191-1.007-0.572-1.385c-0.381-0.378-0.841-0.567-1.38-0.567H740.552z"/>
	</g>
	<g>
		<path style="fill:#5B5D65;" d="M797.611,560.543l-1.495,1.495c-0.125,0.123-0.277,0.184-0.455,0.184
			c-0.435,0-0.652-0.217-0.652-0.65c0-0.178,0.062-0.329,0.187-0.454l2.543-2.543c0.171-0.171,0.345-0.256,0.522-0.256
			c0.434,0,0.65,0.217,0.65,0.651v11.709c0,0.434-0.217,0.65-0.65,0.65s-0.65-0.217-0.65-0.65V560.543z"/>
		<path style="fill:#5B5D65;" d="M801.514,564.174v-5.204c0-0.434,0.217-0.651,0.65-0.651h4.554c0.434,0,0.65,0.217,0.65,0.651
			c0,0.434-0.217,0.65-0.65,0.65h-3.903v3.903h1.952c0.9,0,1.667,0.318,2.301,0.956c0.634,0.637,0.951,1.403,0.951,2.296v1.301
			c0,0.9-0.318,1.667-0.956,2.301c-0.637,0.634-1.403,0.951-2.296,0.951h-2.602c-0.434,0-0.65-0.217-0.65-0.65
			s0.217-0.651,0.65-0.651h2.602c0.545,0,1.007-0.188,1.385-0.566s0.567-0.839,0.567-1.385v-1.301c0-0.539-0.191-0.999-0.572-1.38
			c-0.381-0.381-0.841-0.572-1.38-0.572h-2.602C801.731,564.825,801.514,564.608,801.514,564.174z"/>
		<path style="fill:#5B5D65;" d="M811.923,570.029c0.434,0,0.65,0.214,0.65,0.641c0,0.059-0.223,0.982-0.67,2.77
			c-0.079,0.329-0.29,0.493-0.631,0.493c-0.434,0-0.65-0.217-0.65-0.65c0-0.296,0.223-1.216,0.67-2.76
			C811.384,570.193,811.594,570.029,811.923,570.029z"/>
		<path style="fill:#5B5D65;" d="M815.176,564.174v-5.204c0-0.434,0.217-0.651,0.65-0.651h4.554c0.434,0,0.65,0.217,0.65,0.651
			c0,0.434-0.217,0.65-0.65,0.65h-3.903v3.903h1.952c0.9,0,1.667,0.318,2.301,0.956c0.634,0.637,0.951,1.403,0.951,2.296v1.301
			c0,0.9-0.318,1.667-0.956,2.301c-0.637,0.634-1.403,0.951-2.296,0.951h-2.602c-0.434,0-0.65-0.217-0.65-0.65
			s0.217-0.651,0.65-0.651h2.602c0.545,0,1.007-0.188,1.385-0.566s0.567-0.839,0.567-1.385v-1.301c0-0.539-0.191-0.999-0.572-1.38
			c-0.381-0.381-0.841-0.572-1.38-0.572h-2.602C815.392,564.825,815.176,564.608,815.176,564.174z"/>
		<path style="fill:#5B5D65;" d="M824.283,564.174v-5.204c0-0.434,0.217-0.651,0.65-0.651h4.554c0.434,0,0.65,0.217,0.65,0.651
			c0,0.434-0.217,0.65-0.65,0.65h-3.903v3.903h1.952c0.9,0,1.667,0.318,2.301,0.956c0.634,0.637,0.951,1.403,0.951,2.296v1.301
			c0,0.9-0.318,1.667-0.956,2.301c-0.637,0.634-1.403,0.951-2.296,0.951h-2.602c-0.434,0-0.65-0.217-0.65-0.65
			s0.217-0.651,0.65-0.651h2.602c0.545,0,1.007-0.188,1.385-0.566s0.567-0.839,0.567-1.385v-1.301c0-0.539-0.191-0.999-0.572-1.38
			c-0.381-0.381-0.841-0.572-1.38-0.572h-2.602C824.5,564.825,824.283,564.608,824.283,564.174z"/>
	</g>
	<g>
		<path style="fill:#5B5D65;" d="M888.953,684.028c0.9,0,1.667,0.317,2.301,0.951c0.634,0.634,0.951,1.401,0.951,2.302
			c0,0.618-0.197,1.242-0.591,1.873l-4.1,6.584h4.041c0.434,0,0.65,0.217,0.65,0.651s-0.217,0.65-0.65,0.65h-5.204
			c-0.434,0-0.65-0.217-0.65-0.65c0-0.131,0.036-0.256,0.109-0.375l4.77-7.659c0.217-0.348,0.326-0.706,0.326-1.074
			c0-0.539-0.191-0.999-0.572-1.379c-0.381-0.381-0.841-0.572-1.38-0.572c-0.736,0-1.416,0.545-2.041,1.636
			c-0.118,0.21-0.305,0.315-0.562,0.315c-0.434,0-0.65-0.217-0.65-0.651c0-0.098,0.02-0.187,0.059-0.266
			C886.568,684.807,887.633,684.028,888.953,684.028z"/>
		<path style="fill:#5B5D65;" d="M896.109,695.738c0.434,0,0.65,0.214,0.65,0.641c0,0.059-0.223,0.982-0.67,2.77
			c-0.079,0.329-0.29,0.493-0.631,0.493c-0.434,0-0.65-0.217-0.65-0.65c0-0.296,0.223-1.216,0.67-2.76
			C895.571,695.902,895.781,695.738,896.109,695.738z"/>
		<path style="fill:#5B5D65;" d="M905.867,690.534c0,1.551-0.19,2.892-0.571,4.021c-0.559,1.656-1.453,2.484-2.681,2.484
			c-1.229,0-2.123-0.825-2.681-2.474c-0.381-1.13-0.571-2.474-0.571-4.031c0-1.557,0.19-2.901,0.571-4.031
			c0.559-1.649,1.452-2.474,2.681-2.474c1.229,0,2.123,0.828,2.681,2.484C905.677,687.643,905.867,688.983,905.867,690.534z
			 M904.566,690.534c0-1.078-0.115-2.093-0.345-3.045c-0.348-1.439-0.884-2.159-1.606-2.159c-0.716,0-1.249,0.723-1.597,2.168
			c-0.237,0.973-0.355,1.984-0.355,3.036c0,1.071,0.115,2.086,0.345,3.046c0.348,1.439,0.883,2.158,1.606,2.158
			c0.723,0,1.258-0.719,1.606-2.158C904.451,692.62,904.566,691.605,904.566,690.534z"/>
		<path style="fill:#5B5D65;" d="M908.469,693.787c0-0.072,0.006-0.131,0.02-0.178l2.602-9.107c0.092-0.315,0.302-0.473,0.631-0.473
			c0.434,0,0.65,0.218,0.65,0.652c0,0.059-0.008,0.122-0.022,0.188l-2.373,8.268h3.046v-1.952c0-0.434,0.217-0.65,0.65-0.65
			s0.65,0.217,0.65,0.65v1.952h1.301c0.434,0,0.65,0.217,0.65,0.651c0,0.434-0.217,0.65-0.65,0.65h-1.301v1.952
			c0,0.434-0.217,0.65-0.65,0.65s-0.65-0.217-0.65-0.65v-1.952h-3.903C908.686,694.437,908.469,694.22,908.469,693.787z"/>
		<path style="fill:#5B5D65;" d="M887.002,714.757c0,1.314,0.128,2.619,0.384,3.913c0.151,0.775,0.44,1.777,0.868,3.006
			c0.033,0.092,0.049,0.171,0.049,0.236c0,0.178-0.066,0.331-0.197,0.458s-0.286,0.192-0.463,0.192c-0.276,0-0.46-0.102-0.552-0.306
			c-0.361-0.775-0.684-1.859-0.966-3.253c-0.283-1.393-0.424-2.809-0.424-4.248s0.141-2.855,0.424-4.248
			c0.282-1.393,0.604-2.477,0.966-3.252c0.092-0.204,0.276-0.306,0.552-0.306c0.44,0,0.661,0.217,0.661,0.65
			c0,0.066-0.017,0.145-0.049,0.237c-0.427,1.229-0.716,2.231-0.868,3.006C887.13,712.139,887.002,713.443,887.002,714.757z"/>
		<path style="fill:#5B5D65;" d="M897.41,714.757c0,1.551-0.19,2.892-0.571,4.021c-0.559,1.656-1.453,2.484-2.681,2.484
			c-1.229,0-2.123-0.825-2.681-2.474c-0.381-1.13-0.571-2.474-0.571-4.031c0-1.557,0.19-2.901,0.571-4.031
			c0.559-1.649,1.452-2.474,2.681-2.474c1.229,0,2.123,0.828,2.681,2.484C897.219,711.866,897.41,713.206,897.41,714.757z
			 M896.109,714.757c0-1.078-0.115-2.093-0.345-3.045c-0.348-1.439-0.884-2.159-1.606-2.159c-0.716,0-1.249,0.723-1.597,2.168
			c-0.237,0.973-0.355,1.984-0.355,3.036c0,1.071,0.115,2.086,0.345,3.046c0.348,1.439,0.883,2.158,1.606,2.158
			c0.723,0,1.258-0.719,1.606-2.158C895.994,716.843,896.109,715.828,896.109,714.757z"/>
		<path style="fill:#5B5D65;" d="M901.313,719.961c0.434,0,0.65,0.214,0.65,0.641c0,0.059-0.223,0.982-0.67,2.77
			c-0.079,0.329-0.29,0.493-0.631,0.493c-0.434,0-0.65-0.217-0.65-0.65c0-0.296,0.223-1.216,0.67-2.76
			C900.775,720.125,900.985,719.961,901.313,719.961z"/>
		<path style="fill:#5B5D65;" d="M909.12,708.251c0.434,0,0.65,0.217,0.65,0.651c0,0.322-0.108,0.509-0.325,0.562
			c-0.966,0.243-1.811,0.822-2.533,1.735c-0.572,0.723-0.904,1.475-0.996,2.257h1.902c0.92,0,1.692,0.315,2.316,0.946
			c0.624,0.631,0.936,1.4,0.936,2.307v1.301c0,0.907-0.317,1.675-0.951,2.306c-0.634,0.631-1.401,0.946-2.301,0.946
			c-0.907,0-1.676-0.313-2.307-0.941c-0.63-0.627-0.946-1.391-0.946-2.292v-3.923c0-1.472,0.489-2.763,1.468-3.874
			c0.762-0.861,1.594-1.472,2.494-1.833C908.784,708.301,908.982,708.251,909.12,708.251z M905.867,714.757v3.253
			c0,0.545,0.189,1.007,0.567,1.385s0.839,0.566,1.385,0.566s1.007-0.19,1.385-0.571c0.378-0.381,0.567-0.841,0.567-1.38v-1.301
			c0-0.545-0.191-1.007-0.572-1.385c-0.381-0.378-0.841-0.567-1.38-0.567H905.867z"/>
		<path style="fill:#5B5D65;" d="M916.276,710.476l-1.495,1.495c-0.125,0.123-0.277,0.184-0.455,0.184
			c-0.435,0-0.652-0.217-0.652-0.65c0-0.178,0.062-0.329,0.187-0.454l2.543-2.543c0.171-0.171,0.345-0.256,0.522-0.256
			c0.434,0,0.65,0.217,0.65,0.651v11.709c0,0.434-0.217,0.65-0.65,0.65s-0.65-0.217-0.65-0.65V710.476z"/>
		<path style="fill:#5B5D65;" d="M921.48,714.757c0-1.314-0.128-2.618-0.384-3.913c-0.145-0.729-0.437-1.731-0.877-3.006
			c-0.026-0.079-0.039-0.158-0.039-0.237c0-0.177,0.065-0.33,0.197-0.458c0.131-0.128,0.286-0.192,0.463-0.192
			c0.276,0,0.46,0.102,0.552,0.306c0.361,0.775,0.684,1.859,0.966,3.252c0.282,1.393,0.424,2.809,0.424,4.248
			s-0.142,2.855-0.424,4.248c-0.283,1.394-0.605,2.478-0.966,3.253c-0.092,0.204-0.276,0.306-0.552,0.306
			c-0.171,0-0.324-0.066-0.458-0.197c-0.135-0.132-0.202-0.283-0.202-0.454c0-0.079,0.013-0.158,0.039-0.236
			c0.44-1.275,0.733-2.277,0.877-3.006C921.352,717.375,921.48,716.071,921.48,714.757z"/>
	</g>
	<g>
		<path style="fill:#5B5D65;" d="M794.293,746.717l-1.495,1.495c-0.125,0.123-0.277,0.184-0.455,0.184
			c-0.435,0-0.652-0.217-0.652-0.65c0-0.178,0.062-0.329,0.187-0.454l2.543-2.543c0.171-0.171,0.345-0.256,0.522-0.256
			c0.434,0,0.65,0.217,0.65,0.651v11.709c0,0.434-0.217,0.65-0.65,0.65s-0.65-0.217-0.65-0.65V746.717z"/>
		<path style="fill:#5B5D65;" d="M801.448,750.998h-1.301c-0.434,0-0.65-0.217-0.65-0.65s0.217-0.65,0.65-0.65h1.301
			c0.545,0,1.007-0.189,1.385-0.567s0.567-0.839,0.567-1.385c0-0.539-0.191-0.999-0.572-1.38c-0.381-0.381-0.841-0.572-1.38-0.572
			h-2.602c-0.434,0-0.65-0.217-0.65-0.65c0-0.434,0.217-0.651,0.65-0.651h2.602c0.9,0,1.667,0.319,2.301,0.956
			c0.634,0.638,0.951,1.403,0.951,2.297c0,1.078-0.434,1.945-1.301,2.602c0.867,0.657,1.301,1.524,1.301,2.602v1.301
			c0,0.9-0.318,1.667-0.956,2.301c-0.637,0.634-1.403,0.951-2.296,0.951h-2.602c-0.434,0-0.65-0.217-0.65-0.65
			s0.217-0.651,0.65-0.651h2.602c0.545,0,1.007-0.188,1.385-0.566s0.567-0.839,0.567-1.385v-1.301c0-0.539-0.191-0.999-0.572-1.38
			C802.447,751.189,801.987,750.998,801.448,750.998z"/>
		<path style="fill:#5B5D65;" d="M808.604,756.203c0.434,0,0.65,0.214,0.65,0.641c0,0.059-0.223,0.982-0.67,2.77
			c-0.079,0.329-0.29,0.493-0.631,0.493c-0.434,0-0.65-0.217-0.65-0.65c0-0.296,0.223-1.216,0.67-2.76
			C808.066,756.367,808.276,756.203,808.604,756.203z"/>
		<path style="fill:#5B5D65;" d="M815.11,750.998h-1.301c-0.434,0-0.65-0.217-0.65-0.65s0.217-0.65,0.65-0.65h1.301
			c0.545,0,1.007-0.189,1.385-0.567s0.567-0.839,0.567-1.385c0-0.539-0.191-0.999-0.572-1.38c-0.381-0.381-0.841-0.572-1.38-0.572
			h-2.602c-0.434,0-0.65-0.217-0.65-0.65c0-0.434,0.217-0.651,0.65-0.651h2.602c0.9,0,1.667,0.319,2.301,0.956
			c0.634,0.638,0.951,1.403,0.951,2.297c0,1.078-0.434,1.945-1.301,2.602c0.867,0.657,1.301,1.524,1.301,2.602v1.301
			c0,0.9-0.318,1.667-0.956,2.301c-0.637,0.634-1.403,0.951-2.296,0.951h-2.602c-0.434,0-0.65-0.217-0.65-0.65
			s0.217-0.651,0.65-0.651h2.602c0.545,0,1.007-0.188,1.385-0.566s0.567-0.839,0.567-1.385v-1.301c0-0.539-0.191-0.999-0.572-1.38
			C816.108,751.189,815.648,750.998,815.11,750.998z"/>
		<path style="fill:#5B5D65;" d="M824.217,744.493c0.9,0,1.667,0.317,2.301,0.951c0.634,0.634,0.951,1.401,0.951,2.302
			c0,0.618-0.197,1.242-0.591,1.873l-4.1,6.584h4.041c0.434,0,0.65,0.217,0.65,0.651s-0.217,0.65-0.65,0.65h-5.204
			c-0.434,0-0.65-0.217-0.65-0.65c0-0.131,0.036-0.256,0.109-0.375l4.77-7.659c0.217-0.348,0.326-0.706,0.326-1.074
			c0-0.539-0.191-0.999-0.572-1.379c-0.381-0.381-0.841-0.572-1.38-0.572c-0.736,0-1.416,0.545-2.041,1.636
			c-0.118,0.21-0.305,0.315-0.562,0.315c-0.434,0-0.65-0.217-0.65-0.651c0-0.098,0.02-0.187,0.059-0.266
			C821.832,745.272,822.896,744.493,824.217,744.493z"/>
	</g>
	<g>
		<path style="fill:#5B5D65;" d="M505.543,705.784c0.9,0,1.667,0.317,2.301,0.951c0.634,0.634,0.951,1.401,0.951,2.302
			c0,0.618-0.197,1.242-0.591,1.873l-4.1,6.584h4.041c0.434,0,0.65,0.217,0.65,0.651s-0.217,0.65-0.65,0.65h-5.204
			c-0.434,0-0.65-0.217-0.65-0.65c0-0.131,0.036-0.256,0.109-0.375l4.77-7.659c0.217-0.348,0.326-0.706,0.326-1.074
			c0-0.539-0.191-0.999-0.572-1.379c-0.381-0.381-0.841-0.572-1.38-0.572c-0.736,0-1.416,0.545-2.041,1.636
			c-0.118,0.21-0.305,0.315-0.562,0.315c-0.434,0-0.65-0.217-0.65-0.651c0-0.098,0.02-0.187,0.059-0.266
			C503.157,706.563,504.222,705.784,505.543,705.784z"/>
		<path style="fill:#5B5D65;" d="M512.698,717.494c0.434,0,0.65,0.214,0.65,0.641c0,0.059-0.223,0.982-0.67,2.77
			c-0.079,0.329-0.29,0.493-0.631,0.493c-0.434,0-0.65-0.217-0.65-0.65c0-0.296,0.223-1.216,0.67-2.76
			C512.16,717.658,512.37,717.494,512.698,717.494z"/>
		<path style="fill:#5B5D65;" d="M517.903,718.795c-0.171,0-0.322-0.065-0.453-0.197c-0.132-0.131-0.197-0.282-0.197-0.453
			c0-0.302,0.108-0.49,0.325-0.562c0.473-0.158,0.868-0.338,1.183-0.542c1.399-0.907,2.181-2.057,2.346-3.45h-1.902
			c-0.9,0-1.667-0.317-2.301-0.951c-0.634-0.634-0.951-1.401-0.951-2.302v-1.301c0-0.9,0.317-1.667,0.951-2.302
			c0.634-0.634,1.401-0.951,2.301-0.951c0.907,0,1.676,0.314,2.307,0.941c0.63,0.627,0.946,1.392,0.946,2.292v3.923
			c0,2.208-1.028,3.953-3.085,5.234C518.708,718.588,518.218,718.795,517.903,718.795z M521.156,712.289v-3.252
			c0-0.539-0.191-0.999-0.572-1.38c-0.381-0.381-0.841-0.572-1.38-0.572c-0.539,0-0.999,0.19-1.38,0.572
			c-0.381,0.381-0.572,0.841-0.572,1.38v1.301c0,0.545,0.189,1.007,0.567,1.385c0.378,0.378,0.839,0.567,1.385,0.567H521.156z"/>
		<path style="fill:#5B5D65;" d="M528.311,718.795c-0.9,0-1.667-0.317-2.301-0.951c-0.634-0.634-0.951-1.401-0.951-2.301v-1.301
			c0-1.078,0.434-1.945,1.301-2.602c-0.867-0.657-1.301-1.524-1.301-2.602c0-0.9,0.317-1.667,0.951-2.302
			c0.634-0.634,1.401-0.951,2.301-0.951s1.667,0.317,2.301,0.951c0.634,0.634,0.951,1.401,0.951,2.302
			c0,1.078-0.434,1.945-1.301,2.602c0.624,0.473,1.019,1.055,1.183,1.745c0.079,0.348,0.118,1.068,0.118,2.159
			c0,0.9-0.317,1.667-0.951,2.301C529.979,718.478,529.212,718.795,528.311,718.795z M528.311,710.989
			c0.545,0,1.007-0.189,1.385-0.567s0.567-0.839,0.567-1.385c0-0.539-0.191-0.999-0.572-1.38c-0.381-0.381-0.841-0.572-1.38-0.572
			c-0.545,0-1.007,0.189-1.385,0.567s-0.567,0.839-0.567,1.385s0.189,1.007,0.567,1.385S527.766,710.989,528.311,710.989z
			 M528.311,717.494c0.545,0,1.007-0.188,1.385-0.566s0.567-0.839,0.567-1.385v-1.301c0-0.539-0.191-0.999-0.572-1.38
			c-0.381-0.381-0.841-0.572-1.38-0.572c-0.545,0-1.007,0.189-1.385,0.567s-0.567,0.839-0.567,1.385v1.301
			c0,0.545,0.189,1.007,0.567,1.385S527.766,717.494,528.311,717.494z"/>
	</g>
	<g>
		<path style="fill:#5B5D65;" d="M376.14,698.78c0.9,0,1.667,0.317,2.301,0.951c0.634,0.634,0.951,1.401,0.951,2.302
			c0,0.618-0.197,1.242-0.591,1.873l-4.1,6.584h4.041c0.434,0,0.65,0.217,0.65,0.651s-0.217,0.65-0.65,0.65h-5.204
			c-0.434,0-0.65-0.217-0.65-0.65c0-0.131,0.036-0.256,0.109-0.375l4.77-7.659c0.217-0.348,0.326-0.706,0.326-1.074
			c0-0.539-0.191-0.999-0.572-1.379c-0.381-0.381-0.841-0.572-1.38-0.572c-0.736,0-1.416,0.545-2.041,1.636
			c-0.118,0.21-0.305,0.315-0.562,0.315c-0.434,0-0.65-0.217-0.65-0.651c0-0.098,0.02-0.187,0.059-0.266
			C373.755,699.559,374.82,698.78,376.14,698.78z"/>
		<path style="fill:#5B5D65;" d="M383.296,710.489c0.434,0,0.65,0.214,0.65,0.641c0,0.059-0.223,0.982-0.67,2.77
			c-0.079,0.329-0.29,0.493-0.631,0.493c-0.434,0-0.65-0.217-0.65-0.65c0-0.296,0.223-1.216,0.67-2.76
			C382.758,710.654,382.968,710.489,383.296,710.489z"/>
		<path style="fill:#5B5D65;" d="M391.103,698.78c0.434,0,0.65,0.217,0.65,0.651c0,0.322-0.108,0.509-0.325,0.562
			c-0.966,0.243-1.811,0.822-2.533,1.735c-0.572,0.723-0.904,1.475-0.996,2.257h1.902c0.92,0,1.692,0.315,2.316,0.946
			c0.624,0.631,0.936,1.4,0.936,2.307v1.301c0,0.907-0.317,1.675-0.951,2.306c-0.634,0.631-1.401,0.946-2.301,0.946
			c-0.907,0-1.676-0.313-2.307-0.941c-0.63-0.627-0.946-1.391-0.946-2.292v-3.923c0-1.472,0.489-2.763,1.468-3.874
			c0.762-0.861,1.594-1.472,2.494-1.833C390.767,698.829,390.965,698.78,391.103,698.78z M387.85,705.285v3.253
			c0,0.545,0.189,1.007,0.567,1.385s0.839,0.566,1.385,0.566s1.007-0.19,1.385-0.571c0.378-0.381,0.567-0.841,0.567-1.38v-1.301
			c0-0.545-0.191-1.007-0.572-1.385c-0.381-0.378-0.841-0.567-1.38-0.567H387.85z"/>
		<path style="fill:#5B5D65;" d="M395.656,708.538c0-0.072,0.006-0.131,0.02-0.178l2.602-9.107c0.092-0.315,0.302-0.473,0.631-0.473
			c0.434,0,0.65,0.218,0.65,0.652c0,0.059-0.008,0.122-0.022,0.188l-2.373,8.268h3.046v-1.952c0-0.434,0.217-0.65,0.65-0.65
			s0.65,0.217,0.65,0.65v1.952h1.301c0.434,0,0.65,0.217,0.65,0.651c0,0.434-0.217,0.65-0.65,0.65h-1.301v1.952
			c0,0.434-0.217,0.65-0.65,0.65s-0.65-0.217-0.65-0.65v-1.952h-3.903C395.873,709.188,395.656,708.972,395.656,708.538z"/>
	</g>
	<g>
		<path style="fill:#5B5D65;" d="M51.245,731.602l-1.495,1.495c-0.125,0.123-0.277,0.184-0.455,0.184
			c-0.435,0-0.652-0.217-0.652-0.65c0-0.178,0.062-0.329,0.187-0.454l2.543-2.543c0.171-0.171,0.345-0.256,0.522-0.256
			c0.434,0,0.65,0.217,0.65,0.651v11.709c0,0.434-0.217,0.65-0.65,0.65s-0.65-0.217-0.65-0.65V731.602z"/>
		<path style="fill:#5B5D65;" d="M58.401,735.883h-1.301c-0.434,0-0.65-0.217-0.65-0.65s0.217-0.65,0.65-0.65h1.301
			c0.545,0,1.007-0.189,1.385-0.567s0.567-0.839,0.567-1.385c0-0.539-0.191-0.999-0.572-1.38c-0.381-0.381-0.841-0.572-1.38-0.572
			h-2.602c-0.434,0-0.65-0.217-0.65-0.65c0-0.434,0.217-0.651,0.65-0.651h2.602c0.9,0,1.667,0.319,2.301,0.956
			c0.634,0.638,0.951,1.403,0.951,2.297c0,1.078-0.434,1.945-1.301,2.602c0.867,0.657,1.301,1.524,1.301,2.602v1.301
			c0,0.9-0.318,1.667-0.956,2.301c-0.637,0.634-1.403,0.951-2.296,0.951h-2.602c-0.434,0-0.65-0.217-0.65-0.65
			s0.217-0.651,0.65-0.651h2.602c0.545,0,1.007-0.188,1.385-0.566s0.567-0.839,0.567-1.385v-1.301c0-0.539-0.191-0.999-0.572-1.38
			C59.399,736.074,58.939,735.883,58.401,735.883z"/>
		<path style="fill:#5B5D65;" d="M65.556,741.087c0.434,0,0.65,0.214,0.65,0.641c0,0.059-0.223,0.982-0.67,2.77
			c-0.079,0.329-0.29,0.493-0.631,0.493c-0.434,0-0.65-0.217-0.65-0.65c0-0.296,0.223-1.216,0.67-2.76
			C65.018,741.252,65.228,741.087,65.556,741.087z"/>
		<path style="fill:#5B5D65;" d="M72.547,736.534l-0.484,0c-0.435,0-0.652-0.217-0.652-0.65s0.216-0.65,0.648-0.65l0.767-0.001
			l1.021-4.553H69.46c-0.434,0-0.65-0.217-0.65-0.65c0-0.434,0.217-0.651,0.65-0.651h5.204c0.427,0,0.644,0.21,0.65,0.631
			c0,0.04-0.006,0.092-0.02,0.158l-1.126,5.066l0.494,0c0.434,0,0.651,0.217,0.651,0.65s-0.217,0.65-0.653,0.65l-0.791-0.001
			l-1.178,5.343c-0.079,0.342-0.286,0.513-0.621,0.513c-0.44,0-0.66-0.217-0.66-0.65c0-0.065,0.004-0.115,0.012-0.147
			L72.547,736.534z"/>
		<path style="fill:#5B5D65;" d="M81.169,742.389c-0.9,0-1.667-0.317-2.301-0.951c-0.634-0.634-0.951-1.401-0.951-2.301v-1.301
			c0-1.078,0.434-1.945,1.301-2.602c-0.867-0.657-1.301-1.524-1.301-2.602c0-0.9,0.317-1.667,0.951-2.302
			c0.634-0.634,1.401-0.951,2.301-0.951s1.667,0.317,2.301,0.951c0.634,0.634,0.951,1.401,0.951,2.302
			c0,1.078-0.434,1.945-1.301,2.602c0.624,0.473,1.019,1.055,1.183,1.745c0.079,0.348,0.118,1.068,0.118,2.159
			c0,0.9-0.317,1.667-0.951,2.301C82.837,742.072,82.07,742.389,81.169,742.389z M81.169,734.582c0.545,0,1.007-0.189,1.385-0.567
			s0.567-0.839,0.567-1.385c0-0.539-0.191-0.999-0.572-1.38c-0.381-0.381-0.841-0.572-1.38-0.572c-0.545,0-1.007,0.189-1.385,0.567
			s-0.567,0.839-0.567,1.385s0.189,1.007,0.567,1.385S80.624,734.582,81.169,734.582z M81.169,741.087
			c0.545,0,1.007-0.188,1.385-0.566s0.567-0.839,0.567-1.385v-1.301c0-0.539-0.191-0.999-0.572-1.38
			c-0.381-0.381-0.841-0.572-1.38-0.572c-0.545,0-1.007,0.189-1.385,0.567s-0.567,0.839-0.567,1.385v1.301
			c0,0.545,0.189,1.007,0.567,1.385S80.624,741.087,81.169,741.087z"/>
	</g>
</g>
<g id="&#x442;&#x430;&#x431;&#x43B;&#x438;&#x447;&#x43A;&#x438;">
</g>
<g id="&#x44D;&#x442;&#x430;&#x436;_x2C__&#x441;&#x435;&#x43A;&#x446;&#x438;&#x438;">
</g>
<g id="&#x421;&#x43B;&#x43E;&#x439;_12">
</g>
</svg>
